<svg width="30" height="30" viewBox="0 0 30 30" fill="none" xmlns="http://www.w3.org/2000/svg">
<path d="M0.92357 5.11228H4.95797V4.01952H0L0.00496269 5.11228C0.0585183 9.39114 1.01578 13.4042 2.71786 16.4485C4.5203 19.6714 6.94981 21.445 9.56127 21.445V20.57C4.86575 20.5703 1.03458 13.6707 0.92357 5.11228Z" fill="#ADADAD"/>
<path d="M19.3116 25.3263C19.3013 25.3232 17.2917 24.2089 15.0413 24.2089C13.1176 24.2089 10.7874 25.3232 10.7764 25.3263C6.02803 27.7009 6.39654 29.4542 6.40718 29.4971C6.46889 29.7858 6.73064 29.9999 7.04027 29.9999H15.0445H23.0481C23.357 29.9999 23.6195 29.7858 23.6819 29.4971C23.6918 29.4539 24.0603 27.7009 19.3116 25.3263Z" fill="#616161"/>
<path d="M25.4644 1.97952C25.4644 1.94778 25.4265 1.77049 25.4063 1.72794C25.396 1.70633 25.3839 1.68539 25.3715 1.66479C25.2502 1.47569 25.0232 1.34635 24.764 1.34635H5.32293C5.06437 1.34635 4.83703 1.47602 4.71573 1.66479C4.70438 1.68539 4.69161 1.70599 4.68097 1.72794C4.66182 1.77049 4.62351 1.94778 4.62351 1.97952C4.62351 1.97952 4.45292 6.48362 7.42366 16.2293C9.21263 22.1017 10.6618 24.0833 12.493 24.0833H17.595C19.4258 24.0833 20.875 22.1017 22.6643 16.2293C25.6347 6.48362 25.4644 1.97952 25.4644 1.97952Z" fill="#ADADAD"/>
<path d="M8.75159 20.025C9.98514 22.9893 11.1339 24.0837 12.4934 24.0837H17.5954C19.4262 24.0837 20.8754 22.1022 22.6647 16.2298C24.4338 10.4272 25.0885 6.4837 25.329 4.24145C19.8028 9.50265 14.2774 14.7638 8.75159 20.025Z" fill="#616161"/>
<path d="M18.2351 24.3862C18.2351 24.5932 18.0585 24.7611 17.8425 24.7611H12.2464C12.0297 24.7611 11.8538 24.5932 11.8538 24.3862C11.8538 24.2829 11.896 24.19 11.9684 24.1222C12.0404 24.0543 12.1386 24.0117 12.2461 24.0117H17.8421C18.0585 24.0114 18.2351 24.1796 18.2351 24.3862Z" fill="#ADADAD"/>
<path d="M25.043 4.01955V5.11231H29.0767C28.9653 13.6707 25.1345 20.57 20.439 20.57V21.445C23.0504 21.445 25.4806 19.6714 27.2817 16.4485C28.9837 13.4039 29.9403 9.39117 29.9949 5.11231L29.9999 4.01955H25.043Z" fill="#616161"/>
<path d="M26.448 1.13058C26.448 1.75497 25.9167 2.26083 25.2606 2.26083H4.73958C4.08379 2.26083 3.55249 1.75497 3.55249 1.13058C3.55249 0.506197 4.08379 0 4.73958 0H25.2606C25.9167 0.000337689 26.448 0.506535 26.448 1.13058Z" fill="#616161"/>
</svg>
