<svg width="9" height="26" viewBox="0 0 9 26" fill="none" xmlns="http://www.w3.org/2000/svg">
<path d="M8.45312 0.78125L7.17188 17.2188H1.39062L0.796875 0.78125H8.45312ZM7.42188 22.0312C7.42188 22.4896 7.33333 22.9167 7.15625 23.3125C6.97917 23.7083 6.73958 24.0521 6.4375 24.3438C6.14583 24.6458 5.80208 24.8802 5.40625 25.0469C5.01042 25.224 4.58854 25.3125 4.14062 25.3125C3.68229 25.3125 3.25521 25.224 2.85938 25.0469C2.46354 24.8802 2.11458 24.6458 1.8125 24.3438C1.52083 24.0521 1.28646 23.7083 1.10938 23.3125C0.942708 22.9167 0.859375 22.4896 0.859375 22.0312C0.859375 21.5833 0.942708 21.1562 1.10938 20.75C1.28646 20.3438 1.52083 19.9948 1.8125 19.7031C2.11458 19.401 2.46354 19.1615 2.85938 18.9844C3.25521 18.8073 3.68229 18.7188 4.14062 18.7188C4.58854 18.7188 5.01042 18.8073 5.40625 18.9844C5.80208 19.1615 6.14583 19.401 6.4375 19.7031C6.73958 19.9948 6.97917 20.3438 7.15625 20.75C7.33333 21.1562 7.42188 21.5833 7.42188 22.0312Z" fill="white"/>
</svg>
