<svg width="66" height="67" viewBox="0 0 66 67" fill="none" xmlns="http://www.w3.org/2000/svg">
<path d="M63.593 29.5256V61.3219H64.7289C65.3561 61.3219 65.8642 61.8305 65.8642 62.4577V65.8642C65.8642 66.4914 65.3561 67 64.7289 67H1.13582C0.508614 67 0 66.4914 0 65.8642V62.4577C0 61.8305 0.508614 61.3219 1.13582 61.3219H2.27113V29.5256H63.593Z" fill="#FFBA6E"/>
<path d="M24.9829 0H43.1524C50.0568 0 55.6439 2.67751 55.6439 5.97659C55.5846 7.07203 55.0596 8.08977 54.2019 8.77371C53.681 9.2399 53.3799 9.90391 53.3727 10.6032V22.7118H35.2032L24.9829 0Z" fill="#937661"/>
<path d="M37.4743 6.81342C37.4079 7.86848 36.8804 8.84021 36.0323 9.47099C35.5171 9.90242 35.2145 10.5363 35.2032 11.2085V22.7118H14.7626V11.2085C14.7518 10.5363 14.4492 9.90242 13.934 9.47099C13.0859 8.84021 12.5584 7.86848 12.4915 6.81342C12.4915 3.67944 18.0785 1.13586 24.9829 1.13586C31.8873 1.13586 37.4743 3.67944 37.4743 6.81342Z" fill="#F4D0B5"/>
<path d="M1.13582 61.3219H39.746V67H1.13582C0.508614 67 0 66.4914 0 65.8642V62.4577C0 61.8305 0.508614 61.3219 1.13582 61.3219Z" fill="#937661"/>
<path d="M9.08453 39.746H32.9321C33.5593 39.746 34.0679 40.2541 34.0679 40.8813V55.6439C34.0679 56.2711 33.5593 56.7797 32.9321 56.7797H9.08453C8.45783 56.7797 7.94922 56.2711 7.94922 55.6439V40.8813C7.94922 40.2541 8.45783 39.746 9.08453 39.746Z" fill="#4FC0E8"/>
<path d="M57.9155 61.3219H64.7289C65.3561 61.3219 65.8642 61.8305 65.8642 62.4577V65.8642C65.8642 66.4914 65.3561 67 64.7289 67H57.9155V61.3219Z" fill="#937661"/>
<path d="M40.8813 39.746H56.7797C57.4069 39.746 57.9155 40.2541 57.9155 40.8813V67H39.746V40.8813C39.746 40.2541 40.2541 39.746 40.8813 39.746Z" fill="#4FC0E8"/>
<path d="M9.08447 27.254V31.9103L5.48482 35.0673C5.26808 35.2487 4.95218 35.2487 4.73544 35.0673L1.3285 32.0805C1.20275 31.9731 1.1317 31.8147 1.13579 31.6491V27.254H9.08447Z" fill="#F76C82"/>
<path d="M17.0337 27.254V31.9103L13.434 35.0673C13.2173 35.2487 12.9014 35.2487 12.6846 35.0673L9.08447 31.9103V27.254H17.0337Z" fill="#FFD67B"/>
<path d="M24.9829 27.254V31.9103L21.3832 35.0673C21.1665 35.2487 20.8506 35.2487 20.6339 35.0673L17.0337 31.9103V27.254H24.9829Z" fill="#F76C82"/>
<path d="M32.9321 27.254V31.9103L29.3325 35.0673C29.1157 35.2487 28.7998 35.2487 28.5831 35.0673L24.9829 31.9103V27.254H32.9321Z" fill="#FFD67B"/>
<path d="M40.8813 27.254V31.9103L37.2817 35.0673C37.0649 35.2487 36.749 35.2487 36.5323 35.0673L32.9321 31.9103V27.254H40.8813Z" fill="#F76C82"/>
<path d="M48.8305 27.254V31.9103L45.2309 35.0673C45.0142 35.2487 44.6982 35.2487 44.481 35.0673L40.8813 31.9103V27.254H48.8305Z" fill="#FFD67B"/>
<path d="M56.7796 27.254V31.9103L53.18 35.0673C52.9627 35.2487 52.6473 35.2487 52.4301 35.0673L48.8304 31.9103V27.254H56.7796Z" fill="#F76C82"/>
<path d="M64.7289 27.254V31.6491C64.7324 31.8147 64.6614 31.9731 64.5356 32.0805L61.1292 35.0673C60.912 35.2487 60.5966 35.2487 60.3793 35.0673L56.7797 31.9103V27.254H64.7289Z" fill="#FFD67B"/>
<path d="M45.4235 51.1016H47.6946C48.3218 51.1016 48.8305 51.6102 48.8305 52.2374V57.9155C48.8305 58.5421 48.3218 59.0508 47.6946 59.0508H45.4235C44.7963 59.0508 44.2882 58.5421 44.2882 57.9155V52.2374C44.2882 51.6102 44.7963 51.1016 45.4235 51.1016Z" fill="#F4F6F8"/>
<path d="M7.94922 47.6947H34.0679V49.9663H7.94922V47.6947Z" fill="#3AADD9"/>
<path d="M12.4915 45.4236C12.4915 44.1697 13.5082 43.1525 14.7626 43.1525C16.017 43.1525 17.0337 44.1697 17.0337 45.4236V47.6947H12.4915V45.4236Z" fill="#FFD67B"/>
<path d="M21.5764 45.4236C21.5764 44.1697 22.5931 43.1525 23.8475 43.1525C25.102 43.1525 26.1187 44.1697 26.1187 45.4236V47.6947H21.5764V45.4236Z" fill="#FFD67B"/>
<path d="M15.8984 54.5086C15.8984 53.2541 16.9152 52.2374 18.1696 52.2374C19.424 52.2374 20.4407 53.2541 20.4407 54.5086V56.7797H15.8984V54.5086Z" fill="#FFD67B"/>
<path d="M24.9829 54.5086C24.9829 53.2541 26.0001 52.2374 27.254 52.2374C28.5084 52.2374 29.5257 53.2541 29.5257 54.5086V56.7797H24.9829V54.5086Z" fill="#FFD67B"/>
<path d="M64.7289 27.254H56.7797L53.3728 21.5764H59.0964C59.7854 21.5779 60.4367 21.8908 60.8681 22.428L64.7289 27.254Z" fill="#FDCD56"/>
<path d="M56.7797 27.254H48.8305L45.4236 21.5764H53.3728L56.7797 27.254Z" fill="#EB5463"/>
<path d="M48.8304 27.254H40.8812L38.6101 21.5764H45.4235L48.8304 27.254Z" fill="#FDCD56"/>
<path d="M40.8813 27.254H32.9321V21.5764H38.6102L40.8813 27.254Z" fill="#EB5463"/>
<path d="M32.9321 21.5764V27.254H24.9829L27.254 21.5764H32.9321Z" fill="#FDCD56"/>
<path d="M27.254 21.5764L24.9829 27.254H17.0337L20.4406 21.5764H27.254Z" fill="#EB5463"/>
<path d="M20.4406 21.5764L19.0778 23.8475L17.0337 27.254H9.08447L12.4914 21.5764H20.4406Z" fill="#FDCD56"/>
<path d="M12.4915 21.5764L9.08455 27.254H1.13586L4.99673 22.428C5.42815 21.8908 6.07938 21.5779 6.76793 21.5764H12.4915Z" fill="#EB5463"/>
<path d="M55.6439 5.97301C55.5846 7.07101 55.0601 8.0913 54.2019 8.77831C53.681 9.24399 53.3804 9.90749 53.3728 10.6063V21.5765H51.1016L51.0168 10.2259C51.0239 9.52717 51.3245 8.86368 51.8454 8.39749C52.7037 7.71048 53.2281 6.69018 53.2879 5.5927C53.2879 2.29975 47.32 0 40.4156 0H43.1525C50.0568 0 55.6439 2.68006 55.6439 5.97301Z" fill="#846855"/>
<path d="M63.593 32.9095V61.3219H61.3219V34.897L63.593 32.9095Z" fill="#FAB153"/>
<path d="M65.8642 62.4577V65.8642C65.8642 66.4914 65.3561 67 64.7289 67H62.4578C63.085 67 63.5931 66.4914 63.5931 65.8642V62.4577C63.5931 61.8305 63.085 61.3219 62.4578 61.3219H64.7289C65.3561 61.3219 65.8642 61.8305 65.8642 62.4577Z" fill="#846855"/>
<path d="M64.7288 27.254V31.6491C64.7324 31.8147 64.6613 31.9731 64.5356 32.0805L63.593 32.9096L61.3219 34.897L61.1292 35.0673C60.9119 35.2487 60.5965 35.2487 60.3793 35.0673L59.6187 34.3971L61.3219 32.9096L62.2645 32.0805C62.3902 31.9731 62.4613 31.8147 62.4577 31.6491V27.254H64.7288Z" fill="#FDCD56"/>
<path d="M64.7289 27.254H62.4578L58.5964 22.428C58.165 21.8908 57.5137 21.5779 56.8252 21.5764H59.0963C59.7854 21.5779 60.4366 21.8908 60.868 22.428L64.7289 27.254Z" fill="#F5B945"/>
<path d="M43.1524 39.746C42.5252 39.746 42.0171 40.2541 42.0171 40.8813V67H39.746V40.8813C39.746 40.2541 40.2541 39.746 40.8813 39.746H43.1524Z" fill="#3AADD9"/>
<path d="M20.4406 10.2204C20.1396 10.2204 19.8508 10.1008 19.6376 9.88762L18.5023 8.75231C18.0719 8.30657 18.078 7.59809 18.5161 7.16002C18.9542 6.72194 19.6621 6.71581 20.1079 7.14621L21.2437 8.28203C21.5683 8.60662 21.6654 9.0953 21.4896 9.51957C21.3137 9.94384 20.8997 10.2204 20.4406 10.2204Z" fill="#E3B692"/>
<path d="M21.5764 17.0337C21.2748 17.0337 20.9865 16.9141 20.7733 16.7009L19.6375 15.5656C19.2076 15.1199 19.2138 14.4119 19.6513 13.9739C20.0894 13.5358 20.7979 13.5297 21.2436 13.9601L22.3789 15.0954C22.7035 15.4205 22.8006 15.9086 22.6253 16.3329C22.4495 16.7572 22.0354 17.0337 21.5764 17.0337Z" fill="#E3B692"/>
<path d="M26.1187 13.6272C25.8177 13.6272 25.5289 13.5071 25.3157 13.2945L24.1804 12.1587C23.75 11.7134 23.7561 11.0049 24.1942 10.5669C24.6323 10.1288 25.3402 10.1227 25.786 10.5531L26.9218 11.6889C27.2464 12.0135 27.3435 12.5017 27.1677 12.9259C26.9918 13.3502 26.5778 13.6272 26.1187 13.6272Z" fill="#E3B692"/>
<path d="M30.661 18.1695C30.3599 18.1695 30.0711 18.0499 29.8579 17.8367L28.7226 16.7009C28.2922 16.2557 28.2984 15.5472 28.7364 15.1091C29.1745 14.671 29.8825 14.6649 30.3282 15.0953L31.464 16.2311C31.7886 16.5557 31.8857 17.0439 31.7099 17.4682C31.5341 17.8924 31.12 18.1695 30.661 18.1695Z" fill="#E3B692"/>
<path d="M29.5256 9.0845C29.224 9.0845 28.9352 8.96489 28.7226 8.75224L27.5868 7.61642C27.1564 7.17068 27.1625 6.46271 27.6006 6.02464C28.0386 5.58657 28.7471 5.58043 29.1929 6.01084L30.3282 7.14614C30.6528 7.47125 30.7499 7.95942 30.5746 8.38369C30.3987 8.80796 29.9847 9.0845 29.5256 9.0845Z" fill="#E3B692"/>
<path d="M48.8304 12.4915H39.7459C39.1187 12.4915 38.6101 11.9834 38.6101 11.3562C38.6101 10.729 39.1187 10.2203 39.7459 10.2203H48.8304C49.4576 10.2203 49.9662 10.729 49.9662 11.3562C49.9662 11.9834 49.4576 12.4915 48.8304 12.4915Z" fill="#846855"/>
<path d="M38.6102 6.81338C38.5463 8.20069 37.8731 9.48935 36.7705 10.3338C36.5078 10.55 36.3509 10.8685 36.3391 11.2084V21.5765H34.068V11.2084C34.0797 10.2045 34.5275 9.25523 35.2943 8.60758C35.877 8.18127 36.2558 7.53106 36.3391 6.81338C36.3391 4.66749 31.4789 2.27113 24.983 2.27113C18.4875 2.27113 13.6273 4.66749 13.6273 6.81338C13.7106 7.53106 14.0889 8.18127 14.6722 8.60758C15.4389 9.25523 15.8867 10.2045 15.8985 11.2084V21.5765H13.6273V11.2084C13.614 10.8629 13.4525 10.5403 13.1841 10.3226C12.0872 9.47964 11.4181 8.19558 11.3562 6.81338C11.3562 2.93002 17.2157 0 24.983 0C32.7507 0 38.6102 2.93002 38.6102 6.81338Z" fill="#A38671"/>
</svg>
