<svg width="50" height="49" viewBox="0 0 50 49" fill="none" xmlns="http://www.w3.org/2000/svg">
<path d="M18.8421 49C16.4442 49 14.4938 46.8017 14.4938 44.0999C14.4938 41.3977 16.4442 39.1998 18.8421 39.1998C21.2396 39.1998 23.1899 41.3977 23.1899 44.0999C23.1899 46.8017 21.2396 49 18.8421 49Z" fill="#697C86"/>
<path d="M18.842 45.733C18.0424 45.733 17.3925 45.0011 17.3925 44.0999C17.3925 43.1987 18.0424 42.4664 18.842 42.4664C19.6417 42.4664 20.2912 43.1987 20.2912 44.0999C20.2912 45.0011 19.6417 45.733 18.842 45.733Z" fill="#465A61"/>
<path d="M39.3264 49C36.9289 49 34.9782 46.8017 34.9782 44.0999C34.9782 41.3977 36.9289 39.1998 39.3264 39.1998C41.724 39.1998 43.6747 41.3977 43.6747 44.0999C43.6747 46.8017 41.724 49 39.3264 49Z" fill="#596C76"/>
<path d="M39.3264 45.733C38.5267 45.733 37.8769 45.0011 37.8769 44.0999C37.8769 43.1987 38.5267 42.4664 39.3264 42.4664C40.1261 42.4664 40.7756 43.1987 40.7756 44.0999C40.7756 45.0011 40.1261 45.733 39.3264 45.733Z" fill="#3B4A51"/>
<path d="M43.9064 37.5663C43.9064 38.4811 43.2686 39.1998 42.4572 39.1998H14.7259C12.3197 39.1998 10.3777 37.0109 10.3777 34.2997C10.3777 31.8174 12.0008 29.759 14.1459 29.4652C14.3198 29.3997 14.5229 29.3997 14.7259 29.3997C15.0735 29.3997 15.4214 29.5634 15.6535 29.8245L14.7836 32.6667C14.755 32.6667 14.755 32.6667 14.7259 32.6667C13.9142 32.6667 13.2764 33.385 13.2764 34.2997C13.2764 35.2145 13.9142 35.9332 14.7259 35.9332H42.4572C43.2686 35.9332 43.9064 36.6515 43.9064 37.5663Z" fill="#465A61"/>
<path d="M9.61877 6.53699C9.71085 6.66755 11.2717 7.46198 12.8431 8.23982C12.8488 8.09905 12.8646 7.95956 12.8363 7.81581L11.5612 1.28222C11.4151 0.532452 10.8264 0 10.1456 0H1.44953C0.648346 0 0 0.730633 0 1.6335C0 2.53595 0.648346 3.26658 1.44953 3.26658H8.98061L9.61877 6.53699Z" fill="#465A61"/>
<path d="M43.9064 37.5663C43.9064 38.4811 43.2686 39.1998 42.4573 39.1998H28.8231V35.9333H42.4573C43.2686 35.9333 43.9064 36.6516 43.9064 37.5663Z" fill="#3B4A51"/>
<path d="M49.1822 7.18681C48.8924 6.76196 48.4863 6.53316 48.0225 6.53316H9.62366L14.1459 29.4651L14.7836 32.6667H42.2251C42.8629 32.6667 43.4426 32.1763 43.6165 31.4903L49.4139 8.62384C49.5301 8.13391 49.443 7.5785 49.1822 7.18681Z" fill="#FDBF00"/>
<path d="M49.414 8.62384L43.6166 31.4903C43.4426 32.1763 42.8629 32.6667 42.2252 32.6667H28.8231V6.53316H48.0225C48.4863 6.53316 48.8924 6.76196 49.1822 7.18681C49.443 7.5785 49.5302 8.13391 49.414 8.62384Z" fill="#FF9F00"/>
</svg>
