<svg width="66" height="64" viewBox="0 0 66 64" fill="none" xmlns="http://www.w3.org/2000/svg">
<path d="M40.9655 35.8608H54.6207C56.4315 35.8608 58.1681 35.1738 59.4485 33.951C60.7289 32.7283 61.4483 31.0699 61.4483 29.3406V15.2137H40.9655V35.8608Z" fill="#784533"/>
<path d="M66 41.2942V58.6812C66 59.834 65.5204 60.9397 64.6668 61.7548C63.8132 62.57 62.6555 63.028 61.4483 63.028H31.8621V41.2942C31.8621 39.8531 32.4615 38.4711 33.5285 37.4522C34.5955 36.4332 36.0427 35.8607 37.5517 35.8607H42.1034C42.707 35.8607 43.2859 35.6318 43.7127 35.2242C44.1395 34.8166 44.3793 34.2638 44.3793 33.6874V26.0805H53.4828V33.6874C53.4828 34.2638 53.7225 34.8166 54.1493 35.2242C54.5761 35.6318 55.155 35.8607 55.7586 35.8607H60.3103C61.8193 35.8607 63.2665 36.4332 64.3335 37.4522C65.4006 38.4711 66 39.8531 66 41.2942Z" fill="#FDC8A2"/>
<path d="M53.4827 24.9938V31.5832C52.0678 32.2525 50.5101 32.6007 48.931 32.6007C47.352 32.6007 45.7943 32.2525 44.3793 31.5832V24.9938H53.4827Z" fill="#FDB683"/>
<path d="M56.8966 35.8607H60.3103C61.8193 35.8607 63.2665 36.4332 64.3335 37.4522C65.4006 38.4711 66 39.8532 66 41.2942V58.6812C66 59.8341 65.5204 60.9397 64.6668 61.7548C63.8132 62.57 62.6555 63.028 61.4483 63.028H31.8621V41.2942C31.8621 39.8532 32.4615 38.4711 33.5285 37.4522C34.5955 36.4332 36.0427 35.8607 37.5517 35.8607H40.9655L41.1282 36.2494C41.752 37.7386 42.8288 39.0152 44.2196 39.9144C45.6104 40.8136 47.2515 41.2942 48.931 41.2942C50.6106 41.2942 52.2517 40.8136 53.6425 39.9144C55.0333 39.0152 56.11 37.7386 56.7338 36.2494L56.8966 35.8607Z" fill="#DE5540"/>
<path d="M59.7414 15.2137H59.1724V20.6471H59.7414C60.4959 20.6471 61.2195 20.3609 61.753 19.8514C62.2865 19.3419 62.5862 18.6509 62.5862 17.9304C62.5862 17.2099 62.2865 16.5188 61.753 16.0094C61.2195 15.4999 60.4959 15.2137 59.7414 15.2137Z" fill="#FDBF92"/>
<path d="M43.2414 7.60681H54.6207C55.8279 7.60681 56.9856 8.06477 57.8392 8.87995C58.6929 9.69512 59.1724 10.8007 59.1724 11.9536V20.6471C59.1724 23.241 58.0934 25.7286 56.1728 27.5627C54.2521 29.3969 51.6472 30.4273 48.931 30.4273C46.2148 30.4273 43.6099 29.3969 41.6893 27.5627C39.7687 25.7286 38.6897 23.241 38.6897 20.6471V11.9536C38.6897 10.8007 39.1692 9.69512 40.0228 8.87995C40.8764 8.06477 42.0342 7.60681 43.2414 7.60681Z" fill="#FDC8A2"/>
<path d="M43.8103 15.2137C43.4728 15.2137 43.1427 15.3093 42.862 15.4884C42.5813 15.6675 42.3626 15.9221 42.2334 16.2199C42.1042 16.5178 42.0704 16.8455 42.1362 17.1617C42.2021 17.4779 42.3647 17.7683 42.6034 17.9963C42.8421 18.2243 43.1462 18.3795 43.4773 18.4424C43.8085 18.5053 44.1517 18.473 44.4635 18.3496C44.7754 18.2263 45.042 18.0173 45.2296 17.7493C45.4171 17.4812 45.5172 17.1661 45.5172 16.8437C45.5168 16.4115 45.3368 15.9972 45.0168 15.6916C44.6968 15.386 44.2629 15.2141 43.8103 15.2137Z" fill="#844E3A"/>
<path d="M54.0517 15.2137C53.7141 15.2137 53.3841 15.3093 53.1034 15.4884C52.8227 15.6675 52.604 15.9221 52.4748 16.2199C52.3456 16.5178 52.3118 16.8455 52.3776 17.1617C52.4435 17.4779 52.6061 17.7683 52.8448 17.9963C53.0835 18.2243 53.3876 18.3795 53.7187 18.4424C54.0498 18.5053 54.393 18.473 54.7049 18.3496C55.0168 18.2263 55.2834 18.0173 55.471 17.7493C55.6585 17.4812 55.7586 17.1661 55.7586 16.8437C55.7581 16.4115 55.5781 15.9972 55.2581 15.6916C54.9381 15.386 54.5043 15.2141 54.0517 15.2137Z" fill="#844E3A"/>
<path d="M48.931 22.8205C48.6293 22.8202 48.3401 22.7056 48.1268 22.5018C47.9134 22.2981 47.7934 22.0219 47.7931 21.7338H45.5172C45.5172 22.5984 45.8769 23.4276 46.5171 24.039C47.1573 24.6504 48.0256 24.9939 48.931 24.9939C49.8364 24.9939 50.7047 24.6504 51.3449 24.039C51.9852 23.4276 52.3448 22.5984 52.3448 21.7338H50.069C50.0686 22.0219 49.9486 22.2981 49.7353 22.5018C49.522 22.7056 49.2327 22.8202 48.931 22.8205Z" fill="#FCB079"/>
<path d="M43.2414 13.0403L51.2069 7.60682L59.1724 15.2136H61.4483V11.9536C61.4483 8.78329 60.1295 5.74285 57.7821 3.50112C55.4346 1.25939 52.2508 0 48.931 0C45.6113 0 42.4275 1.25939 40.08 3.50112C37.7326 5.74285 36.4138 8.78329 36.4138 11.9536V29.3406C36.4138 31.0699 37.1331 32.7283 38.4136 33.951C39.694 35.1738 41.4306 35.8607 43.2414 35.8607V13.0403Z" fill="#844E3A"/>
<path d="M49.8355 3.07968C43.0824 3.32785 40.2582 8.47903 40.1412 8.69827L42.167 9.68865C42.2612 9.51573 44.5344 5.44948 49.923 5.25157L49.8355 3.07968Z" fill="#784533"/>
<path d="M60.7797 47.9568L56.6121 34.9438C56.567 34.8057 56.4936 34.6776 56.3961 34.567C56.2986 34.4563 56.1789 34.3654 56.0441 34.2995C55.9093 34.2336 55.762 34.1941 55.611 34.1832C55.46 34.1724 55.3082 34.1904 55.1646 34.2363C54.8825 34.3265 54.6486 34.5186 54.513 34.7715C54.3774 35.0243 54.3509 35.3179 54.4392 35.5892L57.645 45.6411H41.0304L43.1703 35.7588C43.233 35.4791 43.1778 35.1871 43.0165 34.946C42.8552 34.705 42.6009 34.5344 42.3087 34.4713H42.3066C42.16 34.4397 42.0083 34.4361 41.8603 34.4608C41.7122 34.4855 41.5708 34.5379 41.4441 34.6151C41.3174 34.6923 41.208 34.7927 41.1221 34.9105C41.0363 35.0282 40.9757 35.1611 40.9439 35.3014L38.0969 48.2449C37.5375 49.6375 37.4031 51.1531 37.7095 52.6157C38.0158 54.0783 38.7503 55.4279 39.8276 56.5078V63.028H59.1724V56.5078C61.5106 54.1956 62.0457 50.777 60.7797 47.9568Z" fill="#844E3A"/>
<path d="M22.7586 10.8671C22.7585 8.81624 22.1506 6.80731 21.0053 5.07246C19.8601 3.33761 18.2241 1.94767 16.2865 1.06327C14.3489 0.178882 12.1888 -0.163855 10.0558 0.0746733C7.92284 0.313202 5.9041 1.12326 4.23288 2.41122C2.56167 3.69919 1.30623 5.41248 0.611636 7.35308C-0.0829544 9.29368 -0.188329 11.3824 0.307691 13.3778C0.803711 15.3731 1.88088 17.1937 3.41469 18.6292C4.94851 20.0646 6.87636 21.0562 8.97543 21.4895L11.3793 24.994L13.7832 21.4895C16.3248 20.9644 18.6016 19.6241 20.2346 17.6914C21.8676 15.7588 22.7583 13.3504 22.7586 10.8671Z" fill="#FFB431"/>
<path d="M15.931 8.69352V8.41465C15.9301 7.62427 15.6008 6.86653 15.0156 6.30765C14.4304 5.74877 13.6369 5.43438 12.8093 5.43345H12.5172V3.26007H10.2414V5.43345H9.94936C9.20808 5.43343 8.49098 5.68532 7.92639 6.14404C7.3618 6.60276 6.98656 7.23837 6.86783 7.93713C6.74909 8.63589 6.89461 9.3522 7.27834 9.95787C7.66206 10.5635 8.25896 11.0191 8.96221 11.2429L13.0768 12.5528C13.2674 12.6134 13.4292 12.7368 13.5331 12.901C13.6371 13.0651 13.6766 13.2592 13.6444 13.4486C13.6122 13.6379 13.5105 13.8102 13.3575 13.9345C13.2045 14.0588 13.0101 14.127 12.8093 14.127H9.94936C9.7251 14.1267 9.51009 14.0415 9.35151 13.8901C9.19292 13.7386 9.10372 13.5333 9.10345 13.3191V13.0403H6.82759V13.3191C6.82857 14.1095 7.15779 14.8673 7.74302 15.4261C8.32825 15.985 9.12172 16.2994 9.94936 16.3003H10.2414V18.4737H12.5172V16.3003H12.8093C13.5506 16.3004 14.2676 16.0485 14.8322 15.5898C15.3968 15.131 15.7721 14.4954 15.8908 13.7967C16.0095 13.0979 15.864 12.3816 15.4803 11.7759C15.0966 11.1702 14.4997 10.7147 13.7964 10.4909L9.68181 9.18103C9.49123 9.12039 9.32947 8.99695 9.22548 8.83282C9.1215 8.66869 9.08206 8.47458 9.11425 8.28522C9.14643 8.09587 9.24813 7.92363 9.40114 7.79933C9.55415 7.67504 9.74848 7.6068 9.94936 7.60683H12.8093C13.0335 7.60708 13.2485 7.69227 13.4071 7.84371C13.5657 7.99515 13.6549 8.20048 13.6552 8.41465V8.69352H15.931Z" fill="#FFC261"/>
<path d="M46.6552 56.5078V63.0279H61.4483C62.6555 63.0279 63.8132 62.57 64.6668 61.7548C65.5204 60.9396 66 59.834 66 58.6812V56.5078H46.6552Z" fill="#DE5540"/>
<path d="M46.6552 56.5078L42.1034 53.2478H34.1379V58.6812H38.6897C39.0147 59.9228 39.765 61.025 40.8213 61.8126C41.8776 62.6002 43.1793 63.028 44.5194 63.028H46.6552V56.5078Z" fill="#FDC8A2"/>
<path d="M39.8276 63.028H0V45.641H25.0345H29.5862L39.8276 57.5945V63.028Z" fill="#3BA5D3"/>
<path d="M0 45.641H25.0345V63.028H0V45.641Z" fill="#4DB6E4"/>
<path d="M2.27586 29.3406H20.4828V38.0341H2.27586V29.3406Z" fill="#4DB6E4"/>
<path d="M14.7931 32.6007H17.069V34.7741H14.7931V32.6007Z" fill="#2D96C3"/>
<path d="M10.2414 32.6007H12.5172V34.7741H10.2414V32.6007Z" fill="#2D96C3"/>
<path d="M5.68965 32.6007H7.96551V34.7741H5.68965V32.6007Z" fill="#2D96C3"/>
<path d="M3.4138 48.901H5.68967V51.0744H3.4138V48.901Z" fill="#5CC1ED"/>
<path d="M3.4138 53.2478H5.68967V59.7679H3.4138V53.2478Z" fill="#5CC1ED"/>
<path d="M9.10345 38.0341H13.6552V45.641H9.10345V38.0341Z" fill="#DFDFDD"/>
<path d="M9.10345 38.0341H13.6552V40.2075H9.10345V38.0341Z" fill="#D5D5D3"/>
</svg>
