<svg width="56" height="60" viewBox="0 0 56 60" fill="none" xmlns="http://www.w3.org/2000/svg">
<path d="M53.2932 51.4192H51.3516C50.8261 51.4192 50.4001 50.9932 50.4001 50.4677V0.951445C50.4001 0.425977 50.8261 0 51.3516 0H53.2932C53.8186 0 54.2446 0.425977 54.2446 0.951445V50.4677C54.2446 50.9932 53.8186 51.4192 53.2932 51.4192Z" fill="#D0CEE7"/>
<path d="M50.4 44.2108V48.0553H4.73628V44.2108H50.4Z" fill="#407093"/>
<path d="M1.84341 51.4192H3.78498C4.31044 51.4192 4.73642 50.9932 4.73642 50.4677V0.951445C4.73642 0.425977 4.31044 0 3.78498 0H1.84341C1.31794 0 0.891968 0.425977 0.891968 0.951445V50.4677C0.891968 50.9932 1.31794 51.4192 1.84341 51.4192Z" fill="#DDDAEC"/>
<path d="M44.5644 17.369C44.0717 17.369 43.6725 17.7684 43.6725 18.2609V20.4234L44.6816 21.4325C44.8933 21.6443 45.1801 21.7348 45.4564 21.7052V18.2608C45.4563 17.7684 45.0569 17.369 44.5644 17.369Z" fill="#9DC6FB"/>
<path d="M11.4758 18.2604V20.4237L10.4662 21.4322C10.2545 21.644 9.96787 21.7355 9.69189 21.7058V18.2603C9.69189 17.7679 10.0903 17.3684 10.5839 17.3684C11.0763 17.3684 11.4758 17.768 11.4758 18.2604Z" fill="#CB5769"/>
<path d="M51.4303 51.4192H53.2142V55.2636H51.4303V51.4192Z" fill="#2B4D66"/>
<path d="M1.92224 51.4192H3.70619V55.2636H1.92224V51.4192Z" fill="#2B4D66"/>
<path d="M4.73633 1.99133H50.4001V3.77528H4.73633V1.99133Z" fill="#407093"/>
<path d="M52.3224 60C53.8766 60 55.1366 58.7401 55.1366 57.1858C55.1366 55.6316 53.8766 54.3717 52.3224 54.3717C50.7682 54.3717 49.5083 55.6316 49.5083 57.1858C49.5083 58.7401 50.7682 60 52.3224 60Z" fill="#407093"/>
<path d="M2.81414 60C4.36835 60 5.62828 58.7401 5.62828 57.1858C5.62828 55.6316 4.36835 54.3717 2.81414 54.3717C1.25993 54.3717 0 55.6316 0 57.1858C0 58.7401 1.25993 60 2.81414 60Z" fill="#407093"/>
<path d="M49.7274 16.387L44.3761 11.0357C43.9256 10.5852 43.3144 10.332 42.6772 10.332H26.8872C26.2499 10.332 25.6388 10.5852 25.1882 11.0357L19.1642 17.0598L24.21 22.1056L25.892 20.4236V36.7624H42.7211C43.2466 36.7624 43.6725 36.3364 43.6725 35.8109V20.4236L44.6818 21.4329C45.0534 21.8045 45.6557 21.8045 46.0273 21.4329L49.7276 17.7325C50.099 17.3609 50.099 16.7585 49.7274 16.387Z" fill="#BED8FB"/>
<path d="M32.1392 36.7624V24.9818L39.2202 17.9007C39.6847 17.4363 39.6847 16.6832 39.2202 16.2188L33.3334 10.332H26.8872C26.2499 10.332 25.6388 10.5852 25.1882 11.0357L19.1642 17.0598L24.21 22.1056L25.892 20.4236V36.7624H32.1392Z" fill="#9DC6FB"/>
<path d="M38.6265 10.3318C38.6265 12.455 36.9053 14.1762 34.7821 14.1762C32.6589 14.1762 30.9376 12.455 30.9376 10.3318H38.6265Z" fill="#407093"/>
<path d="M35.3109 16.387L29.9596 11.0357C29.509 10.5852 28.8979 10.332 28.2606 10.332H12.4707C11.8334 10.332 11.2223 10.5852 10.7717 11.0357L5.42042 16.387C5.04882 16.7586 5.04882 17.3609 5.42042 17.7325L9.12074 21.4329C9.49234 21.8045 10.0947 21.8045 10.4663 21.4329L11.4755 20.4236V35.8111C11.4755 36.3365 11.9015 36.7625 12.4269 36.7625H28.3046C28.83 36.7625 29.256 36.3365 29.256 35.8111V20.4236L30.2652 21.4329C30.6368 21.8045 31.2392 21.8045 31.6108 21.4329L35.3111 17.7325C35.6823 17.3609 35.6823 16.7585 35.3109 16.387Z" fill="#D57080"/>
<path d="M24.21 10.3318C24.21 12.455 22.4888 14.1762 20.3656 14.1762C18.2424 14.1762 16.5211 12.455 16.5211 10.3318H24.21Z" fill="#407093"/>
<path d="M34.782 11.2238C34.2894 11.2238 33.8901 10.8244 33.8901 10.3319V8.40089C33.8901 7.28995 34.4349 6.26796 35.3475 5.66702C35.6548 5.46464 35.8282 5.12397 35.8112 4.75565C35.7874 4.23944 35.3482 3.80011 34.832 3.77644C34.5461 3.76308 34.2761 3.86409 34.0707 4.06026C33.865 4.25667 33.7518 4.52128 33.7518 4.80546C33.7518 5.29812 33.3525 5.69737 32.8599 5.69737C32.3673 5.69737 31.9679 5.298 31.9679 4.80546C31.9679 4.04046 32.2852 3.29866 32.8386 2.77015C33.3999 2.23413 34.1379 1.95979 34.9139 1.99437C36.3502 2.06034 37.5272 3.23737 37.5932 4.67374C37.6387 5.66175 37.1541 6.61331 36.3286 7.15694C35.9188 7.42683 35.6741 7.89194 35.6741 8.40089V10.3319C35.6741 10.8244 35.2747 11.2238 34.782 11.2238Z" fill="#B16E3D"/>
<path d="M31.0398 18.2604V21.7059C30.7627 21.7356 30.4761 21.644 30.2644 21.4324L29.2559 20.4238V18.2606C29.2559 17.7681 29.6555 17.3687 30.1479 17.3687C30.6403 17.3687 31.0398 17.768 31.0398 18.2604Z" fill="#CB5769"/>
<path d="M20.3655 11.2238C19.8729 11.2238 19.4736 10.8244 19.4736 10.3319V8.40088C19.4736 7.28995 20.0184 6.26795 20.9308 5.66702C21.2382 5.46463 21.4117 5.12385 21.3947 4.75553C21.3709 4.23932 20.9317 3.79999 20.4155 3.77631C20.1296 3.76295 19.8598 3.86397 19.6542 4.06014C19.4485 4.25643 19.3353 4.52116 19.3353 4.80534C19.3353 5.29799 18.936 5.69725 18.4434 5.69725C17.9508 5.69725 17.5515 5.29788 17.5515 4.80534C17.5515 4.04034 17.8689 3.29854 18.4222 2.77002C18.9835 2.23401 19.7215 1.95967 20.4975 1.99424C21.9339 2.06022 23.1108 3.23725 23.1769 4.67362C23.2223 5.66174 22.7376 6.61319 21.9122 7.15682C21.5024 7.4267 21.2577 7.89182 21.2577 8.40077V10.3318C21.2576 10.8244 20.8582 11.2238 20.3655 11.2238Z" fill="#B16E3D"/>
</svg>
