<svg width="38" height="39" viewBox="0 0 38 39" fill="none" xmlns="http://www.w3.org/2000/svg">
<g filter="url(#filter0_i_87_255)">
<path d="M11.1345 23.175H5.50729C4.59316 23.175 3.85216 23.916 3.85216 24.8302V37.3448C3.85216 38.2589 4.59316 38.9999 5.50729 38.9999H11.1344C12.0485 38.9999 12.7895 38.2589 12.7895 37.3448V24.8302C12.7895 23.916 12.0485 23.175 11.1345 23.175Z" fill="#FADC60"/>
<path d="M6.20632 37.3448V24.8302C6.20632 23.9161 6.94732 23.175 7.86146 23.175H5.50729C4.59316 23.175 3.85216 23.916 3.85216 24.8302V37.3448C3.85216 38.259 4.59316 39 5.50729 39H7.86138C6.94732 38.9999 6.20632 38.2589 6.20632 37.3448Z" fill="#F2C42C"/>
<path d="M23.2696 17.4355H17.6425C16.7283 17.4355 15.9873 18.1765 15.9873 19.0907V37.3449C15.9873 38.259 16.7283 39 17.6425 39H23.2696C24.1837 39 24.9247 38.259 24.9247 37.3449V19.0906C24.9247 18.1765 24.1837 17.4355 23.2696 17.4355Z" fill="#FD6F71"/>
<path d="M18.3415 37.3447V19.0906C18.3415 18.1764 19.0825 17.4354 19.9966 17.4354H17.6425C16.7284 17.4354 15.9874 18.1764 15.9874 19.0906V37.3447C15.9874 38.2589 16.7284 38.9999 17.6425 38.9999H19.9966C19.0825 38.9999 18.3415 38.2589 18.3415 37.3447Z" fill="#E34B4C"/>
<path d="M35.4047 11.6959H29.7775C28.8634 11.6959 28.1224 12.4369 28.1224 13.3511V37.3448C28.1224 38.2589 28.8634 38.9999 29.7775 38.9999H35.4047C36.3188 38.9999 37.0598 38.2589 37.0598 37.3448V13.3511C37.0597 12.4369 36.3187 11.6959 35.4047 11.6959Z" fill="#57D0E6"/>
<path d="M30.4766 37.3448V13.3511C30.4766 12.4369 31.2176 11.6959 32.1317 11.6959H29.7776C28.8635 11.6959 28.1225 12.4369 28.1225 13.3511V37.3448C28.1225 38.2589 28.8635 38.9999 29.7776 38.9999H32.1317C31.2176 38.9999 30.4766 38.2589 30.4766 37.3448Z" fill="#4DB8CC"/>
<path d="M36.9708 0.00720919L31.2863 0.748056L32.6603 2.58593L27.7922 6.22572L25.2315 3.96807C24.7948 3.58302 24.1481 3.55704 23.6817 3.9056L12.7941 12.0456L10.2472 10.1377C9.81039 9.81044 9.21031 9.81021 8.77331 10.137L0 16.6965L1.47286 18.6666L9.50906 12.6583L12.056 14.5662C12.4927 14.8935 13.0929 14.8937 13.5299 14.5669L24.3542 6.47389L26.9148 8.73154C27.3515 9.11659 27.9985 9.14264 28.4647 8.794L34.1332 4.55588L35.5085 6.39536L37.8262 1.15093C38.0844 0.566615 37.6043 -0.075361 36.9708 0.00720919Z" fill="#58B78C"/>
</g>
<defs>
<filter id="filter0_i_87_255" x="0" y="0" width="37.8974" height="43" filterUnits="userSpaceOnUse" color-interpolation-filters="sRGB">
<feFlood flood-opacity="0" result="BackgroundImageFix"/>
<feBlend mode="normal" in="SourceGraphic" in2="BackgroundImageFix" result="shape"/>
<feColorMatrix in="SourceAlpha" type="matrix" values="0 0 0 0 0 0 0 0 0 0 0 0 0 0 0 0 0 0 127 0" result="hardAlpha"/>
<feOffset dy="4"/>
<feGaussianBlur stdDeviation="2"/>
<feComposite in2="hardAlpha" operator="arithmetic" k2="-1" k3="1"/>
<feColorMatrix type="matrix" values="0 0 0 0 0 0 0 0 0 0 0 0 0 0 0 0 0 0 0.25 0"/>
<feBlend mode="normal" in2="shape" result="effect1_innerShadow_87_255"/>
</filter>
</defs>
</svg>
