<svg width="60" height="60" viewBox="0 0 60 60" fill="none" xmlns="http://www.w3.org/2000/svg">
<path d="M59.9744 30.4087L58.167 31.258L59.9744 32.1658V39.9601L58.6062 40.8386L59.9744 41.7172V49.5408L58.3673 50.6114L59.9744 51.2978V59.0348C59.9744 59.5677 59.5422 60 59.0092 60H40.8611L40.143 58.3472L39.104 60H20.8704L20.1254 58.1879L19.1133 60H0.965213C0.432237 60 0 59.5677 0 59.0348V51.2978L1.26391 50.4193L0 49.5408V41.7172L1.45016 41.2802L0 39.9601V32.2232C0 31.6902 0.432237 31.258 0.965213 31.258H29.9872V22.6437C29.9872 22.1095 30.4194 21.6773 30.9524 21.6773H49.1005L50.1126 23.4156L50.8576 21.6773H59.0092C59.5422 21.6773 59.9744 22.1095 59.9744 22.6437V30.4087Z" fill="#D1A08F"/>
<path d="M33.8527 21.6773C33.3186 21.6773 32.8864 22.1095 32.8864 22.6437V31.258H29.9872V22.6437C29.9872 22.1095 30.4194 21.6773 30.9524 21.6773H33.8527Z" fill="#C68D7A"/>
<path d="M3.86554 60L0.965213 60C0.432237 60 0 59.5677 0 59.0348V51.2978L1.26391 50.4193L0 49.5408V41.7172L1.45016 41.2802L0 39.9601V32.2232C0 31.6902 0.432237 31.258 0.965213 31.258L3.86554 31.258C3.33139 31.258 2.89915 31.6902 2.89915 32.2232V59.0348C2.89915 59.5678 3.33139 60 3.86554 60Z" fill="#C68D7A"/>
<path d="M50.3223 17.0351L45.6883 23.5983C45.3474 24.081 44.791 24.3633 44.2007 24.3515L36.9299 24.2192L35.0663 24.1852C34.1069 24.1676 33.335 23.3945 33.3174 22.4363L33.1499 13.302C33.1394 12.7116 33.4217 12.1552 33.9043 11.8143L40.4675 7.18036C41.175 6.68018 42.1414 6.76218 42.754 7.37598L50.1266 14.7486C50.7404 15.3612 50.8224 16.3276 50.3223 17.0351Z" fill="#C5D3DD"/>
<path d="M36.9299 24.2192L35.0663 24.1852C34.1069 24.1676 33.335 23.3945 33.3174 22.4363L33.1499 13.302C33.1394 12.7116 33.4217 12.1552 33.9043 11.8143L40.4675 7.18036C41.175 6.68018 42.1414 6.76218 42.754 7.37598L42.7692 7.3912L36.7226 11.6597C36.2212 12.0146 35.9272 12.5945 35.9389 13.2083L36.1123 22.7151C36.124 23.3418 36.445 23.8924 36.9299 24.2192Z" fill="#B6C4CF"/>
<path d="M42.1404 15.4245L42.0779 15.3619C41.506 14.7901 41.506 13.863 42.0779 13.2912L54.7081 0.661058C55.28 0.0891924 56.207 0.0891924 56.7789 0.661058L56.8414 0.723609C57.4133 1.29547 57.4133 2.2225 56.8414 2.79437L44.2112 15.4245C43.6393 15.9962 42.7123 15.9962 42.1404 15.4245Z" fill="#8D9CA8"/>
<path d="M51.2351 8.87428L48.58 6.21912C48.4885 6.12764 48.4885 5.97934 48.58 5.88786L53.8674 0.600388C54.668 -0.200129 55.966 -0.200129 56.7665 0.600388L56.854 0.68789C57.6545 1.48841 57.6545 2.78641 56.854 3.58693L51.5665 8.87428C51.475 8.96576 51.3266 8.96576 51.2351 8.87428Z" fill="#FFF0AD"/>
<path d="M19.3453 40.8386C19.3453 41.3236 18.9517 41.7172 18.4667 41.7172H10.8739V49.5408H13.4263C13.9112 49.5408 14.3048 49.9344 14.3048 50.4193C14.3048 50.9054 13.9112 51.2978 13.4263 51.2978L0 51.2978L1.26391 50.4193L0 49.5408L9.11681 49.5408V41.7172L0 41.7172L1.45016 41.2802L0 39.9601L18.4667 39.9601C18.9517 39.9601 19.3453 40.3537 19.3453 40.8386Z" fill="#C5D3DD"/>
<path d="M59.965 32.1658H59.9744V30.4087H59.9673L50.8576 30.3935L50.8576 21.6773H49.1005L49.1005 30.39L25.3298 30.3513H24.5918C24.1069 30.3513 24.4513 30.7437 24.4501 31.2287C24.4501 31.238 24.4501 31.2486 24.4489 31.258C24.4348 31.73 24.1151 32.1072 24.5918 32.1084L39.104 32.1306V39.9601H21.9562C21.4713 39.9601 21.0777 40.3537 21.0777 40.8386C21.0777 41.3236 21.4713 41.7172 21.9562 41.7172H29.1086V49.5408H17.6491C17.1641 49.5408 16.7705 49.9344 16.7705 50.4193C16.7705 50.9054 17.1641 51.2978 17.6491 51.2978H19.1133L19.1133 60H20.8704L20.8704 51.2978H39.104L39.104 60H40.8611L40.861 51.2978H59.9744V49.5408H50.8576V41.7172H59.9744V39.9601H40.861V32.1341L59.965 32.1658ZM49.1005 41.7172V49.5408H30.8657V41.7172H49.1005Z" fill="#C5D3DD"/>
<path d="M23.6466 28.893C24.5801 28.893 25.3368 29.6497 25.3368 30.5833V31.7171C25.3368 32.6507 24.5801 33.4074 23.6466 33.4074C23.1792 33.4074 22.7575 33.5972 22.4518 33.9029C22.146 34.2087 21.9563 34.6304 21.9563 35.0977V42.4165C21.9563 43.3594 21.2323 44.1736 20.2906 44.2146C19.2914 44.2591 18.4667 43.4614 18.4667 42.4715V35.6904C18.4667 34.43 17.4441 33.4074 16.1826 33.4074H15.3907C14.1291 33.4074 13.1065 34.43 13.1065 35.6904C13.1065 36.0009 13.028 36.2972 12.8886 36.5561C12.8172 36.6908 12.7293 36.8161 12.6274 36.9274C12.3276 37.2542 11.9117 37.4674 11.4408 37.4885C10.4416 37.533 9.61699 36.7353 9.61699 35.7455V35.0977C9.61699 34.1641 8.86028 33.4074 7.9267 33.4074H7.42886C6.49528 33.4074 5.73857 32.6507 5.73857 31.7171V30.5833C5.73857 29.6497 6.49528 28.893 7.42886 28.893H23.6466Z" fill="#8D9CA8"/>
<path d="M12.8886 36.5561C12.8172 36.6908 12.7293 36.8161 12.6274 36.9274C12.3276 37.2542 11.9117 37.4674 11.4408 37.4885C10.4416 37.533 9.61699 36.7353 9.61699 35.7455V35.0977C9.61699 34.1641 8.86028 33.4074 7.9267 33.4074H7.42886C6.49528 33.4074 5.73857 32.6507 5.73857 31.7171V30.5833C5.73857 29.6497 6.49528 28.893 7.42886 28.893H9.34055C8.88723 29.2256 8.59321 29.7633 8.59321 30.3689V31.5953C8.59321 32.6062 9.412 33.425 10.4229 33.425H10.9617C11.9726 33.425 12.7914 34.2438 12.7914 35.2535V35.9564C12.7914 36.166 12.8254 36.3675 12.8886 36.5561Z" fill="#7A8C98"/>
<path d="M0 49.5408L2.89915 49.5408V51.2978L0 51.2978V49.5408Z" fill="#B6C4CF"/>
<path d="M0 39.9601L2.89915 39.9601V41.7172L0 41.7172V39.9601Z" fill="#B6C4CF"/>
</svg>
