<svg width="45" height="45" viewBox="0 0 45 45" fill="none" xmlns="http://www.w3.org/2000/svg">
<path d="M31.6231 37.7314L22.5 35.0947L13.3769 37.7314C13.2979 37.8896 13.2715 38.0479 13.2715 38.2324V43.6816H31.7285V38.2324C31.7285 38.0479 31.7021 37.8896 31.6231 37.7314Z" fill="#646D73"/>
<path d="M31.7285 43.6816V38.2324C31.7285 38.0479 31.7021 37.8896 31.6231 37.7314L22.5 35.0947V43.6816H31.7285Z" fill="#474F54"/>
<path d="M43.6816 2.63672H36.9453C36.9569 2.19138 37.002 1.77188 37.002 1.31836C37.002 0.57999 36.422 0 35.6836 0H9.31641C8.57804 0 7.99805 0.57999 7.99805 1.31836C7.99805 1.77188 8.04313 2.19138 8.05456 2.63672H1.31836C0.589658 2.63672 0 3.22638 0 3.95508V7.29475C0 14.6559 5.89676 20.6358 13.1636 21.0207C14.6776 23.1051 16.4743 24.652 18.5186 25.5234C18.2021 31.9307 14.5371 36.3867 13.6671 37.3097C13.5352 37.415 13.4297 37.5732 13.377 37.7314H31.6231C31.5703 37.5732 31.4649 37.415 31.333 37.3097C30.4365 36.3867 26.7978 31.957 26.4814 25.5234C28.5261 24.6518 30.3337 23.1046 31.8488 21.0194C39.1095 20.6282 45 14.6518 45 7.29475V3.95508C45 3.22638 44.4103 2.63672 43.6816 2.63672ZM2.63672 7.29475V5.27344H8.16768C8.50983 9.63088 9.45475 14.2458 11.4407 18.1677C6.4626 17.0466 2.63672 12.6073 2.63672 7.29475ZM42.3633 7.29475C42.3633 12.6046 38.5408 17.0418 33.5664 18.1654C35.5366 14.2436 36.4868 9.67333 36.8323 5.27344H42.3633V7.29475Z" fill="#D39797"/>
<path d="M43.6816 2.63672H36.9453C36.9569 2.19138 37.002 1.77188 37.002 1.31836C37.002 0.57999 36.422 0 35.6836 0H22.5V37.7314H31.6231C31.5703 37.5732 31.4649 37.415 31.333 37.3097C30.4365 36.3867 26.7979 31.957 26.4814 25.5234C28.5261 24.6518 30.3337 23.1046 31.8488 21.0194C39.1095 20.6282 45 14.6518 45 7.29475V3.95508C45 3.22638 44.4103 2.63672 43.6816 2.63672ZM42.3633 7.29475C42.3633 12.6046 38.5408 17.0418 33.5664 18.1654C35.5368 14.2436 36.487 9.67333 36.8323 5.27344H42.3633V7.29475Z" fill="#FAB2B2"/>
<path d="M24.6037 16.7693L22.4999 15.6762L20.3962 16.7693C19.9558 16.9959 19.4177 16.9585 19.0135 16.6663C18.6092 16.3728 18.4058 15.8758 18.4882 15.384L18.8744 13.0421L17.1879 11.3774C16.8208 11.0195 16.7086 10.4889 16.8583 10.0307C17.0128 9.55692 17.4222 9.20932 17.9166 9.1347L20.2598 8.7819L21.3206 6.66146C21.7687 5.76796 23.2312 5.76796 23.6792 6.66146L24.7401 8.7819L27.0833 9.1347C27.5776 9.2094 27.987 9.55701 28.1415 10.0307C28.2961 10.5058 28.1698 11.0272 27.812 11.3774L26.1254 13.0421L26.5117 15.384C26.5941 15.8758 26.3907 16.3728 25.9864 16.6663C25.5848 16.9573 25.0476 17.0003 24.6037 16.7693Z" fill="#FAB2B2"/>
<path d="M24.6038 16.7692C25.0478 17.0002 25.585 16.9572 25.9864 16.6662C26.3907 16.3727 26.5941 15.8757 26.5118 15.3839L26.1255 13.042L27.812 11.3773C28.1699 11.0272 28.2961 10.5057 28.1416 10.0307C27.9871 9.55685 27.5777 9.20924 27.0833 9.13462L24.7402 8.78183L23.6793 6.66138C23.4553 6.21463 22.9777 5.99121 22.5 5.99121V15.6761L24.6038 16.7692Z" fill="#D39797"/>
<path d="M33.0469 45H11.9531C11.2244 45 10.6348 44.4103 10.6348 43.6816C10.6348 42.9529 11.2244 42.3633 11.9531 42.3633H33.0469C33.7756 42.3633 34.3652 42.9529 34.3652 43.6816C34.3652 44.4103 33.7756 45 33.0469 45Z" fill="#474F54"/>
<path d="M33.0469 42.3633H22.5V45H33.0469C33.7756 45 34.3652 44.4103 34.3652 43.6816C34.3652 42.9529 33.7756 42.3633 33.0469 42.3633Z" fill="#32393F"/>
</svg>
