<svg width="39" height="39" viewBox="0 0 39 39" fill="none" xmlns="http://www.w3.org/2000/svg">
<g filter="url(#filter0_d_201_248)">
<path d="M25.7848 25.9927L19.5 24.1763L13.2152 25.9927C13.1607 26.1017 13.1426 26.2106 13.1426 26.3378V30.0917H25.8574V26.3378C25.8574 26.2106 25.8393 26.1017 25.7848 25.9927Z" fill="#646D73"/>
<path d="M25.8574 30.0917V26.3378C25.8574 26.2106 25.8393 26.1017 25.7848 25.9927L19.5 24.1763V30.0917H25.8574Z" fill="#474F54"/>
<path d="M34.0918 1.81641H29.4512C29.4592 1.50962 29.4902 1.22063 29.4902 0.908203C29.4902 0.399549 29.0907 0 28.582 0H10.418C9.90931 0 9.50977 0.399549 9.50977 0.908203C9.50977 1.22063 9.54083 1.50962 9.5487 1.81641H4.9082C4.40621 1.81641 4 2.22262 4 2.72461V5.02527C4 10.0963 8.06221 14.2157 13.0683 14.4809C14.1112 15.9169 15.349 16.9825 16.7572 17.5828C16.5393 21.9967 14.0145 25.0664 13.4151 25.7022C13.3242 25.7748 13.2516 25.8838 13.2152 25.9928H25.7848C25.7484 25.8838 25.6758 25.7748 25.585 25.7022C24.9674 25.0664 22.4607 22.0148 22.2428 17.5828C23.6513 16.9824 24.8965 15.9165 25.9403 14.48C30.9421 14.2105 35 10.0935 35 5.02527V2.72461C35 2.22262 34.5938 1.81641 34.0918 1.81641ZM5.81641 5.02527V3.63281H9.62662C9.86233 6.63461 10.5133 9.8138 11.8814 12.5155C8.45201 11.7432 5.81641 8.68503 5.81641 5.02527ZM33.1836 5.02527C33.1836 8.68315 30.5504 11.7399 27.1235 12.5139C28.4808 9.81229 29.1354 6.66385 29.3734 3.63281H33.1836V5.02527Z" fill="#FED843"/>
<path d="M34.0918 1.81641H29.4512C29.4592 1.50962 29.4902 1.22063 29.4902 0.908203C29.4902 0.399549 29.0907 0 28.582 0H19.5V25.9928H25.7848C25.7484 25.8838 25.6758 25.7748 25.585 25.7022C24.9674 25.0664 22.4607 22.0148 22.2428 17.5828C23.6513 16.9824 24.8965 15.9165 25.9403 14.48C30.9421 14.2105 35 10.0935 35 5.02527V2.72461C35 2.22262 34.5938 1.81641 34.0918 1.81641ZM33.1836 5.02527C33.1836 8.68315 30.5504 11.7399 27.1235 12.5139C28.4809 9.81229 29.1355 6.66385 29.3734 3.63281H33.1836V5.02527Z" fill="#FABE2C"/>
<path d="M20.9494 11.5523L19.5001 10.7993L18.0509 11.5523C17.7475 11.7084 17.3768 11.6826 17.0984 11.4813C16.8198 11.2791 16.6797 10.9368 16.7365 10.5979L17.0026 8.9846L15.8407 7.83784C15.5878 7.5913 15.5105 7.22578 15.6137 6.91015C15.7201 6.58374 16.0022 6.34427 16.3427 6.29287L17.9569 6.04983L18.6877 4.58908C18.9964 3.97356 20.0039 3.97356 20.3125 4.58908L21.0433 6.04983L22.6575 6.29287C22.9981 6.34433 23.2801 6.5838 23.3866 6.91015C23.493 7.2374 23.4061 7.59663 23.1595 7.83784L21.9977 8.9846L22.2638 10.5979C22.3206 10.9368 22.1804 11.2791 21.9019 11.4813C21.6253 11.6818 21.2552 11.7114 20.9494 11.5523Z" fill="#FABE2C"/>
<path d="M20.9493 11.5521C21.2551 11.7112 21.6252 11.6816 21.9018 11.4811C22.1803 11.2789 22.3204 10.9365 22.2637 10.5977L21.9976 8.98439L23.1594 7.83763C23.4059 7.59641 23.4929 7.23719 23.3864 6.90993C23.28 6.58352 22.998 6.34406 22.6574 6.29266L21.0432 6.04962L20.3124 4.58887C20.1581 4.28111 19.8291 4.1272 19.5 4.1272V10.799L20.9493 11.5521Z" fill="#FF9100"/>
<path d="M26.7656 31H12.2344C11.7324 31 11.3262 30.5938 11.3262 30.0918C11.3262 29.5898 11.7324 29.1836 12.2344 29.1836H26.7656C27.2676 29.1836 27.6738 29.5898 27.6738 30.0918C27.6738 30.5938 27.2676 31 26.7656 31Z" fill="#474F54"/>
<path d="M26.7656 29.1836H19.5V31H26.7656C27.2676 31 27.6738 30.5938 27.6738 30.0918C27.6738 29.5898 27.2676 29.1836 26.7656 29.1836Z" fill="#32393F"/>
</g>
<defs>
<filter id="filter0_d_201_248" x="0" y="0" width="39" height="39" filterUnits="userSpaceOnUse" color-interpolation-filters="sRGB">
<feFlood flood-opacity="0" result="BackgroundImageFix"/>
<feColorMatrix in="SourceAlpha" type="matrix" values="0 0 0 0 0 0 0 0 0 0 0 0 0 0 0 0 0 0 127 0" result="hardAlpha"/>
<feOffset dy="4"/>
<feGaussianBlur stdDeviation="2"/>
<feComposite in2="hardAlpha" operator="out"/>
<feColorMatrix type="matrix" values="0 0 0 0 0 0 0 0 0 0 0 0 0 0 0 0 0 0 0.25 0"/>
<feBlend mode="normal" in2="BackgroundImageFix" result="effect1_dropShadow_201_248"/>
<feBlend mode="normal" in="SourceGraphic" in2="effect1_dropShadow_201_248" result="shape"/>
</filter>
</defs>
</svg>
