<svg width="41" height="22" viewBox="0 0 41 22" fill="none" xmlns="http://www.w3.org/2000/svg">
<path d="M0.392857 0H39.8357C40.0557 0 40.2286 0.172857 40.2286 0.392857V21.6071C40.2286 21.8271 40.0557 22 39.8357 22H0.392857C0.172857 22 0 21.8271 0 21.6071V0.392857C0 0.172857 0.172857 0 0.392857 0Z" fill="#87C443"/>
<path d="M2.35693 2.35718H37.8712V19.6429H2.35693V2.35718Z" fill="#3D8033"/>
<path d="M36.3001 7.43275V14.5592C36.3001 14.8028 36.088 14.9835 35.8444 14.9442C35.2237 14.8578 34.5244 15.0149 33.833 15.4942C33.2673 16.2013 33.0866 16.9556 33.1809 17.6156C33.2123 17.8513 33.0316 18.0635 32.7959 18.0635H7.433C7.18943 18.0635 7.00871 17.8513 7.048 17.6156C7.14228 16.9556 6.96157 16.2013 6.39585 15.4942C5.69657 15.0149 5.00514 14.8578 4.38443 14.9442C4.14871 14.9756 3.92871 14.7949 3.92871 14.5592V7.43275C3.92871 7.18918 4.14085 7.00847 4.38443 7.04775C5.00514 7.13418 5.70443 6.97704 6.39585 6.49775C6.96157 5.79061 7.14228 5.03632 7.048 4.37632C7.01657 4.14061 7.19728 3.92847 7.433 3.92847H32.788C33.0237 3.92847 33.2123 4.14061 33.173 4.37632C33.0787 5.03632 33.2594 5.79061 33.8251 6.49775C34.5244 6.97704 35.2159 7.13418 35.8366 7.04775C36.088 7.01632 36.3001 7.19704 36.3001 7.43275Z" fill="#87C443"/>
<path d="M20.1145 16.8929C23.3691 16.8929 26.0074 14.2546 26.0074 11C26.0074 7.7455 23.3691 5.10718 20.1145 5.10718C16.86 5.10718 14.2217 7.7455 14.2217 11C14.2217 14.2546 16.86 16.8929 20.1145 16.8929Z" fill="#3D8033"/>
<path d="M31.1537 12.9642C32.2386 12.9642 33.118 12.0848 33.118 10.9999C33.118 9.91509 32.2386 9.03564 31.1537 9.03564C30.0689 9.03564 29.1895 9.91509 29.1895 10.9999C29.1895 12.0848 30.0689 12.9642 31.1537 12.9642Z" fill="#3D8033"/>
<path d="M9.07513 12.9642C10.16 12.9642 11.0394 12.0848 11.0394 10.9999C11.0394 9.91509 10.16 9.03564 9.07513 9.03564C7.99028 9.03564 7.11084 9.91509 7.11084 10.9999C7.11084 12.0848 7.99028 12.9642 9.07513 12.9642Z" fill="#3D8033"/>
<path d="M20.7898 12.4457C20.7898 12.21 20.7348 12.0293 20.617 11.9036C20.4991 11.7779 20.3027 11.6443 20.012 11.5265C19.7213 11.4086 19.462 11.2907 19.2184 11.1729C18.9748 11.055 18.7627 10.9136 18.5898 10.7565C18.417 10.5993 18.2755 10.4107 18.1891 10.2065C18.0948 10.0022 18.0477 9.74288 18.0477 9.45217C18.0477 8.95717 18.2127 8.5486 18.5505 8.22645C18.8884 7.90431 19.3284 7.71574 19.8863 7.6686V6.74146H20.5855V7.68431C21.1198 7.76288 21.5441 7.98288 21.8505 8.34431C22.157 8.70574 22.3141 9.16931 22.3141 9.72717H20.8213C20.8213 9.42074 20.7584 9.18503 20.6484 9.02003C20.5384 8.85503 20.3655 8.77645 20.1455 8.77645C19.9491 8.77645 19.7998 8.83931 19.6977 8.95717C19.5877 9.08288 19.5405 9.24788 19.5405 9.46003C19.5405 9.67217 19.6034 9.85288 19.7291 9.9786C19.8548 10.1043 20.0513 10.23 20.3263 10.34C20.6013 10.45 20.8605 10.5757 21.0963 10.7015C21.3398 10.8272 21.5441 10.9686 21.7248 11.1257C21.8977 11.2829 22.0391 11.4715 22.1413 11.6836C22.2434 11.8957 22.2905 12.1472 22.2905 12.4457C22.2905 12.9486 22.1334 13.3572 21.8113 13.6715C21.497 13.9857 21.057 14.1743 20.5148 14.2293V15.1172H19.7998V14.2293C19.1634 14.1586 18.6684 13.9465 18.3305 13.5693C17.9848 13.2 17.8198 12.7129 17.8198 12.1H19.3048C19.3048 12.4379 19.3755 12.6893 19.5248 12.8622C19.6741 13.035 19.8863 13.1215 20.1534 13.1215C20.3498 13.1215 20.507 13.0586 20.6248 12.9407C20.7427 12.8229 20.7898 12.65 20.7898 12.4457Z" fill="#87C443"/>
</svg>
