<svg width="71" height="71" viewBox="0 0 71 71" fill="none" xmlns="http://www.w3.org/2000/svg">
<g filter="url(#filter0_i_67_374)">
<circle cx="35.5" cy="35.5" r="35.5" fill="#5A80CC"/>
</g>
<path d="M34.1016 10C36.9551 10.001 39.6914 11.135 41.7091 13.1528C43.7267 15.1705 44.8606 17.9069 44.8614 20.7604C44.8614 27.0681 41.436 35.0606 34.1005 35.0606C26.5338 35.0606 23.333 26.7047 23.333 20.7604C23.3342 17.9055 24.4694 15.168 26.4889 13.1501C28.5084 11.1322 31.2467 9.99904 34.1016 10Z" fill="#FFDDAB"/>
<path d="M34.1015 10C33.4561 10.0007 32.8121 10.0592 32.1771 10.1747C34.6563 10.6258 36.8985 11.9323 38.5134 13.8667C40.1283 15.801 41.0134 18.2406 41.0146 20.7604C41.0146 26.4906 38.1863 33.6099 32.1694 34.8655C32.8047 34.9966 33.4517 35.062 34.1003 35.0606C41.435 35.0606 44.8612 27.0681 44.8612 20.7604C44.8604 17.9069 43.7266 15.1705 41.709 13.1528C39.6913 11.135 36.955 10.001 34.1015 10Z" fill="#F9CE95"/>
<path d="M42.4561 35.0611H25.7376C22.9183 35.0489 20.1844 36.0285 18.0146 37.8287L18.011 37.8382C25.4806 39.4307 31.1 45.6644 31.1 53.0684V60.403H54.0001V45.7783C54.0001 39.8837 48.8076 35.0611 42.4561 35.0611Z" fill="#7DA8FF"/>
<path d="M31.0999 60.4039V53.0693C31.0999 45.665 25.4768 39.4231 18 37.8356L18.0152 37.8295C18.1751 37.6955 18.3405 37.5671 18.5084 37.4412H18.7579C28.0155 37.4412 35.5883 44.4754 35.5883 53.0693V60.4039H31.0999Z" fill="#5090EF"/>
<defs>
<filter id="filter0_i_67_374" x="0" y="0" width="71" height="75" filterUnits="userSpaceOnUse" color-interpolation-filters="sRGB">
<feFlood flood-opacity="0" result="BackgroundImageFix"/>
<feBlend mode="normal" in="SourceGraphic" in2="BackgroundImageFix" result="shape"/>
<feColorMatrix in="SourceAlpha" type="matrix" values="0 0 0 0 0 0 0 0 0 0 0 0 0 0 0 0 0 0 127 0" result="hardAlpha"/>
<feOffset dy="4"/>
<feGaussianBlur stdDeviation="2"/>
<feComposite in2="hardAlpha" operator="arithmetic" k2="-1" k3="1"/>
<feColorMatrix type="matrix" values="0 0 0 0 0 0 0 0 0 0 0 0 0 0 0 0 0 0 0.25 0"/>
<feBlend mode="normal" in2="shape" result="effect1_innerShadow_67_374"/>
</filter>
</defs>
</svg>
