<svg width="29" height="35" viewBox="0 0 29 35" fill="none" xmlns="http://www.w3.org/2000/svg">
<path d="M20.6206 33.1408V20.7276L18.6071 19.7844L18.0606 16.882H10.9393L10.3928 19.7844L8.44427 20.6972V33.1408H20.6206Z" fill="#E2B48A"/>
<path d="M29 34.4977L28.4798 27.8484C28.3951 26.7647 28.0247 25.7228 27.4061 24.8288C26.7876 23.9349 25.9432 23.221 24.9588 22.7597L19.3708 20.1417V21.7587H18.7339V22.6075H9.35956V20.2685L4.04116 22.7597C3.05668 23.2208 2.21206 23.9348 1.59339 24.8287C0.974724 25.7226 0.60413 26.7646 0.519383 27.8484L0 34.4977H29Z" fill="#BAC2D3"/>
<path d="M15.3315 22.6261H12.6549L12.1451 23.8146L13.6813 25.7698L12.7882 30.0568L14.4986 33.7626L16.4149 29.7767L15.6121 25.6898L16.8286 23.6898L15.3315 22.6261Z" fill="#DA2A47"/>
<path d="M28.4801 27.8483C28.3954 26.7646 28.0249 25.7226 27.4063 24.8287C26.7877 23.9348 25.9432 23.2209 24.9588 22.7597L19.8663 20.3733C19.451 22.7383 18.4648 24.9056 17.3932 27.0401C16.8962 28.0301 16.4305 29.0166 15.9922 30.0318C15.7477 30.5945 14.5 33.8819 14.5 33.8819C14.5 33.8819 12.4772 28.8469 12.109 27.8924C11.6099 26.5979 11.2257 25.2509 10.5642 24.0262C10.4509 23.8162 10.3313 23.6098 10.2083 23.4047C9.08303 22.9628 8.50451 22.0084 8.52587 20.6583L4.04116 22.7597C3.05668 23.2208 2.21206 23.9347 1.59339 24.8286C0.974724 25.7225 0.60413 26.7645 0.519383 27.8483L0 34.4976H29L28.4801 27.8483Z" fill="#707583"/>
<path d="M28.4801 27.8483C28.3954 26.7646 28.0249 25.7226 27.4063 24.8287C26.7877 23.9348 25.9432 23.2209 24.9588 22.7597L19.8663 20.3733C19.451 22.7383 18.4648 24.9056 17.3932 27.0401C16.8962 28.0301 16.4305 29.0166 15.9922 30.0318C15.7477 30.5945 14.5 33.8819 14.5 33.8819C14.5 33.8819 12.4772 28.8469 12.109 27.8924C11.6099 26.5979 11.2257 25.2509 10.5642 24.0262C10.4509 23.8162 10.3313 23.6098 10.2083 23.4047C9.08303 22.9628 8.50451 22.0084 8.52587 20.6583L4.04116 22.7597C3.05668 23.2208 2.21206 23.9347 1.59339 24.8286C0.974724 25.7225 0.60413 26.7645 0.519383 27.8483L0 34.4976H29L28.4801 27.8483Z" fill="#384868"/>
<path d="M29 34.4977H25.0738L24.5536 27.8473C24.468 26.7637 24.0969 25.722 23.4779 24.8285C22.859 23.9349 22.0143 23.2213 21.0299 22.7603L19.4775 22.032C19.6358 21.4862 19.7646 20.9324 19.8635 20.3728L24.9588 22.7603C25.9429 23.2214 26.7871 23.9351 27.4056 24.8287C28.0241 25.7223 28.3948 26.7639 28.4798 27.8473L29 34.4977Z" fill="#2F3A5A"/>
<path d="M22.2617 13.1333C22.5523 11.8918 22.2248 10.7535 21.53 10.5908C20.8353 10.4282 20.0365 11.3029 19.7459 12.5444C19.4553 13.786 19.7828 14.9243 20.4776 15.0869C21.1723 15.2496 21.9711 14.3749 22.2617 13.1333Z" fill="#E2B48A"/>
<path d="M8.48027 15.0969C9.17499 14.9343 9.50256 13.796 9.21193 12.5544C8.92129 11.3128 8.12251 10.4382 7.42779 10.6008C6.73308 10.7634 6.4055 11.9018 6.69613 13.1433C6.98677 14.3849 7.78555 15.2595 8.48027 15.0969Z" fill="#E2B48A"/>
<path d="M14.4733 19.3683C18.0765 19.3683 20.9975 15.3424 20.9975 10.3762C20.9975 5.40995 18.0765 1.38403 14.4733 1.38403C10.8701 1.38403 7.94916 5.40995 7.94916 10.3762C7.94916 15.3424 10.8701 19.3683 14.4733 19.3683Z" fill="#F0C191"/>
<path d="M20.5884 13.4782C20.5884 13.4782 22.8924 9.36172 22.3932 6.09703C21.8941 2.83234 19.6948 1.80179 18.3879 1.80179C18.3879 1.80179 16.6242 -0.809907 12.2657 0.255416C7.90721 1.32074 6.15467 6.10689 6.97933 9.12626C7.80399 12.1456 8.35376 13.5327 8.35376 13.5327C8.35376 13.5327 7.80399 9.6722 8.42248 7.54073C9.04098 5.40927 10.8967 3.72627 11.6185 4.31C12.3402 4.89372 16.9448 4.70015 17.7007 3.40648C18.6939 4.13421 19.3586 5.22544 19.5496 6.44174C19.7961 8.40044 20.8964 9.60321 20.7935 11.0119C20.6905 12.4205 20.5884 13.4782 20.5884 13.4782Z" fill="#2F3A5A"/>
<path d="M18.4193 18.7775L14.5 22.6073L17.9985 25.0114L19.6358 20.2609L18.4193 18.7775Z" fill="#D9E2E9"/>
<path d="M9.36419 20.2609L11.1378 24.9005L14.5 22.6073L10.5806 18.7775L9.36419 20.2609Z" fill="#D9E2E9"/>
<path d="M20.6558 20.744L18.4192 18.7774L18.4146 18.7727C18.4146 18.7727 18.3738 24.6483 14.4993 33.7625C10.6241 24.6483 10.5841 18.7727 10.5841 18.7727L10.5795 18.7774L8.34314 20.744L7.94916 24.0687L9.80355 23.7721L8.41296 25.8803C9.21928 27.8445 14.4999 33.9774 14.4999 33.9774C15.3309 33.06 19.9051 27.7643 20.6172 26.0285L19.1949 23.7721L21.2705 23.8313L20.6558 20.744Z" fill="#43567C"/>
</svg>
