<svg width="63" height="63" viewBox="0 0 63 63" fill="none" xmlns="http://www.w3.org/2000/svg">
<path d="M60.4785 28.1852C60.4785 27.844 60.2015 27.5669 59.8602 27.5669C40.9573 27.5669 22.0471 27.5669 3.13689 27.5669C2.79564 27.5669 2.51855 27.844 2.51855 28.1852V62.3802C2.51855 62.7215 2.79564 62.9986 3.13689 62.9986H59.8602C60.2015 62.9986 60.4785 62.7215 60.4785 62.3802V28.1852Z" fill="#ECEDF2"/>
<path d="M41.5961 62.9986H54.1756V45.9944C54.1756 45.6532 53.8986 45.3761 53.5573 45.3761H42.2129C41.8717 45.3761 41.5946 45.6532 41.5946 45.9944V62.9986H41.5961Z" fill="#BE6450"/>
<path fill-rule="evenodd" clip-rule="evenodd" d="M42.646 46.426H53.1256V62.9985H42.646V46.426Z" fill="#C2ECFF"/>
<path fill-rule="evenodd" clip-rule="evenodd" d="M42.646 54.2004V55.4356H45.9958C46.337 55.4356 46.6141 55.1586 46.6141 54.8173C46.6141 54.4761 46.337 54.199 45.9958 54.199H42.646V54.2004Z" fill="#E8F8FF"/>
<path d="M50.5633 11.3429H47.2558H4.41292C4.14896 11.3371 3.90104 11.5019 3.81354 11.7658L3.815 11.7688L0.0525001 23.0563C0.0189584 23.1335 0 23.2181 0 23.3071C0 23.6483 0.277083 23.9254 0.618333 23.9254H62.3715C62.44 23.9269 62.51 23.9167 62.5785 23.8933C62.9023 23.7854 63.0773 23.4354 62.9694 23.1117L62.9665 23.1131L59.204 11.8242C59.1412 11.55 58.8948 11.3444 58.6017 11.3444H50.5633V11.3429Z" fill="#F45379"/>
<path d="M48.9241 11.3429H47.2558H14.0787V20.0083H14.0758V21.0583C14.0758 22.0996 14.4871 23.0912 15.2221 23.8262C15.2556 23.8598 15.2877 23.8919 15.3227 23.9225H47.6773C47.7108 23.8904 47.7443 23.8583 47.7779 23.8262C48.6018 23.0023 48.9241 22.2716 48.9241 21.2464V11.3429Z" fill="#F5426C"/>
<path d="M4.55583 32.7468H4.40125C3.18646 32.7468 2.08542 32.2539 1.28917 31.4577C0.492916 30.6614 0 29.5618 0 28.3456V23.3056C0 22.9643 0.277083 22.6873 0.618333 22.6873H8.33875C8.68 22.6873 8.95708 22.9643 8.95708 23.3056V28.3456C8.95708 29.5604 8.46417 30.6614 7.66792 31.4577C6.87021 32.2539 5.77062 32.7468 4.55583 32.7468Z" fill="#FFE663"/>
<path d="M12.2763 32.7468H12.1217C10.9069 32.7468 9.80588 32.2539 9.00963 31.4577C8.21338 30.6614 7.72046 29.5618 7.72046 28.3456V23.3056C7.72046 22.9643 7.99754 22.6873 8.33879 22.6873H16.0592C16.4005 22.6873 16.6775 22.9643 16.6775 23.3056V28.3456C16.6775 29.5604 16.1846 30.6614 15.3884 31.4577C14.5907 32.2539 13.4911 32.7468 12.2763 32.7468Z" fill="#FF6488"/>
<path d="M19.9966 32.7468H19.842C18.6273 32.7468 17.5262 32.2539 16.73 31.4577C15.9337 30.6614 15.4408 29.5618 15.4408 28.3456V23.3056C15.4408 22.9643 15.7179 22.6873 16.0591 22.6873H23.7795C24.1208 22.6873 24.3979 22.9643 24.3979 23.3056V28.3456C24.3979 29.5604 23.905 30.6614 23.1087 31.4577C22.311 32.2539 21.2114 32.7468 19.9966 32.7468Z" fill="#FFE663"/>
<path d="M27.7171 32.7468H27.5625C26.3477 32.7468 25.2467 32.2539 24.4504 31.4577C23.6542 30.6614 23.1613 29.5618 23.1613 28.3456V23.3056C23.1613 22.9643 23.4383 22.6873 23.7796 22.6873H31.5C31.8413 22.6873 32.1183 22.9643 32.1183 23.3056V28.3456C32.1183 29.5604 31.6254 30.6614 30.8292 31.4577C30.0329 32.2539 28.9319 32.7468 27.7171 32.7468Z" fill="#FF6488"/>
<path d="M35.4374 32.7468H35.2828C34.0681 32.7468 32.967 32.2539 32.1708 31.4577C31.3745 30.6614 30.8816 29.5618 30.8816 28.3456V23.3056C30.8816 22.9643 31.1587 22.6873 31.4999 22.6873H39.2203C39.5616 22.6873 39.8387 22.9643 39.8387 23.3056V28.3456C39.8387 29.5604 39.3458 30.6614 38.5495 31.4577C37.7533 32.2539 36.6522 32.7468 35.4374 32.7468Z" fill="#FFE663"/>
<path d="M43.1579 32.7468H43.0033C41.7885 32.7468 40.6875 32.2539 39.8912 31.4577C39.095 30.6614 38.6021 29.5618 38.6021 28.3456V23.3056C38.6021 22.9643 38.8791 22.6873 39.2204 22.6873H46.9408C47.2821 22.6873 47.5591 22.9643 47.5591 23.3056V28.3456C47.5591 29.5604 47.0662 30.6614 46.27 31.4577C45.4737 32.2539 44.3727 32.7468 43.1579 32.7468Z" fill="#FF6488"/>
<path d="M50.8783 32.7468H50.7238C49.509 32.7468 48.4079 32.2539 47.6117 31.4577C46.8154 30.6614 46.3225 29.5618 46.3225 28.3456V23.3056C46.3225 22.9643 46.5996 22.6873 46.9408 22.6873H54.6613C55.0025 22.6873 55.2796 22.9643 55.2796 23.3056V28.3456C55.2796 29.5604 54.7867 30.6614 53.9904 31.4577C53.1942 32.2539 52.0931 32.7468 50.8783 32.7468Z" fill="#FFE663"/>
<path d="M58.5988 32.7468H58.4442C57.2294 32.7468 56.1284 32.2539 55.3321 31.4577C54.5359 30.6614 54.043 29.5618 54.043 28.3456V23.3056C54.043 22.9643 54.3201 22.6873 54.6613 22.6873H62.3817C62.723 22.6873 63.0001 22.9643 63.0001 23.3056V28.3456C63.0001 29.5604 62.5071 30.6614 61.7109 31.4577C60.9146 32.2539 59.8151 32.7468 58.5988 32.7468Z" fill="#FF6488"/>
<path d="M45.0086 23.9225H17.9915C17.2011 23.9225 16.4836 23.6017 15.9659 23.084C15.4481 22.5662 15.1273 21.8487 15.1273 21.0583H15.1288V2.86417H15.1259C15.1259 2.07375 15.4467 1.35625 15.9644 0.838542C16.4821 0.319375 17.1996 0 17.99 0H45.0086C45.799 0 46.5165 0.320833 47.0342 0.838542C47.5519 1.35625 47.8727 2.07375 47.8727 2.86417V21.0583H47.8698C47.8698 21.8502 47.5504 22.5677 47.0327 23.084C46.5165 23.6017 45.8004 23.9225 45.0086 23.9225Z" fill="#F45379"/>
<path fill-rule="evenodd" clip-rule="evenodd" d="M46.4552 19.7283V2.97353C46.4552 2.54478 46.2875 2.13936 45.9842 1.83457C45.6809 1.53123 45.2754 1.36353 44.8452 1.36353H18.1548C17.7261 1.36353 17.3206 1.53123 17.0173 1.83457C16.7344 2.11748 16.5696 2.4879 16.5477 2.88311V21.035C16.5696 21.4317 16.7344 21.8021 17.0173 22.0835C17.3206 22.3869 17.7261 22.5546 18.1563 22.5546H44.8467C45.2754 22.5546 45.6809 22.3869 45.9856 22.0835C46.289 21.7802 46.4552 21.3748 46.4552 20.946V19.7254V19.7283Z" fill="#FBFBFB"/>
<path d="M37.1715 56.6956H8.18132C7.84007 56.6956 7.56299 56.4185 7.56299 56.0773V37.1714C7.56299 36.8302 7.84007 36.5531 8.18132 36.5531H37.173C37.5142 36.5531 37.7913 36.8302 37.7913 37.1714V56.0787C37.7899 56.42 37.5128 56.6956 37.1715 56.6956Z" fill="#BE6450"/>
<path d="M8.7981 37.7883H36.5546V55.4604H8.7981V37.7883Z" fill="#C2ECFF"/>
<path d="M0.618333 61.7633C0.277083 61.7633 0 62.0404 0 62.3816C0 62.7229 0.277083 63 0.618333 63H62.3831C62.7244 63 63.0015 62.7229 63.0015 62.3816C63.0015 62.0404 62.7244 61.7633 62.3831 61.7633H0.618333Z" fill="#676577"/>
<path fill-rule="evenodd" clip-rule="evenodd" d="M36.5546 37.7883H8.7981V55.4604H10.5481V39.4508H36.5546V37.7883Z" fill="#ADE5FF"/>
<path fill-rule="evenodd" clip-rule="evenodd" d="M53.127 46.426H42.646V47.3448H52.1208V61.7633H53.127V46.426Z" fill="#ADE5FF"/>
<path d="M8.18132 47.8975C7.84007 47.8975 7.56299 48.1745 7.56299 48.5158C7.56299 48.857 7.84007 49.1341 8.18132 49.1341H37.173C37.5142 49.1341 37.7913 48.857 37.7913 48.5158C37.7913 48.1745 37.5142 47.8975 37.173 47.8975H8.18132Z" fill="#BE6450"/>
<path d="M15.101 47.8975H30.2517V44.0913H15.101V47.8975ZM30.87 49.1327H14.4827C14.1415 49.1327 13.8644 48.8557 13.8644 48.5144V43.473C13.8644 43.1317 14.1415 42.8546 14.4827 42.8546H30.8685C31.2098 42.8546 31.4869 43.1317 31.4869 43.473V48.5144C31.4869 48.8571 31.2113 49.1327 30.87 49.1327Z" fill="#BE6450"/>
<path d="M34.2562 7.04666C35.5527 7.43895 36.6873 7.98583 37.4427 8.67562L41.892 6.37875C41.9854 6.32187 42.0962 6.28833 42.2143 6.28833C42.5556 6.28833 42.8327 6.56541 42.8327 6.90666V17.0042C42.8341 17.1019 42.8123 17.2025 42.7641 17.2958C42.6081 17.5992 42.2362 17.7187 41.9329 17.5627V17.5612L37.5229 15.2906C36.731 15.9337 35.5293 16.469 34.1818 16.8627C32.512 17.3498 30.5987 17.6312 28.9814 17.6312C26.6058 17.6312 24.4416 17.029 22.8652 16.0577C21.2012 15.031 20.1716 13.5844 20.1716 11.9612C20.1716 10.3381 21.2012 8.89145 22.8652 7.86479C24.4416 6.89208 26.6058 6.29125 28.9814 6.29125C30.7052 6.28979 32.6229 6.55229 34.2562 7.04666Z" fill="#AAE0FF"/>
<path d="M29.2935 17.6283C29.187 17.6313 29.0835 17.6313 28.9785 17.6313C26.6029 17.6313 24.4387 17.029 22.8622 16.0577C21.1983 15.0311 20.1687 13.5844 20.1687 11.9613C20.1687 10.3381 21.1983 8.89147 22.8622 7.8648C24.4387 6.89209 26.6029 6.29126 28.9785 6.29126C29.1637 6.29126 29.3504 6.29418 29.5385 6.30001C29.6668 6.42397 29.75 6.51147 29.7747 6.54501C30.272 7.2173 31.1164 8.59688 31.3745 10.4796C31.6312 12.3536 31.3089 14.7204 29.486 17.3644C29.4641 17.395 29.397 17.4883 29.2935 17.6283Z" fill="#97D7FC"/>
<path d="M24.7436 12.0356C25.3855 12.0356 25.9059 11.5153 25.9059 10.8734C25.9059 10.2314 25.3855 9.71106 24.7436 9.71106C24.1017 9.71106 23.5813 10.2314 23.5813 10.8734C23.5813 11.5153 24.1017 12.0356 24.7436 12.0356Z" fill="#667188"/>
</svg>
