<svg width="58" height="51" viewBox="0 0 58 51" fill="none" xmlns="http://www.w3.org/2000/svg">
<path d="M29 1C12.9839 1 0 4.58203 0 9V43C0 47.418 12.9839 51 29 51C45.0161 51 58 47.418 58 43V9C58 4.58203 45.0161 1 29 1Z" fill="#F98C96"/>
<path d="M29 1C12.9839 1 0 4.58203 0 9V14C0 18.418 12.9839 22 29 22C45.0161 22 58 18.418 58 14V9C58 4.58203 45.0161 1 29 1Z" fill="#DD3E46"/>
<path d="M5 25.4912V47.4912C10.2168 49.6089 19.019 51 29 51C38.981 51 47.7832 49.6089 53 47.4912V25.4912C47.7832 27.6089 38.981 29 29 29C19.019 29 10.2168 27.6089 5 25.4912Z" fill="#DD3E46"/>
<path d="M19 37.9999C19 37.9999 32 29.9999 42 38.9999C42 38.9999 40 43.9999 30 43.9999C20 43.9999 19 37.9999 19 37.9999Z" fill="#CFDFE8"/>
<path d="M58 8C57.8701 9.18457 57.1782 10.2344 56.1401 10.8198C55.5381 11.2583 54.895 11.6367 54.2202 11.9502C49.23 14.3701 39.8101 16 29 16C12.98 16 0 12.4199 0 8C0 3.58008 12.98 0 29 0C45.02 0 58 3.58008 58 8Z" fill="#CFDFE8"/>
<path d="M24.9995 9C24.9995 7.34326 21.418 6 16.9995 6C12.5811 6 8.99951 7.34326 8.99951 9C8.99951 10.6567 12.5811 12 16.9995 12C21.418 12 24.9995 10.6567 24.9995 9Z" fill="#426D78"/>
<path d="M56.1401 10.8198C55.5381 11.2583 54.895 11.6367 54.2202 11.9502C51.98 10.5601 45.8999 7.72021 32.9399 7L33.0601 5C48.2002 5.83984 54.3799 9.5 56.1401 10.8198Z" fill="#AABECE"/>
<path d="M28 5H30V7H28V5Z" fill="#AABECE"/>
<path d="M19 38C19 38 19 42 14 44C15.1602 40.084 15.1602 35.916 14 32C14 32 19 35 19 38Z" fill="#AABECE"/>
<path d="M46.6289 34V32C49.4038 32 54.209 30.0908 54.2578 30.0708L55 31.9292C54.7891 32.0132 49.7852 34 46.6289 34Z" fill="#F98C96"/>
<path d="M42.6289 32H44.6289V34H42.6289V32Z" fill="#F98C96"/>
<path d="M8 43H10V45H8V43Z" fill="#F98C96"/>
</svg>
