<svg width="52" height="46" viewBox="0 0 52 46" fill="none" xmlns="http://www.w3.org/2000/svg">
<g filter="url(#filter0_i_87_252)">
<path d="M45.5576 32.7774L44.1532 35.0028C43.7653 35.6174 42.9528 35.8012 42.3382 35.4134L14.5197 17.8579L17.3285 13.407L45.1471 30.9624C45.7616 31.3502 45.9454 32.1628 45.5576 32.7774Z" fill="#A56A43"/>
<path d="M15.156 9.45312C14.6795 10.7025 15.1804 12.113 16.3382 12.782L17.3285 13.4069L14.5197 17.8579L13.5627 17.254C12.3148 16.4224 10.6308 16.7439 9.77701 17.9767C9.23039 18.8544 9.12261 19.9362 9.48532 20.9044L7.37867 24.2426C6.99084 24.8572 6.17826 25.041 5.56371 24.6532L1.11274 21.8443C0.498192 21.4565 0.314394 20.6439 0.702218 20.0293L2.80887 16.6911C3.83895 16.6018 4.76907 16.039 5.32604 15.1679C5.88063 14.2929 5.9888 13.2073 5.61773 12.2402L10.5333 4.45097C12.0845 1.99277 15.3349 1.25757 17.7931 2.80887L21.6877 5.26662C22.6095 5.84836 22.8852 7.06724 22.3035 7.98906C21.7217 8.91089 20.5029 9.18659 19.581 8.60485L19.0247 8.25374C18.3687 7.8263 17.5565 7.71312 16.8087 7.94497C16.0609 8.17681 15.4551 8.72959 15.156 9.45312Z" fill="#95A5A5"/>
</g>
<defs>
<filter id="filter0_i_87_252" x="0.499001" y="1.99597" width="45.2618" height="37.6206" filterUnits="userSpaceOnUse" color-interpolation-filters="sRGB">
<feFlood flood-opacity="0" result="BackgroundImageFix"/>
<feBlend mode="normal" in="SourceGraphic" in2="BackgroundImageFix" result="shape"/>
<feColorMatrix in="SourceAlpha" type="matrix" values="0 0 0 0 0 0 0 0 0 0 0 0 0 0 0 0 0 0 127 0" result="hardAlpha"/>
<feOffset dy="4"/>
<feGaussianBlur stdDeviation="2"/>
<feComposite in2="hardAlpha" operator="arithmetic" k2="-1" k3="1"/>
<feColorMatrix type="matrix" values="0 0 0 0 0 0 0 0 0 0 0 0 0 0 0 0 0 0 0.25 0"/>
<feBlend mode="normal" in2="shape" result="effect1_innerShadow_87_252"/>
</filter>
</defs>
</svg>
