<svg width="70" height="70" viewBox="0 0 70 70" fill="none" xmlns="http://www.w3.org/2000/svg">
<g filter="url(#filter0_i_67_437)">
<rect width="70" height="70" rx="6" fill="#EBD2B5"/>
</g>
<path d="M41.0608 38.2132H51.4506C52.8284 38.2132 54.1497 37.707 55.1239 36.806C56.0982 35.905 56.6455 34.683 56.6455 33.4089V22.9995H41.0608V38.2132Z" fill="#784533"/>
<path d="M60.1088 42.2169V55.0284C60.1088 55.8778 59.7439 56.6925 59.0944 57.2932C58.4449 57.8938 57.564 58.2313 56.6455 58.2313H34.1343V42.2169C34.1343 41.1551 34.5904 40.1367 35.4022 39.3859C36.2141 38.6351 37.3152 38.2133 38.4634 38.2133H41.9266C42.3859 38.2133 42.8263 38.0446 43.1511 37.7443C43.4758 37.4439 43.6583 37.0366 43.6583 36.6119V31.0068H50.5848V36.6119C50.5848 37.0366 50.7672 37.4439 51.092 37.7443C51.4167 38.0446 51.8572 38.2133 52.3164 38.2133H55.7797C56.9279 38.2133 58.029 38.6351 58.8408 39.3859C59.6527 40.1367 60.1088 41.1551 60.1088 42.2169Z" fill="#FDC8A2"/>
<path d="M50.5847 30.2061V35.0614C49.5081 35.5546 48.3229 35.8111 47.1215 35.8111C45.92 35.8111 44.7348 35.5546 43.6582 35.0614V30.2061H50.5847Z" fill="#FDB683"/>
<path d="M53.1823 38.2131H55.7797C56.9279 38.2131 58.029 38.6349 58.8408 39.3858C59.6527 40.1366 60.1088 41.1549 60.1088 42.2167V55.0282C60.1088 55.8777 59.7439 56.6923 59.0944 57.293C58.4449 57.8937 57.564 58.2311 56.6455 58.2311H34.1343V42.2167C34.1343 41.1549 34.5904 40.1366 35.4022 39.3858C36.2141 38.6349 37.3152 38.2131 38.4634 38.2131H41.0608L41.1846 38.4995C41.6593 39.5968 42.4785 40.5374 43.5367 41.2C44.595 41.8626 45.8436 42.2167 47.1215 42.2167C48.3995 42.2167 49.6481 41.8626 50.7063 41.2C51.7645 40.5374 52.5838 39.5968 53.0584 38.4995L53.1823 38.2131Z" fill="#DE5540"/>
<path d="M55.3465 22.9995H54.9136V27.0031H55.3465C55.9206 27.0031 56.4711 26.7922 56.877 26.4168C57.283 26.0414 57.511 25.5322 57.511 25.0013C57.511 24.4704 57.283 23.9612 56.877 23.5858C56.4711 23.2104 55.9206 22.9995 55.3465 22.9995Z" fill="#FDBF92"/>
<path d="M42.7924 17.3945H51.4505C52.3691 17.3945 53.25 17.732 53.8994 18.3326C54.5489 18.9333 54.9138 19.748 54.9138 20.5974V27.0032C54.9138 28.9144 54.0928 30.7474 52.6315 32.0989C51.1701 33.4504 49.1881 34.2096 47.1215 34.2096C45.0548 34.2096 43.0728 33.4504 41.6114 32.0989C40.1501 30.7474 39.3291 28.9144 39.3291 27.0032V20.5974C39.3291 19.748 39.694 18.9333 40.3435 18.3326C40.993 17.732 41.8739 17.3945 42.7924 17.3945Z" fill="#FDC8A2"/>
<path d="M43.2252 22.9995C42.9684 22.9995 42.7173 23.07 42.5037 23.2019C42.2901 23.3339 42.1237 23.5215 42.0254 23.741C41.9271 23.9604 41.9014 24.2019 41.9515 24.4349C42.0016 24.6679 42.1253 24.8819 42.3069 25.0499C42.4885 25.2179 42.7199 25.3322 42.9719 25.3786C43.2238 25.4249 43.4849 25.4011 43.7222 25.3102C43.9595 25.2193 44.1624 25.0654 44.3051 24.8679C44.4478 24.6704 44.524 24.4381 44.524 24.2006C44.5236 23.8821 44.3866 23.5769 44.1432 23.3517C43.8997 23.1265 43.5696 22.9999 43.2252 22.9995Z" fill="#844E3A"/>
<path d="M51.0175 22.9995C50.7606 22.9995 50.5095 23.07 50.2959 23.2019C50.0824 23.3339 49.9159 23.5215 49.8176 23.741C49.7193 23.9604 49.6936 24.2019 49.7437 24.4349C49.7938 24.6679 49.9175 24.8819 50.0991 25.0499C50.2808 25.2179 50.5122 25.3322 50.7641 25.3786C51.016 25.4249 51.2772 25.4011 51.5145 25.3102C51.7518 25.2193 51.9546 25.0654 52.0973 24.8679C52.24 24.6704 52.3162 24.4381 52.3162 24.2006C52.3158 23.8821 52.1789 23.5769 51.9354 23.3517C51.6919 23.1265 51.3618 22.9999 51.0175 22.9995Z" fill="#844E3A"/>
<path d="M47.1214 28.6047C46.8918 28.6044 46.6718 28.52 46.5094 28.3699C46.3471 28.2198 46.2558 28.0162 46.2556 27.804H44.5239C44.5239 28.441 44.7976 29.052 45.2847 29.5025C45.7718 29.953 46.4325 30.2061 47.1214 30.2061C47.8103 30.2061 48.4709 29.953 48.9581 29.5025C49.4452 29.052 49.7188 28.441 49.7188 27.804H47.9872C47.9869 28.0162 47.8956 28.2198 47.7333 28.3699C47.571 28.52 47.3509 28.6044 47.1214 28.6047Z" fill="#FCB079"/>
<path d="M42.7923 21.3982L48.853 17.3946L54.9138 22.9996H56.6454V20.5975C56.6454 18.2615 55.642 16.0211 53.8559 14.3693C52.0698 12.7175 49.6473 11.7896 47.1214 11.7896C44.5955 11.7896 42.173 12.7175 40.3869 14.3693C38.6008 16.0211 37.5974 18.2615 37.5974 20.5975V33.4089C37.5974 34.6831 38.1447 35.9051 39.119 36.8061C40.0932 37.7071 41.4145 38.2133 42.7923 38.2133V21.3982Z" fill="#844E3A"/>
<path d="M47.8097 14.0588C42.6714 14.2417 40.5226 18.0373 40.4336 18.1989L41.975 18.9286C42.0466 18.8012 43.7762 15.805 47.8763 15.6592L47.8097 14.0588Z" fill="#784533"/>
<path d="M56.1369 47.1261L52.9659 37.5376C52.9316 37.4358 52.8757 37.3414 52.8015 37.2599C52.7273 37.1784 52.6363 37.1114 52.5337 37.0628C52.4311 37.0143 52.3191 36.9851 52.2042 36.9771C52.0893 36.9691 51.9738 36.9824 51.8645 37.0162C51.6499 37.0827 51.4719 37.2242 51.3687 37.4106C51.2656 37.5969 51.2454 37.8132 51.3126 38.0131L53.7518 45.4197H41.1102L42.7384 38.1381C42.7862 37.932 42.7441 37.7168 42.6214 37.5392C42.4987 37.3616 42.3052 37.2359 42.0829 37.1894H42.0812C41.9697 37.1661 41.8543 37.1635 41.7417 37.1817C41.629 37.1999 41.5214 37.2385 41.425 37.2954C41.3286 37.3522 41.2454 37.4262 41.18 37.513C41.1147 37.5998 41.0686 37.6977 41.0444 37.801L38.8783 47.3384C38.4526 48.3645 38.3504 49.4812 38.5834 50.5589C38.8165 51.6366 39.3754 52.6311 40.1951 53.4268V58.2311H54.914V53.4268C56.693 51.7231 57.1001 49.2041 56.1369 47.1261Z" fill="#844E3A"/>
<path d="M27.2077 19.7972C27.2076 18.286 26.7451 16.8058 25.8737 15.5275C25.0023 14.2491 23.7575 13.225 22.2832 12.5733C20.809 11.9217 19.1654 11.6691 17.5425 11.8449C15.9196 12.0206 14.3836 12.6175 13.112 13.5665C11.8405 14.5156 10.8852 15.778 10.3567 17.2079C9.82824 18.6378 9.74806 20.1769 10.1255 21.6471C10.5029 23.1174 11.3225 24.4589 12.4895 25.5166C13.6565 26.5743 15.1234 27.305 16.7205 27.6242L18.5495 30.2065L20.3786 27.6242C22.3124 27.2373 24.0447 26.2497 25.2872 24.8256C26.5297 23.4016 27.2075 21.627 27.2077 19.7972Z" fill="#FFB431"/>
<path d="M22.0128 18.1952V17.9898C22.012 17.4074 21.7615 16.849 21.3163 16.4372C20.871 16.0254 20.2672 15.7938 19.6375 15.7931H19.4153V14.1917H17.6837V15.7931H17.4615C16.8975 15.7931 16.3519 15.9787 15.9223 16.3167C15.4927 16.6547 15.2072 17.123 15.1169 17.6379C15.0265 18.1528 15.1372 18.6806 15.4292 19.1269C15.7212 19.5732 16.1753 19.9088 16.7104 20.0737L19.8411 21.0389C19.9861 21.0836 20.1092 21.1745 20.1883 21.2955C20.2674 21.4164 20.2974 21.5594 20.2729 21.699C20.2484 21.8385 20.1711 21.9654 20.0546 22.057C19.9382 22.1486 19.7904 22.1989 19.6375 22.1988H17.4615C17.2909 22.1986 17.1273 22.1359 17.0066 22.0243C16.8859 21.9127 16.8181 21.7614 16.8179 21.6036V21.3981H15.0862V21.6036C15.087 22.186 15.3375 22.7443 15.7828 23.1561C16.228 23.5679 16.8318 23.7996 17.4615 23.8003H17.6837V25.4017H19.4153V23.8003H19.6375C20.2015 23.8003 20.7472 23.6147 21.1767 23.2767C21.6063 22.9387 21.8918 22.4703 21.9822 21.9555C22.0725 21.4406 21.9618 20.9128 21.6698 20.4665C21.3779 20.0202 20.9237 19.6846 20.3886 19.5196L17.2579 18.5545C17.1129 18.5098 16.9898 18.4188 16.9107 18.2979C16.8316 18.177 16.8016 18.0339 16.8261 17.8944C16.8506 17.7549 16.928 17.628 17.0444 17.5364C17.1608 17.4448 17.3087 17.3945 17.4615 17.3945H19.6375C19.8082 17.3947 19.9717 17.4575 20.0924 17.5691C20.2131 17.6807 20.2809 17.8319 20.2811 17.9898V18.1952H22.0128Z" fill="#FFC261"/>
<path d="M45.3896 53.427V58.2313H56.6453C57.5638 58.2313 58.4447 57.8939 59.0942 57.2932C59.7437 56.6926 60.1085 55.8779 60.1085 55.0284V53.427H45.3896Z" fill="#DE5540"/>
<path d="M45.3897 53.4268L41.9264 51.0247H35.8657V55.0283H39.329C39.5763 55.9431 40.1472 56.7552 40.9509 57.3356C41.7546 57.9159 42.745 58.2311 43.7647 58.2311H45.3897V53.4268Z" fill="#FDC8A2"/>
<path d="M40.195 58.2312H9.89136V45.4197H28.9393H32.4026L40.195 54.2276V58.2312Z" fill="#3BA5D3"/>
<path d="M9.89136 45.4197H28.9393V58.2312H9.89136V45.4197Z" fill="#4DB6E4"/>
<path d="M11.623 33.4089H25.4761V39.8147H11.623V33.4089Z" fill="#4DB6E4"/>
<path d="M21.147 35.811H22.8786V37.4125H21.147V35.811Z" fill="#2D96C3"/>
<path d="M17.6836 35.811H19.4152V37.4125H17.6836V35.811Z" fill="#2D96C3"/>
<path d="M14.2205 35.811H15.9521V37.4125H14.2205V35.811Z" fill="#2D96C3"/>
<path d="M12.4888 47.8218H14.2204V49.4232H12.4888V47.8218Z" fill="#5CC1ED"/>
<path d="M12.4888 51.0247H14.2204V55.829H12.4888V51.0247Z" fill="#5CC1ED"/>
<path d="M16.8179 39.8147H20.2811V45.4197H16.8179V39.8147Z" fill="#DFDFDD"/>
<path d="M16.8179 39.8147H20.2811V41.4161H16.8179V39.8147Z" fill="#D5D5D3"/>
<defs>
<filter id="filter0_i_67_437" x="0" y="0" width="70" height="74" filterUnits="userSpaceOnUse" color-interpolation-filters="sRGB">
<feFlood flood-opacity="0" result="BackgroundImageFix"/>
<feBlend mode="normal" in="SourceGraphic" in2="BackgroundImageFix" result="shape"/>
<feColorMatrix in="SourceAlpha" type="matrix" values="0 0 0 0 0 0 0 0 0 0 0 0 0 0 0 0 0 0 127 0" result="hardAlpha"/>
<feOffset dy="4"/>
<feGaussianBlur stdDeviation="2"/>
<feComposite in2="hardAlpha" operator="arithmetic" k2="-1" k3="1"/>
<feColorMatrix type="matrix" values="0 0 0 0 0 0 0 0 0 0 0 0 0 0 0 0 0 0 0.25 0"/>
<feBlend mode="normal" in2="shape" result="effect1_innerShadow_67_437"/>
</filter>
</defs>
</svg>
