<svg width="116" height="58" viewBox="0 0 116 58" fill="none" xmlns="http://www.w3.org/2000/svg">
<path fill-rule="evenodd" clip-rule="evenodd" d="M57.7438 0C25.8529 0 0 25.8529 0 57.7438H21.5259C21.5259 37.7411 37.7411 21.5259 57.7438 21.5259C77.7465 21.5259 93.9617 37.7414 93.9617 57.7438H115.488C115.488 25.8529 89.6348 0 57.7438 0Z" fill="#8AC9FE"/>
<path fill-rule="evenodd" clip-rule="evenodd" d="M89.1144 39.6322L107.76 28.8673C102.689 20.1047 95.3829 12.7982 86.6206 7.72803L75.8557 26.3733C81.3517 29.5533 85.9344 34.1362 89.1144 39.6322Z" fill="#6CF5C2"/>
<path fill-rule="evenodd" clip-rule="evenodd" d="M75.8557 26.3733L86.6206 7.72805C78.1262 2.81309 68.2633 0 57.7438 0V21.5259C64.3418 21.5259 70.5278 23.2905 75.8557 26.3733Z" fill="#FFD064"/>
<path fill-rule="evenodd" clip-rule="evenodd" d="M57.7438 21.5259V0C47.2241 0 37.3617 2.81308 28.8671 7.72781L39.632 26.373C44.9598 23.2905 51.1459 21.5259 57.7438 21.5259Z" fill="#FFE177"/>
<path fill-rule="evenodd" clip-rule="evenodd" d="M39.632 26.373L28.8671 7.72778C20.1045 12.7977 12.7977 20.1045 7.72783 28.8671L26.3731 39.632C29.5531 34.136 34.136 29.553 39.632 26.373Z" fill="#FD4755"/>
<path fill-rule="evenodd" clip-rule="evenodd" d="M26.373 39.632L7.72781 28.8671C2.81309 37.3617 0 47.2243 0 57.744H21.5257C21.5257 51.1458 23.2903 44.9598 26.373 39.632Z" fill="#FE646F"/>
</svg>
