<svg width="67" height="72" viewBox="0 0 67 72" fill="none" xmlns="http://www.w3.org/2000/svg">
<path d="M59.5529 45.196H54.1633C57.5319 45.196 59.6218 42.582 60.5464 39.6083L65.0404 38.6535C65.3027 38.5978 65.538 38.4537 65.7069 38.2452C65.8757 38.0368 65.9678 37.7767 65.9679 37.5084V27.0675C65.9678 26.7992 65.8757 26.5391 65.7068 26.3306C65.538 26.1222 65.3026 25.978 65.0402 25.9223L59.1762 24.6773L57.092 19.6432L60.3575 14.6134C60.5035 14.3884 60.5678 14.1201 60.5397 13.8534C60.5116 13.5866 60.3928 13.3376 60.2031 13.148L52.8189 5.76845C52.6292 5.57884 52.3802 5.46009 52.1135 5.43207C51.8467 5.40404 51.5785 5.46845 51.3536 5.6145L46.3243 8.8798L41.2938 6.79591L40.0449 0.927653C39.9892 0.665258 39.8451 0.429947 39.6367 0.261086C39.4283 0.0922243 39.1682 5.5928e-05 38.9 1.31502e-10H28.4589C28.1905 -4.01975e-06 27.9304 0.0921547 27.7219 0.26105C27.5134 0.429946 27.3693 0.665329 27.3136 0.927799L26.0687 6.79606L21.0346 8.88009L16.005 5.6145C15.78 5.46843 15.5117 5.40403 15.245 5.43208C14.9782 5.46013 14.7292 5.57893 14.5395 5.7686L7.16001 13.1481C6.97037 13.3378 6.85159 13.5868 6.82354 13.8535C6.79549 14.1202 6.85987 14.3885 7.00591 14.6134L10.2712 19.6432L8.18732 24.6773L2.31906 25.9222C2.05659 25.9779 1.82121 26.122 1.65231 26.3305C1.48341 26.539 1.39126 26.7991 1.39126 27.0675V37.5084C1.39128 37.7767 1.48344 38.0368 1.6523 38.2452C1.82116 38.4537 2.05649 38.5978 2.31891 38.6535L6.42699 39.5254C7.33766 42.5336 9.43443 45.1958 12.8367 45.196H7.44303C3.34974 45.196 0 48.3073 0 52.1097V61.5449H14.7731V71.1215H52.2269V61.5449H67V52.1097C67 48.307 63.6503 45.196 59.5529 45.196ZM47.8385 33.1003C47.4278 34.0015 47.2156 34.9805 47.2164 35.9708C47.2164 36.2189 47.2254 36.4735 47.2428 36.7327C46.3556 39.6889 44.5388 42.2802 42.0621 44.122C39.5854 45.9638 36.5808 46.9578 33.4944 46.9566C30.4079 46.9554 27.4041 45.959 24.9288 44.1152C22.4536 42.2715 20.6388 39.6787 19.7539 36.7218C19.7709 36.4665 19.7795 36.2154 19.7795 35.9708C19.7803 34.9836 19.5697 34.0077 19.1618 33.1087C19.1561 32.9426 19.1522 32.7762 19.1522 32.6089C19.1522 30.7247 19.5233 28.859 20.2443 27.1183C20.9654 25.3775 22.0222 23.7958 23.3546 22.4635C24.6869 21.1312 26.2686 20.0743 28.0093 19.3533C29.7501 18.6322 31.6158 18.2611 33.5 18.2611C35.3842 18.2611 37.2499 18.6322 38.9907 19.3533C40.7314 20.0743 42.3131 21.1312 43.6454 22.4635C44.9778 23.7958 46.0346 25.3775 46.7557 27.1183C47.4767 28.859 47.8478 30.7247 47.8478 32.6089C47.8478 32.7734 47.844 32.9372 47.8385 33.1003Z" fill="#484868"/>
<path d="M67 52.1097C67 48.3073 63.6503 45.196 59.5529 45.196H48.7676C46.9488 45.1881 45.1852 45.8201 43.7854 46.9813L43.7831 46.9875C42.9882 46.8174 42.1777 46.7314 41.3649 46.7308H25.6305C24.8217 46.7313 24.0151 46.8166 23.224 46.9853L23.2142 46.9813C21.8144 45.8201 20.0508 45.1881 18.232 45.196H7.44303C3.34974 45.196 0 48.3073 0 52.1097V61.5449H14.7731V71.1216H52.2269V61.5449H67V52.1097Z" fill="#EAE8E8"/>
<path d="M41.3654 46.7314H38.4703C44.4426 46.7314 49.3319 51.2652 49.3319 56.8132V71.1215H52.2269V56.8132C52.2269 51.2652 47.3377 46.7314 41.3654 46.7314Z" fill="#DDD7D7"/>
<path d="M24.4828 71.1215V58.9265C24.4845 58.7806 24.4572 58.6358 24.4025 58.5006C24.3478 58.3653 24.2669 58.2422 24.1643 58.1384C24.0617 58.0346 23.9396 57.9523 23.8049 57.896C23.6703 57.8398 23.5258 57.8109 23.3799 57.8109C23.234 57.8109 23.0895 57.8398 22.9549 57.896C22.8202 57.9523 22.6981 58.0346 22.5955 58.1384C22.4929 58.2422 22.4119 58.3653 22.3573 58.5006C22.3026 58.6358 22.2753 58.7806 22.277 58.9265V71.1215H24.4828Z" fill="#DDD7D7"/>
<path d="M44.7189 71.1215V58.9265C44.7206 58.7806 44.6933 58.6358 44.6386 58.5006C44.5839 58.3653 44.503 58.2422 44.4004 58.1384C44.2978 58.0346 44.1757 57.9523 44.041 57.896C43.9064 57.8398 43.7619 57.8109 43.616 57.8109C43.4701 57.8109 43.3256 57.8398 43.191 57.896C43.0563 57.9523 42.9342 58.0346 42.8316 58.1384C42.729 58.2422 42.6481 58.3653 42.5934 58.5006C42.5387 58.6358 42.5114 58.7806 42.5131 58.9265V71.1215H44.7189Z" fill="#DDD7D7"/>
<path d="M12.8374 29.0289C11.9258 29.0287 11.0231 29.2082 10.1808 29.557C9.33849 29.9058 8.57318 30.4171 7.92853 31.0617C7.28389 31.7063 6.77255 32.4716 6.42371 33.3139C6.07488 34.1561 5.89538 35.0589 5.89548 35.9705C5.89548 40.0397 8.10171 45.1957 12.8374 45.1957C17.7188 45.1957 19.7795 39.8052 19.7795 35.9705C19.7797 35.0588 19.6002 34.1561 19.2513 33.3138C18.9025 32.4715 18.3912 31.7062 17.7465 31.0615C17.1018 30.4169 16.3365 29.9055 15.4942 29.5567C14.6519 29.2079 13.7491 29.0284 12.8374 29.0286V29.0289Z" fill="#FFDDAB"/>
<path d="M12.8374 29.0289C12.4214 29.0293 12.0061 29.0671 11.5968 29.1416C13.1964 29.432 14.6432 30.2747 15.6851 31.5227C16.727 32.7707 17.2979 34.3448 17.2981 35.9705C17.2981 39.4615 15.5898 44.2408 11.6012 45.07C12.0078 45.1543 12.4221 45.1964 12.8374 45.1957C17.7188 45.1957 19.7796 39.8052 19.7796 35.9705C19.7796 35.0589 19.6001 34.1561 19.2513 33.3139C18.9024 32.4716 18.3911 31.7063 17.7464 31.0617C17.1017 30.4171 16.3364 29.9058 15.4941 29.557C14.6518 29.2082 13.7491 29.0287 12.8374 29.0289Z" fill="#F9CE95"/>
<path d="M33.4979 71.1216L29.7036 67.2465L32.0353 50.8241C31.5913 50.5617 31.2397 50.168 31.029 49.6973C30.8028 49.2043 30.8432 47.8951 31.1382 47.4384C31.2798 47.2185 31.475 47.0383 31.7053 46.9146C31.9357 46.7909 32.1938 46.7278 32.4553 46.7313H34.5405C34.8021 46.7269 35.0605 46.7896 35.291 46.9134C35.5216 47.0372 35.7166 47.2179 35.8575 47.4384C36.1565 47.8951 36.1969 49.2043 35.9707 49.6973C35.7573 50.1674 35.4049 50.5607 34.9609 50.8241L37.2965 67.2459L33.4979 71.1216Z" fill="#AD1E1E"/>
<path d="M33.498 46.7314C37.0296 46.7314 40.0845 43.6969 41.5634 39.2843C44.0323 39.0298 45.6163 33.0898 43.6202 32.4715C43.4347 32.4083 43.2373 32.3878 43.0427 32.4116C42.8482 32.4354 42.6615 32.5029 42.4967 32.6089C44.1979 25.4284 42.8079 24.1436 40.565 23.194C38.6295 21.0483 35.8615 19.8281 33.4977 19.8281C28.673 19.8281 22.1593 24.9073 24.4989 32.6091C24.3342 32.5028 24.1476 32.4352 23.953 32.4114C23.7584 32.3876 23.561 32.4082 23.3756 32.4717C21.3834 33.09 22.9633 39.0299 25.4363 39.2844C26.9112 43.697 29.9701 46.7315 33.4977 46.7315L33.498 46.7314Z" fill="#FFDDAB"/>
<path d="M14.7731 56.8132C14.7731 52.0367 18.4004 48.01 23.224 46.9859L23.2142 46.9819C21.8144 45.8206 20.0508 45.1887 18.232 45.1966H7.44303C3.34974 45.1966 0 48.3079 0 52.1103V61.5455H14.7731V56.8132Z" fill="#7DA8FF"/>
<path d="M14.7731 61.5449V56.8132C14.7731 52.0367 18.4004 48.01 23.224 46.9859L23.2141 46.9819C23.1117 46.8954 23.0043 46.8126 22.8959 46.7314H22.7349C16.7627 46.7314 11.8773 51.2693 11.8773 56.8132V61.5449H14.7731Z" fill="#5090EF"/>
<path d="M54.1633 29.0289C56.0041 29.0295 57.7694 29.7611 59.071 31.0627C60.3726 32.3644 61.104 34.1297 61.1045 35.9705C61.1045 40.0397 58.8948 45.1957 54.1626 45.1957C49.2812 45.1957 47.2164 39.8052 47.2164 35.9705C47.2171 34.1288 47.9495 32.3628 49.2523 31.061C50.555 29.7592 52.3216 29.0282 54.1633 29.0289Z" fill="#FFDDAB"/>
<path d="M54.1633 29.0289C53.7469 29.0293 53.3315 29.0671 52.9219 29.1416C54.5212 29.4326 55.9677 30.2754 57.0095 31.5233C58.0513 32.7712 58.6222 34.345 58.623 35.9705C58.623 39.6671 56.7984 44.2599 52.9169 45.0698C53.3267 45.1544 53.7441 45.1966 54.1626 45.1957C58.8942 45.1957 61.1045 40.0397 61.1045 35.9705C61.104 34.1297 60.3726 32.3644 59.0709 31.0627C57.7693 29.7611 56.0041 29.0295 54.1633 29.0289Z" fill="#F9CE95"/>
<path d="M59.5529 45.196H48.7676C46.9488 45.1881 45.1852 45.8201 43.7854 46.9813L43.7831 46.9875C48.6018 48.0148 52.2269 52.0362 52.2269 56.8127V61.5443H67V52.1097C67 48.307 63.6503 45.196 59.5529 45.196Z" fill="#7DA8FF"/>
<path d="M52.2269 61.5449V56.8132C52.2269 52.0367 48.5994 48.01 43.776 46.9859L43.7858 46.9819C43.889 46.8954 43.9957 46.8126 44.104 46.7314H44.265C50.2371 46.7314 55.1224 51.2693 55.1224 56.8132V61.5449H52.2269Z" fill="#5090EF"/>
<path d="M35.971 49.6973C36.1972 49.2043 36.1568 47.8951 35.8578 47.4384C35.7169 47.2179 35.5219 47.0372 35.2913 46.9134C35.0608 46.7896 34.8024 46.7269 34.5408 46.7313H32.4554C32.1939 46.7278 31.9359 46.7909 31.7055 46.9146C31.4751 47.0383 31.28 47.2185 31.1384 47.4384C30.8433 47.8951 30.8029 49.2043 31.0292 49.6973C31.2399 50.168 31.5915 50.5617 32.0354 50.8241H34.9609C35.405 50.5607 35.7575 50.1674 35.971 49.6973Z" fill="#D22E2E"/>
<path d="M40.5653 23.194C38.6298 21.0483 35.8618 19.8281 33.4979 19.8281C28.6732 19.8281 22.1596 24.9073 24.4992 32.6091C28.16 27.8619 36.1049 30.661 39.3683 27.2194C40.0032 29.9886 41.1406 31.4098 42.4969 32.6094C44.1975 25.4284 42.808 24.1434 40.5653 23.194Z" fill="#7C6359"/>
<path d="M43.6202 32.4715C43.3963 32.4004 43.1582 32.386 42.9274 32.4295C42.7871 32.4947 42.6439 32.5552 42.4967 32.6089C41.8622 32.064 41.3003 31.4397 40.8248 30.7516C40.8918 33.464 40.4841 36.5268 39.3576 39.2843C38.0352 43.2299 35.4523 46.0718 32.3956 46.6295C32.7592 46.6969 33.1281 46.7312 33.4979 46.732C37.0296 46.732 40.0844 43.6975 41.5634 39.2849C44.0323 39.0298 45.617 33.0898 43.6202 32.4715Z" fill="#F9CE95"/>
<path d="M42.4967 32.6089C42.644 32.5552 42.7871 32.4946 42.9274 32.4295C42.773 32.4589 42.6264 32.52 42.4967 32.6089Z" fill="#604C42"/>
<path d="M40.5653 23.194C38.6298 21.0483 35.8618 19.8281 33.4979 19.8281C33.1256 19.8292 32.7539 19.8578 32.3858 19.9137C34.4727 20.2211 36.716 21.372 38.3595 23.1941C39.6757 23.7514 40.7295 26.898 40.8248 30.7517C41.3003 31.4399 41.8622 32.0641 42.4967 32.6091C44.1975 25.4284 42.808 24.1434 40.5653 23.194Z" fill="#604C42"/>
<path d="M37.1525 0.927068L38.4014 6.79533L45.1976 9.61063L46.3244 8.87892L41.294 6.79503L40.0451 0.926775C39.9892 0.664518 39.845 0.429389 39.6366 0.260698C39.4282 0.0920075 39.1681 -2.03736e-05 38.9 3.38319e-09H36.0074C36.2756 -6.1015e-06 36.5357 0.0920635 36.7441 0.260812C36.9525 0.429561 37.0967 0.664756 37.1525 0.927068Z" fill="#3D3D54"/>
<path d="M65.0396 25.9223L59.1756 24.6773L57.0915 19.6432L60.3569 14.6134C60.5029 14.3884 60.5673 14.1201 60.5392 13.8534C60.5111 13.5866 60.3922 13.3376 60.2025 13.148L52.8189 5.76846C52.6292 5.57884 52.3802 5.46009 52.1135 5.43207C51.8468 5.40405 51.5785 5.46845 51.3536 5.61451L50.3951 6.23689L57.3096 13.148C57.4994 13.3376 57.6182 13.5866 57.6463 13.8534C57.6744 14.1201 57.6101 14.3884 57.464 14.6134L54.1987 19.6432L56.2828 24.6773L62.1468 25.9223C62.4092 25.978 62.6445 26.1222 62.8134 26.3306C62.9823 26.5391 63.0744 26.7992 63.0744 27.0675V37.5084C63.0744 37.7767 62.9823 38.0368 62.8135 38.2452C62.6446 38.4537 62.4093 38.5978 62.1469 38.6535L60.7282 38.955C60.6723 39.1771 60.6111 39.3983 60.5423 39.6175L60.5454 39.6083L65.0394 38.6535C65.3017 38.5978 65.537 38.4537 65.7059 38.2452C65.8747 38.0368 65.9668 37.7767 65.9669 37.5084V27.0675C65.9669 26.7993 65.8748 26.5392 65.706 26.3307C65.5372 26.1223 65.302 25.9781 65.0396 25.9223Z" fill="#3D3D54"/>
<path d="M47.8478 32.6089C47.8478 32.775 47.8423 32.9398 47.8366 33.1046C48.3278 32.0249 49.0864 31.0885 50.0406 30.384C49.5019 26.379 47.5284 22.7055 44.4864 20.0454C41.4444 17.3853 37.5405 15.9192 33.4995 15.9193C29.4585 15.9195 25.5547 17.3858 22.5129 20.0461C19.4711 22.7064 17.4978 26.38 16.9593 30.385C17.9147 31.0912 18.6736 32.0301 19.1636 33.1123C19.1578 32.9449 19.1522 32.7777 19.1522 32.6089C19.1522 30.7248 19.5233 28.859 20.2444 27.1183C20.9654 25.3775 22.0223 23.7958 23.3546 22.4635C24.6869 21.1312 26.2686 20.0743 28.0094 19.3533C29.7501 18.6322 31.6158 18.2611 33.5 18.2611C35.3842 18.2611 37.2499 18.6322 38.9907 19.3533C40.7315 20.0743 42.3131 21.1312 43.6455 22.4635C44.9778 23.7958 46.0346 25.3775 46.7557 27.1183C47.4767 28.859 47.8478 30.7248 47.8478 32.6089Z" fill="#3D3D54"/>
<path d="M19.7545 36.7154C19.6658 38.0517 19.3627 39.365 18.857 40.6051C20.2397 43.1245 22.2449 45.2474 24.6814 46.7713C24.9944 46.7453 25.3107 46.7314 25.6311 46.7314H30.9598C28.3506 46.2563 25.9234 45.0696 23.946 43.3021C21.9687 41.5347 20.5182 39.2552 19.7545 36.7154Z" fill="#3D3D54"/>
<path d="M47.2424 36.7258C46.4775 39.2632 45.0268 41.5401 43.0503 43.3056C41.0738 45.071 38.6482 46.2565 36.0409 46.7314H41.3654C41.6867 46.7314 42.0045 46.7447 42.3188 46.7715C44.7543 45.2481 46.7589 43.1261 48.1415 40.608C47.6358 39.3705 47.3322 38.0597 47.2424 36.7258Z" fill="#3D3D54"/>
</svg>
