<svg width="59" height="50" viewBox="0 0 59 50" fill="none" xmlns="http://www.w3.org/2000/svg">
<path d="M58.0284 17.8067C58.0284 18.6467 58.1185 25.9805 57.9305 26.8145C56.9886 31.0283 53.8153 34.9523 49.9224 36.3986C45.1135 38.186 39.3382 37.0773 35.0314 39.8449C31.5547 42.0797 29.8499 46.3788 26.3344 48.554C21.7278 51.4044 15.5515 49.6614 11.0743 46.6147C5.50112 42.8228 1.22129 36.9734 0.0737836 30.3811C-0.130752 29.2059 0.153716 20.7866 0.164373 19.5916C0.207911 14.1091 2.03025 12.3286 6.31359 12.3286H50.549C56.7083 12.3285 58.0284 16.9668 58.0284 17.8067Z" fill="#F57C7C"/>
<path d="M58.0284 17.8067C58.0284 18.6467 58.1185 25.9805 57.9305 26.8145C56.9886 31.0283 53.8153 34.9523 49.9224 36.3986C45.1135 38.186 39.3382 37.0773 35.0314 39.8449C31.5547 42.0797 29.8499 46.3788 26.3344 48.554C21.7278 51.4044 15.5515 49.6614 11.0743 46.6147C5.50112 42.8228 1.22129 36.9734 0.0737836 30.3811C-0.130752 29.2059 0.153716 20.7866 0.164373 19.5916C0.207911 14.1091 2.03025 12.3286 6.31359 12.3286H50.549C56.7083 12.3285 58.0284 16.9668 58.0284 17.8067Z" fill="#EF6161"/>
<path d="M45.0372 2.40524C39.6378 0.302399 33.7183 0.0348253 27.9249 0.00217215C20.4793 -0.039778 12.4242 0.484259 6.70075 5.25331C1.56526 9.53223 -0.66978 16.7784 0.463555 23.3714C1.59689 29.9644 5.82184 35.8133 11.3254 39.6057C15.7459 42.6519 21.8447 44.3949 26.3936 41.5446C29.8647 39.3697 31.5478 35.0698 34.9811 32.8354C39.2338 30.0678 44.9365 31.1764 49.6843 29.3895C55.049 27.3705 59.0324 20.5237 57.5695 14.7987C56.1505 9.24493 50.1096 4.38075 45.0372 2.40524Z" fill="#F57C7C"/>
<path d="M57.5693 14.7983C56.1504 9.24468 50.1093 4.3805 45.037 2.40499C44.46 2.18027 43.8767 1.97766 43.2886 1.79297C47.9165 4.27585 52.8073 8.9906 54.0652 14.2888C55.528 20.4496 51.5447 27.8172 46.18 29.9898C45.7473 30.165 45.3065 30.3139 44.8599 30.4428C46.5135 30.2415 48.1488 29.9669 49.684 29.3892C55.0488 27.3701 59.032 20.5235 57.5693 14.7983Z" fill="#EF6161"/>
<path d="M16.1024 24.1376C18.8272 22.2585 21.9336 20.9273 24.435 18.7596C27.3906 16.1985 29.2856 12.6653 31.4992 9.44099C33.7128 6.21672 36.5351 3.08883 40.3153 2.08814C40.9701 1.91479 41.7045 1.74733 42.4009 1.52851C39.374 0.680206 36.2233 0.30152 33.0534 0.132812C31.8483 1.02975 30.7373 2.05288 29.7488 3.18418C27.0421 6.28146 22.4304 10.246 20.9176 10.5015C19.7675 10.6958 18.9763 3.80515 18.663 0.489729C17.7692 0.614559 16.8839 0.768868 16.0122 0.959684C15.8463 3.5479 14.8376 6.16888 13.3605 8.32591C10.7704 12.1086 6.97754 14.8598 3.51325 17.8622C2.36256 18.8595 1.22095 19.931 0.208252 21.0917C0.250542 21.8563 0.333876 22.618 0.463241 23.3709C1.27719 28.1061 3.68592 32.4572 7.01767 35.9385C8.77448 31.212 11.9482 27.0026 16.1024 24.1376Z" fill="#FFCFC9"/>
<path d="M56.9107 12.9272C55.1506 12.655 53.5531 12.9272 51.5837 12.6994C49.1925 12.0714 50.2041 8.1272 51.2754 6.05713C50.1932 5.19341 49.0495 4.42561 47.9028 3.77686C47.337 5.21677 46.4534 6.56666 45.4387 7.73366C43.4221 10.0529 40.8901 11.8627 38.7185 14.0373C32.7979 19.9661 29.8282 28.6997 30.8612 37.0097C32.0922 35.4513 33.3355 33.9059 34.9809 32.8352C35.209 32.6868 35.4422 32.5515 35.6782 32.4244C36.1924 28.0148 37.8871 23.7407 40.5733 20.2041C41.2002 19.3788 42.1348 18.5079 43.1278 18.804C43.8659 19.024 44.2854 19.8473 44.3001 20.6176C44.3148 21.3879 44.0179 22.1247 43.7517 22.8477C42.8137 25.3957 42.2075 28.0652 41.9484 30.7681C43.6246 30.5712 45.3306 30.4361 46.9815 30.1234C47.1644 27.1225 48.2525 24.1764 50.0901 21.795C52.0322 19.2784 54.796 17.412 57.8467 16.526C57.8047 15.9431 57.7141 15.3653 57.5693 14.7986C57.4074 14.1645 57.1847 13.5398 56.9107 12.9272Z" fill="#FFCFC9"/>
<path d="M54.3228 18.0626C55.4274 17.4054 56.6129 16.8842 57.8468 16.5258C57.8047 15.9429 57.7142 15.3651 57.5694 14.7985C57.4075 14.1647 57.1847 13.54 56.9106 12.9274C55.7916 12.7542 54.7379 12.8011 53.6128 12.7997C53.794 13.29 53.9461 13.7868 54.0653 14.2889C54.3568 15.5158 54.4314 16.7906 54.3228 18.0626Z" fill="#FAB2B2"/>
<path d="M47.0233 29.5996C46.7465 29.7436 46.4653 29.8747 46.18 29.9902C45.7483 30.165 45.3085 30.3136 44.8628 30.4424C45.5746 30.3555 46.2831 30.2557 46.9815 30.1234C46.9922 29.9486 47.0066 29.774 47.0233 29.5996Z" fill="#FFCFC9"/>
<path d="M50.5851 7.72607C50.7848 7.11269 51.0282 6.5348 51.2754 6.05713C50.1932 5.19341 49.0496 4.42561 47.9028 3.77686C47.7853 4.07618 47.6532 4.37119 47.5098 4.66189C48.6133 5.58434 49.6582 6.61427 50.5851 7.72607Z" fill="#FAB2B2"/>
</svg>
