<svg width="59" height="50" viewBox="0 0 59 50" fill="none" xmlns="http://www.w3.org/2000/svg">
<path d="M58.0284 17.8067C58.0284 18.6467 58.1185 25.9805 57.9305 26.8145C56.9886 31.0283 53.8153 34.9523 49.9224 36.3986C45.1135 38.186 39.3382 37.0773 35.0314 39.8449C31.5547 42.0797 29.8499 46.3788 26.3344 48.554C21.7278 51.4044 15.5515 49.6614 11.0743 46.6147C5.50112 42.8228 1.22129 36.9734 0.0737836 30.3811C-0.130752 29.2059 0.153716 20.7866 0.164373 19.5916C0.207911 14.1091 2.03025 12.3286 6.31359 12.3286H50.549C56.7083 12.3285 58.0284 16.9668 58.0284 17.8067Z" fill="#F57C7C"/>
<path d="M58.0284 17.8067C58.0284 18.6467 58.1185 25.9805 57.9305 26.8145C56.9886 31.0283 53.8153 34.9523 49.9224 36.3986C45.1135 38.186 39.3382 37.0773 35.0314 39.8449C31.5547 42.0797 29.8499 46.3788 26.3344 48.554C21.7278 51.4044 15.5515 49.6614 11.0743 46.6147C5.50112 42.8228 1.22129 36.9734 0.0737836 30.3811C-0.130752 29.2059 0.153716 20.7866 0.164373 19.5916C0.207911 14.1091 2.03025 12.3286 6.31359 12.3286H50.549C56.7083 12.3285 58.0284 16.9668 58.0284 17.8067Z" fill="#EF6161"/>
<path d="M45.0372 2.40524C39.6378 0.302399 33.7183 0.0348253 27.9249 0.00217215C20.4793 -0.039778 12.4242 0.484259 6.70075 5.25331C1.56526 9.53223 -0.66978 16.7784 0.463555 23.3714C1.59689 29.9644 5.82184 35.8133 11.3254 39.6057C15.7459 42.6519 21.8447 44.3949 26.3936 41.5446C29.8647 39.3697 31.5478 35.0698 34.9811 32.8354C39.2338 30.0678 44.9365 31.1764 49.6843 29.3895C55.049 27.3705 59.0324 20.5237 57.5695 14.7987C56.1505 9.24493 50.1096 4.38075 45.0372 2.40524Z" fill="#F57C7C"/>
<path d="M57.5693 14.7983C56.1504 9.24468 50.1093 4.3805 45.037 2.40499C44.46 2.18027 43.8767 1.97766 43.2886 1.79297C47.9165 4.27585 52.8073 8.9906 54.0652 14.2888C55.528 20.4496 51.5447 27.8172 46.18 29.9898C45.7473 30.165 45.3065 30.3139 44.8599 30.4428C46.5135 30.2415 48.1488 29.9669 49.684 29.3892C55.0488 27.3701 59.032 20.5235 57.5693 14.7983Z" fill="#EF6161"/>
</svg>
