<svg width="57" height="66" viewBox="0 0 57 66" fill="none" xmlns="http://www.w3.org/2000/svg">
<path d="M0 0H20.4828V11.3793H0V0Z" fill="#EE9D0D"/>
<path d="M1.13794 39.8276H55.7586V44.3794H1.13794V39.8276Z" fill="#EAE9E4"/>
<path d="M56.8966 62.5862H0L2.27586 48.931H54.6207L56.8966 62.5862Z" fill="#EAE9E4"/>
<path d="M5.6897 53.4828H26.1725V58.0345H5.6897V53.4828Z" fill="#EE9D0D"/>
<path d="M5.6897 53.4828H25.0345V56.8966H5.6897V53.4828Z" fill="#EEB436"/>
<path d="M6.82764 44.3793H50.069V48.931H6.82764V44.3793Z" fill="#CDCCC8"/>
<path d="M6.82764 44.3793H50.069V46.6551H6.82764V44.3793Z" fill="#BBBAB6"/>
<path d="M4.55176 15.931H11.3793V39.8276H4.55176V15.931Z" fill="#CDCCC8"/>
<path d="M4.55176 37.5518H11.3793V39.8276H4.55176V37.5518Z" fill="#BBBAB6"/>
<path d="M31.8621 53.4828H50.069V58.0345H31.8621V53.4828Z" fill="#EEB436"/>
<path d="M35.2759 53.4828H37.5517V58.0345H35.2759V53.4828Z" fill="#EE9D0D"/>
<path d="M39.8276 53.4828H42.1035V58.0345H39.8276V53.4828Z" fill="#EE9D0D"/>
<path d="M44.3793 53.4828H46.6551V58.0345H44.3793V53.4828Z" fill="#EE9D0D"/>
<path d="M2.27588 62.5862H9.40345V66H2.27588V62.5862Z" fill="#CDCCC8"/>
<path d="M47.4932 62.5862H54.6207V66H47.4932V62.5862Z" fill="#CDCCC8"/>
<path d="M2.27588 62.5862H9.40345V63.7241H2.27588V62.5862Z" fill="#BBBAB6"/>
<path d="M47.4932 62.5862H54.6207V63.7241H47.4932V62.5862Z" fill="#BBBAB6"/>
<path d="M48.6549 20.4828H36.2707C34.8217 20.4828 33.3936 20.8287 32.1051 21.4917C30.8167 22.1547 29.7051 23.1157 28.8629 24.2949L28.5658 24.7108C26.8128 27.1651 24.486 29.1533 21.7884 30.5021L19.0687 31.8621V36.4138L21.9919 37.8755C24.5596 39.1593 27.3909 39.8276 30.2616 39.8276H48.6549V20.4828Z" fill="#FF3444"/>
<path d="M19.0687 31.8621H14.5134C14.5154 31.8163 14.517 31.7704 14.517 31.724C14.5171 31.1793 14.3813 30.6431 14.122 30.164C13.8627 29.685 13.488 29.2781 13.0318 28.9804C12.5757 28.6826 12.0525 28.5033 11.5096 28.4586C10.9667 28.414 10.4212 28.5055 9.92253 28.7247C9.42387 28.944 8.98777 29.2842 8.65369 29.7145C8.31961 30.1447 8.09811 30.6515 8.00923 31.189C7.92035 31.7264 7.9669 32.2775 8.14466 32.7924C8.32243 33.3074 8.62579 33.7698 9.02731 34.138C8.62586 34.5061 8.32256 34.9686 8.14485 35.4835C7.96715 35.9983 7.92064 36.5494 8.00954 37.0868C8.09845 37.6242 8.31996 38.1309 8.65403 38.5612C8.98809 38.9914 9.42417 39.3315 9.92279 39.5508C10.4214 39.77 10.9668 39.8615 11.5097 39.8168C12.0526 39.7722 12.5757 39.5929 13.0318 39.2951C13.488 38.9974 13.8626 38.5906 14.1219 38.1116C14.3813 37.6326 14.517 37.0965 14.517 36.5518C14.517 36.5056 14.5154 36.4596 14.5134 36.4138H19.0687V31.8621Z" fill="#ECEBE6"/>
<path d="M48.655 39.8276C52.4257 39.8276 55.4826 35.4971 55.4826 30.1552C55.4826 24.8133 52.4257 20.4828 48.655 20.4828C44.8842 20.4828 41.8274 24.8133 41.8274 30.1552C41.8274 35.4971 44.8842 39.8276 48.655 39.8276Z" fill="#AA232E"/>
<path d="M48.6549 33C49.9118 33 50.9308 31.7263 50.9308 30.1551C50.9308 28.584 49.9118 27.3103 48.6549 27.3103C47.398 27.3103 46.379 28.584 46.379 30.1551C46.379 31.7263 47.398 33 48.6549 33Z" fill="#CDCCC8"/>
<path d="M33 29.5862C32.775 29.5862 32.555 29.5195 32.3678 29.3944C32.1807 29.2694 32.0348 29.0917 31.9487 28.8837C31.8626 28.6758 31.84 28.447 31.8839 28.2262C31.9278 28.0055 32.0362 27.8027 32.1954 27.6436L33.3333 26.5057C33.439 26.4 33.5644 26.3162 33.7025 26.259C33.8405 26.2018 33.9885 26.1724 34.138 26.1724C34.2874 26.1724 34.4354 26.2018 34.5734 26.259C34.7115 26.3162 34.837 26.4 34.9426 26.5057C35.0483 26.6113 35.1321 26.7368 35.1893 26.8748C35.2465 27.0129 35.2759 27.1609 35.2759 27.3103C35.2759 27.4598 35.2465 27.6077 35.1893 27.7458C35.1321 27.8839 35.0483 28.0093 34.9426 28.115L33.8047 29.2529C33.6991 29.3587 33.5737 29.4427 33.4356 29.4999C33.2975 29.5571 33.1495 29.5864 33 29.5862Z" fill="#DC2D3B"/>
<path d="M36.4139 35.2759C36.1888 35.2759 35.9688 35.2092 35.7816 35.0841C35.5945 34.9591 35.4486 34.7814 35.3625 34.5734C35.2764 34.3655 35.2538 34.1367 35.2977 33.9159C35.3417 33.6952 35.45 33.4924 35.6092 33.3333L36.7471 32.1954C36.8528 32.0897 36.9782 32.0059 37.1163 31.9487C37.2544 31.8915 37.4023 31.8621 37.5518 31.8621C37.7012 31.8621 37.8492 31.8915 37.9873 31.9487C38.1253 32.0059 38.2508 32.0897 38.3564 32.1954C38.4621 32.301 38.5459 32.4265 38.6031 32.5645C38.6603 32.7026 38.6897 32.8506 38.6897 33C38.6897 33.1495 38.6603 33.2974 38.6031 33.4355C38.5459 33.5736 38.4621 33.699 38.3564 33.8047L37.2185 34.9426C37.113 35.0484 36.9875 35.1324 36.8494 35.1896C36.7114 35.2468 36.5633 35.2761 36.4139 35.2759Z" fill="#DC2D3B"/>
<path d="M30.9173 35.2758C30.6922 35.2758 30.4722 35.2091 30.285 35.084C30.0979 34.959 29.952 34.7813 29.8659 34.5734C29.7798 34.3654 29.7573 34.1366 29.8012 33.9159C29.8451 33.6951 29.9535 33.4924 30.1126 33.3332L31.2505 32.1953C31.3562 32.0896 31.4817 32.0058 31.6197 31.9486C31.7578 31.8914 31.9058 31.8619 32.0552 31.8619C32.2047 31.8619 32.3527 31.8914 32.4907 31.9485C32.6288 32.0057 32.7543 32.0895 32.8599 32.1952C32.9656 32.3009 33.0494 32.4263 33.1066 32.5644C33.1638 32.7025 33.1933 32.8505 33.1933 32.9999C33.1933 33.1493 33.1639 33.2973 33.1067 33.4354C33.0495 33.5735 32.9657 33.6989 32.86 33.8046L31.7221 34.9425C31.6165 35.0484 31.491 35.1323 31.3529 35.1895C31.2148 35.2467 31.0668 35.276 30.9173 35.2758Z" fill="#DC2D3B"/>
<path d="M3.41382 11.3793L4.55175 15.931H11.3793L12.5173 11.3793H3.41382Z" fill="#BBBAB6"/>
<path d="M9.10347 6.82762H4.55175C4.24995 6.82762 3.96051 6.70773 3.74711 6.49433C3.53371 6.28092 3.41382 5.99149 3.41382 5.68969C3.41382 5.38789 3.53371 5.09845 3.74711 4.88505C3.96051 4.67165 4.24995 4.55176 4.55175 4.55176H9.10347C9.40527 4.55176 9.69471 4.67165 9.90811 4.88505C10.1215 5.09845 10.2414 5.38789 10.2414 5.68969C10.2414 5.99149 10.1215 6.28092 9.90811 6.49433C9.69471 6.70773 9.40527 6.82762 9.10347 6.82762Z" fill="#EEB436"/>
<path d="M15.931 6.82762H13.6551C13.3533 6.82762 13.0639 6.70773 12.8505 6.49433C12.6371 6.28092 12.5172 5.99149 12.5172 5.68969C12.5172 5.38789 12.6371 5.09845 12.8505 4.88505C13.0639 4.67165 13.3533 4.55176 13.6551 4.55176H15.931C16.2328 4.55176 16.5222 4.67165 16.7356 4.88505C16.949 5.09845 17.0689 5.38789 17.0689 5.68969C17.0689 5.99149 16.949 6.28092 16.7356 6.49433C16.5222 6.70773 16.2328 6.82762 15.931 6.82762Z" fill="#EEB436"/>
</svg>
