<svg width="59" height="59" viewBox="0 0 59 59" fill="none" xmlns="http://www.w3.org/2000/svg">
<path d="M27.322 19.9637V19.9599C28.6043 19.8938 29.6172 19.0101 29.6172 17.9292V15.6405C29.6172 14.5164 28.5216 13.606 27.169 13.606H26.5569V4.57805C26.5569 3.454 25.4613 2.54358 24.1087 2.54358H16.7639C15.4112 2.54358 14.3156 3.454 14.3156 4.57805V13.606H13.5505C12.1979 13.606 11.1023 14.5164 11.1023 15.6405V17.9292C11.1023 19.0101 12.1152 19.8938 13.3975 19.9599V19.9637C1.16848 31.3631 -3.28888 44.5884 2.53338 53.2781C3.37038 54.528 4.60522 55.9598 6.48426 57.3763C7.8767 58.4279 9.69912 59 11.5812 59H29.1383C31.0204 59 32.8428 58.4279 34.2353 57.3763C36.1143 55.9598 37.3491 54.528 38.1861 53.2781C44.0084 44.5885 39.551 31.3631 27.322 19.9637Z" fill="#CBE3FA"/>
<path d="M26.557 4.57805V13.606H14.3157V4.57805C14.3157 3.454 15.4113 2.54358 16.7639 2.54358H24.1087C25.4614 2.54358 26.557 3.454 26.557 4.57805Z" fill="#FF6D7A"/>
<path d="M52.6094 0.487432C61.2288 3.48954 59.6649 16.3067 47.0901 13.0973C46.6142 14.7401 44.7489 15.8388 42.7796 15.6773C40.72 15.5082 39.1118 14.0065 39.1577 12.2378C37.6216 11.9988 35.1229 11.6597 33.2694 11.387C32.6848 11.301 32.2598 10.8787 32.2598 10.3854V8.36273C32.2598 7.88208 32.664 7.46451 33.2307 7.36838C35.2229 7.03041 37.1027 6.4029 38.8134 5.50379C38.0683 4.30346 38.4936 2.8806 39.6749 2.20796C40.6099 1.67518 41.9044 1.67518 42.951 2.20796C45.8063 0.1314 49.5751 -0.56922 52.6094 0.487432Z" fill="#CBE3FA"/>
<path d="M21.6604 9.79136C20.9844 9.79136 20.4363 9.33589 20.4363 8.77413V7.50259C20.4363 6.94082 20.9844 6.48535 21.6604 6.48535C22.3364 6.48535 22.8845 6.94082 22.8845 7.50259V8.77413C22.8845 9.33589 22.3364 9.79136 21.6604 9.79136Z" fill="#FE4F60"/>
<path d="M20.4363 45.7759C19.7603 45.7759 19.2122 45.3205 19.2122 44.7587V19.9636C19.2122 19.4019 19.7603 18.9464 20.4363 18.9464C21.1123 18.9464 21.6604 19.4019 21.6604 19.9636V44.7587C21.6604 45.3205 21.1123 45.7759 20.4363 45.7759Z" fill="#B5D5F5"/>
<path d="M20.4363 35.7409C23.7232 36.6591 27.0057 36.4745 30.2706 35.54C31.5958 35.1624 33.0479 35.718 33.5421 36.8077C36.2329 42.7436 36.2297 49.1876 30.5308 53.4866C29.5117 54.2571 28.1743 54.6767 26.7941 54.6767H13.9255C12.5453 54.6767 11.2079 54.2571 10.1888 53.4866C4.88451 49.4853 4.49891 43.6116 6.68322 37.9814C7.58096 35.6669 10.1848 33.943 13.3593 33.9506C16.2666 33.9576 17.9146 35.0327 20.4363 35.7409Z" fill="#FF6D7A"/>
<path d="M21.6604 36.2321V44.7242C21.6604 45.2661 21.168 45.7391 20.5172 45.7738C19.8042 45.8119 19.2122 45.343 19.2122 44.7588V35.7313C19.2122 35.5523 19.4294 35.4295 19.63 35.4951C20.2247 35.6896 20.8047 35.8533 21.4278 35.9858C21.5639 36.0148 21.6604 36.1153 21.6604 36.2321Z" fill="#FE4F60"/>
<path d="M5.97119 56.9765C4.37661 55.6921 3.29173 54.4105 2.53338 53.278C-3.28888 44.5883 1.16848 31.363 13.3975 19.9637V19.9598C13.4996 19.9651 13.396 19.9639 15.3266 19.9635C16.3614 19.9633 16.9291 20.964 16.2707 21.6275C5.3524 32.6301 1.58285 45.0081 7.12387 53.278C7.50411 53.8458 7.96637 54.4512 8.53391 55.0755C9.83133 56.5029 7.45331 58.1703 5.97119 56.9765Z" fill="#EEF7FF"/>
<path d="M10.904 53.4867C10.4261 53.4867 9.96908 53.3263 9.63168 53.0451C4.8484 49.0586 4.58812 43.3819 6.68322 37.9816C7.13293 36.822 7.98967 35.8159 9.14815 35.0993C10.6811 34.1512 12.6755 35.611 11.7712 37.0098C11.5725 37.3169 11.4054 37.6418 11.2737 37.9816C9.48173 42.6006 9.41685 47.3908 12.3933 51.1742C13.1714 52.1631 12.3514 53.4867 10.904 53.4867Z" fill="#FF8C95"/>
<path d="M24.1915 3.81512H19.8243C18.4721 3.81512 17.376 4.72593 17.376 5.84959V12.5888C17.376 13.1505 16.8279 13.606 16.1519 13.606H14.3157V4.57805C14.3157 3.45438 15.4117 2.54358 16.7639 2.54358C16.7639 2.54358 24.2112 2.54485 24.2617 2.54752C25.2332 2.59724 25.1648 3.81512 24.1915 3.81512Z" fill="#FF8C95"/>
<path d="M29.6172 15.6404V17.9292C29.6172 19.01 28.6043 19.8945 27.322 19.9599C27.1768 19.9672 13.4157 19.9607 13.3975 19.9599C12.1153 19.8945 11.1023 19.01 11.1023 17.9292V15.6404C11.1023 14.5164 12.1979 13.606 13.5506 13.606H27.169C28.5216 13.606 29.6172 14.5164 29.6172 15.6404Z" fill="#585966"/>
<path d="M27.322 13.6099C28.2935 13.6596 28.225 14.8775 27.2518 14.8775H16.6109C15.2582 14.8775 14.1501 15.7881 14.1626 16.912C14.1776 18.2637 14.1377 18.8876 14.1689 19.3158C14.1949 19.6726 13.8488 19.9825 13.3975 19.9599C12.1151 19.8955 11.1023 19.01 11.1023 17.9292V15.6404C11.1023 14.5168 12.1983 13.606 13.5506 13.606C13.5506 13.606 27.2715 13.6074 27.322 13.6099Z" fill="#6E6F80"/>
<path d="M36.1475 6.63979C37.0733 6.32954 37.9643 5.94998 38.8135 5.50367C38.0683 4.30333 38.4937 2.88048 39.675 2.20783C40.6099 1.67506 41.9044 1.67506 42.9511 2.20783C45.8063 0.131404 49.5751 -0.569216 52.6094 0.487435C53.9503 0.954473 53.5529 2.50067 52.2194 2.55547C50.2325 2.6371 48.2641 3.29182 46.6008 4.34987C46.2506 4.57265 45.7895 4.61982 45.3729 4.49928C43.0583 3.82956 41.0863 5.45421 41.5758 7.35592C41.6937 7.81444 41.4261 8.28313 40.9305 8.50718C39.8139 9.01211 38.6339 9.40781 37.405 9.6892C35.086 10.2203 33.9214 7.38593 36.1475 6.63979Z" fill="#EEF7FF"/>
</svg>
