<svg width="15" height="15" viewBox="0 0 15 15" fill="none" xmlns="http://www.w3.org/2000/svg">
<path d="M0.664062 8.65234V6.34277C0.664062 6.1084 0.854492 5.91309 1.09375 5.91309H5.92285V1.08887C5.92285 0.854492 6.11328 0.65918 6.35254 0.65918H8.66211C8.89648 0.65918 9.08691 0.849609 9.08691 1.08887V5.91797H13.9111C14.1455 5.91797 14.3408 6.1084 14.3408 6.34766V8.65723C14.3408 8.8916 14.1504 9.08203 13.9111 9.08203H9.08203V13.9063C9.08203 14.1406 8.8916 14.3359 8.65723 14.3359H6.34766C6.11328 14.3359 5.91797 14.1455 5.91797 13.9063V9.07715H1.09375C0.854492 9.08203 0.664062 8.88672 0.664062 8.65234Z" fill="white"/>
</svg>
