<svg width="29" height="29" viewBox="0 0 29 29" fill="none" xmlns="http://www.w3.org/2000/svg">
<path fill-rule="evenodd" clip-rule="evenodd" d="M10.2723 22.2725C9.42831 23.1166 8.05954 23.1166 7.21552 22.2725C6.37126 21.4283 6.37126 20.0597 7.21552 19.2155L25.1989 1.23214C26.0429 0.388116 27.4117 0.388116 28.2559 1.23214C29.1002 2.0764 29.1002 3.44493 28.2559 4.28919L10.2723 22.2725Z" fill="#A79BA7"/>
<path fill-rule="evenodd" clip-rule="evenodd" d="M8.74385 28.9998C13.2909 28.9998 16.9998 25.2909 16.9998 20.7438C16.9998 16.1965 13.2909 12.4879 8.74385 12.4879C4.19653 12.4879 0.48793 16.1965 0.48793 20.7438C0.48769 25.2912 4.19653 28.9998 8.74385 28.9998Z" fill="#685E68"/>
<path fill-rule="evenodd" clip-rule="evenodd" d="M8.74385 12.4882C13.3034 12.4882 16.9998 16.1845 16.9998 20.7441C16.9998 25.3037 13.3034 29 8.74385 29C8.28359 29 7.83222 28.9618 7.39265 28.8893C11.3094 28.2445 14.2974 24.8434 14.2974 20.7441C14.2974 16.6445 11.3094 13.2439 7.39265 12.5988C7.83222 12.5264 8.28359 12.4882 8.74385 12.4882Z" fill="#544854"/>
</svg>
