<svg width="71" height="71" viewBox="0 0 71 71" fill="none" xmlns="http://www.w3.org/2000/svg">
<g filter="url(#filter0_i_67_361)">
<circle cx="35.5" cy="35.5" r="35.5" fill="#87C443"/>
</g>
<path d="M9.51786 20H61.5107C61.8007 20 62.0286 20.2279 62.0286 20.5179V48.4821C62.0286 48.7721 61.8007 49 61.5107 49H9.51786C9.22786 49 9 48.7721 9 48.4821V20.5179C9 20.2279 9.22786 20 9.51786 20Z" fill="#87C443"/>
<path d="M12.1072 23.1072H58.9215V45.8929H12.1072V23.1072Z" fill="#3D8033"/>
<path d="M56.8501 29.7978V39.1917C56.8501 39.5128 56.5705 39.751 56.2494 39.6992C55.4312 39.5853 54.5094 39.7924 53.598 40.4242C52.8523 41.3563 52.6141 42.3506 52.7384 43.2206C52.7798 43.5313 52.5416 43.811 52.2309 43.811H18.798C18.4769 43.811 18.2387 43.5313 18.2905 43.2206C18.4148 42.3506 18.1766 41.3563 17.4309 40.4242C16.5091 39.7924 15.5976 39.5853 14.7794 39.6992C14.4687 39.7406 14.1787 39.5024 14.1787 39.1917V29.7978C14.1787 29.4767 14.4584 29.2385 14.7794 29.2903C15.5976 29.4042 16.5194 29.197 17.4309 28.5653C18.1766 27.6331 18.4148 26.6388 18.2905 25.7688C18.2491 25.4581 18.4873 25.1785 18.798 25.1785H52.2205C52.5312 25.1785 52.7798 25.4581 52.728 25.7688C52.6037 26.6388 52.8419 27.6331 53.5876 28.5653C54.5094 29.197 55.4209 29.4042 56.2391 29.2903C56.5705 29.2488 56.8501 29.487 56.8501 29.7978Z" fill="#87C443"/>
<path d="M35.5144 42.2679C39.8045 42.2679 43.2823 38.7901 43.2823 34.5C43.2823 30.21 39.8045 26.7322 35.5144 26.7322C31.2244 26.7322 27.7466 30.21 27.7466 34.5C27.7466 38.7901 31.2244 42.2679 35.5144 42.2679Z" fill="#3D8033"/>
<path d="M50.0663 37.0892C51.4964 37.0892 52.6556 35.93 52.6556 34.4999C52.6556 33.0699 51.4964 31.9106 50.0663 31.9106C48.6363 31.9106 47.4771 33.0699 47.4771 34.4999C47.4771 35.93 48.6363 37.0892 50.0663 37.0892Z" fill="#3D8033"/>
<path d="M20.9626 37.0892C22.3926 37.0892 23.5519 35.93 23.5519 34.4999C23.5519 33.0699 22.3926 31.9106 20.9626 31.9106C19.5326 31.9106 18.3733 33.0699 18.3733 34.4999C18.3733 35.93 19.5326 37.0892 20.9626 37.0892Z" fill="#3D8033"/>
<path d="M36.405 36.4058C36.405 36.095 36.3325 35.8568 36.1771 35.6911C36.0218 35.5254 35.7628 35.3493 35.3796 35.194C34.9964 35.0386 34.6546 34.8833 34.3336 34.7279C34.0125 34.5725 33.7328 34.3861 33.505 34.179C33.2771 33.9718 33.0907 33.7233 32.9768 33.454C32.8525 33.1847 32.7903 32.8429 32.7903 32.4597C32.7903 31.8072 33.0078 31.2686 33.4532 30.844C33.8986 30.4193 34.4786 30.1708 35.2139 30.1086V28.8865H36.1357V30.1293C36.84 30.2329 37.3993 30.5229 37.8032 30.9993C38.2071 31.4758 38.4143 32.0868 38.4143 32.8222H36.4464C36.4464 32.4183 36.3636 32.1075 36.2186 31.89C36.0736 31.6725 35.8457 31.569 35.5557 31.569C35.2968 31.569 35.1 31.6518 34.9653 31.8072C34.8203 31.9729 34.7582 32.1904 34.7582 32.47C34.7582 32.7497 34.8411 32.9879 35.0068 33.1536C35.1725 33.3193 35.4314 33.485 35.7939 33.63C36.1564 33.775 36.4982 33.9408 36.8089 34.1065C37.13 34.2722 37.3993 34.4586 37.6375 34.6658C37.8653 34.8729 38.0518 35.1215 38.1864 35.4011C38.3211 35.6808 38.3832 36.0122 38.3832 36.4058C38.3832 37.0686 38.1761 37.6072 37.7514 38.0215C37.3371 38.4358 36.7571 38.6843 36.0425 38.7568V39.9272H35.1V38.7568C34.2611 38.6636 33.6086 38.384 33.1632 37.8868C32.7075 37.4 32.49 36.7579 32.49 35.95H34.4475C34.4475 36.3954 34.5407 36.7268 34.7375 36.9547C34.9343 37.1825 35.2139 37.2965 35.5661 37.2965C35.825 37.2965 36.0321 37.2136 36.1875 37.0583C36.3428 36.9029 36.405 36.675 36.405 36.4058Z" fill="#87C443"/>
<defs>
<filter id="filter0_i_67_361" x="0" y="0" width="71" height="75" filterUnits="userSpaceOnUse" color-interpolation-filters="sRGB">
<feFlood flood-opacity="0" result="BackgroundImageFix"/>
<feBlend mode="normal" in="SourceGraphic" in2="BackgroundImageFix" result="shape"/>
<feColorMatrix in="SourceAlpha" type="matrix" values="0 0 0 0 0 0 0 0 0 0 0 0 0 0 0 0 0 0 127 0" result="hardAlpha"/>
<feOffset dy="4"/>
<feGaussianBlur stdDeviation="2"/>
<feComposite in2="hardAlpha" operator="arithmetic" k2="-1" k3="1"/>
<feColorMatrix type="matrix" values="0 0 0 0 0 0 0 0 0 0 0 0 0 0 0 0 0 0 0.25 0"/>
<feBlend mode="normal" in2="shape" result="effect1_innerShadow_67_361"/>
</filter>
</defs>
</svg>
