<svg width="64" height="63" viewBox="0 0 64 63" fill="none" xmlns="http://www.w3.org/2000/svg">
<path fill-rule="evenodd" clip-rule="evenodd" d="M36.3449 63H26.6777C25.9642 63 25.3654 62.4479 25.2967 61.7336C25.1353 59.6851 24.6752 53.4475 22.7873 52.6419C20.8995 51.8364 16.0436 55.8641 14.4552 57.1758C13.9023 57.6359 13.0968 57.5899 12.5907 57.0837L5.68551 50.1786C5.17939 49.6725 5.13338 48.8436 5.61614 48.2907C9.25311 44.1476 10.8182 41.4089 10.3354 40.1886C9.8286 38.9456 6.79047 38.1167 1.26636 37.7026C0.552835 37.6566 0 37.0577 0 36.3216V26.4236C0 25.7101 0.552127 25.1112 1.26636 25.0426C3.31489 24.8812 9.59854 24.4211 10.3354 22.6259C11.095 20.8535 6.97452 16.0202 5.6395 14.4552C5.17939 13.9023 5.20204 13.0968 5.70887 12.5907L12.614 5.68551C13.1208 5.17939 13.9264 5.13338 14.4785 5.59349C16.0896 6.92851 21.0156 11.0029 22.8801 10.22C24.7212 9.43715 25.182 3.29154 25.3427 1.26636C25.3887 0.552838 25.9876 0 26.7237 0H36.3916C37.1052 0 37.704 0.552128 37.7727 1.243C37.9567 3.29154 38.5556 9.48316 40.3507 10.2434C42.1465 10.9796 47.0258 6.95187 48.6369 5.61685C49.1897 5.15674 49.9952 5.20275 50.5014 5.70887L57.4072 12.614C57.9133 13.1208 57.9593 13.949 57.4766 14.5019C53.8396 18.645 52.2745 21.3844 52.7573 22.604C53.2641 23.847 56.3023 24.6752 61.8264 25.09C62.5399 25.136 63.0927 25.7349 63.0927 26.471V36.369C63.0927 37.0825 62.5406 37.6814 61.8264 37.75C56.3256 38.1641 53.2641 38.993 52.7573 40.236C52.2512 41.479 53.8389 44.1951 57.4766 48.3382C57.9601 48.8903 57.9367 49.7192 57.4072 50.226L50.5014 57.1312C49.9952 57.638 49.1897 57.684 48.6369 57.2232C47.0484 55.9115 42.2378 51.9298 40.4194 52.6886C38.5782 53.4482 37.9794 59.7552 37.7953 61.8264C37.6573 62.4698 37.0584 62.9993 36.3449 62.9993V63Z" fill="#484848"/>
<path fill-rule="evenodd" clip-rule="evenodd" d="M31.5343 48.7523C22.0278 48.7523 14.2711 41.0182 14.2711 31.5117C14.2711 22.0052 22.0052 14.2711 31.5343 14.2711C41.0635 14.2711 48.7976 22.0052 48.7976 31.5117C48.7976 41.0182 41.0402 48.7523 31.5343 48.7523Z" fill="#D6D6D7"/>
<path fill-rule="evenodd" clip-rule="evenodd" d="M31.5343 45.4303C23.7698 45.4303 17.7007 39.3611 17.7007 31.5966C17.7007 23.7437 23.9036 17.3177 31.5343 17.3177C39.165 17.3177 45.368 23.6991 45.368 31.5966C45.3234 39.3611 39.2542 45.4303 31.5343 45.4303Z" fill="white"/>
</svg>
