<svg width="64" height="64" viewBox="0 0 64 64" fill="none" xmlns="http://www.w3.org/2000/svg">
<path d="M59.7334 17.0666H4.13338V58.4H59.7334V17.0666Z" fill="#FFD15C"/>
<path d="M55.7333 28.5334H35.4666V58.4H55.7333V28.5334Z" fill="#415A6B"/>
<path d="M53.7333 30.5334H37.4666V56.4H53.7333V30.5334Z" fill="#8AD7F8"/>
<path d="M0 12.8V18.8C0 22.4 2.8 25.2 6.4 25.2C10 25.2 12.8 22.4 12.8 18.8V12.8H0Z" fill="#F05540"/>
<path d="M12.8 12.8V18.8C12.8 22.4 15.6 25.2 19.2 25.2C22.8 25.2 25.6 22.4 25.6 18.8V12.8H12.8Z" fill="#E8EAE9"/>
<path d="M25.6 12.8V18.8C25.6 22.4 28.4 25.2 32 25.2C35.6 25.2 38.4 22.4 38.4 18.8V12.8H25.6Z" fill="#F05540"/>
<path d="M38.4 12.8V18.8C38.4 22.4 41.2 25.2 44.8 25.2C48.4 25.2 51.2 22.4 51.2 18.8V12.8H38.4Z" fill="#E8EAE9"/>
<path d="M51.2 12.8V18.8C51.2 22.4 54 25.2 57.6 25.2C61.2 25.2 64 22.4 64 18.8V12.8H51.2Z" fill="#F05540"/>
<path d="M15.6 0H4.66662L0 12.8H12.8L15.6 0Z" fill="#F3705A"/>
<path d="M26.5334 0H15.6L12.8 12.8H25.6L26.5334 0Z" fill="#F3F3F3"/>
<path d="M37.4666 0H26.5334L25.6 12.8H38.4L37.4666 0Z" fill="#F3705A"/>
<path d="M48.4 0H37.4666L38.4 12.8H51.2L48.4 0Z" fill="#F3F3F3"/>
<path d="M59.3334 0H48.4L51.2 12.8H64L59.3334 0Z" fill="#F3705A"/>
<path d="M64 58.4H0V64H64V58.4Z" fill="#CED6E0"/>
<path d="M40 45.2C40.9573 45.2 41.7334 44.4239 41.7334 43.4666C41.7334 42.5093 40.9573 41.7332 40 41.7332C39.0427 41.7332 38.2666 42.5093 38.2666 43.4666C38.2666 44.4239 39.0427 45.2 40 45.2Z" fill="#415A6B"/>
<path d="M30.6668 28.5334H8.13338V48.8H30.6668V28.5334Z" fill="#415A6B"/>
<path d="M28.6668 30.5334H10.1334V46.8H28.6668V30.5334Z" fill="#8AD7F8"/>
<path d="M19.8666 33.0666C19.6 32.8 18.9332 32.8 18.6666 33.0666L12.1334 39.6C11.8667 39.8666 11.8667 40.5334 12.1334 40.8C12.4 41.0666 13.0667 41.0666 13.3334 40.8L19.8667 34.2666C20.2666 33.8666 20.2666 33.3334 19.8666 33.0666Z" fill="#55C0EB"/>
<path d="M21.3334 36.9334C21.0668 36.6667 20.4 36.6667 20.1334 36.9334L16 41.0666C15.7334 41.3332 15.7334 42 16 42.2666C16.2666 42.5332 16.9334 42.5332 17.2 42.2666L21.3334 38.1332C21.7334 37.7334 21.7334 37.2 21.3334 36.9334Z" fill="#55C0EB"/>
</svg>
