<svg width="93" height="86" viewBox="0 0 93 86" fill="none" xmlns="http://www.w3.org/2000/svg">
<g filter="url(#filter0_i_87_142)">
<path d="M0 9H93V86H0V9Z" fill="#87DAFF"/>
</g>
<path d="M62.196 82.2806V51.4617L57.1971 49.1199L55.8403 41.9138H38.1598L36.803 49.1199L31.9651 51.3863V82.2806H62.196Z" fill="#E2B48A"/>
<path d="M83 85.6494L81.7085 69.1408C81.4982 66.4501 80.5785 63.8633 79.0428 61.6439C77.5072 59.4245 75.4106 57.652 72.9668 56.5068L59.0929 50.007V54.0216H57.5118V56.1289H34.2375V50.3217L21.0332 56.5068C18.589 57.6517 16.492 59.4241 14.956 61.6435C13.42 63.8629 12.4999 66.4499 12.2895 69.1408L11 85.6494H83Z" fill="#BAC2D3"/>
<path d="M49.0644 56.1752H42.419L41.1533 59.126L44.9674 63.9802L42.7501 74.6238L46.9965 83.8243L51.7542 73.9284L49.7611 63.7817L52.7813 58.816L49.0644 56.1752Z" fill="#DA2A47"/>
<path d="M81.7091 69.1409C81.4989 66.4502 80.579 63.8633 79.0432 61.6439C77.5075 59.4245 75.4107 57.652 72.9668 56.5069L60.3233 50.5822C59.2921 56.4539 56.8436 61.8349 54.183 67.1343C52.9492 69.5923 51.793 72.0414 50.7047 74.562C50.0977 75.9589 47 84.1207 47 84.1207C47 84.1207 41.9779 71.62 41.0637 69.2504C39.8245 66.0365 38.8708 62.692 37.2285 59.6515C36.9471 59.1301 36.65 58.6176 36.3448 58.1084C33.551 57.0113 32.1147 54.6417 32.1677 51.2898L21.0332 56.5069C18.589 57.6518 16.492 59.4243 14.956 61.6437C13.42 63.8631 12.4999 66.45 12.2895 69.1409L11 85.6495H83L81.7091 69.1409Z" fill="#707583"/>
<path d="M81.7091 69.1409C81.4989 66.4502 80.579 63.8633 79.0432 61.6439C77.5075 59.4245 75.4107 57.652 72.9668 56.5069L60.3233 50.5822C59.2921 56.4539 56.8436 61.8349 54.183 67.1343C52.9492 69.5923 51.793 72.0414 50.7047 74.562C50.0977 75.9589 47 84.1207 47 84.1207C47 84.1207 41.9779 71.62 41.0637 69.2504C39.8245 66.0365 38.8708 62.692 37.2285 59.6515C36.9471 59.1301 36.65 58.6176 36.3448 58.1084C33.551 57.0113 32.1147 54.6417 32.1677 51.2898L21.0332 56.5069C18.589 57.6518 16.492 59.4243 14.956 61.6437C13.42 63.8631 12.4999 66.45 12.2895 69.1409L11 85.6495H83L81.7091 69.1409Z" fill="#384868"/>
<path d="M82.9998 85.6494H73.2521L71.9606 69.1381C71.7482 66.4477 70.8267 63.8616 69.29 61.643C67.7533 59.4245 65.6561 57.6528 63.2121 56.5082L59.3578 54.7C59.7508 53.3451 60.0708 51.97 60.3163 50.5807L72.9666 56.5082C75.4098 57.6531 77.5059 59.4251 79.0415 61.6437C80.5771 63.8623 81.4973 66.4482 81.7083 69.1381L82.9998 85.6494Z" fill="#2F3A5A"/>
<path d="M66.2704 32.6069C66.992 29.5244 66.1787 26.6983 64.4539 26.2945C62.7291 25.8908 60.7459 28.0623 60.0243 31.1448C59.3027 34.2273 60.116 37.0535 61.8408 37.4573C63.5656 37.861 65.5488 35.6895 66.2704 32.6069Z" fill="#E2B48A"/>
<path d="M32.0543 37.4819C33.7792 37.0781 34.5924 34.2519 33.8709 31.1694C33.1493 28.0869 31.1661 25.9154 29.4413 26.3191C27.7165 26.7229 26.9032 29.549 27.6248 32.6315C28.3463 35.7141 30.3295 37.8856 32.0543 37.4819Z" fill="#E2B48A"/>
<path d="M46.9339 48.0868C55.8798 48.0868 63.1319 38.0914 63.1319 25.7615C63.1319 13.4315 55.8798 3.43616 46.9339 3.43616C37.988 3.43616 30.736 13.4315 30.736 25.7615C30.736 38.0914 37.988 48.0868 46.9339 48.0868Z" fill="#F0C191"/>
<path d="M62.116 33.4631C62.116 33.4631 67.8362 23.2429 66.597 15.1375C65.3578 7.03202 59.8973 4.47341 56.6528 4.47341C56.6528 4.47341 52.2738 -2.0108 41.4527 0.634137C30.6316 3.27908 26.2805 15.1619 28.3279 22.6583C30.3754 30.1547 31.7403 33.5983 31.7403 33.5983C31.7403 33.5983 30.3754 24.0137 31.9109 18.7218C33.4465 13.4299 38.0539 9.25143 39.8457 10.7007C41.6376 12.1499 53.0698 11.6693 54.9466 8.45747C57.4123 10.2643 59.0626 12.9735 59.537 15.9933C60.1488 20.8563 62.8807 23.8424 62.6251 27.3398C62.3695 30.8372 62.116 33.4631 62.116 33.4631Z" fill="#2F3A5A"/>
<path d="M56.7307 46.6198L47 56.1282L55.686 62.0972L59.7509 50.3027L56.7307 46.6198Z" fill="#D9E2E9"/>
<path d="M34.249 50.3027L38.6525 61.8219L46.9999 56.1282L37.2692 46.6198L34.249 50.3027Z" fill="#D9E2E9"/>
<path d="M62.2835 51.5024L56.7306 46.6197L56.719 46.6082C56.719 46.6082 56.6178 61.1958 46.9985 83.8242C37.3772 61.1958 37.278 46.6082 37.278 46.6082L37.2664 46.6197L31.7141 51.5024L30.736 59.7567L35.34 59.0205L31.8875 64.2547C33.8894 69.1313 46.9999 84.3578 46.9999 84.3578C49.0629 82.08 60.4196 68.9321 62.1877 64.6224L58.6564 59.0205L63.8096 59.1674L62.2835 51.5024Z" fill="#43567C"/>
<defs>
<filter id="filter0_i_87_142" x="0" y="9" width="93" height="81" filterUnits="userSpaceOnUse" color-interpolation-filters="sRGB">
<feFlood flood-opacity="0" result="BackgroundImageFix"/>
<feBlend mode="normal" in="SourceGraphic" in2="BackgroundImageFix" result="shape"/>
<feColorMatrix in="SourceAlpha" type="matrix" values="0 0 0 0 0 0 0 0 0 0 0 0 0 0 0 0 0 0 127 0" result="hardAlpha"/>
<feOffset dy="4"/>
<feGaussianBlur stdDeviation="2"/>
<feComposite in2="hardAlpha" operator="arithmetic" k2="-1" k3="1"/>
<feColorMatrix type="matrix" values="0 0 0 0 0 0 0 0 0 0 0 0 0 0 0 0 0 0 0.25 0"/>
<feBlend mode="normal" in2="shape" result="effect1_innerShadow_87_142"/>
</filter>
</defs>
</svg>
