<svg width="83" height="87" viewBox="0 0 83 87" fill="none" xmlns="http://www.w3.org/2000/svg">
<path d="M10.7095 2L0 12.7095V84.9986H64.257V2H10.7095Z" fill="#C8E1FF"/>
<path d="M0 10.7095H10.7095V0L0 10.7095Z" fill="#AACCFA"/>
<path d="M56.4178 49.6774H8.33869C7.5994 49.6774 7 49.078 7 48.3387C7 47.5994 7.5994 47 8.33869 47H56.4178C57.1571 47 57.7565 47.5994 57.7565 48.3387C57.7565 49.078 57.1571 49.6774 56.4178 49.6774Z" fill="#5F6473"/>
<path d="M34.958 58.5099H8.33869C7.5994 58.5099 7 57.9105 7 57.1712C7 56.4319 7.5994 55.8325 8.33869 55.8325H34.958C35.6973 55.8325 36.2967 56.4319 36.2967 57.1712C36.2967 57.9105 35.6973 58.5099 34.958 58.5099Z" fill="#5F6473"/>
<path d="M30.42 67.3422H8.33869C7.5994 67.3422 7 66.7428 7 66.0035C7 65.2642 7.5994 64.6648 8.33869 64.6648H30.42C31.1593 64.6648 31.7587 65.2642 31.7587 66.0035C31.7587 66.7428 31.1593 67.3422 30.42 67.3422Z" fill="#5F6473"/>
<path d="M33.2562 76.4763H8.33869C7.5994 76.4763 7 75.8769 7 75.1376C7 74.3983 7.5994 73.799 8.33869 73.799H33.2562C33.9955 73.799 34.5949 74.3983 34.5949 75.1376C34.5949 75.8769 33.9955 76.4763 33.2562 76.4763Z" fill="#5F6473"/>
<path d="M32.4436 37.2311C39.7605 37.2311 45.692 31.2996 45.692 23.9826C45.692 16.6657 39.7605 10.7341 32.4436 10.7341C25.1266 10.7341 19.1951 16.6657 19.1951 23.9826C19.1951 31.2996 25.1266 37.2311 32.4436 37.2311Z" fill="#FFE180"/>
<path d="M31.0316 31.2225C30.7639 31.2225 30.4945 31.1425 30.2611 30.9778L26.0577 28.0148C25.4535 27.589 25.3089 26.7536 25.7348 26.1494C26.1608 25.5451 26.9958 25.4004 27.6002 25.8266L30.8111 28.09L37.5981 20.2181C38.0808 19.6586 38.9262 19.5958 39.4859 20.0784C40.046 20.5612 40.1086 21.4066 39.6257 21.9665L32.046 30.7578C31.7828 31.0632 31.409 31.2225 31.0316 31.2225Z" fill="#5F6473"/>
<path d="M61.4166 60.4986C53.4627 55.9064 45.8857 54.1395 44.4928 56.5521L39.4486 65.2891L68.2165 81.9808L73.2965 73.182C74.6894 70.7693 69.3706 65.0908 61.4168 60.4986H61.4166Z" fill="#FFD36C"/>
<path d="M78.7357 30.5935C74.6581 28.2392 69.4441 29.6363 67.09 33.7139C66.4158 34.8816 66.0493 36.1427 65.9651 37.4029C65.9651 37.4029 65.7063 43.8883 62.4892 49.4606C59.513 54.6155 54.054 56.99 54.054 56.99L53.7618 57.4137C56.0803 58.266 58.6241 59.4656 61.1658 60.933C63.7282 62.4124 66.0657 64.0339 67.9956 65.6558L68.2166 65.1667C68.2166 65.1667 67.5436 59.2516 70.5197 54.0968C73.7369 48.5245 79.2257 45.0565 79.2257 45.0565C80.2744 44.3537 81.1825 43.4062 81.8564 42.239C84.2106 38.1614 82.8135 32.9474 78.7359 30.5931L78.7357 30.5935Z" fill="#E64B73"/>
<path d="M61.4166 60.4986C53.4627 55.9064 45.8857 54.1395 44.4928 56.5521L39.4486 65.2891L39.8828 65.5411L39.8833 65.5401C40.2788 64.8552 41.3964 64.7116 42.2642 64.7116C45.514 64.7116 50.8238 66.6115 56.1216 69.6703C59.9268 71.8674 63.2403 74.3773 65.4511 76.7377C67.4705 78.8938 68.355 80.7367 67.8177 81.6679C67.8058 81.6885 67.7913 81.7069 67.7782 81.7265L68.2167 81.9808L73.2966 73.182C74.6895 70.7693 69.3708 65.0908 61.417 60.4986H61.4166Z" fill="#FA5F87"/>
<path d="M68.2498 81.92C69.6428 79.5074 64.3242 73.8289 56.3705 69.2367C48.4168 64.6445 40.8399 62.8776 39.4469 65.2902C38.054 67.7028 43.3725 73.3813 51.3262 77.9735C59.2799 82.5657 66.8568 84.3326 68.2498 81.92Z" fill="#5F6473"/>
</svg>
