<svg width="183" height="206" viewBox="0 0 183 206" fill="none" xmlns="http://www.w3.org/2000/svg">
<g filter="url(#filter0_i_2061_12)">
<circle cx="91.5" cy="114.5" r="91.5" fill="#87DAFF"/>
</g>
<path d="M128.012 197.702V123.651L116.001 118.024L112.741 100.71H70.2587L66.9986 118.024L55.3744 123.47V197.702H128.012Z" fill="#E2B48A"/>
<path d="M178 205.797L174.897 166.13C174.392 159.665 172.182 153.449 168.492 148.117C164.802 142.784 159.764 138.525 153.892 135.773L120.557 120.156V129.802H116.757V134.865H60.8346V120.912L29.1076 135.773C23.2347 138.524 18.1961 142.783 14.5054 148.116C10.8147 153.449 8.60395 159.665 8.09839 166.13L5 205.797H178Z" fill="#BAC2D3"/>
<path d="M96.46 134.976H80.4928L77.4515 142.067L86.616 153.73L81.2882 179.304L91.4915 201.411L102.923 177.634L98.1341 153.253L105.391 141.322L96.46 134.976Z" fill="#DA2A47"/>
<path d="M174.898 166.13C174.393 159.665 172.183 153.449 168.493 148.117C164.803 142.784 159.765 138.525 153.892 135.774L123.513 121.538C121.035 135.646 115.152 148.575 108.759 161.309C105.795 167.215 103.016 173.1 100.402 179.156C98.943 182.512 91.5 202.123 91.5 202.123C91.5 202.123 79.4331 172.087 77.2363 166.393C74.2588 158.671 71.9673 150.635 68.0212 143.329C67.345 142.076 66.6312 140.845 65.8979 139.622C59.185 136.985 55.7338 131.292 55.8612 123.238L29.1076 135.774C23.2347 138.524 18.1961 142.783 14.5054 148.116C10.8147 153.449 8.60395 159.665 8.09839 166.13L5 205.797H178L174.898 166.13Z" fill="#707583"/>
<path d="M174.898 166.13C174.393 159.665 172.183 153.449 168.493 148.117C164.803 142.784 159.765 138.525 153.892 135.774L123.513 121.538C121.035 135.646 115.152 148.575 108.759 161.309C105.795 167.215 103.016 173.1 100.402 179.156C98.943 182.512 91.5 202.123 91.5 202.123C91.5 202.123 79.4331 172.087 77.2363 166.393C74.2588 158.671 71.9673 150.635 68.0212 143.329C67.345 142.076 66.6312 140.845 65.8979 139.622C59.185 136.985 55.7338 131.292 55.8612 123.238L29.1076 135.774C23.2347 138.524 18.1961 142.783 14.5054 148.116C10.8147 153.449 8.60395 159.665 8.09839 166.13L5 205.797H178L174.898 166.13Z" fill="#384868"/>
<path d="M178 205.797H154.578L151.475 166.124C150.965 159.659 148.751 153.445 145.058 148.115C141.366 142.784 136.327 138.527 130.454 135.777L121.193 131.432C122.138 128.176 122.906 124.872 123.496 121.534L153.892 135.777C159.763 138.528 164.799 142.785 168.489 148.116C172.179 153.447 174.39 159.66 174.897 166.124L178 205.797Z" fill="#2F3A5A"/>
<path d="M137.803 78.3472C139.536 70.9407 137.582 64.15 133.438 63.1799C129.294 62.2097 124.528 67.4275 122.795 74.8341C121.061 82.2407 123.015 89.0313 127.159 90.0015C131.304 90.9716 136.069 85.7538 137.803 78.3472Z" fill="#E2B48A"/>
<path d="M55.5891 90.0606C59.7334 89.0905 61.6876 82.2998 59.9538 74.8932C58.22 67.4867 53.4549 62.2689 49.3105 63.239C45.1662 64.2092 43.212 70.9998 44.9458 78.4064C46.6796 85.813 51.4447 91.0308 55.5891 90.0606Z" fill="#E2B48A"/>
<path d="M91.3409 115.542C112.836 115.542 130.261 91.525 130.261 61.899C130.261 32.2729 112.836 8.25623 91.3409 8.25623C69.846 8.25623 52.4208 32.2729 52.4208 61.899C52.4208 91.525 69.846 115.542 91.3409 115.542Z" fill="#F0C191"/>
<path d="M127.82 80.4043C127.82 80.4043 141.565 55.8475 138.587 36.372C135.61 16.8964 122.489 10.7486 114.694 10.7486C114.694 10.7486 104.172 -4.83151 78.1712 1.52369C52.1706 7.87889 41.7158 36.4308 46.6353 54.4429C51.5548 72.455 54.8345 80.7293 54.8345 80.7293C54.8345 80.7293 51.5548 57.6997 55.2444 44.9844C58.9341 32.2691 70.0046 22.2291 74.31 25.7114C78.6154 29.1936 106.084 28.0388 110.594 20.3214C116.518 24.6627 120.484 31.1725 121.624 38.4283C123.094 50.113 129.658 57.2881 129.044 65.6915C128.43 74.0948 127.82 80.4043 127.82 80.4043Z" fill="#2F3A5A"/>
<path d="M114.881 112.017L91.5 134.864L112.37 149.206L122.138 120.866L114.881 112.017Z" fill="#D9E2E9"/>
<path d="M60.8624 120.866L71.443 148.544L91.5 134.864L68.1192 112.017L60.8624 120.866Z" fill="#D9E2E9"/>
<path d="M128.223 123.749L114.88 112.017L114.852 111.989C114.852 111.989 114.609 147.04 91.4961 201.411C68.3783 147.04 68.1398 111.989 68.1398 111.989L68.112 112.017L54.7712 123.749L52.4208 143.582L63.4832 141.813L55.1877 154.39C59.9978 166.107 91.4994 202.693 91.4994 202.693C96.4565 197.22 123.744 165.629 127.992 155.273L119.507 141.813L131.889 142.166L128.223 123.749Z" fill="#43567C"/>
<defs>
<filter id="filter0_i_2061_12" x="0" y="23" width="183" height="187" filterUnits="userSpaceOnUse" color-interpolation-filters="sRGB">
<feFlood flood-opacity="0" result="BackgroundImageFix"/>
<feBlend mode="normal" in="SourceGraphic" in2="BackgroundImageFix" result="shape"/>
<feColorMatrix in="SourceAlpha" type="matrix" values="0 0 0 0 0 0 0 0 0 0 0 0 0 0 0 0 0 0 127 0" result="hardAlpha"/>
<feOffset dy="4"/>
<feGaussianBlur stdDeviation="2"/>
<feComposite in2="hardAlpha" operator="arithmetic" k2="-1" k3="1"/>
<feColorMatrix type="matrix" values="0 0 0 0 0 0 0 0 0 0 0 0 0 0 0 0 0 0 0.25 0"/>
<feBlend mode="normal" in2="shape" result="effect1_innerShadow_2061_12"/>
</filter>
</defs>
</svg>
