<svg width="35" height="41" viewBox="0 0 35 41" fill="none" xmlns="http://www.w3.org/2000/svg">
<path d="M0 39.6392V6.27386C0 5.52241 0.609153 4.91318 1.36068 4.91318H28.87C29.6215 4.91318 30.2307 5.52233 30.2307 6.27386V39.6392C30.2307 40.3907 29.6215 40.9999 28.87 40.9999H1.3606C0.609153 40.9999 0 40.3907 0 39.6392Z" fill="#0E80AC"/>
<path d="M28.8699 4.91327H27.2873V39.6393C27.2873 40.3908 26.6782 41 25.9267 41H28.8699C29.6214 41 30.2306 40.3908 30.2306 39.6393V6.27395C30.2306 5.52242 29.6214 4.91327 28.8699 4.91327Z" fill="#057195"/>
<path d="M2.94551 4.91327V36.7668C2.94551 37.2625 3.34734 37.6644 3.84302 37.6644H26.3876C26.8833 37.6644 27.2851 37.2625 27.2851 36.7668V4.91327H2.94551Z" fill="#F7F0F0"/>
<path d="M17.8106 1.95134C17.8106 0.87365 16.937 0 15.8593 0H14.3713C13.2936 0 12.4199 0.87365 12.4199 1.95134C12.4199 2.49803 11.9767 2.94126 11.43 2.94126H10.2394C9.15034 2.94126 8.2674 3.82412 8.2674 4.91326V5.94923C8.2674 6.46621 8.68644 6.88526 9.20343 6.88526H21.0271C21.5441 6.88526 21.9631 6.46621 21.9631 5.94923V4.91326C21.9631 3.8242 21.0803 2.94126 19.9911 2.94126H18.8005C18.2538 2.94126 17.8106 2.49803 17.8106 1.95134Z" fill="#FD7E42"/>
<path d="M19.9912 2.94126H18.8006C18.2539 2.94126 17.8106 2.49803 17.8106 1.95134C17.8106 0.87365 16.937 0 15.8593 0H14.8522V2.98242C14.8522 3.52911 15.2955 3.97235 15.8422 3.97235H17.0328C18.1218 3.97235 19.0048 4.85521 19.0048 5.94435V6.88526H21.027C21.544 6.88526 21.9631 6.46621 21.9631 5.94923V4.91326C21.9632 3.82412 21.0803 2.94126 19.9912 2.94126Z" fill="#FA6931"/>
<path d="M7.81521 14.7903L6.45893 13.5847C6.20356 13.3577 6.18058 12.9667 6.4076 12.7113C6.63454 12.456 7.02564 12.4328 7.28101 12.6599L8.55545 13.7927L10.5217 10.9805C10.7174 10.7004 11.1033 10.6321 11.3832 10.8281C11.6633 11.0238 11.7316 11.4097 11.5358 11.6897L9.50678 14.5916C9.11728 15.1485 8.32643 15.2448 7.81521 14.7903Z" fill="#FBA615"/>
<path d="M7.81529 23.8286L6.45885 22.6229C6.20349 22.3958 6.1805 22.0048 6.40752 21.7494C6.63446 21.4941 7.02557 21.4708 7.28101 21.698L8.55538 22.8309L10.5216 20.0186C10.7173 19.7385 11.1032 19.6703 11.3832 19.8662C11.6632 20.062 11.7315 20.4477 11.5357 20.7278L9.5067 23.6298C9.1172 24.1869 8.32651 24.2829 7.81529 23.8286Z" fill="#FBA615"/>
<path d="M7.81521 32.7452L6.45893 31.5397C6.20356 31.3126 6.18058 30.9216 6.4076 30.6662C6.63454 30.4109 7.02564 30.3877 7.28101 30.6148L8.55545 31.7476L10.5217 28.9354C10.7174 28.6553 11.1033 28.5871 11.3832 28.783C11.6633 28.9788 11.7316 29.3646 11.5358 29.6446L9.50678 32.5466C9.11728 33.1033 8.32643 33.1997 7.81521 32.7452Z" fill="#FBA615"/>
<path d="M23.3608 12.2788H14.617C14.2754 12.2788 13.9984 12.0018 13.9984 11.6601C13.9984 11.3184 14.2754 11.0414 14.617 11.0414H23.3608C23.7025 11.0414 23.9794 11.3184 23.9794 11.6601C23.9794 12.0018 23.7025 12.2788 23.3608 12.2788Z" fill="#786E79"/>
<path d="M23.3607 15.0285H14.6169C14.2752 15.0285 13.9983 14.7515 13.9983 14.4098C13.9983 14.068 14.2752 13.7911 14.6169 13.7911H23.3607C23.7024 13.7911 23.9793 14.0681 23.9793 14.4098C23.9793 14.7515 23.7024 15.0285 23.3607 15.0285Z" fill="#786E79"/>
<path d="M23.3607 21.1187H14.6169C14.2752 21.1187 13.9983 20.8417 13.9983 20.5C13.9983 20.1583 14.2752 19.8813 14.6169 19.8813H23.3607C23.7024 19.8813 23.9793 20.1583 23.9793 20.5C23.9793 20.8417 23.7024 21.1187 23.3607 21.1187Z" fill="#786E79"/>
<path d="M18.9887 23.8683H14.6169C14.2752 23.8683 13.9982 23.5913 13.9982 23.2496C13.9982 22.9078 14.2752 22.6309 14.6169 22.6309H18.9887C19.3305 22.6309 19.6074 22.9079 19.6074 23.2496C19.6075 23.5914 19.3305 23.8683 18.9887 23.8683Z" fill="#786E79"/>
<path d="M32.5527 17.1631L30.1501 15.2374L29.3225 15.6848L15.2856 33.1987L13.0542 37.6794C12.8729 38.0433 12.97 38.4845 13.2873 38.7388C13.6046 38.9931 14.0563 38.9917 14.3721 38.7356L18.2594 35.582L32.2962 18.0683L32.5527 17.1631Z" fill="#FA6931"/>
<path d="M15.3049 33.1745L13.0612 37.68C12.8789 38.0461 12.9765 38.4896 13.2956 38.7453C13.6146 39.001 14.0688 38.9997 14.3863 38.7421L18.2952 35.5711L15.3049 33.1745Z" fill="#557981"/>
<path d="M34.2642 12.5659C33.443 11.9078 32.2439 12.0399 31.5857 12.8611L29.3226 15.6848L32.2963 18.0682L34.5594 15.2445C35.2176 14.4233 35.0854 13.2241 34.2642 12.5659Z" fill="#FFC3AB"/>
</svg>
