<svg width="54" height="63" viewBox="0 0 54 63" fill="none" xmlns="http://www.w3.org/2000/svg">
<path d="M0 60.9091V9.64034C0 8.48567 0.936016 7.54953 2.09081 7.54953H44.3613C45.5159 7.54953 46.4521 8.48555 46.4521 9.64034V60.9091C46.4521 62.0637 45.5161 62.9999 44.3613 62.9999H2.09069C0.936016 62.9999 0 62.0639 0 60.9091Z" fill="#0E80AC"/>
<path d="M44.3611 7.54965H41.9294V60.9092C41.9294 62.0639 40.9934 63 39.8386 63H44.3611C45.5158 63 46.452 62.064 46.452 60.9092V9.64046C46.452 8.48567 45.5158 7.54965 44.3611 7.54965Z" fill="#057195"/>
<path d="M4.52602 7.54965V56.4954C4.52602 57.2571 5.14347 57.8745 5.90513 57.8745H40.5468C41.3085 57.8745 41.9259 57.2571 41.9259 56.4954V7.54965H4.52602Z" fill="#F7F0F0"/>
<path d="M27.3675 2.9984C27.3675 1.34244 26.0251 0 24.3691 0H22.0827C20.4267 0 19.0843 1.34244 19.0843 2.9984C19.0843 3.83844 18.4032 4.5195 17.5632 4.5195H15.7337C14.0603 4.5195 12.7036 5.87609 12.7036 7.54965V9.1415C12.7036 9.93589 13.3475 10.5798 14.1419 10.5798H32.31C33.1043 10.5798 33.7482 9.93589 33.7482 9.1415V7.54965C33.7482 5.87621 32.3917 4.5195 30.7181 4.5195H28.8886C28.0485 4.5195 27.3675 3.83844 27.3675 2.9984Z" fill="#FD7E42"/>
<path d="M30.7181 4.5195H28.8886C28.0486 4.5195 27.3675 3.83844 27.3675 2.9984C27.3675 1.34244 26.0251 0 24.3691 0H22.8217V4.58275C22.8217 5.42279 23.5028 6.10385 24.3428 6.10385H26.1723C27.8457 6.10385 29.2024 7.46044 29.2024 9.134V10.5798H32.3098C33.1042 10.5798 33.7481 9.93589 33.7481 9.1415V7.54965C33.7483 5.87609 32.3917 4.5195 30.7181 4.5195Z" fill="#FA6931"/>
<path d="M12.0087 22.7266L9.92469 20.8741C9.5323 20.5253 9.49698 19.9244 9.84582 19.532C10.1945 19.1396 10.7955 19.1041 11.1879 19.453L13.1462 21.1937L16.1675 16.8725C16.4682 16.4421 17.0611 16.3371 17.4913 16.6382C17.9216 16.9391 18.0266 17.5319 17.7257 17.9622L14.608 22.4213C14.0095 23.277 12.7943 23.425 12.0087 22.7266Z" fill="#FBA615"/>
<path d="M12.0089 36.6146L9.92458 34.7619C9.53218 34.4131 9.49687 33.8122 9.8457 33.4198C10.1944 33.0274 10.7954 32.9918 11.1879 33.3408L13.1461 35.0816L16.1673 30.7603C16.4681 30.3299 17.061 30.2251 17.4912 30.526C17.9215 30.8269 18.0265 31.4196 17.7256 31.85L14.6079 36.3092C14.0094 37.1651 12.7944 37.3127 12.0089 36.6146Z" fill="#FBA615"/>
<path d="M12.0087 50.3159L9.92469 48.4634C9.5323 48.1146 9.49698 47.5137 9.84582 47.1213C10.1945 46.7289 10.7955 46.6934 11.1879 47.0423L13.1462 48.783L16.1675 44.4618C16.4682 44.0314 17.0611 43.9266 17.4913 44.2275C17.9216 44.5284 18.0266 45.1212 17.7257 45.5515L14.608 50.0106C14.0095 50.8661 12.7943 51.0142 12.0087 50.3159Z" fill="#FBA615"/>
<path d="M35.8957 18.8675H22.4603C21.9352 18.8675 21.5096 18.4419 21.5096 17.9168C21.5096 17.3917 21.9352 16.9662 22.4603 16.9662H35.8957C36.4209 16.9662 36.8464 17.3918 36.8464 17.9168C36.8464 18.4419 36.4209 18.8675 35.8957 18.8675Z" fill="#786E79"/>
<path d="M35.8956 23.0925H22.4602C21.9351 23.0925 21.5095 22.6669 21.5095 22.1419C21.5095 21.6167 21.9351 21.1912 22.4602 21.1912H35.8956C36.4208 21.1912 36.8463 21.6168 36.8463 22.1419C36.8463 22.6669 36.4208 23.0925 35.8956 23.0925Z" fill="#786E79"/>
<path d="M35.8956 32.4506H22.4602C21.9351 32.4506 21.5095 32.025 21.5095 31.4999C21.5095 30.9749 21.9351 30.5493 22.4602 30.5493H35.8956C36.4208 30.5493 36.8463 30.9749 36.8463 31.4999C36.8463 32.025 36.4208 32.4506 35.8956 32.4506Z" fill="#786E79"/>
<path d="M29.1778 36.6757H22.4601C21.935 36.6757 21.5094 36.2501 21.5094 35.725C21.5094 35.1998 21.935 34.7744 22.4601 34.7744H29.1778C29.703 34.7744 30.1284 35.2 30.1284 35.725C30.1286 36.2502 29.703 36.6757 29.1778 36.6757Z" fill="#786E79"/>
<path d="M50.0201 26.3725L46.3283 23.4136L45.0566 24.101L23.4876 51.0126L20.0589 57.8975C19.7804 58.4568 19.9295 59.1346 20.4171 59.5254C20.9046 59.9162 21.5987 59.9141 22.0839 59.5205L28.0571 54.6748L49.6259 27.7634L50.0201 26.3725Z" fill="#FA6931"/>
<path d="M23.5173 50.9755L20.0696 57.8986C19.7896 58.4611 19.9396 59.1426 20.4298 59.5355C20.92 59.9284 21.6179 59.9264 22.1058 59.5306L28.1121 54.6581L23.5173 50.9755Z" fill="#557981"/>
<path d="M52.6499 19.3086C51.3881 18.2973 49.5455 18.5003 48.5342 19.7622L45.0566 24.101L49.6259 27.7633L53.1035 23.4244C54.1148 22.1627 53.9117 20.3199 52.6499 19.3086Z" fill="#FFC3AB"/>
</svg>
