<svg width="44" height="36" viewBox="0 0 44 36" fill="none" xmlns="http://www.w3.org/2000/svg">
<path d="M41.0671 1.09658L40.3432 1.35908L1.05573 15.5142C0.777318 15.6003 0.535341 15.7763 0.367726 16.0147C0.200111 16.2531 0.116332 16.5404 0.129524 16.8315C0.142715 17.1226 0.25213 17.4011 0.440619 17.6234C0.629107 17.8456 0.886014 17.9991 1.17107 18.0596L11.341 20.8437L13.2381 26.4119L15.1353 31.9801C15.2443 32.2531 15.4182 32.4953 15.6421 32.6858C15.8659 32.8762 16.1329 33.0092 16.4198 33.0731C16.7066 33.1369 17.0048 33.1298 17.2883 33.0523C17.5718 32.9748 17.8321 32.8293 18.0466 32.6284L23.3006 27.6648L33.6177 34.6608C34.8785 35.5199 36.6762 34.8835 36.9983 33.4676L43.8313 3.27612C44.1654 1.78067 42.5904 0.551689 41.0671 1.09658ZM36.0518 7.79828L18.3012 22.3074L17.466 22.9915C17.2825 23.1369 17.1627 23.348 17.1319 23.5801L16.9449 25.1233L16.4319 29.4585C16.4361 29.5112 16.4192 29.5635 16.3849 29.6038C16.3506 29.6441 16.3017 29.6691 16.2489 29.6733C16.1962 29.6775 16.1439 29.6606 16.1036 29.6263C16.0634 29.592 16.0384 29.5431 16.0341 29.4903L14.5904 25.1591L13.0989 20.7244C13.0358 20.5251 13.0442 20.31 13.1226 20.1162C13.201 19.9223 13.3445 19.7619 13.5285 19.6625L31.9989 9.07498L35.475 7.08635C35.9802 6.79203 36.4972 7.43237 36.0518 7.79828Z" fill="white"/>
</svg>
