<svg width="71" height="71" viewBox="0 0 71 71" fill="none" xmlns="http://www.w3.org/2000/svg">
<g filter="url(#filter0_i_2030_15)">
<circle cx="35.5" cy="35.5" r="35.5" fill="#E9F4E9"/>
</g>
<path d="M38.875 8.875C38.875 8.37772 38.6775 7.90081 38.3258 7.54917C37.9742 7.19754 37.4973 7 37 7C36.5027 7 36.0258 7.19754 35.6742 7.54917C35.3225 7.90081 35.125 8.37772 35.125 8.875V12.625C35.125 13.1223 35.3225 13.5992 35.6742 13.9508C36.0258 14.3025 36.5027 14.5 37 14.5C37.4973 14.5 37.9742 14.3025 38.3258 13.9508C38.6775 13.5992 38.875 13.1223 38.875 12.625V8.875Z" fill="#1E5330"/>
<path d="M21.0906 18.4375L18.4375 15.7881C18.2663 15.6021 18.0593 15.4527 17.8289 15.3487C17.5985 15.2448 17.3494 15.1885 17.0967 15.1833C16.844 15.178 16.5928 15.2239 16.3583 15.3182C16.1238 15.4126 15.9108 15.5533 15.732 15.732C15.5533 15.9108 15.4126 16.1238 15.3182 16.3583C15.2239 16.5928 15.178 16.844 15.1833 17.0967C15.1885 17.3494 15.2448 17.5985 15.3487 17.8289C15.4527 18.0593 15.6021 18.2663 15.7881 18.4375L18.4375 21.0906C18.7893 21.4424 19.2665 21.6401 19.764 21.6401C20.2616 21.6401 20.7388 21.4424 21.0906 21.0906C21.4424 20.7388 21.6401 20.2616 21.6401 19.764C21.6401 19.2665 21.4424 18.7893 21.0906 18.4375Z" fill="#1E5330"/>
<path d="M8.875 35.125C8.37772 35.125 7.90081 35.3225 7.54917 35.6742C7.19754 36.0258 7 36.5027 7 37C7 37.4973 7.19754 37.9742 7.54917 38.3258C7.90081 38.6775 8.37772 38.875 8.875 38.875H12.625C13.1223 38.875 13.5992 38.6775 13.9508 38.3258C14.3025 37.9742 14.5 37.4973 14.5 37C14.5 36.5027 14.3025 36.0258 13.9508 35.6742C13.5992 35.3225 13.1223 35.125 12.625 35.125H8.875Z" fill="#1E5330"/>
<path d="M18.4375 52.9093L15.7881 55.5625C15.6021 55.7336 15.4527 55.9407 15.3487 56.1711C15.2448 56.4015 15.1885 56.6505 15.1833 56.9032C15.178 57.1559 15.2239 57.4071 15.3182 57.6416C15.4126 57.8761 15.5533 58.0892 15.732 58.2679C15.9108 58.4466 16.1238 58.5874 16.3583 58.6817C16.5928 58.776 16.844 58.8219 17.0967 58.8167C17.3494 58.8114 17.5985 58.7552 17.8289 58.6512C18.0593 58.5473 18.2663 58.3978 18.4375 58.2118L21.0906 55.5625C21.4424 55.2106 21.6401 54.7335 21.6401 54.2359C21.6401 53.7383 21.4424 53.2612 21.0906 52.9093C20.7388 52.5575 20.2616 52.3599 19.764 52.3599C19.2665 52.3599 18.7893 52.5575 18.4375 52.9093Z" fill="#1E5330"/>
<path d="M35.125 61.375V65.125C35.125 65.6223 35.3225 66.0992 35.6742 66.4508C36.0258 66.8025 36.5027 67 37 67C37.4973 67 37.9742 66.8025 38.3258 66.4508C38.6775 66.0992 38.875 65.6223 38.875 65.125V61.375C38.875 60.8777 38.6775 60.4008 38.3258 60.0492C37.9742 59.6975 37.4973 59.5 37 59.5C36.5027 59.5 36.0258 59.6975 35.6742 60.0492C35.3225 60.4008 35.125 60.8777 35.125 61.375Z" fill="#1E5330"/>
<path d="M55.5625 52.9093C55.2106 52.5575 54.7335 52.3599 54.2359 52.3599C53.7383 52.3599 53.2612 52.5575 52.9093 52.9093C52.5575 53.2612 52.3599 53.7383 52.3599 54.2359C52.3599 54.7335 52.5575 55.2106 52.9093 55.5625L55.5625 58.2118C55.9185 58.5395 56.3873 58.7169 56.8711 58.7068C57.3548 58.6968 57.8159 58.5002 58.1581 58.1581C58.5002 57.8159 58.6968 57.3548 58.7068 56.8711C58.7169 56.3873 58.5395 55.9185 58.2118 55.5625L55.5625 52.9093Z" fill="#1E5330"/>
<path d="M59.5 37C59.5 37.4973 59.6975 37.9742 60.0492 38.3258C60.4008 38.6775 60.8777 38.875 61.375 38.875H65.125C65.6223 38.875 66.0992 38.6775 66.4508 38.3258C66.8025 37.9742 67 37.4973 67 37C67 36.5027 66.8025 36.0258 66.4508 35.6742C66.0992 35.3225 65.6223 35.125 65.125 35.125H61.375C60.8777 35.125 60.4008 35.3225 60.0492 35.6742C59.6975 36.0258 59.5 36.5027 59.5 37Z" fill="#1E5330"/>
<path d="M58.2118 15.7882C57.8602 15.4367 57.3834 15.2393 56.8862 15.2393C56.389 15.2393 55.9122 15.4367 55.5606 15.7882L52.9093 18.4376C52.7351 18.6118 52.597 18.8186 52.5027 19.0462C52.4084 19.2738 52.3599 19.5178 52.3599 19.7642C52.3599 20.0105 52.4084 20.2545 52.5027 20.4821C52.597 20.7097 52.7351 20.9165 52.9093 21.0907C53.0836 21.2649 53.2904 21.4031 53.518 21.4974C53.7456 21.5917 53.9895 21.6402 54.2359 21.6402C54.4823 21.6402 54.7262 21.5917 54.9538 21.4974C55.1814 21.4031 55.3883 21.2649 55.5625 21.0907L58.2118 18.4376C58.5628 18.0861 58.7599 17.6096 58.7599 17.1129C58.7599 16.6162 58.5628 16.1398 58.2118 15.7882Z" fill="#1E5330"/>
<circle cx="38.5" cy="35.5" r="3.5" fill="#1E5330"/>
<defs>
<filter id="filter0_i_2030_15" x="0" y="0" width="71" height="75" filterUnits="userSpaceOnUse" color-interpolation-filters="sRGB">
<feFlood flood-opacity="0" result="BackgroundImageFix"/>
<feBlend mode="normal" in="SourceGraphic" in2="BackgroundImageFix" result="shape"/>
<feColorMatrix in="SourceAlpha" type="matrix" values="0 0 0 0 0 0 0 0 0 0 0 0 0 0 0 0 0 0 127 0" result="hardAlpha"/>
<feOffset dy="4"/>
<feGaussianBlur stdDeviation="2"/>
<feComposite in2="hardAlpha" operator="arithmetic" k2="-1" k3="1"/>
<feColorMatrix type="matrix" values="0 0 0 0 0 0 0 0 0 0 0 0 0 0 0 0 0 0 0.25 0"/>
<feBlend mode="normal" in2="shape" result="effect1_innerShadow_2030_15"/>
</filter>
</defs>
</svg>
