<svg width="72" height="73" viewBox="0 0 72 73" fill="none" xmlns="http://www.w3.org/2000/svg">
<path d="M6.18774 21.0231H65.5899V68.0498H6.18774V21.0231Z" fill="#F3D55B"/>
<path d="M65.5899 21.0231V33.3985C64.2457 33.3948 62.9404 32.9466 61.8773 32.1239C60.816 32.95 59.5096 33.3985 58.1647 33.3985C56.8198 33.3985 55.5133 32.95 54.452 32.1239C53.3908 32.95 52.0843 33.3985 50.7394 33.3985C49.3945 33.3985 48.088 32.95 47.0268 32.1239C45.9655 32.95 44.659 33.3985 43.3141 33.3985C41.9692 33.3985 40.6628 32.95 39.6015 32.1239C38.5402 32.95 37.2337 33.3985 35.8888 33.3985C34.544 33.3985 33.2375 32.95 32.1762 32.1239C31.1149 32.95 29.8085 33.3985 28.4636 33.3985C27.1187 33.3985 25.8122 32.95 24.7509 32.1239C23.6897 32.95 22.3832 33.3985 21.0383 33.3985C19.6934 33.3985 18.3869 32.95 17.3257 32.1239C16.2644 32.95 14.9579 33.3985 13.613 33.3985C12.2681 33.3985 10.9617 32.95 9.90038 32.1239C8.83731 32.9466 7.53201 33.3948 6.18774 33.3985V21.0231H65.5899Z" fill="#F0C419"/>
<path d="M69.3026 68.0498H2.47509C1.10814 68.0498 0 69.1579 0 70.5249C0 71.8919 1.10814 73 2.47509 73H69.3026C70.6695 73 71.7777 71.8919 71.7777 70.5249C71.7777 69.1579 70.6695 68.0498 69.3026 68.0498Z" fill="#A5A5A4"/>
<path d="M32.1761 21.0231H39.6014V27.2108C39.6014 28.1955 39.2103 29.1398 38.514 29.836C37.8178 30.5323 36.8734 30.9234 35.8888 30.9234C34.9041 30.9234 33.9598 30.5323 33.2636 29.836C32.5673 29.1398 32.1761 28.1955 32.1761 27.2108V21.0231Z" fill="#65DDB9"/>
<path d="M24.7509 21.0231H32.1761V27.2108C32.1761 28.1955 31.785 29.1398 31.0887 29.836C30.3925 30.5323 29.4481 30.9234 28.4635 30.9234C27.4788 30.9234 26.5345 30.5323 25.8383 29.836C25.142 29.1398 24.7509 28.1955 24.7509 27.2108V21.0231Z" fill="#46B29D"/>
<path d="M17.3257 21.0231H24.751V27.2108C24.751 28.1955 24.3598 29.1398 23.6636 29.836C22.9673 30.5323 22.023 30.9234 21.0383 30.9234C20.0537 30.9234 19.1093 30.5323 18.4131 29.836C17.7168 29.1398 17.3257 28.1955 17.3257 27.2108V21.0231Z" fill="#65DDB9"/>
<path d="M9.90039 21.0231H17.3257V27.2108C17.3257 28.1955 16.9345 29.1398 16.2383 29.836C15.542 30.5323 14.5977 30.9234 13.613 30.9234C12.6284 30.9234 11.6841 30.5323 10.9878 29.836C10.2915 29.1398 9.90039 28.1955 9.90039 27.2108V21.0231Z" fill="#46B29D"/>
<path d="M4.95019 21.0231H9.90037V27.2108C9.90037 28.1955 9.50922 29.1398 8.81297 29.836C8.11671 30.5323 7.17239 30.9234 6.18774 30.9234C5.20308 30.9234 4.25876 30.5323 3.5625 29.836C2.86625 29.1398 2.4751 28.1955 2.4751 27.2108V23.4982C2.4751 22.8417 2.73587 22.2122 3.20004 21.748C3.6642 21.2838 4.29375 21.0231 4.95019 21.0231Z" fill="#65DDB9"/>
<path d="M61.8773 21.0231H66.8275C67.4839 21.0231 68.1135 21.2838 68.5777 21.748C69.0418 22.2122 69.3026 22.8417 69.3026 23.4982V27.2108C69.3026 28.1955 68.9114 29.1398 68.2152 29.836C67.5189 30.5323 66.5746 30.9234 65.59 30.9234C64.6053 30.9234 63.661 30.5323 62.9647 29.836C62.2685 29.1398 61.8773 28.1955 61.8773 27.2108V21.0231Z" fill="#65DDB9"/>
<path d="M54.452 21.0231H61.8773V27.2108C61.8773 28.1955 61.4861 29.1398 60.7899 29.836C60.0936 30.5323 59.1493 30.9234 58.1647 30.9234C57.18 30.9234 56.2357 30.5323 55.5394 29.836C54.8432 29.1398 54.452 28.1955 54.452 27.2108V21.0231Z" fill="#46B29D"/>
<path d="M47.0267 21.0231H54.452V27.2108C54.452 28.1955 54.0609 29.1398 53.3646 29.836C52.6683 30.5323 51.724 30.9234 50.7394 30.9234C49.7547 30.9234 48.8104 30.5323 48.1141 29.836C47.4179 29.1398 47.0267 28.1955 47.0267 27.2108V21.0231Z" fill="#65DDB9"/>
<path d="M39.6014 21.0231H47.0267V27.2108C47.0267 28.1955 46.6356 29.1398 45.9393 29.836C45.2431 30.5323 44.2987 30.9234 43.3141 30.9234C42.3294 30.9234 41.3851 30.5323 40.6888 29.836C39.9926 29.1398 39.6014 28.1955 39.6014 27.2108V21.0231Z" fill="#46B29D"/>
<path d="M47.0267 35.8737H59.4022C59.7304 35.8737 60.0452 36.004 60.2773 36.2361C60.5094 36.4682 60.6397 36.783 60.6397 37.1112V68.0499H45.7892V37.1112C45.7892 36.783 45.9196 36.4682 46.1517 36.2361C46.3837 36.004 46.6985 35.8737 47.0267 35.8737Z" fill="#CB8252"/>
<path d="M56.9271 53.1992H55.6896C55.3614 53.1992 55.0466 53.0688 54.8145 52.8367C54.5824 52.6047 54.452 52.2899 54.452 51.9617C54.452 51.6334 54.5824 51.3187 54.8145 51.0866C55.0466 50.8545 55.3614 50.7241 55.6896 50.7241H56.9271C57.2553 50.7241 57.5701 50.8545 57.8022 51.0866C58.0343 51.3187 58.1647 51.6334 58.1647 51.9617C58.1647 52.2899 58.0343 52.6047 57.8022 52.8367C57.5701 53.0688 57.2553 53.1992 56.9271 53.1992Z" fill="#BDC3C7"/>
<path d="M12.3755 35.8737H39.6015C39.9297 35.8737 40.2445 36.004 40.4766 36.2361C40.7087 36.4682 40.839 36.783 40.839 37.1112V59.387H11.1379V37.1112C11.1379 36.783 11.2683 36.4682 11.5004 36.2361C11.7325 36.004 12.0473 35.8737 12.3755 35.8737Z" fill="#3F5C6C"/>
<path d="M44.8487 16.0729H63.1149C63.7707 16.0748 64.3991 16.3362 64.8628 16.8C65.3266 17.2637 65.588 17.8921 65.5899 18.548V21.0231H6.18774V18.548C6.1897 17.8921 6.4511 17.2637 6.91485 16.8C7.37859 16.3362 8.007 16.0748 8.66284 16.0729H44.8487Z" fill="#14A085"/>
<path d="M21.0494 53.1993C20.8334 53.1993 20.6212 53.1427 20.4338 53.0353C20.2464 52.9278 20.0905 52.7732 19.9814 52.5867C19.8828 52.3726 19.8326 52.1393 19.8341 51.9036H19.8131C19.8122 51.8294 19.8176 51.7553 19.8292 51.6821C19.8323 50.1078 20.3886 48.5848 21.4008 47.3791C21.6342 47.1537 21.9469 47.029 22.2713 47.0318C22.5958 47.0346 22.9062 47.1648 23.1357 47.3942C23.3651 47.6237 23.4953 47.934 23.4981 48.2585C23.5009 48.583 23.3762 48.8956 23.1507 49.129C22.5963 49.8993 22.2937 50.8222 22.2845 51.7712C22.3279 52.0726 22.2598 52.3794 22.093 52.6342C21.9262 52.889 21.6722 53.0741 21.3786 53.1548C21.2713 53.1843 21.1606 53.1993 21.0494 53.1993Z" fill="#A56A43"/>
<path d="M30.9498 53.1993C30.7338 53.1993 30.5215 53.1427 30.3342 53.0353C30.1468 52.9278 29.9908 52.7732 29.8818 52.5867C29.7832 52.3726 29.7329 52.1393 29.7345 51.9036H29.7135C29.7126 51.8294 29.718 51.7553 29.7296 51.6821C29.7327 50.1078 30.289 48.5848 31.3012 47.3791C31.5346 47.1537 31.8472 47.029 32.1717 47.0318C32.4962 47.0346 32.8066 47.1648 33.0361 47.3942C33.2655 47.6237 33.3957 47.934 33.3985 48.2585C33.4013 48.583 33.2766 48.8956 33.0511 49.129C32.4966 49.8993 32.1941 50.8222 32.1848 51.7712C32.2283 52.0726 32.1602 52.3794 31.9934 52.6342C31.8266 52.889 31.5726 53.0741 31.279 53.1548C31.1717 53.1843 31.061 53.1993 30.9498 53.1993Z" fill="#A56A43"/>
<path d="M21.0383 58.6655C21.5593 59.1063 22.2127 59.3602 22.8946 59.3869C25.5467 59.3869 25.9885 54.8489 25.9885 53.6113C26.0221 52.9051 25.7845 52.2128 25.3244 51.6761C24.8643 51.1393 24.2164 50.7988 23.5134 50.7241C21.9219 50.7241 21.5692 51.3899 21.0383 51.3899C20.5074 51.3899 20.1547 50.7241 18.5632 50.7241C17.8602 50.7988 17.2123 51.1393 16.7522 51.6761C16.292 52.2128 16.0545 52.9051 16.0881 53.6113C16.0881 54.8489 16.5299 59.3869 19.182 59.3869C19.8639 59.3602 20.5173 59.1063 21.0383 58.6655Z" fill="#E64C3C"/>
<path d="M30.9387 58.6655C31.4597 59.1063 32.1131 59.3602 32.795 59.3869C35.4471 59.3869 35.8889 54.8489 35.8889 53.6113C35.9225 52.9051 35.6849 52.2128 35.2248 51.6761C34.7647 51.1393 34.1168 50.7988 33.4138 50.7241C31.8223 50.7241 31.4696 51.3899 30.9387 51.3899C30.4078 51.3899 30.0551 50.7241 28.4636 50.7241C27.7606 50.7988 27.1127 51.1393 26.6525 51.6761C26.1924 52.2128 25.9549 52.9051 25.9885 53.6113C25.9885 54.8489 26.4303 59.3869 29.0824 59.3869C29.7643 59.3602 30.4177 59.1063 30.9387 58.6655Z" fill="#E64C3C"/>
<path d="M11.1379 59.387H40.839V68.0498H11.1379V59.387Z" fill="#F29C1F"/>
<path d="M35.8888 7.40264H35.8752C35.5506 7.39908 35.2404 7.26814 35.0115 7.03804C34.7825 6.80794 34.6532 6.49711 34.6512 6.17252C34.8318 3.94327 35.8448 1.86367 37.4889 0.347394C37.7223 0.121965 38.0349 -0.00277287 38.3594 4.67825e-05C38.6839 0.00286643 38.9943 0.133018 39.2238 0.362469C39.4532 0.59192 39.5834 0.902312 39.5862 1.22679C39.589 1.55127 39.4643 1.86388 39.2388 2.09728C38.0595 3.15696 37.3082 4.61115 37.1263 6.18614C37.1208 6.51069 36.988 6.82009 36.7565 7.04764C36.525 7.2752 36.2134 7.40269 35.8888 7.40264Z" fill="#A56A43"/>
<path d="M35.8889 19.6828C36.9528 20.5124 38.2531 20.9818 39.6015 21.023C44.9057 21.023 45.7893 12.5953 45.7893 10.2972C45.7893 7.9991 44.0208 4.93494 40.8391 4.93494C37.6573 4.93494 36.9495 6.17248 35.8889 6.17248C34.8283 6.17248 34.1204 4.93494 30.9387 4.93494C27.757 4.93494 25.9885 7.9991 25.9885 10.2972C25.9885 12.5953 26.8721 21.023 32.1763 21.023C33.5247 20.9818 34.825 20.5124 35.8889 19.6828Z" fill="#E64C3C"/>
</svg>
