<svg width="36" height="36" viewBox="0 0 36 36" fill="none" xmlns="http://www.w3.org/2000/svg">
<g filter="url(#filter0_d_17_262)">
<path d="M4.77584 4.33995L8.63032 0.485459C9.02148 0.0943059 9.66525 0.0861569 10.0646 0.485459L18.1239 8.54484L26.1752 0.493608C26.5663 0.102455 27.2101 0.0943059 27.6094 0.493608L31.4639 4.34809C31.855 4.73925 31.855 5.37487 31.4557 5.77417L23.3963 13.8336L31.4476 21.8848C31.8387 22.2759 31.8469 22.9197 31.4476 23.319L27.5931 27.1735C27.2019 27.5647 26.5663 27.5647 26.167 27.1653L18.1076 19.106L10.0564 27.1572C9.66525 27.5484 9.02148 27.5565 8.63032 27.1654L4.77584 23.3109C4.38468 22.9197 4.37654 22.2759 4.77584 21.8766L12.8352 13.8173L4.78399 5.76602C4.37654 5.37487 4.38468 4.7311 4.77584 4.33995Z" fill="white"/>
</g>
<defs>
<filter id="filter0_d_17_262" x="0.479416" y="0.189087" width="35.2768" height="35.2767" filterUnits="userSpaceOnUse" color-interpolation-filters="sRGB">
<feFlood flood-opacity="0" result="BackgroundImageFix"/>
<feColorMatrix in="SourceAlpha" type="matrix" values="0 0 0 0 0 0 0 0 0 0 0 0 0 0 0 0 0 0 127 0" result="hardAlpha"/>
<feOffset dy="4"/>
<feGaussianBlur stdDeviation="2"/>
<feComposite in2="hardAlpha" operator="out"/>
<feColorMatrix type="matrix" values="0 0 0 0 0 0 0 0 0 0 0 0 0 0 0 0 0 0 0.25 0"/>
<feBlend mode="normal" in2="BackgroundImageFix" result="effect1_dropShadow_17_262"/>
<feBlend mode="normal" in="SourceGraphic" in2="effect1_dropShadow_17_262" result="shape"/>
</filter>
</defs>
</svg>
