<svg width="38" height="37" viewBox="0 0 38 37" fill="none" xmlns="http://www.w3.org/2000/svg">
<path d="M23.5916 21.0517H31.4536C32.4961 21.0517 33.496 20.6484 34.2332 19.9306C34.9704 19.2128 35.3846 18.2393 35.3846 17.2242V8.93115H23.5916V21.0517Z" fill="#784533"/>
<path d="M37.9963 24.241V34.4478C37.9963 35.1245 37.7202 35.7736 37.2287 36.2521C36.7373 36.7306 36.0707 36.9995 35.3756 36.9995H18.3413V24.241C18.3413 23.3951 18.6864 22.5838 19.3008 21.9856C19.9151 21.3874 20.7483 21.0514 21.6171 21.0514H24.2378C24.5853 21.0514 24.9186 20.917 25.1644 20.6777C25.4101 20.4384 25.5481 20.1139 25.5481 19.7755V15.3101H30.7895V19.7755C30.7895 20.1139 30.9275 20.4384 31.1733 20.6777C31.419 20.917 31.7523 21.0514 32.0998 21.0514H34.7205C35.5893 21.0514 36.4225 21.3874 37.0368 21.9856C37.6512 22.5838 37.9963 23.3951 37.9963 24.241Z" fill="#FDC8A2"/>
<path d="M30.795 14.6733V18.5416C29.9804 18.9344 29.0835 19.1388 28.1744 19.1388C27.2652 19.1388 26.3684 18.9344 25.5537 18.5416V14.6733H30.795Z" fill="#FDB683"/>
<path d="M32.755 21.0518H34.7205C35.5893 21.0518 36.4225 21.3878 37.0368 21.986C37.6512 22.5841 37.9963 23.3954 37.9963 24.2414V34.4482C37.9963 35.1249 37.7202 35.7739 37.2287 36.2525C36.7373 36.731 36.0707 36.9999 35.3756 36.9999H18.3413V24.2414C18.3413 23.3954 18.6864 22.5841 19.3008 21.986C19.9151 21.3878 20.7483 21.0518 21.6171 21.0518H23.5826L23.6763 21.2799C24.0355 22.1541 24.6554 22.9035 25.4562 23.4314C26.2569 23.9592 27.2018 24.2414 28.1688 24.2414C29.1358 24.2414 30.0807 23.9592 30.8814 23.4314C31.6822 22.9035 32.3021 22.1541 32.6613 21.2799L32.755 21.0518Z" fill="#DE5540"/>
<path d="M34.3935 8.93115H34.0659V12.1208H34.3935C34.8279 12.1208 35.2445 11.9527 35.5517 11.6537C35.8589 11.3546 36.0314 10.9489 36.0314 10.526C36.0314 10.103 35.8589 9.69735 35.5517 9.39826C35.2445 9.09918 34.8279 8.93115 34.3935 8.93115Z" fill="#FDBF92"/>
<path d="M24.8953 4.46582H31.447C32.142 4.46582 32.8086 4.73466 33.3001 5.21319C33.7916 5.69173 34.0677 6.34076 34.0677 7.01752V12.1209C34.0677 13.6436 33.4464 15.1039 32.3406 16.1806C31.2348 17.2573 29.735 17.8622 28.1712 17.8622C26.6073 17.8622 25.1075 17.2573 24.0017 16.1806C22.8959 15.1039 22.2747 13.6436 22.2747 12.1209V7.01752C22.2747 6.34076 22.5508 5.69173 23.0422 5.21319C23.5337 4.73466 24.2003 4.46582 24.8953 4.46582Z" fill="#FDC8A2"/>
<path d="M25.2196 8.93115C25.0252 8.93115 24.8352 8.98727 24.6736 9.09242C24.512 9.19756 24.386 9.34701 24.3116 9.52185C24.2372 9.6967 24.2178 9.8891 24.2557 10.0747C24.2936 10.2603 24.3872 10.4308 24.5247 10.5647C24.6621 10.6985 24.8372 10.7896 25.0278 10.8265C25.2185 10.8635 25.4161 10.8445 25.5956 10.7721C25.7752 10.6997 25.9287 10.577 26.0367 10.4197C26.1447 10.2623 26.2023 10.0773 26.2023 9.88804C26.202 9.63434 26.0984 9.39111 25.9142 9.21172C25.7299 9.03233 25.4801 8.93143 25.2196 8.93115Z" fill="#844E3A"/>
<path d="M31.1241 8.93115C30.9297 8.93115 30.7397 8.98727 30.5781 9.09242C30.4165 9.19756 30.2905 9.34701 30.2162 9.52185C30.1418 9.6967 30.1223 9.8891 30.1602 10.0747C30.1982 10.2603 30.2918 10.4308 30.4292 10.5647C30.5666 10.6985 30.7417 10.7896 30.9324 10.8265C31.123 10.8635 31.3206 10.8445 31.5002 10.7721C31.6798 10.6997 31.8332 10.577 31.9412 10.4197C32.0492 10.2623 32.1069 10.0773 32.1069 9.88804C32.1066 9.63434 32.0029 9.39111 31.8187 9.21172C31.6345 9.03233 31.3847 8.93143 31.1241 8.93115Z" fill="#844E3A"/>
<path d="M28.1735 13.3962C27.9998 13.396 27.8333 13.3288 27.7104 13.2092C27.5876 13.0896 27.5185 12.9274 27.5183 12.7583H26.208C26.208 13.2659 26.4151 13.7526 26.7837 14.1115C27.1523 14.4704 27.6522 14.6721 28.1735 14.6721C28.6948 14.6721 29.1947 14.4704 29.5633 14.1115C29.9319 13.7526 30.139 13.2659 30.139 12.7583H28.8287C28.8285 12.9274 28.7594 13.0896 28.6366 13.2092C28.5137 13.3288 28.3472 13.396 28.1735 13.3962Z" fill="#FCB079"/>
<path d="M24.8973 7.65509L29.4835 4.46547L34.0696 8.93093H35.38V7.01716C35.38 5.15609 34.6207 3.37125 33.2691 2.05528C31.9176 0.739306 30.0845 0 28.1731 0C26.2618 0 24.4287 0.739306 23.0771 2.05528C21.7256 3.37125 20.9663 5.15609 20.9663 7.01716V17.2239C20.9663 18.2391 21.3805 19.2126 22.1177 19.9304C22.8549 20.6482 23.8547 21.0515 24.8973 21.0515V7.65509Z" fill="#844E3A"/>
<path d="M28.6911 1.80762C24.803 1.9533 23.1769 4.97722 23.1096 5.10592L24.276 5.68731C24.3302 5.5858 25.639 3.19877 28.7415 3.08259L28.6911 1.80762Z" fill="#784533"/>
<path d="M34.9955 28.1513L32.5959 20.5123C32.57 20.4312 32.5277 20.356 32.4716 20.2911C32.4154 20.2261 32.3465 20.1727 32.2689 20.134C32.1913 20.0954 32.1065 20.0721 32.0196 20.0658C31.9326 20.0594 31.8452 20.07 31.7625 20.0969C31.6001 20.1499 31.4654 20.2626 31.3874 20.4111C31.3093 20.5595 31.294 20.7319 31.3449 20.8911L33.1906 26.7919H23.6247L24.8568 20.9907C24.8929 20.8265 24.8611 20.6551 24.7682 20.5136C24.6754 20.3721 24.5289 20.2719 24.3607 20.2349H24.3595C24.2751 20.2163 24.1878 20.2142 24.1025 20.2287C24.0173 20.2432 23.9359 20.274 23.8629 20.3193C23.79 20.3646 23.727 20.4235 23.6775 20.4927C23.6281 20.5618 23.5932 20.6398 23.5749 20.7222L21.9358 28.3205C21.6137 29.138 21.5363 30.0277 21.7127 30.8862C21.8891 31.7448 22.3119 32.5371 22.9322 33.1711V36.9986H34.07V33.1711C35.4162 31.8137 35.7243 29.8069 34.9955 28.1513Z" fill="#844E3A"/>
<path d="M13.1033 6.37979C13.1032 5.17587 12.7533 3.99656 12.0939 2.97815C11.4345 1.95973 10.4926 1.14379 9.37698 0.624618C8.2614 0.105449 7.01772 -0.0957495 5.78966 0.0442749C4.5616 0.184299 3.3993 0.659831 2.43709 1.41591C1.47489 2.17199 0.752063 3.17775 0.352151 4.31695C-0.0477612 5.45615 -0.108431 6.68228 0.177154 7.85364C0.462739 9.025 1.08292 10.0938 1.96602 10.9364C2.84912 11.779 3.95908 12.3612 5.16763 12.6155L6.55167 14.6728L7.93571 12.6155C9.39907 12.3073 10.7099 11.5204 11.6501 10.3859C12.5903 9.25138 13.1032 7.83759 13.1033 6.37979Z" fill="#FFB431"/>
<path d="M9.17473 5.10271V4.939C9.17416 4.47502 8.98462 4.0302 8.64767 3.70212C8.31072 3.37404 7.85388 3.18948 7.37736 3.18893H7.20923V1.91309H5.89889V3.18893H5.73076C5.30397 3.18892 4.8911 3.33679 4.56603 3.60608C4.24097 3.87536 4.02492 4.24848 3.95656 4.65868C3.8882 5.06888 3.97198 5.48937 4.19291 5.84493C4.41384 6.20048 4.75751 6.46788 5.16241 6.59927L7.53141 7.36821C7.64113 7.40381 7.73426 7.47627 7.79414 7.57262C7.85401 7.66897 7.87671 7.78292 7.85818 7.89408C7.83965 8.00524 7.7811 8.10635 7.693 8.17932C7.60491 8.25228 7.49302 8.29234 7.37736 8.29232H5.73076C5.60164 8.29218 5.47785 8.24217 5.38654 8.15327C5.29524 8.06437 5.24388 7.94383 5.24373 7.81811V7.6544H3.93339V7.81811C3.93396 8.28209 4.1235 8.7269 4.46045 9.05498C4.7974 9.38307 5.25424 9.56762 5.73076 9.56817H5.89889V10.844H7.20923V9.56817H7.37736C7.80415 9.56818 8.21703 9.42031 8.54209 9.15103C8.86715 8.88175 9.0832 8.50862 9.15156 8.09843C9.21992 7.68823 9.13614 7.26773 8.91521 6.91218C8.69428 6.55663 8.35061 6.28923 7.94572 6.15783L5.57672 5.38889C5.46699 5.35329 5.37386 5.28083 5.31399 5.18448C5.25411 5.08813 5.23141 4.97418 5.24994 4.86302C5.26847 4.75186 5.32702 4.65075 5.41512 4.57779C5.50322 4.50482 5.6151 4.46476 5.73076 4.46478H7.37736C7.50648 4.46493 7.63027 4.51494 7.72158 4.60384C7.81288 4.69274 7.86424 4.81327 7.86439 4.939V5.10271H9.17473Z" fill="#FFC261"/>
<path d="M26.8621 33.1714V36.9989H35.3792C36.0743 36.9989 36.7408 36.7301 37.2323 36.2516C37.7238 35.773 37.9999 35.124 37.9999 34.4472V33.1714H26.8621Z" fill="#DE5540"/>
<path d="M26.865 33.1726L24.2444 31.2588H19.6582V34.4484H22.2789C22.466 35.1773 22.898 35.8243 23.5062 36.2866C24.1143 36.749 24.8638 37.0001 25.6354 37.0001H26.865V33.1726Z" fill="#FDC8A2"/>
<path d="M22.9308 36.9998H0V26.793H14.4137H17.0343L22.9308 33.8101V36.9998Z" fill="#3BA5D3"/>
<path d="M0 26.793H14.4137V36.9998H0V26.793Z" fill="#4DB6E4"/>
<path d="M1.30835 17.2241H11.791V22.3275H1.30835V17.2241Z" fill="#4DB6E4"/>
<path d="M8.51733 19.1377H9.82767V20.4135H8.51733V19.1377Z" fill="#2D96C3"/>
<path d="M5.90088 19.1377H7.21121V20.4135H5.90088V19.1377Z" fill="#2D96C3"/>
<path d="M3.27563 19.1377H4.58597V20.4135H3.27563V19.1377Z" fill="#2D96C3"/>
<path d="M1.9624 28.707H3.27274V29.9829H1.9624V28.707Z" fill="#5CC1ED"/>
<path d="M1.9624 31.2588H3.27274V35.0863H1.9624V31.2588Z" fill="#5CC1ED"/>
<path d="M5.2417 22.3276H7.86237V26.7931H5.2417V22.3276Z" fill="#DFDFDD"/>
<path d="M5.2417 22.3276H7.86237V23.6035H5.2417V22.3276Z" fill="#D5D5D3"/>
</svg>
