<svg width="34" height="36" viewBox="0 0 34 36" fill="none" xmlns="http://www.w3.org/2000/svg">
<ellipse cx="17" cy="19.421" rx="17" ry="16.579" fill="white"/>
<mask id="mask0_1_20873" style="mask-type:alpha" maskUnits="userSpaceOnUse" x="0" y="2" width="34" height="34">
<ellipse cx="17" cy="19.421" rx="17" ry="16.579" fill="#D9D9D9"/>
</mask>
<g mask="url(#mask0_1_20873)">
<path d="M16.9914 18.3734L12.8203 16.3187V25.608C12.8203 25.608 14.4345 27.509 16.9914 27.509C20.0118 27.509 21.161 25.7584 21.161 25.7584V17.689L16.9914 18.3734Z" fill="#F0C090"/>
<path d="M21.161 19.9355C21.161 19.9355 19.1691 21.7405 12.8203 25.1318L12.8336 19.0588L21.161 19.9355Z" fill="#D7A374"/>
<path d="M16.9994 25.2489V28.7033L15.9409 29.0768L14.4219 26.5358C14.4219 26.5358 15.8502 25.3414 16.9994 25.2489Z" fill="#2648A2"/>
<path d="M12.8332 22.9218L12.0312 23.3242L13.9456 29.7804L16.9999 25.2483C16.9999 25.2483 15.2871 24.9938 12.8332 22.9218Z" fill="#DFE1DE"/>
<path d="M10.4782 11.4168C10.4782 11.4168 11.4656 18.9291 11.6711 19.2925C11.8761 19.6554 15.7347 21.726 17.0144 21.6349V3.4636C17.0144 3.4636 8.93026 0.161514 10.4782 11.4168Z" fill="#F0C090"/>
<path d="M23.5513 11.4168C23.5513 11.4168 22.564 18.929 22.358 19.2925C22.153 19.6554 18.2953 21.726 17.0156 21.6349V3.46356C17.0156 3.46356 24.6191 1.88361 23.5513 11.4168Z" fill="#F0C090"/>
<path d="M22.3906 15.8728C22.3906 15.8728 23.5217 16.2868 24.2187 14.0986C25.0186 11.5802 24.4654 10.4475 23.7395 10.5208C23.4927 10.5458 23.2916 10.5931 23.1293 10.6842C22.6432 10.9599 22.5044 11.4872 22.5044 11.4872L22.3906 15.8728Z" fill="#F0C090"/>
<path d="M11.6282 15.8728C11.6282 15.8728 10.4971 16.2868 9.80013 14.0986C8.99917 11.5802 9.55292 10.4475 10.2783 10.5208C10.5251 10.5458 10.7271 10.5931 10.889 10.6842C11.3751 10.9599 11.5144 11.4872 11.5144 11.4872L11.6282 15.8728Z" fill="#F0C090"/>
<path d="M9.75505 4.66404C9.19492 6.17362 10.348 10.6677 10.348 10.6677L11.1009 11.8133L10.9229 9.29255C10.9229 9.29255 12.5322 5.86804 12.0932 4.6009L11.073 3.15543C11.073 3.15543 9.93604 4.17241 9.75505 4.66404Z" fill="#3C1F13"/>
<path d="M24.2669 4.66404C24.8265 6.17362 23.6734 10.6677 23.6734 10.6677L22.92 11.8133L23.0981 9.29255C23.0981 9.29255 21.4888 5.86804 21.9273 4.6009L22.9475 3.15543C22.9475 3.15543 24.0859 4.17241 24.2669 4.66404Z" fill="#3C1F13"/>
<path d="M17.0101 4.33147e-05C15.0727 -0.00381257 12.2745 0.86328 11.0703 3.15512L12.0905 4.6006C12.0905 4.6006 14.826 6.03788 17.0836 6.20224C18.5002 6.30538 20.7682 6.37286 22.4912 5.03149L22.9489 3.15464C22.9489 3.15464 21.552 0.00871906 17.0101 4.33147e-05Z" fill="#3C1F13"/>
<path d="M16.9922 25.2489V28.7033L18.0507 29.0768L19.5697 26.5358C19.5697 26.5358 18.1399 25.3414 16.9922 25.2489Z" fill="#2648A2"/>
<path d="M21.1623 22.8543L22.0525 23.4057L20.1323 29.7352L16.9922 25.2488C16.9922 25.2488 18.7089 24.9259 21.1623 22.8543Z" fill="#FAF8FA"/>
<path d="M9.39257 30.2463L10.2715 29.0037L10.711 28.381L9.113 25.7975L8.51706 24.835L8.50676 24.8177C8.50676 24.8177 2.27419 27.6166 2.26438 27.6267C1.82 28.1019 1.01462 32.3304 0.476562 36.0002H13.8383L9.39257 30.2463Z" fill="#3B556C"/>
<path d="M24.5864 30.2463L20.1406 36.0002H33.5039C32.9643 32.3304 32.1599 28.1019 31.7156 27.6267C31.7058 27.6166 25.4737 24.8177 25.4737 24.8177L23.2694 28.381L24.5864 30.2463Z" fill="#60768E"/>
<path d="M16.9924 35.9997V28.7029L15.934 29.0764C15.934 29.0764 15.2537 32.1023 15.0859 33.6486L15.7829 35.9997H16.9924Z" fill="#2648A2"/>
<path d="M18.2007 35.9997L18.8982 33.6486C18.731 32.1028 18.0507 29.0764 18.0507 29.0764L16.9922 28.7029V35.9997H18.2007Z" fill="#2648A2"/>
<path d="M10.7042 28.3803L10.2643 29.0031L9.3863 30.2461L13.8316 35.9996H15.7729L15.0764 33.6484L12.7245 25.7174L12.0148 23.3243L8.5 24.817L9.10623 25.7974L10.7042 28.3803Z" fill="#597D90"/>
<path d="M24.593 30.2462L23.2756 28.3804L25.4803 24.8171L22.0567 23.4058L21.3558 25.7141L19.1177 33.0889L18.2344 35.9996H20.1473L24.593 30.2462Z" fill="#3D5B73"/>
</g>
<path d="M16.9992 18.3734L12.8281 16.3187V25.608C12.8281 25.608 14.4423 27.5089 16.9992 27.5089C20.0196 27.5089 21.1688 25.7584 21.1688 25.7584V17.689L16.9992 18.3734Z" fill="#F0C090"/>
<path d="M21.1688 19.9355C21.1688 19.9355 19.1769 21.7405 12.8281 25.1317L12.8414 19.0587L21.1688 19.9355Z" fill="#D7A374"/>
<path d="M17.0072 25.2488V28.7032L15.9487 29.0768L14.4297 26.5357C14.4297 26.5357 15.858 25.3414 17.0072 25.2488Z" fill="#2648A2"/>
<path d="M12.841 22.9218L12.0391 23.3242L13.9534 29.7804L17.0077 25.2483C17.0077 25.2483 15.2949 24.9938 12.841 22.9218Z" fill="#DFE1DE"/>
<path d="M10.4782 11.4168C10.4782 11.4168 11.4656 18.929 11.6711 19.2925C11.8761 19.6554 15.7347 21.726 17.0144 21.6349V3.46357C17.0144 3.46357 8.93026 0.161484 10.4782 11.4168Z" fill="#F0C090"/>
<path d="M23.5513 11.4168C23.5513 11.4168 22.564 18.929 22.358 19.2924C22.153 19.6554 18.2953 21.726 17.0156 21.6349V3.46353C17.0156 3.46353 24.6191 1.88358 23.5513 11.4168Z" fill="#F0C090"/>
<path d="M22.3906 15.8727C22.3906 15.8727 23.5217 16.2867 24.2187 14.0985C25.0186 11.5802 24.4654 10.4475 23.7395 10.5208C23.4927 10.5458 23.2916 10.593 23.1293 10.6841C22.6432 10.9598 22.5044 11.4871 22.5044 11.4871L22.3906 15.8727Z" fill="#F0C090"/>
<path d="M11.6282 15.8727C11.6282 15.8727 10.4971 16.2867 9.80013 14.0985C8.99917 11.5802 9.55292 10.4475 10.2783 10.5208C10.5251 10.5458 10.7271 10.593 10.889 10.6841C11.3751 10.9598 11.5144 11.4871 11.5144 11.4871L11.6282 15.8727Z" fill="#F0C090"/>
<path d="M9.75505 4.66401C9.19492 6.17359 10.348 10.6676 10.348 10.6676L11.1009 11.8133L10.9229 9.29252C10.9229 9.29252 12.5322 5.86801 12.0932 4.60087L11.073 3.1554C11.073 3.1554 9.93604 4.17238 9.75505 4.66401Z" fill="#3C1F13"/>
<path d="M24.2669 4.66401C24.8265 6.17359 23.6734 10.6676 23.6734 10.6676L22.92 11.8133L23.0981 9.29252C23.0981 9.29252 21.4888 5.86801 21.9273 4.60087L22.9475 3.1554C22.9475 3.1554 24.0859 4.17238 24.2669 4.66401Z" fill="#3C1F13"/>
<path d="M17.0101 1.27972e-05C15.0727 -0.00384309 12.2745 0.86325 11.0703 3.15509L12.0905 4.60057C12.0905 4.60057 14.826 6.03785 17.0836 6.20221C18.5002 6.30535 20.7682 6.37283 22.4912 5.03146L22.9489 3.15461C22.9489 3.15461 21.552 0.00868854 17.0101 1.27972e-05Z" fill="#3C1F13"/>
<path d="M17 25.2488V28.7032L18.0585 29.0768L19.5775 26.5357C19.5775 26.5357 18.1477 25.3414 17 25.2488Z" fill="#2648A2"/>
<path d="M21.1701 22.8543L22.0603 23.4057L20.1401 29.7351L17 25.2488C17 25.2488 18.7167 24.9259 21.1701 22.8543Z" fill="#FAF8FA"/>
</svg>
