<svg width="35" height="37" viewBox="0 0 35 37" fill="none" xmlns="http://www.w3.org/2000/svg">
<path d="M30.9812 23.5123H28.1774C29.9298 23.5123 31.017 22.1525 31.498 20.6054L33.8359 20.1087C33.9724 20.0797 34.0948 20.0047 34.1827 19.8963C34.2705 19.7879 34.3184 19.6525 34.3185 19.513V14.0813C34.3184 13.9417 34.2705 13.8064 34.1826 13.698C34.0948 13.5895 33.9724 13.5145 33.8359 13.4856L30.7852 12.8379L29.701 10.219L31.3997 7.60234C31.4757 7.48529 31.5092 7.34571 31.4946 7.20693C31.48 7.06816 31.4181 6.93861 31.3194 6.83997L27.4779 3.00092C27.3793 2.90228 27.2497 2.8405 27.111 2.82592C26.9722 2.81134 26.8327 2.84485 26.7157 2.92083L24.0993 4.61954L21.4823 3.53544L20.8326 0.482593C20.8036 0.346087 20.7286 0.223671 20.6202 0.135824C20.5118 0.0479778 20.3765 2.90954e-05 20.2369 0H14.8051C14.6656 -2.0912e-06 14.5302 0.0479416 14.4218 0.135806C14.3133 0.223671 14.2383 0.346124 14.2093 0.482669L13.5617 3.53551L10.9428 4.61969L8.32627 2.92083C8.20924 2.84484 8.06966 2.81134 7.93089 2.82593C7.79211 2.84052 7.66256 2.90232 7.56389 3.001L3.72485 6.84004C3.62619 6.9387 3.5644 7.06824 3.54981 7.207C3.53522 7.34576 3.56871 7.48532 3.64468 7.60234L5.34339 10.219L4.25929 12.8379L1.20644 13.4855C1.0699 13.5145 0.947446 13.5894 0.859581 13.6979C0.771716 13.8064 0.723773 13.9417 0.723775 14.0813V19.513C0.723787 19.6526 0.771727 19.7879 0.859576 19.8963C0.947424 20.0048 1.06985 20.0797 1.20637 20.1087L3.34351 20.5623C3.81727 22.1273 4.90807 23.5122 6.67804 23.5123H3.87209C1.74263 23.5123 0 25.1309 0 27.109V32.0175H7.6854V36.9995H27.17V32.0175H34.8554V27.109C34.8554 25.1308 33.1128 23.5123 30.9812 23.5123ZM24.887 17.2198C24.6733 17.6886 24.563 18.1979 24.5634 18.7131C24.5634 18.8421 24.5681 18.9746 24.5771 19.1094C24.1156 20.6473 23.1704 21.9954 21.882 22.9536C20.5935 23.9117 19.0304 24.4289 17.4248 24.4282C15.8191 24.4276 14.2564 23.9092 12.9687 22.9501C11.681 21.9909 10.7369 20.6421 10.2766 19.1038C10.2854 18.9709 10.2899 18.8403 10.2899 18.7131C10.2903 18.1995 10.1807 17.6918 9.96856 17.2241C9.96559 17.1377 9.96354 17.0512 9.96354 16.9641C9.96354 15.9839 10.1566 15.0133 10.5317 14.1077C10.9068 13.2021 11.4566 12.3793 12.1497 11.6862C12.8429 10.9931 13.6657 10.4433 14.5713 10.0682C15.4769 9.69304 16.4475 9.49998 17.4277 9.49998C18.4079 9.49998 19.3785 9.69304 20.2841 10.0682C21.1897 10.4433 22.0125 10.9931 22.7057 11.6862C23.3988 12.3793 23.9486 13.2021 24.3237 14.1077C24.6988 15.0133 24.8919 15.9839 24.8919 16.9641C24.8919 17.0497 24.8899 17.1349 24.887 17.2198Z" fill="#484868"/>
<path d="M34.8554 27.109C34.8554 25.1309 33.1128 23.5122 30.9812 23.5122H25.3703C24.4242 23.5081 23.5067 23.8369 22.7785 24.441L22.7773 24.4442C22.3638 24.3557 21.9421 24.311 21.5193 24.3107H13.3338C12.913 24.311 12.4933 24.3553 12.0818 24.4431L12.0767 24.441C11.3485 23.8369 10.431 23.5081 9.48483 23.5122H3.87209C1.74263 23.5122 0 25.1309 0 27.109V32.0174H7.6854V36.9995H27.17V32.0174H34.8554V27.109Z" fill="#EAE8E8"/>
<path d="M21.5159 24.3115H20.0098C23.1167 24.3115 25.6603 26.6701 25.6603 29.5564V37H27.1664V29.5564C27.1664 26.6701 24.6228 24.3115 21.5159 24.3115Z" fill="#DDD7D7"/>
<path d="M12.7352 36.9998V30.6556C12.7361 30.5797 12.7219 30.5044 12.6934 30.434C12.665 30.3636 12.6229 30.2996 12.5695 30.2456C12.5161 30.1916 12.4526 30.1488 12.3826 30.1195C12.3125 30.0903 12.2374 30.0752 12.1614 30.0752C12.0855 30.0752 12.0104 30.0903 11.9403 30.1195C11.8703 30.1488 11.8067 30.1916 11.7534 30.2456C11.7 30.2996 11.6579 30.3636 11.6294 30.434C11.601 30.5044 11.5868 30.5797 11.5877 30.6556V36.9998H12.7352Z" fill="#DDD7D7"/>
<path d="M23.265 36.9998V30.6556C23.2659 30.5797 23.2517 30.5044 23.2232 30.434C23.1948 30.3636 23.1527 30.2996 23.0993 30.2456C23.0459 30.1916 22.9824 30.1488 22.9123 30.1195C22.8423 30.0903 22.7671 30.0752 22.6912 30.0752C22.6153 30.0752 22.5402 30.0903 22.4701 30.1195C22.4001 30.1488 22.3365 30.1916 22.2832 30.2456C22.2298 30.2996 22.1877 30.3636 22.1592 30.434C22.1308 30.5044 22.1166 30.5797 22.1175 30.6556V36.9998H23.265Z" fill="#DDD7D7"/>
<path d="M6.68319 15.1017C6.20893 15.1016 5.7393 15.195 5.30112 15.3765C4.86294 15.5579 4.4648 15.8239 4.12943 16.1593C3.79407 16.4946 3.52806 16.8927 3.34658 17.3309C3.16511 17.7691 3.07173 18.2387 3.07178 18.713C3.07178 20.8299 4.21952 23.5122 6.68319 23.5122C9.22261 23.5122 10.2947 20.7079 10.2947 18.713C10.2947 18.2387 10.2014 17.769 10.0199 17.3309C9.83842 16.8927 9.5724 16.4945 9.23703 16.1592C8.90166 15.8238 8.50351 15.5578 8.06532 15.3763C7.62712 15.1949 7.15747 15.1015 6.68319 15.1016V15.1017Z" fill="#FFDDAB"/>
<path d="M6.68035 15.1016C6.46388 15.1018 6.24788 15.1214 6.03491 15.1602C6.86706 15.3113 7.61978 15.7497 8.1618 16.3989C8.70383 17.0482 9.00079 17.8671 9.00089 18.7128C9.00089 20.5289 8.11222 23.0153 6.0372 23.4466C6.24876 23.4905 6.46429 23.5124 6.68035 23.512C9.21977 23.512 10.2918 20.7078 10.2918 18.7128C10.2919 18.2386 10.1985 17.7689 10.017 17.3308C9.83552 16.8926 9.5695 16.4945 9.23413 16.1591C8.89876 15.8238 8.50062 15.5578 8.06244 15.3763C7.62425 15.1949 7.15462 15.1015 6.68035 15.1016Z" fill="#F9CE95"/>
<path d="M17.4266 37.0002L15.4526 34.9843L16.6656 26.4409C16.4347 26.3043 16.2518 26.0995 16.1422 25.8547C16.0245 25.5982 16.0455 24.9171 16.1989 24.6795C16.2726 24.5651 16.3741 24.4714 16.494 24.407C16.6139 24.3427 16.7481 24.3098 16.8841 24.3116H17.9689C18.105 24.3094 18.2394 24.342 18.3594 24.4064C18.4793 24.4708 18.5808 24.5648 18.6541 24.6795C18.8096 24.9171 18.8306 25.5982 18.7129 25.8547C18.6019 26.0992 18.4186 26.3038 18.1876 26.4409L19.4027 34.9839L17.4266 37.0002Z" fill="#AD1E1E"/>
<path d="M17.4242 24.3108C19.2615 24.3108 20.8507 22.7322 21.6201 20.4366C22.9045 20.3042 23.7285 17.2141 22.6901 16.8924C22.5936 16.8595 22.4909 16.8489 22.3897 16.8612C22.2885 16.8736 22.1914 16.9087 22.1056 16.9639C22.9907 13.2284 22.2675 12.56 21.1007 12.0659C20.0938 10.9497 18.6538 10.3149 17.4241 10.3149C14.9141 10.3149 11.5255 12.9573 12.7426 16.964C12.657 16.9087 12.5599 16.8735 12.4586 16.8611C12.3574 16.8488 12.2547 16.8595 12.1583 16.8925C11.1219 17.2141 11.9438 20.3043 13.2303 20.4367C13.9976 22.7322 15.5889 24.3109 17.4241 24.3109L17.4242 24.3108Z" fill="#FFDDAB"/>
<path d="M7.6854 29.5556C7.6854 27.0707 9.57245 24.9759 12.0818 24.4431L12.0767 24.441C11.3485 23.8369 10.431 23.5081 9.48483 23.5122H3.87209C1.74263 23.5122 0 25.1309 0 27.109V32.0174H7.6854V29.5556Z" fill="#7DA8FF"/>
<path d="M7.68128 32.0179V29.5564C7.68128 27.0715 9.56833 24.9767 12.0777 24.4439L12.0726 24.4419C12.0193 24.3969 11.9634 24.3538 11.907 24.3115H11.8232C8.71635 24.3115 6.1748 26.6723 6.1748 29.5564V32.0179H7.68128Z" fill="#5090EF"/>
<path d="M28.1724 15.1016C29.13 15.1019 30.0483 15.4825 30.7255 16.1596C31.4026 16.8368 31.7831 17.7552 31.7834 18.7128C31.7834 20.8297 30.6338 23.512 28.172 23.512C25.6326 23.512 24.5583 20.7078 24.5583 18.7128C24.5588 17.7547 24.9397 16.836 25.6175 16.1588C26.2952 15.4815 27.2142 15.1012 28.1724 15.1016Z" fill="#FFDDAB"/>
<path d="M28.1696 15.1016C27.9531 15.1018 27.7369 15.1214 27.5238 15.1602C28.3558 15.3116 29.1084 15.7501 29.6503 16.3992C30.1923 17.0484 30.4893 17.8672 30.4897 18.7128C30.4897 20.6359 29.5405 23.0252 27.5212 23.4466C27.7344 23.4906 27.9516 23.5125 28.1693 23.512C30.6308 23.512 31.7807 20.8297 31.7807 18.7128C31.7804 17.7552 31.3999 16.8368 30.7228 16.1596C30.0456 15.4825 29.1273 15.1019 28.1696 15.1016Z" fill="#F9CE95"/>
<path d="M30.9813 23.5122H25.3704C24.4243 23.5081 23.5068 23.8369 22.7786 24.441L22.7773 24.4442C25.2842 24.9787 27.1701 27.0707 27.1701 29.5556V32.0171H34.8555V27.109C34.8555 25.1307 33.1129 23.5122 30.9813 23.5122Z" fill="#7DA8FF"/>
<path d="M27.1659 32.017V29.5554C27.1659 27.0705 25.2788 24.9757 22.7695 24.4429L22.7746 24.4409C22.8283 24.3959 22.8838 24.3528 22.9401 24.3105H23.0239C26.1308 24.3105 28.6723 26.6713 28.6723 29.5554V32.017H27.1659Z" fill="#5090EF"/>
<path d="M18.7134 25.8547C18.8311 25.5982 18.8101 24.9171 18.6545 24.6795C18.5812 24.5648 18.4798 24.4708 18.3598 24.4064C18.2399 24.342 18.1055 24.3094 17.9694 24.3116H16.8845C16.7485 24.3098 16.6142 24.3427 16.4944 24.407C16.3745 24.4714 16.273 24.5651 16.1993 24.6795C16.0458 24.9171 16.0248 25.5982 16.1425 25.8547C16.2521 26.0995 16.435 26.3043 16.666 26.4409H18.1879C18.4189 26.3038 18.6024 26.0992 18.7134 25.8547Z" fill="#D22E2E"/>
<path d="M21.1035 12.0659C20.0966 10.9497 18.6566 10.3149 17.4268 10.3149C14.9169 10.3149 11.5283 12.9573 12.7454 16.964C14.6499 14.4944 18.783 15.9505 20.4807 14.1601C20.8111 15.6007 21.4028 16.3401 22.1083 16.9641C22.9931 13.2284 22.2702 12.5599 21.1035 12.0659Z" fill="#7C6359"/>
<path d="M22.6919 16.8928C22.5754 16.8558 22.4516 16.8483 22.3315 16.871C22.2585 16.9048 22.1841 16.9364 22.1075 16.9643C21.7774 16.6808 21.485 16.356 21.2377 15.998C21.2725 17.4091 21.0604 19.0025 20.4744 20.437C19.7865 22.4896 18.4428 23.9681 16.8525 24.2582C17.0417 24.2933 17.2337 24.3111 17.426 24.3115C19.2633 24.3115 20.8525 22.7329 21.6219 20.4373C22.9063 20.3046 23.7307 17.2145 22.6919 16.8928Z" fill="#F9CE95"/>
<path d="M22.1096 16.9644C22.1862 16.9365 22.2607 16.905 22.3337 16.8711C22.2533 16.8864 22.1771 16.9182 22.1096 16.9644Z" fill="#604C42"/>
<path d="M21.1 12.0659C20.0931 10.9497 18.6531 10.3149 17.4233 10.3149C17.2296 10.3155 17.0362 10.3304 16.8447 10.3595C17.9304 10.5194 19.0974 11.1181 19.9525 12.066C20.6372 12.3559 21.1854 13.9929 21.235 15.9977C21.4823 16.3557 21.7746 16.6805 22.1048 16.964C22.9895 13.2284 22.2667 12.5599 21.1 12.0659Z" fill="#604C42"/>
<path d="M19.3294 0.482288L19.9791 3.53513L23.5147 4.99973L24.1009 4.61908L21.4839 3.53498L20.8342 0.482136C20.8051 0.345702 20.7301 0.223381 20.6216 0.135623C20.5132 0.0478651 20.3779 -1.05989e-05 20.2384 1.76004e-09H18.7336C18.8732 -3.17418e-06 19.0084 0.0478942 19.1169 0.135682C19.2253 0.22347 19.3003 0.345826 19.3294 0.482288Z" fill="#3D3D54"/>
<path d="M33.8415 13.4857L30.7908 12.838L29.7066 10.2191L31.4053 7.60251C31.4813 7.48546 31.5148 7.34587 31.5002 7.2071C31.4856 7.06832 31.4237 6.93878 31.325 6.84013L27.4839 3.00109C27.3852 2.90244 27.2556 2.84067 27.1169 2.82609C26.9781 2.81151 26.8386 2.84501 26.7216 2.921L26.2229 3.24478L29.8201 6.84013C29.9188 6.93878 29.9806 7.06832 29.9952 7.2071C30.0098 7.34587 29.9764 7.48546 29.9004 7.60251L28.2017 10.2191L29.2859 12.838L32.3365 13.4857C32.473 13.5147 32.5954 13.5897 32.6833 13.6981C32.7711 13.8066 32.8191 13.9419 32.8191 14.0815V19.5132C32.8191 19.6527 32.7712 19.788 32.6833 19.8965C32.5955 20.0049 32.4731 20.0799 32.3366 20.1089L31.5985 20.2657C31.5694 20.3813 31.5376 20.4963 31.5018 20.6104L31.5034 20.6056L33.8413 20.1089C33.9778 20.0799 34.1002 20.0049 34.188 19.8965C34.2759 19.788 34.3238 19.6527 34.3238 19.5132V14.0815C34.3238 13.9419 34.2759 13.8066 34.1881 13.6982C34.1003 13.5898 33.9779 13.5148 33.8415 13.4857Z" fill="#3D3D54"/>
<path d="M24.8951 16.9637C24.8951 17.0501 24.8922 17.1358 24.8892 17.2215C25.1447 16.6599 25.5394 16.1727 26.0358 15.8062C25.7556 13.7227 24.7289 11.8116 23.1463 10.4278C21.5638 9.04388 19.5329 8.28118 17.4306 8.28125C15.3284 8.28132 13.2975 9.04413 11.7151 10.4281C10.1326 11.8121 9.10606 13.7232 8.82593 15.8067C9.32297 16.1741 9.71774 16.6625 9.97269 17.2256C9.96964 17.1385 9.96675 17.0515 9.96675 16.9637C9.96675 15.9835 10.1598 15.0129 10.5349 14.1073C10.91 13.2017 11.4598 12.3788 12.153 11.6857C12.8461 10.9926 13.6689 10.4428 14.5745 10.0677C15.4801 9.69258 16.4507 9.49951 17.4309 9.49951C18.4111 9.49951 19.3817 9.69258 20.2873 10.0677C21.1929 10.4428 22.0158 10.9926 22.7089 11.6857C23.402 12.3788 23.9518 13.2017 24.3269 14.1073C24.702 15.0129 24.8951 15.9835 24.8951 16.9637Z" fill="#3D3D54"/>
<path d="M10.2804 19.1011C10.2342 19.7963 10.0765 20.4795 9.81348 21.1246C10.5328 22.4353 11.576 23.5397 12.8435 24.3325C13.0063 24.3189 13.1708 24.3117 13.3376 24.3117H16.1097C14.7523 24.0646 13.4896 23.4472 12.4609 22.5277C11.4322 21.6082 10.6776 20.4224 10.2804 19.1011Z" fill="#3D3D54"/>
<path d="M24.5766 19.106C24.1787 20.426 23.424 21.6105 22.3958 22.529C21.3675 23.4474 20.1057 24.0641 18.7493 24.3112H21.5192C21.6864 24.3112 21.8517 24.3181 22.0152 24.332C23.2822 23.5395 24.3251 22.4356 25.0444 21.1256C24.7813 20.4818 24.6233 19.7999 24.5766 19.106Z" fill="#3D3D54"/>
</svg>
