<svg width="40" height="39" viewBox="0 0 40 39" fill="none" xmlns="http://www.w3.org/2000/svg">
<path fill-rule="evenodd" clip-rule="evenodd" d="M22.8725 38.9663H16.8983C16.4574 38.9663 16.0873 38.6251 16.0449 38.1837C15.9452 36.9177 15.6608 33.063 14.4942 32.5652C13.3275 32.0674 10.3267 34.5564 9.34507 35.367C9.00343 35.6514 8.50562 35.6229 8.19285 35.3102L3.92563 31.0429C3.61286 30.7302 3.58442 30.2179 3.88276 29.8763C6.13032 27.3159 7.0975 25.6235 6.79917 24.8693C6.48596 24.1012 4.60847 23.589 1.19469 23.3331C0.753749 23.3046 0.412109 22.9345 0.412109 22.4796V16.3629C0.412109 15.9219 0.753312 15.5519 1.19469 15.5094C2.46064 15.4097 6.34379 15.1254 6.79917 14.016C7.26854 12.9207 4.7222 9.93383 3.89719 8.96665C3.61286 8.62501 3.62685 8.1272 3.94006 7.81443L8.20729 3.54721C8.52049 3.23444 9.0183 3.20601 9.3595 3.49034C10.3551 4.31535 13.3993 6.83326 14.5515 6.34945C15.6893 5.86564 15.974 2.06779 16.0733 0.816272C16.1018 0.375333 16.4718 0.0336914 16.9268 0.0336914H22.9013C23.3423 0.0336914 23.7123 0.374894 23.7548 0.801836C23.8685 2.06779 24.2386 5.89407 25.3479 6.36388C26.4577 6.81882 29.473 4.32979 30.4686 3.50478C30.8102 3.22044 31.3081 3.24888 31.6208 3.56165L35.8885 7.82887C36.2012 8.14208 36.2297 8.65388 35.9313 8.99552C33.6838 11.5559 32.7166 13.2487 33.0149 14.0025C33.3281 14.7706 35.2056 15.2824 38.6194 15.5387C39.0604 15.5672 39.402 15.9373 39.402 16.3922V22.5089C39.402 22.9499 39.0608 23.3199 38.6194 23.3624C35.2201 23.6183 33.3281 24.1305 33.0149 24.8987C32.7022 25.6668 33.6833 27.3452 35.9313 29.9056C36.2301 30.2468 36.2157 30.759 35.8885 31.0722L31.6208 35.3395C31.3081 35.6527 30.8102 35.6811 30.4686 35.3963C29.487 34.5858 26.5141 32.1252 25.3904 32.5941C24.2526 33.0635 23.8825 36.9611 23.7688 38.241C23.6835 38.6386 23.3134 38.9658 22.8725 38.9658V38.9663Z" fill="#484848"/>
<path fill-rule="evenodd" clip-rule="evenodd" d="M19.6683 30.3086C13.7935 30.3086 9 25.5291 9 19.6543C9 13.7795 13.7795 9 19.6683 9C25.5571 9 30.3366 13.7795 30.3366 19.6543C30.3366 25.5291 25.5427 30.3086 19.6683 30.3086Z" fill="#D6D6D7"/>
<path fill-rule="evenodd" clip-rule="evenodd" d="M19.8965 28.1083C15.0983 28.1083 11.3477 24.3577 11.3477 19.5594C11.3477 14.7064 15.1809 10.7354 19.8965 10.7354C24.6121 10.7354 28.4454 14.6789 28.4454 19.5594C28.4179 24.3577 24.6673 28.1083 19.8965 28.1083Z" fill="white"/>
</svg>
