<svg width="31" height="35" viewBox="0 0 31 35" fill="none" xmlns="http://www.w3.org/2000/svg">
<path d="M28.9296 9.33301H1.99854V31.9373H28.9296V9.33301Z" fill="#FFD15C"/>
<path d="M26.9992 15.6045H17.1826V31.9379H26.9992V15.6045Z" fill="#415A6B"/>
<path d="M26.0246 16.6982H18.1455V30.8441H26.0246V16.6982Z" fill="#8AD7F8"/>
<path d="M0 7V10.2813C0 12.25 1.35624 13.7813 3.09998 13.7813C4.84372 13.7813 6.19996 12.25 6.19996 10.2813V7H0Z" fill="#F05540"/>
<path d="M6.19824 7V10.2813C6.19824 12.25 7.55448 13.7813 9.29822 13.7813C11.042 13.7813 12.3982 12.25 12.3982 10.2813V7H6.19824Z" fill="#E8EAE9"/>
<path d="M12.4036 7V10.2813C12.4036 12.25 13.7598 13.7813 15.5035 13.7813C17.2473 13.7813 18.6035 12.25 18.6035 10.2813V7H12.4036Z" fill="#F05540"/>
<path d="M18.6018 7V10.2813C18.6018 12.25 19.958 13.7813 21.7018 13.7813C23.4455 13.7813 24.8018 12.25 24.8018 10.2813V7H18.6018Z" fill="#E8EAE9"/>
<path d="M24.7998 7V10.2813C24.7998 12.25 26.156 13.7813 27.8998 13.7813C29.6435 13.7813 30.9998 12.25 30.9998 10.2813V7H24.7998Z" fill="#F05540"/>
<path d="M7.5562 0H2.26038L0 7.00002H6.19996L7.5562 0Z" fill="#F3705A"/>
<path d="M12.8503 0H7.55448L6.19824 7.00002H12.3982L12.8503 0Z" fill="#F3F3F3"/>
<path d="M18.1514 0H12.8557L12.4036 7.00002H18.6035L18.1514 0Z" fill="#F3705A"/>
<path d="M23.4413 0H18.1455L18.5976 7.00002H24.7976L23.4413 0Z" fill="#F3F3F3"/>
<path d="M28.7419 0H23.446L24.8023 7.00002H31.0022L28.7419 0Z" fill="#F3705A"/>
<path d="M30.9998 31.937H0V34.9995H30.9998V31.937Z" fill="#CED6E0"/>
<path d="M19.3738 24.7186C19.8375 24.7186 20.2134 24.2942 20.2134 23.7707C20.2134 23.2472 19.8375 22.8228 19.3738 22.8228C18.9101 22.8228 18.5342 23.2472 18.5342 23.7707C18.5342 24.2942 18.9101 24.7186 19.3738 24.7186Z" fill="#415A6B"/>
<path d="M14.8511 15.6045H3.93652V26.6878H14.8511V15.6045Z" fill="#415A6B"/>
<path d="M13.8862 16.6982H4.90918V25.5941H13.8862V16.6982Z" fill="#8AD7F8"/>
<path d="M9.62217 18.082C9.49302 17.9362 9.17007 17.9362 9.04092 18.082L5.8764 21.655C5.74725 21.8008 5.74725 22.1654 5.8764 22.3112C6.00555 22.457 6.3285 22.457 6.45765 22.3112L9.62223 18.7383C9.81592 18.5195 9.81592 18.2279 9.62217 18.082Z" fill="#55C0EB"/>
<path d="M10.3355 20.1977C10.2063 20.0519 9.88337 20.0519 9.75422 20.1977L7.75213 22.4581C7.62299 22.6039 7.62299 22.9686 7.75213 23.1144C7.88128 23.2602 8.20423 23.2602 8.33338 23.1144L10.3355 20.8539C10.5292 20.6352 10.5292 20.3435 10.3355 20.1977Z" fill="#55C0EB"/>
</svg>
