<svg width="30" height="36" viewBox="0 0 30 36" fill="none" xmlns="http://www.w3.org/2000/svg">
<path d="M0 34.0974V5.39653C0 4.75014 0.522463 4.22607 1.16704 4.22607H24.7615C25.406 4.22607 25.9285 4.75007 25.9285 5.39653V34.0974C25.9285 34.7438 25.406 35.2678 24.7615 35.2678H1.16697C0.522463 35.2678 0 34.7438 0 34.0974Z" fill="#0E80AC"/>
<path d="M24.7617 4.22607H23.4043V34.0974C23.4043 34.7438 22.8819 35.2678 22.2373 35.2678H24.7617C25.4062 35.2678 25.9287 34.7438 25.9287 34.0974V5.39653C25.9287 4.75007 25.4062 4.22607 24.7617 4.22607Z" fill="#057195"/>
<path d="M2.52832 4.22607V31.6265C2.52832 32.0528 2.87297 32.3985 3.29811 32.3985H22.6343C23.0595 32.3985 23.4041 32.0528 23.4041 31.6265V4.22607H2.52832Z" fill="#F7F0F0"/>
<path d="M15.2776 1.67854C15.2776 0.751513 14.5283 0 13.604 0H12.3277C11.4034 0 10.6541 0.751513 10.6541 1.67854C10.6541 2.1488 10.2739 2.53007 9.80505 2.53007H8.78389C7.84982 2.53007 7.09253 3.2895 7.09253 4.22638V5.11752C7.09253 5.56223 7.45194 5.92269 7.89535 5.92269H18.0364C18.4798 5.92269 18.8392 5.56223 18.8392 5.11752V4.22638C18.8392 3.28957 18.082 2.53007 17.1478 2.53007H16.1267C15.6577 2.53007 15.2776 2.1488 15.2776 1.67854Z" fill="#FD7E42"/>
<path d="M17.1493 2.53007H16.1281C15.6592 2.53007 15.2791 2.1488 15.2791 1.67854C15.2791 0.751513 14.5298 0 13.6054 0H12.7417V2.56548C12.7417 3.03574 13.1219 3.41701 13.5907 3.41701H14.6119C15.546 3.41701 16.3033 4.17644 16.3033 5.11332V5.92269H18.0378C18.4812 5.92269 18.8406 5.56223 18.8406 5.11752V4.22638C18.8407 3.2895 18.0834 2.53007 17.1493 2.53007Z" fill="#FA6931"/>
<path d="M6.70658 12.7228L5.54332 11.6857C5.32429 11.4904 5.30458 11.1541 5.49929 10.9344C5.69394 10.7148 6.02938 10.6949 6.24841 10.8902L7.34148 11.8646L9.02789 9.44559C9.19575 9.20464 9.52673 9.14588 9.76684 9.31444C10.007 9.48286 10.0656 9.81474 9.89768 10.0556L8.15742 12.5519C7.82335 13.0309 7.14505 13.1137 6.70658 12.7228Z" fill="#FBA615"/>
<path d="M6.70672 20.4968L5.54332 19.4596C5.32429 19.2643 5.30458 18.928 5.49929 18.7083C5.69394 18.4887 6.02938 18.4687 6.24848 18.6641L7.34148 19.6386L9.02789 17.2195C9.19575 16.9785 9.52673 16.9198 9.76684 17.0883C10.007 17.2568 10.0656 17.5886 9.89768 17.8295L8.15742 20.3258C7.82335 20.805 7.14519 20.8876 6.70672 20.4968Z" fill="#FBA615"/>
<path d="M6.70658 28.1676L5.54332 27.1305C5.32429 26.9352 5.30458 26.5989 5.49929 26.3792C5.69394 26.1596 6.02938 26.1396 6.24841 26.335L7.34148 27.3094L9.02789 24.8904C9.19575 24.6494 9.52673 24.5907 9.76684 24.7592C10.007 24.9277 10.0656 25.2595 9.89768 25.5004L8.15742 27.9967C7.82335 28.4756 7.14505 28.5585 6.70658 28.1676Z" fill="#FBA615"/>
<path d="M20.0371 10.5619H12.5377C12.2447 10.5619 12.0071 10.3237 12.0071 10.0297C12.0071 9.73576 12.2447 9.49756 12.5377 9.49756H20.0371C20.3302 9.49756 20.5677 9.73582 20.5677 10.0297C20.5677 10.3237 20.3302 10.5619 20.0371 10.5619Z" fill="#786E79"/>
<path d="M20.0371 12.9277H12.5377C12.2447 12.9277 12.0071 12.6894 12.0071 12.3955C12.0071 12.1015 12.2447 11.8633 12.5377 11.8633H20.0371C20.3302 11.8633 20.5677 12.1015 20.5677 12.3955C20.5677 12.6894 20.3302 12.9277 20.0371 12.9277Z" fill="#786E79"/>
<path d="M20.0371 18.1664H12.5377C12.2447 18.1664 12.0071 17.9282 12.0071 17.6342C12.0071 17.3403 12.2447 17.1021 12.5377 17.1021H20.0371C20.3302 17.1021 20.5677 17.3403 20.5677 17.6342C20.5677 17.9282 20.3302 18.1664 20.0371 18.1664Z" fill="#786E79"/>
<path d="M16.2874 20.5312H12.5377C12.2447 20.5312 12.0071 20.2929 12.0071 19.999C12.0071 19.705 12.2447 19.4668 12.5377 19.4668H16.2874C16.5805 19.4668 16.818 19.7051 16.818 19.999C16.8181 20.293 16.5805 20.5312 16.2874 20.5312Z" fill="#786E79"/>
<path d="M27.9242 14.7634L25.8635 13.1069L25.1537 13.4918L13.1144 28.5572L11.2006 32.4114C11.0451 32.7245 11.1283 33.104 11.4005 33.3228C11.6726 33.5415 12.0601 33.5404 12.3309 33.32L15.665 30.6073L27.7042 15.542L27.9242 14.7634Z" fill="#FA6931"/>
<path d="M13.1254 28.5366L11.201 32.4122C11.0447 32.7271 11.1284 33.1087 11.402 33.3286C11.6756 33.5485 12.0652 33.5474 12.3375 33.3258L15.6901 30.5981L13.1254 28.5366Z" fill="#557981"/>
<path d="M29.3878 10.8094C28.6835 10.2432 27.655 10.3569 27.0905 11.0633L25.1494 13.4922L27.6999 15.5424L29.641 13.1135C30.2055 12.4071 30.0921 11.3755 29.3878 10.8094Z" fill="#FFC3AB"/>
</svg>
