<svg width="14" height="14" viewBox="0 0 14 14" fill="none" xmlns="http://www.w3.org/2000/svg">
<path d="M0.984375 8.01397V5.98154C0.984375 5.77529 1.15195 5.60342 1.3625 5.60342H5.61211V1.35811C5.61211 1.15186 5.77969 0.97998 5.99023 0.97998H8.02266C8.22891 0.97998 8.39648 1.14756 8.39648 1.35811V5.60772H12.6418C12.848 5.60772 13.0199 5.77529 13.0199 5.98584V8.01826C13.0199 8.22451 12.8523 8.39209 12.6418 8.39209H8.39219V12.6374C8.39219 12.8437 8.22461 13.0155 8.01836 13.0155H5.98594C5.77969 13.0155 5.60781 12.8479 5.60781 12.6374V8.38779H1.3625C1.15195 8.39209 0.984375 8.22022 0.984375 8.01397Z" fill="white"/>
</svg>
