<svg width="52" height="42" viewBox="0 0 52 42" fill="none" xmlns="http://www.w3.org/2000/svg">
<path d="M33.7578 2.22305C33.3985 2.0002 32.9206 2.04429 32.5153 2.03395C32.1553 2.0247 31.795 2.01653 31.4349 2.01C31.0223 2.00266 30.5956 1.9613 30.1841 1.98715C29.9888 1.99939 29.8118 2.04837 29.6154 2.04646C29.4259 2.04456 29.2363 2.03857 29.0468 2.03477C28.6489 2.0266 28.2507 2.01816 27.8525 2.01027C27.075 1.99422 26.2994 2.07803 25.521 2.05C24.744 2.02225 23.967 1.98905 23.1895 1.97545C22.7747 1.9681 22.3547 1.94198 21.9399 1.95694C21.6178 1.96864 21.2961 2.03912 21.0758 2.29162C20.9037 2.48944 20.838 2.75446 20.789 3.01594C20.4129 3.87332 20.3595 5.15844 20.2313 5.79515C19.6446 8.7025 19.0779 11.6139 18.4902 14.521C18.1903 16.0042 17.8856 17.4863 17.5699 18.966C17.397 19.7763 16.7385 21.0326 17.2592 21.8258C18.1911 23.2439 21.5028 22.7827 22.9473 22.8385C23.9496 22.8771 24.9518 22.9177 25.9546 22.9495C27.0704 22.9849 28.1867 23.0105 29.303 23.0306C29.699 23.0377 30.104 22.7909 30.2203 22.398C30.5692 21.2176 30.8006 20.0071 31.0507 18.8028C31.3012 17.5952 31.5548 16.3882 31.7871 15.1768C32.1877 13.0882 32.6839 11.0175 33.1831 8.95066C33.6104 7.18121 34.4277 5.05314 34.3054 3.21403C34.2785 2.81514 34.1064 2.43937 33.7578 2.22305Z" fill="#356942"/>
<path d="M33.3579 6.58985C32.9902 6.19522 32.4643 6.26712 31.991 6.26767C31.4471 6.26848 30.9032 6.2693 30.3593 6.27012C29.2716 6.27175 28.1839 6.27339 27.0964 6.27502C24.9204 6.27829 22.746 6.34038 20.5702 6.34828C20.336 6.34746 20.2192 6.54736 20.2197 6.74726C20.2192 6.94716 20.3357 7.14706 20.5702 7.14625C22.746 7.15414 24.9204 7.21624 27.0964 7.21951C28.1841 7.22114 29.2719 7.22278 30.3593 7.22441C30.8806 7.22523 31.4019 7.22604 31.9229 7.22659C32.4136 7.2274 32.9752 7.31537 33.3579 6.90468C33.4355 6.82134 33.4355 6.67319 33.3579 6.58985Z" fill="#FFBA95"/>
<path d="M13.4028 5.30392C11.8861 5.8511 11.5642 7.3441 11.8363 8.7922C12.1095 10.2455 12.8102 11.6258 13.8092 12.7156C14.3024 13.2535 14.8863 13.672 15.4435 14.1373C15.6932 14.3457 15.9413 14.5764 16.1194 14.8507C16.3466 15.2006 16.3844 15.5944 16.4533 15.996C16.9144 18.6808 20.4473 19.7697 21.7785 22.0036C22.0239 22.4156 22.8117 22.3639 22.7886 21.7908C22.7513 20.8643 22.7142 19.9378 22.6769 19.0114C22.6467 18.2566 22.7251 17.3668 22.2161 16.7426C21.7934 16.2243 21.023 16.0401 21.0352 15.2692C21.0472 14.5313 21.4005 13.8393 21.3833 13.0935C21.3672 12.3869 21.1077 11.7053 20.6662 11.1548C20.1676 10.5331 19.5028 10.3627 18.8589 9.95814C18.2846 9.59707 18.0915 8.89669 17.8872 8.29046C17.665 7.63171 17.4082 7.01214 16.9711 6.46305C16.1216 5.39534 14.725 4.82693 13.4028 5.30392Z" fill="#4F965E"/>
<path d="M19.9707 15.6538C19.6175 15.29 19.2757 14.9158 18.9421 14.5338C18.2953 13.7934 17.6741 13.0357 17.103 12.2349C16.5365 11.4403 16.0092 10.6151 15.5185 9.77185C15.0097 8.89814 14.5685 7.98852 14.0187 7.14094C13.9699 7.06556 13.858 7.114 13.876 7.20107C14.0791 8.18144 14.4928 9.08589 14.9438 9.97701C15.4106 10.8994 15.9379 11.7856 16.5177 12.6417C17.082 13.4745 17.6874 14.2887 18.3462 15.0497C18.6779 15.4328 19.0233 15.8045 19.377 16.1672C19.7175 16.516 20.0601 16.94 20.5702 17.0164C20.7129 17.0379 20.8327 16.9364 20.8006 16.7862C20.6973 16.3033 20.2984 15.9912 19.9707 15.6538Z" fill="#356942"/>
<path d="M5.25701 9.29603C3.81767 10.6606 4.19242 12.5019 5.2148 14C6.24072 15.5034 7.71219 16.7134 9.37648 17.4491C10.1981 17.8124 11.0628 17.9958 11.921 18.2456C12.3053 18.3574 12.6991 18.4948 13.0351 18.7163C13.4641 18.9987 13.701 19.4238 13.9772 19.8422C15.8231 22.6408 20.3427 22.1262 22.9465 23.9874C23.4267 24.3305 24.2892 23.884 23.9801 23.2494C23.4806 22.2236 22.9809 21.1978 22.4814 20.172C22.0745 19.3361 21.7234 18.2946 20.8416 17.8421C20.109 17.4663 19.1498 17.6385 18.783 16.7635C18.4319 15.9257 18.488 14.9717 18.1007 14.1396C17.7336 13.3511 17.1045 12.7108 16.3346 12.3081C15.4655 11.8535 14.6319 11.9892 13.7065 11.8507C12.8807 11.7269 12.3172 11.0328 11.7873 10.4503C11.2115 9.81737 10.6159 9.24569 9.85199 8.84244C8.36609 8.05853 6.5117 8.10642 5.25701 9.29603Z" fill="#356942"/>
<path d="M16.923 17.0938C16.5456 16.7147 15.9774 16.5381 15.4889 16.3553C15.03 16.1833 14.5624 16.0359 14.1056 15.8574C13.1821 15.4968 12.3076 15.0375 11.4732 14.5037C10.6275 13.9627 9.83147 13.3492 9.09369 12.6687C8.73229 12.3353 8.38478 11.9868 8.05307 11.6241C7.88749 11.4431 7.72299 11.2625 7.55468 11.0842C7.39373 10.9136 7.26355 10.7297 7.02633 10.6723C6.97432 10.6598 6.93156 10.6962 6.92747 10.7474C6.89506 11.1708 7.33653 11.6273 7.58436 11.9438C7.91009 12.3596 8.2546 12.7606 8.61655 13.1454C9.34017 13.914 10.134 14.6117 10.9789 15.2443C11.8207 15.8748 12.7208 16.4437 13.6508 16.9349C14.518 17.3928 15.719 18.0643 16.7365 17.8004C17.0464 17.7199 17.1447 17.3166 16.923 17.0938Z" fill="#4F965E"/>
<path d="M46.308 13.1747C45.848 11.3359 44.2219 9.86166 42.3476 9.57541C41.4105 9.43229 40.5063 9.58684 39.6171 9.8954C38.799 10.1792 37.9808 10.6137 37.1064 10.685C35.9383 10.7805 34.8151 10.3626 33.6479 10.6692C32.7137 10.9147 31.8695 11.5242 31.2994 12.2967C30.7774 13.0041 30.487 13.8332 30.4108 14.677C30.1924 15.4361 30.1278 16.2412 30.2555 17.026C30.9653 21.3828 35.743 22.952 39.5719 21.8013C43.2017 20.7104 47.3655 17.4028 46.308 13.1747Z" fill="#CB343F"/>
<path d="M38.3692 10.5018C38.3521 10.4422 38.1816 9.97011 38.2679 10.2033C38.2306 10.1023 38.1939 10.0014 38.1631 9.89828C38.1083 9.7157 38.0626 9.52823 38.0177 9.34293C37.9918 9.23572 37.9695 9.1277 37.9507 9.01886C37.9463 8.99328 37.9425 8.9677 37.9384 8.94213C37.937 8.92852 37.9351 8.91084 37.9321 8.88417C37.9052 8.40664 37.9093 7.92013 37.8692 7.44477C37.8254 6.92561 37.6661 6.26932 37.1859 5.96892C36.4514 5.50962 35.8947 6.73161 35.8103 7.2622C35.7074 7.91034 35.7768 8.60119 35.9084 9.24034C36.0108 9.73883 36.1785 10.2297 36.4411 10.6672C36.7319 11.1521 37.221 11.751 37.8518 11.717C38.0999 11.7036 38.3823 11.5409 38.433 11.2748C38.4929 10.9589 38.4638 10.8313 38.3692 10.5018Z" fill="#4D3630"/>
<path d="M44.1995 6.37619C42.6986 5.87417 41.1315 5.71363 39.6562 6.37836C38.5266 6.88718 37.3353 7.9266 37.2588 9.24681C38.8373 9.07593 40.2971 9.75944 41.914 9.25062C43.0894 8.88084 44.0864 8.05312 44.4759 6.86324C44.5451 6.65182 44.3945 6.44149 44.1995 6.37619Z" fill="#4F965E"/>
<path d="M43.2599 7.28049C42.9181 6.9918 42.3056 6.87235 41.8707 6.88649C41.3225 6.90418 40.7642 6.99125 40.2353 7.13628C39.7254 7.27614 39.2077 7.46906 38.769 7.76972C38.5576 7.91475 38.3556 8.07937 38.1633 8.24834C37.9939 8.39718 37.7904 8.5539 37.712 8.77104C37.6978 8.81049 37.7357 8.86219 37.7782 8.85784C37.9827 8.83797 38.1666 8.71689 38.3507 8.63254C38.5702 8.53159 38.7948 8.44996 39.0225 8.37051C39.4945 8.20562 39.961 8.02495 40.4458 7.89924C40.915 7.77734 41.3867 7.70279 41.8707 7.6734C42.1068 7.65898 42.341 7.62279 42.5733 7.57762C42.7918 7.53517 43.0369 7.51341 43.2417 7.42089C43.2921 7.39831 43.301 7.31532 43.2599 7.28049Z" fill="#356942"/>
<path d="M43.4507 12.8049C43.4357 12.7989 43.4203 12.7937 43.4053 12.7869C43.4472 12.8038 43.4617 12.8099 43.4507 12.8049Z" fill="#FF928F"/>
<path d="M44.5865 11.8797C44.4386 11.3711 44.0617 11.0612 43.599 10.8346C43.1959 10.637 42.5913 10.4613 42.1874 10.7668C41.9091 10.9772 41.8239 11.2601 41.9728 11.585C42.1098 11.8835 42.4552 12.0794 42.715 12.2541C42.7297 12.2642 42.7398 12.2704 42.7466 12.2748C42.752 12.2794 42.7558 12.2829 42.7645 12.29C42.8236 12.3393 42.8784 12.3931 42.9329 12.4476C42.9767 12.4914 43.0173 12.5376 43.0636 12.5793C43.1434 12.6652 43.2381 12.7259 43.3474 12.7616C43.4065 12.7861 43.4408 12.8005 43.4514 12.8051C43.7387 12.9221 44.0391 12.9311 44.2989 12.7243C44.5462 12.5267 44.678 12.1948 44.5865 11.8797Z" fill="#FF928F"/>
<path d="M43.4066 42H9.38765C7.74896 42 6.37635 40.6438 6.21185 38.8621L4.54865 20.8452C4.35909 18.7912 5.83493 17.0076 7.72445 17.0076H45.0698C46.9593 17.0076 48.4352 18.7912 48.2456 20.8452L46.5824 38.8621C46.4179 40.6441 45.0456 42 43.4066 42Z" fill="#727BD6"/>
<path d="M12.8857 38.8673H12.8456C12.061 38.8673 11.4248 38.2317 11.4248 37.4478V27.0643C11.4248 26.2804 12.061 25.6448 12.8456 25.6448H12.8857C13.6703 25.6448 14.3065 26.2804 14.3065 27.0643V37.4478C14.3065 38.232 13.6703 38.8673 12.8857 38.8673Z" fill="white"/>
<path d="M21.8974 38.8673H21.8573C21.0727 38.8673 20.4365 38.2317 20.4365 37.4478V27.0643C20.4365 26.2804 21.0724 25.6448 21.8573 25.6448H21.8974C22.682 25.6448 23.3182 26.2804 23.3182 27.0643V37.4478C23.3182 38.232 22.682 38.8673 21.8974 38.8673Z" fill="white"/>
<path d="M31.4667 38.8673H31.4267C30.6421 38.8673 30.0059 38.2317 30.0059 37.4478V27.0643C30.0059 26.2804 30.6421 25.6448 31.4267 25.6448H31.4667C32.2513 25.6448 32.8875 26.2804 32.8875 27.0643V37.4478C32.8875 38.232 32.2513 38.8673 31.4667 38.8673Z" fill="white"/>
<path d="M40.0934 38.8673H40.0536C39.269 38.8673 38.6328 38.2317 38.6328 37.4478V27.0643C38.6328 26.2804 39.269 25.6448 40.0536 25.6448H40.0937C40.8783 25.6448 41.5145 26.2804 41.5145 27.0643V37.4478C41.5142 38.232 40.878 38.8673 40.0934 38.8673Z" fill="white"/>
<path d="M48.8382 22.9834H3.93172C2.19172 22.9834 0.78125 21.5742 0.78125 19.8358V19.7474C0.78125 18.0089 2.19172 16.5997 3.93172 16.5997H48.8382C50.5782 16.5997 51.9886 18.0089 51.9886 19.7474V19.8358C51.9886 21.5742 50.5782 22.9834 48.8382 22.9834Z" fill="white"/>
<path d="M48.8482 21.7013H3.94148C2.20148 21.7013 0.791016 20.2921 0.791016 18.5537V18.4652C0.791016 16.7268 2.20148 15.3176 3.94148 15.3176H48.8482C50.5882 15.3176 51.9987 16.7268 51.9987 18.4652V18.5537C51.9987 20.2921 50.5882 21.7013 48.8482 21.7013Z" fill="#727BD6"/>
<path d="M24.9894 19.3956L11.0351 3.92632C10.1745 2.97235 10.251 1.50166 11.2058 0.641836L11.2543 0.598025C12.2092 -0.261802 13.6812 -0.185343 14.5418 0.76863L28.4961 16.2379C29.3567 17.1919 29.2802 18.6626 28.3254 19.5224L28.2769 19.5662C27.3218 20.426 25.85 20.3498 24.9894 19.3956Z" fill="#2F2877"/>
<path d="M27.6862 17.7992C27.6862 18.2963 27.2828 18.6995 26.785 18.6995C26.2871 18.6995 25.8838 18.2963 25.8838 17.7992C25.8838 17.302 26.2871 16.8988 26.785 16.8988C27.2828 16.8988 27.6862 17.3018 27.6862 17.7992Z" fill="#FF9B60"/>
<path d="M47.2756 17.1237H42.8375C42.4372 17.1237 42.1305 17.2687 41.9153 17.4902C41.4845 17.7971 41.3881 18.4368 41.6152 18.9366C41.7724 19.4177 42.179 19.8063 42.8375 19.8063H47.2756C49.0031 19.8063 49.0061 17.1237 47.2756 17.1237Z" fill="#FFCC84"/>
<path d="M40.1458 18.4632C40.124 17.9767 39.8574 17.6243 39.4614 17.4559C39.2925 17.3558 39.0981 17.2935 38.8824 17.2935H37.9921C37.3796 17.2935 36.793 17.8314 36.8213 18.4632C36.8496 19.0969 37.3358 19.6329 37.9921 19.6329H38.8824C39.006 19.6329 39.1272 19.606 39.2438 19.5657C39.7416 19.4803 40.1681 18.9581 40.1458 18.4632Z" fill="#FFCC84"/>
</svg>
