<svg width="20" height="20" viewBox="0 0 20 20" fill="none" xmlns="http://www.w3.org/2000/svg">
<path d="M19.5347 0.465273C19.2367 0.167359 18.8326 0 18.4112 0C17.9898 0 17.5857 0.167359 17.2877 0.465273L10 7.75298L2.71229 0.465273C2.41429 0.167359 2.01016 0 1.58878 0C1.1674 0 0.763278 0.167359 0.465273 0.465273C0.167359 0.763278 0 1.1674 0 1.58878C0 2.01016 0.167359 2.41429 0.465273 2.71229L7.75298 10L0.465273 17.2877C0.167359 17.5857 0 17.9898 0 18.4112C0 18.8326 0.167359 19.2367 0.465273 19.5347C0.763278 19.8326 1.1674 20 1.58878 20C2.01016 20 2.41429 19.8326 2.71229 19.5347L10 12.247L17.2877 19.5347C17.5857 19.8326 17.9898 20 18.4112 20C18.8326 20 19.2367 19.8326 19.5347 19.5347C19.8326 19.2367 20 18.8326 20 18.4112C20 17.9898 19.8326 17.5857 19.5347 17.2877L12.247 10L19.5347 2.71229C19.8326 2.41429 20 2.01016 20 1.58878C20 1.1674 19.8326 0.763278 19.5347 0.465273Z" fill="white"/>
</svg>
