<svg width="35" height="37" viewBox="0 0 35 37" fill="none" xmlns="http://www.w3.org/2000/svg">
<path d="M15.8538 0.769107L0.515778 12.3833C0.28797 12.5648 0.134441 12.7926 0.0737985 13.0391C0.013156 13.2856 0.0480039 13.5403 0.174118 13.7721C0.300232 14.004 0.512198 14.2032 0.784325 14.3455C1.05645 14.4878 1.37706 14.5672 1.70728 14.574L8.58456 14.5827L8.55866 35.102C8.55823 35.4421 8.73579 35.7685 9.05227 36.0094C9.36875 36.2503 9.79824 36.386 10.2462 36.3866L23.7599 36.4036C24.2079 36.4042 24.6377 36.2696 24.9548 36.0295C25.2719 35.7894 25.4503 35.4634 25.4507 35.1233L25.4766 14.604L32.3539 14.6127C33.4551 14.4595 34.0187 14.0327 34.0447 13.3323C34.045 13.1639 34.0015 12.9971 33.9168 12.8414C33.8321 12.6857 33.7077 12.5442 33.5509 12.425L18.2423 0.772122C17.9258 0.531301 17.4964 0.395692 17.0485 0.395126C16.6006 0.394561 16.1709 0.529086 15.8538 0.769107Z" fill="#86C342"/>
</svg>
