<svg width="51" height="51" viewBox="0 0 51 51" fill="none" xmlns="http://www.w3.org/2000/svg">
<path d="M49.2414 22.4748V46.6779H50.1209C50.6066 46.6779 51 47.065 51 47.5425V50.1354C51 50.6129 50.6066 51 50.1209 51H0.879488C0.39383 51 0 50.6129 0 50.1354V47.5425C0 47.065 0.39383 46.6779 0.879488 46.6779H1.75858V22.4748H49.2414Z" fill="#FFBA6E"/>
<path d="M19.3466 0H33.4156C38.7618 0 43.088 2.0381 43.088 4.54935C43.0421 5.38319 42.6356 6.15788 41.9714 6.6785C41.5681 7.03336 41.3349 7.53879 41.3294 8.07108V17.2881H27.2604L19.3466 0Z" fill="#937661"/>
<path d="M29.0198 5.18633C28.9684 5.98943 28.5599 6.72911 27.9032 7.20926C27.5043 7.53766 27.2699 8.02014 27.2612 8.53181V17.2881H11.4336V8.53181C11.4253 8.02014 11.191 7.53766 10.792 7.20926C10.1354 6.72911 9.7269 5.98943 9.67505 5.18633C9.67505 2.80077 14.0012 0.864609 19.3474 0.864609C24.6936 0.864609 29.0198 2.80077 29.0198 5.18633Z" fill="#F4D0B5"/>
<path d="M0.879488 46.6779H30.7761V51H0.879488C0.39383 51 0 50.6129 0 50.1355V47.5425C0 47.0651 0.39383 46.6779 0.879488 46.6779Z" fill="#937661"/>
<path d="M7.03559 30.2544H25.5013C25.9869 30.2544 26.3808 30.6412 26.3808 31.1186V42.3558C26.3808 42.8332 25.9869 43.2204 25.5013 43.2204H7.03559C6.55032 43.2204 6.15649 42.8332 6.15649 42.3558V31.1186C6.15649 30.6412 6.55032 30.2544 7.03559 30.2544Z" fill="#4FC0E8"/>
<path d="M44.8425 46.6779H50.1183C50.6039 46.6779 50.9974 47.0651 50.9974 47.5425V50.1355C50.9974 50.6129 50.6039 51.0001 50.1183 51.0001H44.8425V46.6779Z" fill="#937661"/>
<path d="M31.6546 30.2544H43.9651C44.4507 30.2544 44.8445 30.6412 44.8445 31.1186V51H30.7755V31.1186C30.7755 30.6412 31.1689 30.2544 31.6546 30.2544Z" fill="#4FC0E8"/>
<path d="M7.03545 20.7456V24.2899L4.24817 26.693C4.08034 26.8311 3.83573 26.8311 3.66791 26.693L1.02984 24.4194C0.932474 24.3377 0.877456 24.2171 0.880623 24.091V20.7456H7.03545Z" fill="#F76C82"/>
<path d="M13.1922 20.7456V24.2899L10.4049 26.693C10.2371 26.8311 9.99249 26.8311 9.82467 26.693L7.03699 24.2899V20.7456H13.1922Z" fill="#FFD67B"/>
<path d="M19.3452 20.7456V24.2899L16.5579 26.693C16.3901 26.8311 16.1454 26.8311 15.9776 26.693L13.1899 24.2899V20.7456H19.3452Z" fill="#F76C82"/>
<path d="M25.5018 20.7456V24.2899L22.7145 26.693C22.5467 26.8311 22.3021 26.8311 22.1342 26.693L19.3466 24.2899V20.7456H25.5018Z" fill="#FFD67B"/>
<path d="M31.6547 20.7456V24.2899L28.8675 26.693C28.6996 26.8311 28.455 26.8311 28.2872 26.693L25.4995 24.2899V20.7456H31.6547Z" fill="#F76C82"/>
<path d="M37.8112 20.7456V24.2899L35.0239 26.693C34.8561 26.8311 34.6115 26.8311 34.4433 26.693L31.656 24.2899V20.7456H37.8112Z" fill="#FFD67B"/>
<path d="M43.9677 20.7456V24.2899L41.1804 26.693C41.0122 26.8311 40.768 26.8311 40.5998 26.693L37.8125 24.2899V20.7456H43.9677Z" fill="#F76C82"/>
<path d="M50.1208 20.7456V24.091C50.1236 24.2171 50.0686 24.3377 49.9712 24.4194L47.3335 26.693C47.1653 26.8311 46.9211 26.8311 46.7529 26.693L43.9656 24.2899V20.7456H50.1208Z" fill="#FFD67B"/>
<path d="M35.1732 38.8982H36.9317C37.4174 38.8982 37.8112 39.2854 37.8112 39.7628V44.0849C37.8112 44.562 37.4174 44.9491 36.9317 44.9491H35.1732C34.6875 44.9491 34.2941 44.562 34.2941 44.0849V39.7628C34.2941 39.2854 34.6875 38.8982 35.1732 38.8982Z" fill="#F4F6F8"/>
<path d="M6.15649 36.3049H26.3808V38.0341H6.15649V36.3049Z" fill="#3AADD9"/>
<path d="M9.67505 34.5761C9.67505 33.6217 10.4623 32.8474 11.4336 32.8474C12.4049 32.8474 13.1922 33.6217 13.1922 34.5761V36.3049H9.67505V34.5761Z" fill="#FFD67B"/>
<path d="M16.7085 34.5761C16.7085 33.6217 17.4958 32.8474 18.4671 32.8474C19.4384 32.8474 20.2257 33.6217 20.2257 34.5761V36.3049H16.7085V34.5761Z" fill="#FFD67B"/>
<path d="M12.313 41.4916C12.313 40.5367 13.1003 39.7628 14.0716 39.7628C15.0429 39.7628 15.8301 40.5367 15.8301 41.4916V43.2204H12.313V41.4916Z" fill="#FFD67B"/>
<path d="M19.3466 41.4916C19.3466 40.5367 20.1342 39.7628 21.1051 39.7628C22.0765 39.7628 22.8641 40.5367 22.8641 41.4916V43.2204H19.3466V41.4916Z" fill="#FFD67B"/>
<path d="M50.1174 20.7456H43.9622L41.3241 16.4238H45.756C46.2895 16.425 46.7938 16.6631 47.1278 17.0721L50.1174 20.7456Z" fill="#FDCD56"/>
<path d="M43.9643 20.7456H37.8091L35.171 16.4238H41.3262L43.9643 20.7456Z" fill="#EB5463"/>
<path d="M37.8088 20.7456H31.6536L29.895 16.4238H35.1708L37.8088 20.7456Z" fill="#FDCD56"/>
<path d="M31.6547 20.7456H25.4995V16.4238H29.8962L31.6547 20.7456Z" fill="#EB5463"/>
<path d="M25.5018 16.4238V20.7456H19.3466L21.1051 16.4238H25.5018Z" fill="#FDCD56"/>
<path d="M21.1037 16.4238L19.3452 20.7456H13.1899L15.828 16.4238H21.1037Z" fill="#EB5463"/>
<path d="M15.8303 16.4238L14.7751 18.1526L13.1922 20.7456H7.03699L9.67505 16.4238H15.8303Z" fill="#FDCD56"/>
<path d="M9.67339 16.4238L7.03532 20.7456H0.880493L3.87004 17.0721C4.2041 16.6631 4.70836 16.425 5.24152 16.4238H9.67339Z" fill="#EB5463"/>
<path d="M43.0843 4.54662C43.0384 5.38241 42.6323 6.15905 41.9677 6.682C41.5644 7.03647 41.3316 7.54152 41.3257 8.07342V16.4239H39.5671L39.5014 7.78393C39.5069 7.25203 39.7397 6.74698 40.143 6.39212C40.8076 5.86917 41.2137 5.09253 41.26 4.25713C41.26 1.75056 36.6389 0 31.2927 0H33.4119C38.7581 0 43.0843 2.04005 43.0843 4.54662Z" fill="#846855"/>
<path d="M49.2396 25.0506V46.6779H47.4805V26.5634L49.2396 25.0506Z" fill="#FAB153"/>
<path d="M50.9995 47.5425V50.1355C50.9995 50.6129 50.606 51.0001 50.1202 51.0001H48.3611C48.8469 51.0001 49.2404 50.6129 49.2404 50.1355V47.5425C49.2404 47.0651 48.8469 46.6779 48.3611 46.6779H50.1202C50.606 46.6779 50.9995 47.0651 50.9995 47.5425Z" fill="#846855"/>
<path d="M50.1202 20.7456V24.091C50.123 24.2171 50.068 24.3377 49.9706 24.4194L49.2407 25.0506L47.4822 26.5634L47.3329 26.693C47.1647 26.8311 46.9205 26.8311 46.7523 26.693L46.1633 26.1828L47.4822 25.0506L48.212 24.4194C48.3094 24.3377 48.3644 24.2171 48.3617 24.091V20.7456H50.1202Z" fill="#FDCD56"/>
<path d="M50.1206 20.7456H48.362L45.3721 17.0721C45.038 16.6631 44.5338 16.425 44.0006 16.4238H45.7592C46.2927 16.425 46.797 16.6631 47.1311 17.0721L50.1206 20.7456Z" fill="#F5B945"/>
<path d="M33.414 30.2544C32.9282 30.2544 32.5346 30.6412 32.5346 31.1186V51H30.7755V31.1186C30.7755 30.6412 31.1691 30.2544 31.6549 30.2544H33.414Z" fill="#3AADD9"/>
<path d="M15.8293 7.7797C15.5961 7.7797 15.3724 7.68865 15.2073 7.5264L14.328 6.66221C13.9946 6.32292 13.9994 5.78362 14.3387 5.45017C14.678 5.11671 15.2264 5.11204 15.5716 5.43966L16.4513 6.30424C16.7028 6.55132 16.778 6.9233 16.6418 7.24625C16.5056 7.5692 16.1849 7.7797 15.8293 7.7797Z" fill="#E3B692"/>
<path d="M16.7099 12.966C16.4763 12.966 16.253 12.8749 16.0879 12.7127L15.2082 11.8485C14.8752 11.5092 14.88 10.9703 15.2189 10.6368C15.5582 10.3034 16.1069 10.2987 16.4522 10.6263L17.3315 11.4905C17.583 11.738 17.6582 12.1096 17.5224 12.4325C17.3862 12.7555 17.0655 12.966 16.7099 12.966Z" fill="#E3B692"/>
<path d="M20.2249 10.373C19.9917 10.373 19.768 10.2815 19.6029 10.1197L18.7235 9.2551C18.3901 8.91619 18.3949 8.3769 18.7342 8.04344C19.0735 7.70999 19.6219 7.70532 19.9671 8.03294L20.8469 8.89752C21.0983 9.14459 21.1735 9.51618 21.0373 9.83914C20.9011 10.1621 20.5804 10.373 20.2249 10.373Z" fill="#E3B692"/>
<path d="M23.7399 13.8305C23.5067 13.8305 23.283 13.7395 23.1179 13.5772L22.2385 12.7126C21.9052 12.3737 21.9099 11.8345 22.2492 11.501C22.5885 11.1675 23.1369 11.1629 23.4821 11.4905L24.3619 12.3551C24.6133 12.6021 24.6885 12.9737 24.5523 13.2967C24.4161 13.6196 24.0954 13.8305 23.7399 13.8305Z" fill="#E3B692"/>
<path d="M22.8632 6.91502C22.6296 6.91502 22.4059 6.82398 22.2412 6.66211L21.3614 5.79753C21.0281 5.45824 21.0328 4.91934 21.3721 4.58588C21.7114 4.25242 22.2602 4.24775 22.6054 4.57537L23.4848 5.43956C23.7362 5.68703 23.8114 6.05862 23.6756 6.38157C23.5394 6.70452 23.2187 6.91502 22.8632 6.91502Z" fill="#E3B692"/>
</svg>
