<svg width="51" height="51" viewBox="0 0 51 51" fill="none" xmlns="http://www.w3.org/2000/svg">
<path d="M49.2931 43.7062H47.4973C47.0113 43.7062 46.6173 43.3441 46.6173 42.8974V0.808726C46.6173 0.362079 47.0113 0 47.4973 0H49.2931C49.7792 0 50.1732 0.362079 50.1732 0.808726V42.8974C50.1732 43.3441 49.7792 43.7062 49.2931 43.7062Z" fill="#D0CEE7"/>
<path d="M46.6173 37.5793V40.8471H4.38157V37.5793H46.6173Z" fill="#407093"/>
<path d="M1.70692 43.7062H3.50273C3.98875 43.7062 4.38275 43.3441 4.38275 42.8974V0.808726C4.38275 0.362079 3.98875 0 3.50273 0H1.70692C1.2209 0 0.826904 0.362079 0.826904 0.808726V42.8974C0.826904 43.3441 1.2209 43.7062 1.70692 43.7062Z" fill="#DDDAEC"/>
<path d="M41.2181 14.7637C40.7625 14.7637 40.3932 15.1032 40.3932 15.5219V17.3599L41.3265 18.2177C41.5224 18.3977 41.7876 18.4747 42.0432 18.4495V15.5218C42.0431 15.1032 41.6737 14.7637 41.2181 14.7637Z" fill="#9DC6FB"/>
<path d="M10.6141 15.5214V17.3602L9.68024 18.2174C9.48449 18.3974 9.21937 18.4752 8.96411 18.4499V15.5213C8.96411 15.1028 9.33264 14.7632 9.78918 14.7632C10.2446 14.7632 10.6141 15.1029 10.6141 15.5214Z" fill="#CB5769"/>
<path d="M47.572 43.7062H49.222V46.974H47.572V43.7062Z" fill="#2B4D66"/>
<path d="M1.77405 43.7062H3.42407V46.974H1.77405V43.7062Z" fill="#2B4D66"/>
<path d="M4.38245 1.69269H46.6182V3.20904H4.38245V1.69269Z" fill="#407093"/>
<path d="M48.3971 50.9998C49.8346 50.9998 51 49.9288 51 48.6078C51 47.2867 49.8346 46.2158 48.3971 46.2158C46.9595 46.2158 45.7942 47.2867 45.7942 48.6078C45.7942 49.9288 46.9595 50.9998 48.3971 50.9998Z" fill="#407093"/>
<path d="M2.60288 50.9999C4.04041 50.9999 5.20576 49.929 5.20576 48.6079C5.20576 47.2868 4.04041 46.2159 2.60288 46.2159C1.16535 46.2159 0 47.2868 0 48.6079C0 49.929 1.16535 50.9999 2.60288 50.9999Z" fill="#407093"/>
<path d="M45.9941 13.929L41.0446 9.38044C40.6279 8.99744 40.0626 8.78229 39.4732 8.78229H24.8686C24.2792 8.78229 23.7139 8.99744 23.2971 9.38044L17.7253 14.5008L22.3924 18.7898L23.9481 17.3601V31.248H39.5138C39.9998 31.248 40.3938 30.8859 40.3938 30.4393V17.3601L41.3273 18.218C41.671 18.5338 42.2281 18.5338 42.5718 18.218L45.9944 15.0727C46.3378 14.7568 46.3378 14.2448 45.9941 13.929Z" fill="#BED8FB"/>
<path d="M29.7263 31.248V21.2345L36.2758 15.2156C36.7053 14.8209 36.7053 14.1808 36.2758 13.786L30.8309 8.78229H24.8686C24.2792 8.78229 23.7139 8.99744 23.2971 9.38044L17.7253 14.5008L22.3924 18.7898L23.9481 17.3601V31.248H29.7263Z" fill="#9DC6FB"/>
<path d="M35.7256 8.78204C35.7256 10.5868 34.1336 12.0498 32.1697 12.0498C30.2059 12.0498 28.6139 10.5868 28.6139 8.78204H35.7256Z" fill="#407093"/>
<path d="M32.6588 13.9289L27.7093 9.38032C27.2925 8.99732 26.7273 8.78217 26.1379 8.78217H11.5333C10.9438 8.78217 10.3786 8.99732 9.96182 9.38032L5.0123 13.9289C4.66859 14.2447 4.66859 14.7567 5.0123 15.0726L8.43482 18.2178C8.77853 18.5337 9.33565 18.5337 9.67936 18.2178L10.6128 17.36V30.4393C10.6128 30.8859 11.0068 31.248 11.4928 31.248H26.1785C26.6645 31.248 27.0585 30.8859 27.0585 30.4393V17.36L27.992 18.2178C28.3357 18.5337 28.8928 18.5337 29.2365 18.2178L32.659 15.0726C33.0024 14.7567 33.0024 14.2446 32.6588 13.9289Z" fill="#D57080"/>
<path d="M22.3939 8.78204C22.3939 10.5868 20.8019 12.0498 18.8381 12.0498C16.8743 12.0498 15.2822 10.5868 15.2822 8.78204H22.3939Z" fill="#407093"/>
<path d="M32.1751 9.54023C31.7195 9.54023 31.3502 9.20077 31.3502 8.78211V7.14075C31.3502 6.19646 31.8541 5.32777 32.6981 4.81697C32.9824 4.64495 33.1427 4.35538 33.127 4.04231C33.105 3.60353 32.6988 3.2301 32.2213 3.20998C31.957 3.19862 31.7072 3.28449 31.5172 3.45123C31.327 3.61818 31.2223 3.84309 31.2223 4.08465C31.2223 4.5034 30.8529 4.84277 30.3973 4.84277C29.9417 4.84277 29.5723 4.5033 29.5723 4.08465C29.5723 3.4344 29.8658 2.80387 30.3776 2.35463C30.8968 1.89902 31.5793 1.66584 32.2971 1.69522C33.6256 1.7513 34.7142 2.75178 34.7753 3.97268C34.8174 4.81249 34.3692 5.62131 33.6056 6.0834C33.2265 6.3128 33.0002 6.70815 33.0002 7.14075V8.78211C33.0002 9.20077 32.6308 9.54023 32.1751 9.54023Z" fill="#B16E3D"/>
<path d="M28.7117 15.5213V18.4499C28.4553 18.4752 28.1903 18.3973 27.9944 18.2174L27.0616 17.3602V15.5214C27.0616 15.1029 27.4313 14.7633 27.8867 14.7633C28.3422 14.7633 28.7117 15.1028 28.7117 15.5213Z" fill="#CB5769"/>
<path d="M18.8397 9.54027C18.384 9.54027 18.0148 9.2008 18.0148 8.78215V7.14079C18.0148 6.1965 18.5187 5.32781 19.3626 4.81701C19.6469 4.64498 19.8073 4.35532 19.7916 4.04225C19.7696 3.60347 19.3633 3.23004 18.8859 3.20992C18.6215 3.19856 18.3719 3.28442 18.1818 3.45117C17.9916 3.61802 17.8869 3.84303 17.8869 4.08458C17.8869 4.50334 17.5175 4.84271 17.0619 4.84271C16.6062 4.84271 16.2369 4.50324 16.2369 4.08458C16.2369 3.43434 16.5305 2.80381 17.0423 2.35457C17.5615 1.89896 18.244 1.66578 18.9618 1.69516C20.2903 1.75124 21.3789 2.75171 21.44 3.97262C21.482 4.81253 21.0337 5.62125 20.2702 6.08334C19.8912 6.31274 19.6649 6.70809 19.6649 7.14069V8.78205C19.6648 9.2008 19.2954 9.54027 18.8397 9.54027Z" fill="#B16E3D"/>
</svg>
