<svg width="54" height="43" viewBox="0 0 54 43" fill="none" xmlns="http://www.w3.org/2000/svg">
<path d="M40.4416 38.557C40.4416 41.5315 34.258 42.7004 26.9995 42.7004C19.6571 42.7004 13.5586 41.5314 13.5586 38.557C13.5586 35.34 13.794 32.5099 15.4975 30.7064C16.6554 29.4808 19.3259 28.232 21.3749 27.3965C22.1701 27.9279 23.0713 28.3321 24.0272 28.6039C24.982 28.8747 25.9913 29.013 27.0006 29.013C29.0184 29.013 31.035 28.4593 32.6254 27.3965C33.6499 27.8138 34.8301 28.3352 35.898 28.905C36.9671 29.4749 37.9239 30.0932 38.5028 30.7064C40.2062 32.5099 40.4416 35.3399 40.4416 38.557Z" fill="#7A98F6"/>
<path d="M36.8211 16.6428C36.8211 17.3452 36.4275 19.1944 35.4154 19.763C34.7944 23.8474 31.6928 27.3963 26.9984 27.3963C22.304 27.3963 19.2024 23.8474 18.5815 19.763C17.5695 19.1944 17.1758 17.345 17.1758 16.6428C17.1758 15.8579 17.7747 15.2126 18.5404 15.1388V12.1249C18.5404 7.95315 21.4474 5.6333 26.9983 5.6333C32.5491 5.6333 35.4562 7.95315 35.4562 12.1249V15.1388C36.2221 15.2126 36.8211 15.8579 36.8211 16.6428Z" fill="#7A98F6"/>
<path d="M20.6345 26.2976C17.6315 27.5406 15.5864 28.7234 14.5554 29.8145C13.5009 30.9299 12.9284 32.3458 12.6191 33.8615C12.5176 33.8623 12.4153 33.8623 12.3131 33.8623C5.74693 33.8623 0.292969 32.8167 0.292969 30.1571C0.292969 27.2799 0.503177 24.7486 2.02702 23.1363C3.06214 22.0394 5.4506 20.9232 7.28281 20.1755C7.99394 20.6512 8.80009 21.0124 9.65501 21.2551C10.509 21.4979 11.411 21.6213 12.3139 21.6213C14.0537 21.6213 15.7934 21.161 17.1897 20.2761C17.2547 20.3493 17.3228 20.419 17.3943 20.4856C17.8253 22.6354 18.8678 24.5926 20.3615 26.0434C20.451 26.1303 20.5428 26.2147 20.6345 26.2976Z" fill="#DD601B"/>
<path d="M19.872 6.30518C18.1517 7.64961 17.2434 9.6614 17.2434 12.1244V14.2287C16.4186 14.7207 15.8786 15.6194 15.8786 16.6431C15.8786 17.1798 16.0215 18.1012 16.3925 18.978C15.2608 19.729 13.8856 20.1755 12.3114 20.1755C8.11342 20.1755 5.33939 17.002 4.78409 13.3496C3.87885 12.8405 3.52734 11.1868 3.52734 10.5593C3.52734 9.85707 4.06233 9.27989 4.74752 9.2141V6.51884C4.74752 2.78769 7.34696 0.713379 12.3114 0.713379C17.1793 0.713223 19.7747 2.70875 19.872 6.30518Z" fill="#DD601B"/>
<path d="M33.3711 26.2976C36.3741 27.5406 38.4192 28.7234 39.4502 29.8145C40.5047 30.9299 41.0772 32.3458 41.3865 33.8615C41.488 33.8623 41.5903 33.8623 41.6925 33.8623C48.2587 33.8623 53.7126 32.8167 53.7126 30.1571C53.7126 27.2799 53.5024 24.7486 51.9786 23.1363C50.9435 22.0394 48.555 20.9232 46.7228 20.1755C46.0117 20.6512 45.2055 21.0124 44.3506 21.2551C43.4966 21.4979 42.5947 21.6213 41.6918 21.6213C39.9519 21.6213 38.2122 21.161 36.8158 20.2761C36.7508 20.3493 36.6826 20.419 36.6112 20.4856C36.1801 22.6354 35.1377 24.5926 33.644 26.0434C33.5546 26.1303 33.4628 26.2147 33.3711 26.2976Z" fill="#DD601B"/>
<path d="M34.1289 6.30518C35.8492 7.64961 36.7576 9.6614 36.7576 12.1244V14.2287C37.5823 14.7207 38.1223 15.6194 38.1223 16.6431C38.1223 17.1798 37.9795 18.1012 37.6084 18.978C38.7401 19.729 40.1154 20.1755 41.6895 20.1755C45.8875 20.1755 48.6615 17.002 49.2169 13.3496C50.1221 12.8405 50.4736 11.1868 50.4736 10.5593C50.4736 9.85707 49.9386 9.27989 49.2534 9.2141V6.51884C49.2534 2.78769 46.654 0.713379 41.6895 0.713379C36.8217 0.713223 34.2263 2.70875 34.1289 6.30518Z" fill="#DD601B"/>
</svg>
