<svg width="51" height="51" viewBox="0 0 51 51" fill="none" xmlns="http://www.w3.org/2000/svg">
<path d="M4.39587 14.6874H46.6028V47.5417H4.39587V14.6874Z" fill="#F3D55B"/>
<path d="M46.6028 14.6874V23.3332C45.6476 23.3306 44.7202 23.0175 43.9648 22.4427C43.2108 23.0198 42.2825 23.3332 41.3269 23.3332C40.3713 23.3332 39.443 23.0198 38.689 22.4427C37.9349 23.0198 37.0066 23.3332 36.051 23.3332C35.0955 23.3332 34.1672 23.0198 33.4131 22.4427C32.6591 23.0198 31.7308 23.3332 30.7752 23.3332C29.8196 23.3332 28.8913 23.0198 28.1373 22.4427C27.3832 23.0198 26.4549 23.3332 25.4993 23.3332C24.5437 23.3332 23.6155 23.0198 22.8614 22.4427C22.1073 23.0198 21.179 23.3332 20.2235 23.3332C19.2679 23.3332 18.3396 23.0198 17.5855 22.4427C16.8315 23.0198 15.9032 23.3332 14.9476 23.3332C13.992 23.3332 13.0637 23.0198 12.3097 22.4427C11.5556 23.0198 10.6273 23.3332 9.67174 23.3332C8.71615 23.3332 7.78787 23.0198 7.03381 22.4427C6.27846 23.0175 5.35101 23.3306 4.39587 23.3332V14.6874H46.6028Z" fill="#F0C419"/>
<path d="M49.2414 47.5416H1.75862C0.787361 47.5416 0 48.3158 0 49.2708C0 50.2258 0.787361 51 1.75862 51H49.2414C50.2126 51 51 50.2258 51 49.2708C51 48.3158 50.2126 47.5416 49.2414 47.5416Z" fill="#A5A5A4"/>
<path d="M22.8612 14.6874H28.1371V19.0103C28.1371 19.6982 27.8591 20.3579 27.3644 20.8444C26.8697 21.3308 26.1988 21.6041 25.4991 21.6041C24.7995 21.6041 24.1285 21.3308 23.6338 20.8444C23.1391 20.3579 22.8612 19.6982 22.8612 19.0103V14.6874Z" fill="#65DDB9"/>
<path d="M17.5868 14.6874H22.8627V19.0103C22.8627 19.6982 22.5847 20.3579 22.09 20.8444C21.5953 21.3308 20.9243 21.6041 20.2247 21.6041C19.5251 21.6041 18.8541 21.3308 18.3594 20.8444C17.8647 20.3579 17.5868 19.6982 17.5868 19.0103V14.6874Z" fill="#46B29D"/>
<path d="M12.3091 14.6874H17.5849V19.0103C17.5849 19.6982 17.307 20.3579 16.8123 20.8444C16.3176 21.3308 15.6466 21.6041 14.947 21.6041C14.2474 21.6041 13.5764 21.3308 13.0817 20.8444C12.587 20.3579 12.3091 19.6982 12.3091 19.0103V14.6874Z" fill="#65DDB9"/>
<path d="M7.03467 14.6874H12.3105V19.0103C12.3105 19.6982 12.0326 20.3579 11.5379 20.8444C11.0432 21.3308 10.3722 21.6041 9.6726 21.6041C8.97298 21.6041 8.30201 21.3308 7.8073 20.8444C7.31259 20.3579 7.03467 19.6982 7.03467 19.0103V14.6874Z" fill="#46B29D"/>
<path d="M3.519 14.6874H7.03624V19.0103C7.03624 19.6982 6.75831 20.3579 6.26361 20.8444C5.7689 21.3308 5.09793 21.6041 4.39831 21.6041C3.69868 21.6041 3.02772 21.3308 2.53301 20.8444C2.0383 20.3579 1.76038 19.6982 1.76038 19.0103V16.4165C1.76038 15.9579 1.94566 15.5181 2.27546 15.1938C2.60527 14.8695 3.05258 14.6874 3.519 14.6874Z" fill="#65DDB9"/>
<path d="M43.9653 14.6874H47.4826C47.949 14.6874 48.3963 14.8695 48.7261 15.1938C49.0559 15.5181 49.2412 15.9579 49.2412 16.4165V19.0103C49.2412 19.6982 48.9633 20.3579 48.4686 20.8444C47.9739 21.3308 47.3029 21.6041 46.6033 21.6041C45.9036 21.6041 45.2327 21.3308 44.738 20.8444C44.2433 20.3579 43.9653 19.6982 43.9653 19.0103V14.6874Z" fill="#65DDB9"/>
<path d="M38.6909 14.6874H43.9668V19.0103C43.9668 19.6982 43.6889 20.3579 43.1941 20.8444C42.6994 21.3308 42.0285 21.6041 41.3288 21.6041C40.6292 21.6041 39.9583 21.3308 39.4636 20.8444C38.9688 20.3579 38.6909 19.6982 38.6909 19.0103V14.6874Z" fill="#46B29D"/>
<path d="M33.4132 14.6874H38.6891V19.0103C38.6891 19.6982 38.4111 20.3579 37.9164 20.8444C37.4217 21.3308 36.7508 21.6041 36.0511 21.6041C35.3515 21.6041 34.6805 21.3308 34.1858 20.8444C33.6911 20.3579 33.4132 19.6982 33.4132 19.0103V14.6874Z" fill="#65DDB9"/>
<path d="M28.1388 14.6874H33.4147V19.0103C33.4147 19.6982 33.1367 20.3579 32.642 20.8444C32.1473 21.3308 31.4763 21.6041 30.7767 21.6041C30.0771 21.6041 29.4061 21.3308 28.9114 20.8444C28.4167 20.3579 28.1388 19.6982 28.1388 19.0103V14.6874Z" fill="#46B29D"/>
<path d="M33.414 25.0623H42.2071C42.4403 25.0623 42.6639 25.1534 42.8288 25.3155C42.9938 25.4777 43.0864 25.6976 43.0864 25.9269V47.5416H32.5347V25.9269C32.5347 25.6976 32.6273 25.4777 32.7922 25.3155C32.9571 25.1534 33.1808 25.0623 33.414 25.0623Z" fill="#CB8252"/>
<path d="M40.4495 37.1665H39.5702C39.337 37.1665 39.1134 37.0754 38.9485 36.9133C38.7836 36.7511 38.6909 36.5312 38.6909 36.3019C38.6909 36.0726 38.7836 35.8527 38.9485 35.6906C39.1134 35.5284 39.337 35.4373 39.5702 35.4373H40.4495C40.6827 35.4373 40.9064 35.5284 41.0713 35.6906C41.2362 35.8527 41.3288 36.0726 41.3288 36.3019C41.3288 36.5312 41.2362 36.7511 41.0713 36.9133C40.9064 37.0754 40.6827 37.1665 40.4495 37.1665Z" fill="#BDC3C7"/>
<path d="M8.79252 25.0623H28.1373C28.3706 25.0623 28.5942 25.1534 28.7591 25.3155C28.924 25.4777 29.0167 25.6976 29.0167 25.9269V41.4894H7.91321V25.9269C7.91321 25.6976 8.00585 25.4777 8.17075 25.3155C8.33565 25.1534 8.55931 25.0623 8.79252 25.0623Z" fill="#3F5C6C"/>
<path d="M31.8655 11.2289H44.8442C45.3101 11.2303 45.7566 11.4129 46.0861 11.7369C46.4156 12.0609 46.6014 12.4999 46.6028 12.9581V14.6873H4.39587V12.9581C4.39727 12.4999 4.583 12.0609 4.9125 11.7369C5.242 11.4129 5.68851 11.2303 6.15449 11.2289H31.8655Z" fill="#14A085"/>
<path d="M14.9544 37.1666C14.8009 37.1666 14.6502 37.1271 14.517 37.052C14.3839 36.9769 14.2731 36.8689 14.1956 36.7386C14.1256 36.589 14.0898 36.4261 14.0909 36.2614H14.076C14.0754 36.2096 14.0792 36.1578 14.0874 36.1066C14.0896 35.0068 14.4849 33.9427 15.2041 33.1004C15.37 32.943 15.5921 32.8558 15.8227 32.8578C16.0532 32.8597 16.2737 32.9507 16.4368 33.111C16.5998 33.2713 16.6923 33.4881 16.6943 33.7148C16.6963 33.9415 16.6077 34.1599 16.4475 34.323C16.0535 34.8611 15.8385 35.5059 15.832 36.1689C15.8628 36.3794 15.8145 36.5938 15.696 36.7718C15.5775 36.9498 15.3969 37.0791 15.1883 37.1355C15.1121 37.1561 15.0335 37.1666 14.9544 37.1666Z" fill="#A56A43"/>
<path d="M21.9924 37.1666C21.8389 37.1666 21.6881 37.1271 21.555 37.052C21.4219 36.9769 21.311 36.8689 21.2335 36.7386C21.1635 36.589 21.1278 36.4261 21.1289 36.2614H21.114C21.1134 36.2096 21.1172 36.1578 21.1254 36.1066C21.1276 35.0068 21.5229 33.9427 22.2421 33.1004C22.4079 32.943 22.6301 32.8558 22.8606 32.8578C23.0912 32.8597 23.3117 32.9507 23.4747 33.111C23.6378 33.2713 23.7302 33.4881 23.7323 33.7148C23.7343 33.9415 23.6456 34.1599 23.4855 34.323C23.0915 34.8611 22.8765 35.5059 22.8699 36.1689C22.9008 36.3794 22.8524 36.5938 22.7339 36.7718C22.6154 36.9498 22.4349 37.0791 22.2263 37.1355C22.1501 37.1561 22.0714 37.1666 21.9924 37.1666Z" fill="#A56A43"/>
<path d="M14.95 40.9854C15.3202 41.2934 15.7845 41.4708 16.269 41.4895C18.1533 41.4895 18.4673 38.319 18.4673 37.4544C18.4912 36.9611 18.3224 36.4774 17.9954 36.1024C17.6685 35.7274 17.2081 35.4895 16.7086 35.4373C15.5778 35.4373 15.3272 35.9025 14.95 35.9025C14.5728 35.9025 14.3222 35.4373 13.1914 35.4373C12.6919 35.4895 12.2315 35.7274 11.9046 36.1024C11.5777 36.4774 11.4089 36.9611 11.4328 37.4544C11.4328 38.319 11.7467 41.4895 13.631 41.4895C14.1156 41.4708 14.5798 41.2934 14.95 40.9854Z" fill="#E64C3C"/>
<path d="M21.9815 40.9854C22.3517 41.2934 22.8159 41.4708 23.3005 41.4895C25.1848 41.4895 25.4988 38.319 25.4988 37.4544C25.5226 36.9611 25.3539 36.4774 25.0269 36.1024C24.7 35.7274 24.2396 35.4895 23.7401 35.4373C22.6093 35.4373 22.3587 35.9025 21.9815 35.9025C21.6043 35.9025 21.3537 35.4373 20.2229 35.4373C19.7234 35.4895 19.263 35.7274 18.9361 36.1024C18.6092 36.4774 18.4404 36.9611 18.4643 37.4544C18.4643 38.319 18.7782 41.4895 20.6625 41.4895C21.1471 41.4708 21.6113 41.2934 21.9815 40.9854Z" fill="#E64C3C"/>
<path d="M7.91321 41.4896H29.0167V47.5417H7.91321V41.4896Z" fill="#F29C1F"/>
<path d="M25.5008 5.17171H25.4911C25.2605 5.16922 25.0401 5.07774 24.8774 4.91699C24.7148 4.75623 24.6228 4.53907 24.6215 4.31231C24.7497 2.75489 25.4695 1.30202 26.6377 0.2427C26.8036 0.0852083 27.0257 -0.00193721 27.2562 3.26836e-05C27.4868 0.00200257 27.7073 0.0929302 27.8704 0.253232C28.0334 0.413533 28.1259 0.630382 28.1279 0.857074C28.1299 1.08377 28.0412 1.30216 27.8811 1.46523C27.0431 2.20555 26.5093 3.22149 26.3801 4.32182C26.3762 4.54857 26.2818 4.76472 26.1173 4.9237C25.9528 5.08267 25.7314 5.17174 25.5008 5.17171Z" fill="#A56A43"/>
<path d="M25.4998 13.7509C26.2557 14.3305 27.1796 14.6585 28.1377 14.6873C31.9065 14.6873 32.5343 8.79945 32.5343 7.19392C32.5343 5.58838 31.2778 3.44766 29.0171 3.44766C26.7563 3.44766 26.2534 4.31225 25.4998 4.31225C24.7462 4.31225 24.2433 3.44766 21.9826 3.44766C19.7219 3.44766 18.4653 5.58838 18.4653 7.19392C18.4653 8.79945 19.0932 14.6873 22.8619 14.6873C23.82 14.6585 24.7439 14.3305 25.4998 13.7509Z" fill="#E64C3C"/>
</svg>
