<svg width="38" height="22" viewBox="0 0 38 22" fill="none" xmlns="http://www.w3.org/2000/svg">
<path d="M26.6501 10.4807C26.6501 13.0343 28.6673 15.1047 31.1567 15.1047C33.6442 15.1047 35.6616 13.0343 35.6616 10.4807C35.6616 7.92716 33.6441 5.85559 31.1567 5.85559C28.6673 5.85564 26.6501 7.92716 26.6501 10.4807Z" fill="#727BD6"/>
<path d="M31.6853 17.7314L32.208 21.2519H32.8335L33.8051 16.0163C33.7096 16.0088 33.6143 16.0015 33.5172 16.0015H28.7925C28.6956 16.0015 28.5995 16.0088 28.5039 16.0163L29.4767 21.2519H30.101L30.6237 17.7314H30.642L30.1287 16.7656H32.1785H32.1797L31.6662 17.7314H31.6853Z" fill="white"/>
<path d="M2.33691 10.4807C2.33691 13.0343 4.3532 15.1047 6.84342 15.1047C9.33183 15.1047 11.3493 13.0343 11.3493 10.4807C11.3493 7.92716 9.33183 5.85559 6.84342 5.85559C4.3532 5.85564 2.33691 7.92716 2.33691 10.4807Z" fill="#727BD6"/>
<path d="M28.3271 21.7997V18.9512C28.7502 19.8121 29.0062 20.7745 29.0266 21.7997H38V19.6891C38 17.2892 36.1049 15.3417 33.7647 15.3417H28.5478C28.1098 15.3417 27.6913 15.4203 27.2946 15.5474C26.2524 14.0094 24.5186 13 22.5553 13H15.4453C13.4817 13 11.7485 14.0094 10.7054 15.5486C10.3091 15.4204 9.89022 15.3417 9.4525 15.3417H4.23557C1.89633 15.3417 0 17.2893 0 19.6891V21.7997H8.99043C9.00899 20.7875 9.26042 19.8375 9.67349 18.984V21.7997H28.3271ZM28.7941 15.8019H33.5188C33.6159 15.8019 33.7112 15.8093 33.8067 15.8167L32.8351 21.0524H32.2096L31.6869 17.5318H31.6678L32.1813 16.566H32.18H30.1303L30.6436 17.5318H30.6253L30.1026 21.0524H29.4783L28.5055 15.8167C28.6011 15.8093 28.6972 15.8019 28.7941 15.8019ZM15.7808 13.6254H22.2205C22.352 13.6254 22.4822 13.636 22.6113 13.6457L21.2866 20.7822H20.4349H17.566H16.7119L15.388 13.6457C15.5184 13.636 15.6486 13.6254 15.7808 13.6254ZM8.52289 21.0524H7.89706L7.37535 17.5318H7.35679L7.8691 16.566H5.81811L6.33157 17.5318H6.31362L5.7904 21.0524H5.16548L4.19448 15.8167C4.28943 15.8093 4.38409 15.8019 4.48181 15.8019H9.20685C9.30397 15.8019 9.40019 15.8093 9.49449 15.8167L8.52289 21.0524Z" fill="#727BD6"/>
<path d="M7.37887 17.7314L7.90059 21.2519H8.52641L9.49802 16.0163C9.40366 16.0088 9.3075 16.0015 9.21038 16.0015H4.48534C4.38761 16.0015 4.29296 16.0088 4.198 16.0163L5.169 21.2519H5.79392L6.31714 17.7314H6.33509L5.82163 16.7656H7.87262L7.36031 17.7314H7.37887Z" fill="white"/>
<path d="M12.8608 6.30204C12.8608 9.78311 15.6107 12.6051 19.0025 12.6051C22.3925 12.6051 25.1423 9.78316 25.1423 6.30204C25.1423 2.82174 22.3925 0 19.0025 0C15.6107 0 12.8608 2.82174 12.8608 6.30204Z" fill="#727BD6"/>
<path d="M19.7233 16.1836H19.7242L20.4347 20.9817H21.2864L22.6111 13.8452C22.482 13.8355 22.3518 13.825 22.2203 13.825H15.7806C15.6485 13.825 15.5182 13.8356 15.3879 13.8452L16.7118 20.9817H17.5659L18.276 16.1836H18.3022L17.6039 14.8662H20.3977L19.6981 16.1836H19.7233Z" fill="white"/>
<path d="M17.5652 20.9817H20.434L19.7236 16.1836H19.7227H19.6974L20.3969 14.8661H17.6032L18.3015 16.1836H18.2753L17.5652 20.9817Z" fill="#DD601B"/>
</svg>
