<svg width="31" height="42" viewBox="0 0 31 42" fill="none" xmlns="http://www.w3.org/2000/svg">
<path fill-rule="evenodd" clip-rule="evenodd" d="M10.8462 13.7445C10.7708 12.9539 10.0874 10.6451 8.24826 7.34811C6.4091 4.05133 7.88806 2.04182 10.6982 2.16002C13.5084 2.27801 13.1438 0 15.4313 0C17.7185 0 17.3542 2.27801 20.1641 2.16002C22.9743 2.04182 24.4532 4.05133 22.6141 7.34811C20.7749 10.6449 20.0915 12.9536 20.0164 13.7445C19.3484 20.7539 11.5137 20.7539 10.8462 13.7445Z" fill="#75AD5F"/>
<path fill-rule="evenodd" clip-rule="evenodd" d="M15.3516 12.5806C23.6334 12.5806 30.3472 19.1663 30.3472 27.2905C30.3472 35.4145 31.0277 42 15.3516 42C-0.32434 42 0.355901 35.4145 0.355901 27.2905C0.355901 19.1663 7.06976 12.5806 15.3516 12.5806Z" fill="#75AD5F"/>
<path fill-rule="evenodd" clip-rule="evenodd" d="M15.3517 12.5806C19.5026 12.5806 23.2592 14.2353 25.9745 16.9083C26.9055 18.8238 27.4271 20.9677 27.4271 23.2313C27.4271 31.3553 28.1076 37.941 12.4315 37.941C6.71288 37.941 3.17278 37.0638 0.980442 35.5558C0.259803 33.2002 0.355813 30.3547 0.355813 27.2905C0.356039 19.1663 7.0699 12.5806 15.3517 12.5806Z" fill="#83BD6C"/>
<path fill-rule="evenodd" clip-rule="evenodd" d="M9.22734 10.2178H21.4768C21.9451 10.2178 22.3284 10.5966 22.3284 11.0594C22.3284 11.5223 21.9451 11.9012 21.4768 11.9012H9.22734C8.75886 11.9012 8.37573 11.5221 8.37573 11.0594C8.37573 10.5964 8.75886 10.2178 9.22734 10.2178Z" fill="#FABE2C"/>
<path fill-rule="evenodd" clip-rule="evenodd" d="M9.22734 11.9012H21.4768C21.9451 11.9012 22.3284 12.2798 22.3284 12.7428C22.3284 13.2055 21.9451 13.5843 21.4768 13.5843H9.22734C8.75886 13.5843 8.37573 13.2055 8.37573 12.7428C8.37573 12.2796 8.75886 11.9012 9.22734 11.9012Z" fill="#FABE2C"/>
<path d="M16.9673 19.4879C17.65 19.6746 18.219 19.9803 18.6759 20.4098C19.309 21.0078 19.7137 21.8079 19.89 22.8094L17.327 23.1407C17.2574 22.7867 17.1375 22.4844 16.9673 22.2329V19.4879ZM16.9673 25.7094C18.1283 26.1015 18.9481 26.579 19.4231 27.1402C20.0112 27.8304 20.3049 28.7157 20.3049 29.7991C20.3049 31.0056 19.935 32.0241 19.1984 32.8514C18.6271 33.4922 17.8831 33.9399 16.9673 34.1974V31.8129C17.1062 31.7153 17.2331 31.6 17.3477 31.467C17.6657 31.0944 17.825 30.6604 17.825 30.158C17.825 29.71 17.69 29.3276 17.4237 29.0028C17.3055 28.8586 17.1532 28.7292 16.9671 28.6152L16.9673 25.7094ZM14.6429 32.021V27.8272C14.4145 27.7624 14.1966 27.6918 13.9892 27.6159V24.5863C14.1696 24.7348 14.3875 24.8638 14.6429 24.9732V21.5073C14.392 21.5905 14.1748 21.7114 13.9892 21.8678V19.4265C14.1982 19.3803 14.4161 19.3457 14.6429 19.3229V18.3317H16.1093V19.3229C16.4128 19.3596 16.6988 19.4146 16.9673 19.4879V22.2329C16.7578 21.9239 16.472 21.6921 16.1093 21.5376V25.4514C16.4135 25.5326 16.6995 25.6188 16.9673 25.7092V28.615C16.7342 28.4719 16.448 28.3523 16.1093 28.2574V32.161C16.4346 32.1018 16.7201 31.9856 16.9673 31.8126V34.1972C16.6963 34.2734 16.4103 34.3329 16.1093 34.3757V36.2491H14.6429V34.4235C14.4168 34.3964 14.1989 34.3585 13.9892 34.3096V31.5623C14.1925 31.7579 14.4109 31.9109 14.6429 32.021ZM13.9892 27.6157C12.9934 27.2508 12.2392 26.7562 11.7272 26.1284C11.1116 25.3693 10.8002 24.4499 10.8002 23.3697C10.8002 22.2758 11.1495 21.3561 11.8481 20.6112C12.4133 20.0115 13.1264 19.6178 13.9892 19.4265V21.8678C13.8777 21.9615 13.7779 22.0679 13.6884 22.187C13.4531 22.5086 13.3355 22.8639 13.3355 23.2501C13.3355 23.6021 13.4428 23.9338 13.6573 24.2346C13.7486 24.3618 13.8591 24.4791 13.9892 24.5861V27.6157ZM13.9892 34.31C13.1142 34.1066 12.3815 33.7138 11.793 33.132C11.063 32.4142 10.5996 31.3957 10.3955 30.0797L13.0416 29.7993C13.1487 30.3325 13.353 30.7941 13.6503 31.1803C13.7581 31.3221 13.8711 31.4495 13.9892 31.5628V34.31Z" fill="white"/>
<path d="M20.0759 12.9211C22.3554 15.5865 23.4785 18.842 22.5052 23.9474" stroke="#FABE2C" stroke-width="4.7999" stroke-miterlimit="22.9256" stroke-linecap="round" stroke-linejoin="round"/>
<path d="M20.0759 12.9211C23.2268 14.4966 25.5458 17.0617 26.6643 22.1379" stroke="#FABE2C" stroke-width="4.7999" stroke-miterlimit="22.9256" stroke-linecap="round" stroke-linejoin="round"/>
<path fill-rule="evenodd" clip-rule="evenodd" d="M8.85019 8.47003C8.66498 8.11025 8.46457 7.73611 8.24826 7.34829C6.4091 4.05151 7.88806 2.04199 10.6982 2.1602C13.5084 2.27818 13.1438 0.000183105 15.4313 0.000183105C17.7185 0.000183105 17.3542 2.27818 20.1641 2.1602C20.7095 2.1371 21.2046 2.19475 21.6351 2.32596C21.2795 3.35842 21.0931 4.11319 20.8977 4.59477C19.1741 8.84012 13.1738 9.98944 8.85019 8.47003Z" fill="#83BD6C"/>
</svg>
