<svg width="49" height="51" viewBox="0 0 49 51" fill="none" xmlns="http://www.w3.org/2000/svg">
<path d="M0 0H17.64V8.79311H0V0Z" fill="#EE9D0D"/>
<path d="M0.978882 30.7759H48.0189V34.2932H0.978882V30.7759Z" fill="#EAE9E4"/>
<path d="M49 48.3621H0L1.96 37.8103H47.04L49 48.3621Z" fill="#EAE9E4"/>
<path d="M4.9021 41.3276H22.5421V44.8448H4.9021V41.3276Z" fill="#EE9D0D"/>
<path d="M4.9021 41.3276H21.5621V43.9655H4.9021V41.3276Z" fill="#EEB436"/>
<path d="M5.88098 34.2932H43.121V37.8104H5.88098V34.2932Z" fill="#CDCCC8"/>
<path d="M5.88098 34.2932H43.121V36.0518H5.88098V34.2932Z" fill="#BBBAB6"/>
<path d="M3.91541 12.3103H9.79541V30.7758H3.91541V12.3103Z" fill="#CDCCC8"/>
<path d="M3.91541 29.0173H9.79541V30.7759H3.91541V29.0173Z" fill="#BBBAB6"/>
<path d="M27.4392 41.3276H43.1192V44.8448H27.4392V41.3276Z" fill="#EEB436"/>
<path d="M30.3767 41.3276H32.3367V44.8448H30.3767V41.3276Z" fill="#EE9D0D"/>
<path d="M34.2921 41.3276H36.2521V44.8448H34.2921V41.3276Z" fill="#EE9D0D"/>
<path d="M38.2153 41.3276H40.1753V44.8448H38.2153V41.3276Z" fill="#EE9D0D"/>
<path d="M1.96167 48.3621H8.10002V51H1.96167V48.3621Z" fill="#CDCCC8"/>
<path d="M40.9025 48.3621H47.0408V51H40.9025V48.3621Z" fill="#CDCCC8"/>
<path d="M1.96167 48.3621H8.10002V49.2414H1.96167V48.3621Z" fill="#BBBAB6"/>
<path d="M40.9025 48.3621H47.0408V49.2414H40.9025V48.3621Z" fill="#BBBAB6"/>
<path d="M41.9032 15.8276H31.2378C29.9898 15.8276 28.7599 16.0949 27.6503 16.6072C26.5407 17.1196 25.5834 17.8622 24.8581 18.7733L24.6022 19.0947C23.0925 20.9912 21.0887 22.5276 18.7654 23.5698L16.4232 24.6207V28.138L18.9407 29.2674C21.152 30.2594 23.5903 30.7759 26.0626 30.7759H41.9032V15.8276Z" fill="#FF3444"/>
<path d="M16.4222 24.6207H12.4992C12.5009 24.5853 12.5022 24.5498 12.5022 24.514C12.5023 24.0931 12.3854 23.6788 12.162 23.3086C11.9387 22.9384 11.616 22.624 11.2232 22.3939C10.8303 22.1638 10.3798 22.0253 9.9122 21.9908C9.44464 21.9563 8.97487 22.027 8.54542 22.1964C8.11597 22.3658 7.7404 22.6287 7.45268 22.9612C7.16497 23.2937 6.97421 23.6853 6.89767 24.1006C6.82112 24.5159 6.86121 24.9417 7.01431 25.3396C7.1674 25.7375 7.42866 26.0949 7.77445 26.3793C7.42872 26.6638 7.16751 27.0212 7.01447 27.419C6.86142 27.8169 6.82137 28.2427 6.89794 28.658C6.97451 29.0733 7.16527 29.4648 7.45298 29.7973C7.74068 30.1297 8.11623 30.3925 8.54565 30.562C8.97507 30.7314 9.4448 30.802 9.91232 30.7676C10.3798 30.7331 10.8304 30.5945 11.2232 30.3644C11.616 30.1344 11.9387 29.82 12.162 29.4499C12.3853 29.0798 12.5023 28.6655 12.5022 28.2446C12.5022 28.2089 12.5009 28.1734 12.4992 28.138H16.4222V24.6207Z" fill="#ECEBE6"/>
<path d="M41.8999 30.7759C45.1473 30.7759 47.7799 27.4296 47.7799 23.3017C47.7799 19.1739 45.1473 15.8276 41.8999 15.8276C38.6525 15.8276 36.0199 19.1739 36.0199 23.3017C36.0199 27.4296 38.6525 30.7759 41.8999 30.7759Z" fill="#AA232E"/>
<path d="M41.907 25.5001C42.9895 25.5001 43.867 24.5159 43.867 23.3018C43.867 22.0877 42.9895 21.1035 41.907 21.1035C40.8245 21.1035 39.947 22.0877 39.947 23.3018C39.947 24.5159 40.8245 25.5001 41.907 25.5001Z" fill="#CDCCC8"/>
<path d="M28.4192 22.862C28.2254 22.8621 28.0359 22.8105 27.8748 22.7139C27.7136 22.6172 27.588 22.4799 27.5138 22.3192C27.4396 22.1586 27.4202 21.9818 27.458 21.8112C27.4959 21.6406 27.5892 21.4839 27.7263 21.361L28.7063 20.4816C28.7973 20.4 28.9053 20.3352 29.0242 20.291C29.1431 20.2468 29.2705 20.2241 29.3992 20.2241C29.5279 20.2241 29.6554 20.2468 29.7743 20.291C29.8932 20.3352 30.0012 20.4 30.0922 20.4816C30.1832 20.5633 30.2554 20.6602 30.3047 20.7669C30.3539 20.8736 30.3793 20.9879 30.3793 21.1034C30.3793 21.2189 30.3539 21.3332 30.3047 21.4399C30.2554 21.5466 30.1832 21.6436 30.0922 21.7252L29.1122 22.6045C29.0213 22.6863 28.9133 22.7511 28.7944 22.7953C28.6755 22.8395 28.548 22.8622 28.4192 22.862Z" fill="#DC2D3B"/>
<path d="M31.3637 27.2587C31.1699 27.2587 30.9804 27.2071 30.8192 27.1105C30.6581 27.0139 30.5324 26.8765 30.4583 26.7158C30.3841 26.5552 30.3647 26.3784 30.4025 26.2078C30.4403 26.0372 30.5337 25.8805 30.6707 25.7576L31.6507 24.8782C31.7417 24.7966 31.8498 24.7318 31.9687 24.6876C32.0876 24.6434 32.215 24.6207 32.3437 24.6207C32.4724 24.6207 32.5998 24.6434 32.7187 24.6876C32.8376 24.7318 32.9457 24.7966 33.0367 24.8782C33.1277 24.9599 33.1999 25.0568 33.2491 25.1635C33.2984 25.2702 33.3237 25.3846 33.3237 25.5C33.3237 25.6155 33.2984 25.7299 33.2491 25.8365C33.1999 25.9432 33.1277 26.0402 33.0367 26.1218L32.0567 27.0011C31.9658 27.0829 31.8578 27.1478 31.7388 27.1919C31.6199 27.2361 31.4924 27.2588 31.3637 27.2587Z" fill="#DC2D3B"/>
<path d="M26.6286 27.2586C26.4348 27.2586 26.2453 27.2071 26.0841 27.1105C25.923 27.0138 25.7973 26.8765 25.7232 26.7158C25.649 26.5551 25.6296 26.3783 25.6674 26.2078C25.7052 26.0372 25.7985 25.8805 25.9356 25.7575L26.9156 24.8782C27.0066 24.7966 27.1147 24.7318 27.2336 24.6876C27.3525 24.6434 27.4799 24.6206 27.6086 24.6206C27.7373 24.6206 27.8648 24.6434 27.9837 24.6876C28.1026 24.7317 28.2106 24.7965 28.3016 24.8782C28.3927 24.9598 28.4648 25.0568 28.5141 25.1635C28.5634 25.2701 28.5887 25.3845 28.5887 25.5C28.5887 25.6155 28.5634 25.7298 28.5141 25.8365C28.4649 25.9432 28.3927 26.0401 28.3017 26.1218L27.3217 27.0011C27.2308 27.0829 27.1227 27.1477 27.0038 27.1919C26.8848 27.2361 26.7573 27.2588 26.6286 27.2586Z" fill="#DC2D3B"/>
<path d="M2.93665 8.79315L3.91665 12.3104H9.79665L10.7766 8.79315H2.93665Z" fill="#BBBAB6"/>
<path d="M7.83665 5.2758H3.91665C3.65673 5.2758 3.40747 5.18316 3.22368 5.01826C3.0399 4.85336 2.93665 4.6297 2.93665 4.39649C2.93665 4.16328 3.0399 3.93963 3.22368 3.77473C3.40747 3.60982 3.65673 3.51718 3.91665 3.51718H7.83665C8.09656 3.51718 8.34582 3.60982 8.52961 3.77473C8.7134 3.93963 8.81665 4.16328 8.81665 4.39649C8.81665 4.6297 8.7134 4.85336 8.52961 5.01826C8.34582 5.18316 8.09656 5.2758 7.83665 5.2758Z" fill="#EEB436"/>
<path d="M13.7192 5.2758H11.7592C11.4993 5.2758 11.25 5.18316 11.0662 5.01826C10.8824 4.85336 10.7792 4.6297 10.7792 4.39649C10.7792 4.16328 10.8824 3.93963 11.0662 3.77473C11.25 3.60982 11.4993 3.51718 11.7592 3.51718H13.7192C13.9791 3.51718 14.2284 3.60982 14.4121 3.77473C14.5959 3.93963 14.6992 4.16328 14.6992 4.39649C14.6992 4.6297 14.5959 4.85336 14.4121 5.01826C14.2284 5.18316 13.9791 5.2758 13.7192 5.2758Z" fill="#EEB436"/>
</svg>
