<svg width="51" height="51" viewBox="0 0 51 51" fill="none" xmlns="http://www.w3.org/2000/svg">
<path d="M24.0154 17.2567V17.2534C25.1425 17.1963 26.0329 16.4324 26.0329 15.4981V13.5197C26.0329 12.548 25.0699 11.7611 23.8809 11.7611H23.3429V3.95725C23.3429 2.98562 22.3799 2.19864 21.191 2.19864H14.7351C13.5461 2.19864 12.5831 2.98562 12.5831 3.95725V11.7611H11.9106C10.7217 11.7611 9.75866 12.548 9.75866 13.5197V15.4981C9.75866 16.4324 10.649 17.1963 11.7761 17.2534V17.2567C1.02707 27.1104 -2.89085 38.5425 2.22679 46.0539C2.96249 47.1344 4.04789 48.372 5.69952 49.5964C6.92345 50.5054 8.52532 51 10.1796 51H25.6119C27.2662 51 28.8681 50.5054 30.092 49.5964C31.7437 48.372 32.8291 47.1344 33.5648 46.0539C38.6824 38.5426 34.7645 27.1104 24.0154 17.2567Z" fill="#CBE3FA"/>
<path d="M23.3449 3.95725V11.7611H12.5851V3.95725C12.5851 2.98562 13.5481 2.19864 14.737 2.19864H21.1929C22.3819 2.19864 23.3449 2.98562 23.3449 3.95725Z" fill="#FF6D7A"/>
<path d="M46.244 0.421339C53.8203 3.01638 52.4457 14.0956 41.3927 11.3214C40.9744 12.7415 39.3349 13.6911 37.6039 13.5515C35.7936 13.4054 34.38 12.1073 34.4203 10.5784C33.0701 10.3719 30.8738 10.0787 29.2446 9.84297C28.7308 9.76867 28.3572 9.40365 28.3572 8.97718V7.2288C28.3572 6.81333 28.7125 6.45237 29.2106 6.36928C30.9617 6.07713 32.614 5.53471 34.1177 4.75752C33.4627 3.71994 33.8366 2.49001 34.8749 1.90857C35.6967 1.44804 36.8346 1.44804 37.7545 1.90857C40.2643 0.113583 43.5769 -0.492038 46.244 0.421339Z" fill="#CBE3FA"/>
<path d="M19.0402 8.46366C18.446 8.46366 17.9642 8.06996 17.9642 7.58436V6.48523C17.9642 5.99963 18.446 5.60593 19.0402 5.60593C19.6344 5.60593 20.1162 5.99963 20.1162 6.48523V7.58436C20.1162 8.06996 19.6344 8.46366 19.0402 8.46366Z" fill="#FE4F60"/>
<path d="M17.9622 39.569C17.368 39.569 16.8862 39.1753 16.8862 38.6897V17.2567C16.8862 16.7711 17.368 16.3774 17.9622 16.3774C18.5564 16.3774 19.0382 16.7711 19.0382 17.2567V38.6897C19.0382 39.1753 18.5564 39.569 17.9622 39.569Z" fill="#B5D5F5"/>
<path d="M17.9628 30.8947C20.852 31.6884 23.7372 31.5288 26.607 30.721C27.7717 30.3946 29.0481 30.8749 29.4826 31.8169C31.8477 36.9478 31.8449 42.5181 26.8356 46.2342C25.9399 46.9002 24.7644 47.2629 23.5512 47.2629H12.2399C11.0268 47.2629 9.85126 46.9002 8.95551 46.2342C4.29314 42.7754 3.95421 37.6982 5.87417 32.8314C6.66326 30.8307 8.95201 29.3405 11.7423 29.3471C14.2978 29.3532 15.7463 30.2825 17.9628 30.8947Z" fill="#FF6D7A"/>
<path d="M19.0382 31.3192V38.6599C19.0382 39.1283 18.6054 39.5372 18.0334 39.5672C17.4066 39.6001 16.8862 39.1948 16.8862 38.6898V30.8864C16.8862 30.7316 17.0772 30.6254 17.2535 30.6822C17.7762 30.8503 18.2861 30.9918 18.8338 31.1063C18.9533 31.1314 19.0382 31.2183 19.0382 31.3192Z" fill="#FE4F60"/>
<path d="M5.24855 49.2508C3.84695 48.1406 2.89336 47.0328 2.22679 46.0539C-2.89085 38.5425 1.02707 27.1104 11.7761 17.2567V17.2534C11.8658 17.2579 11.7748 17.2569 13.4717 17.2566C14.3813 17.2564 14.8803 18.1214 14.3016 18.6949C4.70464 28.2057 1.39129 38.9053 6.26172 46.0539C6.59595 46.5447 7.00226 47.068 7.50112 47.6076C8.64152 48.8415 6.55129 50.2828 5.24855 49.2508Z" fill="#EEF7FF"/>
<path d="M9.58297 46.2343C9.16294 46.2343 8.76119 46.0955 8.46462 45.8525C4.26022 42.4065 4.03144 37.4996 5.87299 32.8315C6.26827 31.8292 7.02133 30.9594 8.03961 30.3401C9.38701 29.5205 11.1401 30.7824 10.3452 31.9915C10.1706 32.257 10.0237 32.5378 9.90792 32.8315C8.33281 36.8242 8.27579 40.9649 10.892 44.2353C11.576 45.0901 10.8552 46.2343 9.58297 46.2343Z" fill="#FF8C95"/>
<path d="M21.2657 3.29777H17.427C16.2384 3.29777 15.275 4.08507 15.275 5.05638V10.8818C15.275 11.3674 14.7933 11.7611 14.1991 11.7611H12.5851V3.95725C12.5851 2.98595 13.5485 2.19864 14.737 2.19864C14.737 2.19864 21.2831 2.19974 21.3274 2.20205C22.1814 2.24502 22.1212 3.29777 21.2657 3.29777Z" fill="#FF8C95"/>
<path d="M26.0305 13.5197V15.4981C26.0305 16.4324 25.1401 17.1969 24.013 17.2534C23.8854 17.2598 11.7897 17.2542 11.7737 17.2534C10.6466 17.1969 9.75623 16.4324 9.75623 15.4981V13.5197C9.75623 12.5481 10.7192 11.7611 11.9082 11.7611H23.8785C25.0675 11.7611 26.0305 12.5481 26.0305 13.5197Z" fill="#585966"/>
<path d="M24.013 11.7645C24.8669 11.8075 24.8067 12.8602 23.9513 12.8602H14.5981C13.4092 12.8602 12.4352 13.6473 12.4462 14.6188C12.4594 15.7873 12.4243 16.3265 12.4517 16.6967C12.4746 17.0051 12.1703 17.273 11.7737 17.2534C10.6465 17.1978 9.75623 16.4324 9.75623 15.4981V13.5197C9.75623 12.5484 10.7196 11.7611 11.9082 11.7611C11.9082 11.7611 23.9686 11.7623 24.013 11.7645Z" fill="#6E6F80"/>
<path d="M31.7742 5.73948C32.5879 5.47129 33.371 5.1432 34.1175 4.75741C33.4625 3.71983 33.8364 2.4899 34.8747 1.90847C35.6965 1.44793 36.8344 1.44793 37.7543 1.90847C40.2641 0.113586 43.5767 -0.492034 46.2438 0.421342C47.4224 0.825053 47.0731 2.16159 45.901 2.20897C44.1545 2.27953 42.4244 2.84547 40.9624 3.76006C40.6545 3.95263 40.2493 3.9934 39.883 3.88921C37.8486 3.31029 36.1152 4.71465 36.5455 6.35851C36.6492 6.75486 36.4139 7.16 35.9783 7.35366C34.9969 7.79013 33.9596 8.13218 32.8795 8.37541C30.8411 8.83452 29.8175 6.38445 31.7742 5.73948Z" fill="#EEF7FF"/>
</svg>
