<svg width="41" height="45" viewBox="0 0 41 45" fill="none" xmlns="http://www.w3.org/2000/svg">
<path d="M22.3917 33.8563L22.3737 33.7619L21.9274 31.2323C21.9118 31.1393 21.8598 31.0551 21.7786 30.9991C21.696 30.9411 21.5982 30.9226 21.5073 30.9392L20.5461 31.1067C20.5048 31.1121 20.4625 31.1159 20.4119 31.1228C19.1979 31.2815 18.9387 30.425 18.9261 30.4299C18.8498 30.2804 18.7671 30.1343 18.6801 29.9892C18.684 29.9868 18.6718 29.9707 18.6509 29.9396C18.6353 29.9089 18.6188 29.884 18.6033 29.8587C18.5532 29.7696 18.4944 29.6396 18.4681 29.4736C18.4652 29.439 18.4608 29.4015 18.4584 29.364C18.4501 29.3032 18.4501 29.2379 18.4584 29.1693C18.4608 29.1556 18.4608 29.1415 18.4618 29.1308C18.4676 29.0767 18.4793 29.0237 18.4944 28.9667L19.7084 27.5181C19.7201 27.5064 19.7298 27.4899 19.7395 27.4762C19.7779 27.411 19.7983 27.3336 19.7906 27.2518C19.7867 27.2133 19.7779 27.1773 19.7628 27.1451C19.7414 27.0911 19.7069 27.0424 19.6637 27.0044L17.625 25.2924C17.554 25.232 17.4597 25.1994 17.3605 25.2087C17.2604 25.2179 17.1734 25.2666 17.1145 25.3387L16.4859 26.088C16.4577 26.1134 16.4266 26.1455 16.3925 26.184C15.5645 27.0877 14.8168 26.5978 14.8124 26.6056C14.5858 26.5073 14.3544 26.4206 14.1166 26.3485C13.9397 26.2653 13.6975 26.0973 13.54 25.7681V23.876C13.54 23.7854 13.5064 23.6924 13.4345 23.6199C13.3655 23.5468 13.2731 23.5147 13.1797 23.5147H10.5168C10.4244 23.5147 10.3321 23.5468 10.2601 23.6199C10.1911 23.6924 10.1551 23.7859 10.1551 23.876V24.8547C10.1526 24.8936 10.1488 24.9409 10.1463 24.9895C10.0914 26.2132 9.20602 26.3213 9.20602 26.3257C8.95757 26.4002 8.71545 26.4888 8.47818 26.5871C8.28808 26.6344 8.009 26.6495 7.69249 26.5073L6.48136 25.0592C6.4201 24.9861 6.33405 24.9374 6.23487 24.9287C6.13374 24.9185 6.04135 24.9535 5.96988 25.0115L3.93175 26.724C3.88896 26.7614 3.85152 26.8106 3.82964 26.8642C3.81505 26.8968 3.8063 26.9348 3.80192 26.9723C3.79463 27.0536 3.81457 27.1296 3.85298 27.1958C3.86562 27.2094 3.87583 27.2265 3.88653 27.2401L4.51372 27.9865C4.53852 28.0216 4.56234 28.0566 4.592 28.0961C4.82343 28.3975 4.92504 28.6697 4.95179 28.9015C4.95276 28.9126 4.95567 28.9268 4.95567 28.935C4.96442 29.0047 4.96443 29.068 4.95811 29.1298C4.95568 29.1644 4.95179 29.199 4.94693 29.2321C4.8949 29.5398 4.73056 29.7195 4.73056 29.7268C4.59054 29.9415 4.4617 30.1631 4.34356 30.3914C4.22638 30.5472 4.02363 30.7435 3.68913 30.8345L1.82942 30.5083C1.73899 30.4917 1.64175 30.5102 1.5591 30.5691C1.4779 30.6247 1.42587 30.7113 1.40983 30.8024L0.96399 33.3285L0.946971 33.4269C0.93433 33.4979 0.943085 33.5783 0.974687 33.6435C0.985384 33.6645 0.994136 33.6805 1.00726 33.6971C1.06318 33.7804 1.15118 33.8325 1.24064 33.848L2.20136 34.0194C2.24075 34.0282 2.28499 34.0399 2.33215 34.0516C3.52868 34.315 3.47277 35.2114 3.47277 35.2114C3.47277 35.2114 3.47909 35.2114 3.48736 35.2085C3.51605 35.4442 3.5564 35.6803 3.60697 35.9092C3.60697 35.9165 3.60939 35.9247 3.61231 35.9369C3.61231 35.9369 3.61328 35.9418 3.61328 35.9437C3.61863 35.9924 3.61911 36.0489 3.61328 36.1078V36.1244C3.61231 36.1633 3.60696 36.2057 3.59869 36.25C3.57341 36.3966 3.51604 36.5646 3.39887 36.7321L1.76524 37.6791C1.69863 37.7166 1.64418 37.777 1.61403 37.852C1.60479 37.8666 1.60042 37.8822 1.5975 37.8968C1.57076 37.9941 1.58535 38.092 1.63154 38.1743L1.63737 38.185L2.96129 40.4838C3.00943 40.5622 3.08478 40.6255 3.18202 40.6513C3.27975 40.679 3.37699 40.6634 3.45721 40.6143L4.3032 40.1269C4.34063 40.1103 4.37905 40.0913 4.42426 40.0655C5.51043 39.5012 6.04767 40.2155 6.05594 40.2077C6.17943 40.3197 6.3078 40.4321 6.43713 40.5398C6.43713 40.5417 6.45511 40.5553 6.48234 40.5772C6.51054 40.5977 6.53874 40.6206 6.56645 40.6444C6.68557 40.7467 6.85234 40.9405 6.92624 41.2395C6.9311 41.2541 6.93499 41.2682 6.93694 41.2794C6.94715 41.329 6.95638 41.3811 6.96027 41.4328L6.94326 41.4824L6.91116 41.5691L6.32384 43.1896L6.31558 43.2129C6.28251 43.3001 6.28494 43.398 6.32578 43.4905C6.33016 43.4973 6.33453 43.5075 6.34329 43.5163C6.38461 43.5937 6.45414 43.6468 6.53193 43.677L9.03342 44.587C9.11997 44.6196 9.21915 44.6196 9.30958 44.5753C9.40196 44.5335 9.46516 44.459 9.49823 44.3723L9.83273 43.4554C9.84926 43.416 9.86628 43.376 9.88572 43.3298C10.3549 42.1967 11.2257 42.3964 11.2257 42.3808C11.3579 42.3876 11.4892 42.3895 11.6215 42.3895C11.6589 42.3895 11.6954 42.3876 11.7309 42.3876C11.7309 42.3949 12.2589 42.298 12.7076 42.7445L13.3533 44.5208C13.3849 44.6075 13.4496 44.682 13.5405 44.7238C13.6324 44.7667 13.7316 44.7667 13.8176 44.7389L16.3176 43.824C16.3974 43.7987 16.4669 43.7378 16.5087 43.6609C16.5146 43.6512 16.5189 43.6463 16.5233 43.6375C16.5675 43.546 16.5676 43.4481 16.5359 43.3605L16.5282 43.3386L16.2034 42.4431C16.1917 42.4012 16.1786 42.3618 16.1635 42.3126C16.1212 42.1695 16.0921 42.0438 16.0794 41.925C16.0755 41.89 16.0707 41.8544 16.0707 41.8223C16.0687 41.8155 16.0687 41.8053 16.0707 41.7984C16.0663 41.7337 16.0663 41.6748 16.0726 41.6193V41.6076C16.0726 41.5988 16.0726 41.5891 16.075 41.5818C16.1353 40.9707 16.5802 40.7326 16.5802 40.7185C16.7134 40.6191 16.8457 40.511 16.9735 40.401C16.9769 40.4063 17.3221 39.9959 17.9493 40.047L19.5825 40.9916C19.6646 41.0388 19.7628 41.052 19.8601 41.0262C19.9554 41.0028 20.0332 40.9371 20.0808 40.8587L21.4052 38.558L21.4111 38.5512C21.4582 38.4665 21.4738 38.372 21.4465 38.2736C21.4422 38.2551 21.4363 38.2415 21.4295 38.2249C21.3999 38.15 21.3449 38.092 21.2783 38.0526L20.4343 37.5657C20.3988 37.5418 20.3628 37.5179 20.321 37.4878C19.8163 37.1683 19.6398 36.807 19.5922 36.5222C19.5849 36.4847 19.5805 36.4545 19.5791 36.4195C19.5791 36.4195 19.5791 36.4195 19.5791 36.4165C19.5723 36.3411 19.5757 36.2729 19.5805 36.214C19.5805 36.2028 19.5825 36.1911 19.5849 36.1794C19.6009 36.0698 19.6248 36.0046 19.6204 36.0027C19.6564 35.8381 19.6894 35.673 19.7152 35.5055C19.7244 35.5055 19.7196 34.9709 20.2345 34.6072L22.0942 34.2785C22.1856 34.2619 22.2721 34.2108 22.328 34.129C22.3407 34.1105 22.3489 34.0925 22.3606 34.0735C22.3956 34.0034 22.4044 33.9294 22.3917 33.8563ZM17.7228 34.1757C17.7228 34.1928 17.7228 34.205 17.7213 34.2181C17.7228 34.2254 17.7213 34.2347 17.7213 34.2444C17.7228 34.2551 17.7228 34.2624 17.7213 34.2731V34.2999C17.7213 34.3218 17.7213 34.3457 17.7189 34.3681C17.6177 37.6499 14.9271 40.2827 11.6239 40.2827C8.32066 40.2827 5.63149 37.6504 5.53036 34.3681C5.52988 34.3359 5.52987 34.3053 5.52987 34.2736C5.52696 34.2634 5.52696 34.2561 5.52987 34.2449C5.52696 34.221 5.52696 34.2001 5.52696 34.1762C5.52696 34.1441 5.52696 34.1115 5.52987 34.0784C5.52939 34.0681 5.52939 34.0574 5.52987 34.0467C5.59794 30.7337 8.30072 28.0717 11.6234 28.0717C14.948 28.0717 17.6508 30.7337 17.7184 34.0467C17.7184 34.0574 17.7208 34.0681 17.7184 34.0784C17.7228 34.1115 17.7228 34.1436 17.7228 34.1757Z" fill="#DD601B"/>
<path d="M39.2541 36.5281L39.24 36.4536L38.8938 34.4874C38.8826 34.4153 38.8413 34.3491 38.7776 34.3053C38.7134 34.261 38.6385 34.2449 38.5671 34.259L37.8203 34.392C37.7887 34.3949 37.7556 34.3963 37.7152 34.4007C36.772 34.5254 36.5702 33.8603 36.5605 33.8642C36.5007 33.7478 36.4375 33.6329 36.369 33.5214C36.3728 33.5189 36.3626 33.5043 36.3461 33.4809C36.334 33.4605 36.3218 33.44 36.3096 33.4181C36.2703 33.3505 36.2255 33.2487 36.2046 33.1206C36.2022 33.0919 36.1983 33.0646 36.1968 33.0359C36.1905 32.9872 36.1905 32.938 36.1968 32.8845C36.1983 32.8733 36.1983 32.8635 36.1993 32.8548C36.2046 32.8095 36.2139 32.77 36.225 32.7277L37.1688 31.6014C37.1775 31.5893 37.1853 31.5805 37.1926 31.5654C37.2222 31.5162 37.2378 31.4563 37.2329 31.393C37.2281 31.3624 37.2222 31.3351 37.2106 31.3098C37.1931 31.2679 37.1673 31.2299 37.1328 31.2017L35.5487 29.87C35.4928 29.8227 35.4204 29.7974 35.3431 29.8042C35.2653 29.812 35.1982 29.8495 35.151 29.905L34.6639 30.4874C34.6425 30.5093 34.6177 30.5346 34.5909 30.5629C33.9467 31.265 33.3662 30.8847 33.3638 30.8896C33.1863 30.8141 33.0059 30.7464 32.8212 30.6904C32.6831 30.6257 32.4949 30.4961 32.3744 30.2386V28.7681C32.3744 28.696 32.3471 28.6239 32.2912 28.5679C32.2368 28.5124 32.1658 28.4857 32.0928 28.4857H30.0226C29.9511 28.4857 29.8782 28.5124 29.8228 28.5679C29.7693 28.6239 29.7401 28.6965 29.7401 28.7681V29.5262C29.7382 29.5593 29.7353 29.5939 29.7338 29.6343C29.6925 30.5852 29.0026 30.67 29.0026 30.6719C28.8095 30.7308 28.6204 30.8 28.4376 30.875C28.2883 30.91 28.0725 30.9241 27.8269 30.8117L26.8842 29.6869C26.837 29.6314 26.7704 29.5919 26.6936 29.5871C26.6153 29.5798 26.5424 29.6056 26.4875 29.6528L24.902 30.984C24.8689 31.0128 24.8393 31.0507 24.8227 31.0926C24.8106 31.115 24.8052 31.1452 24.8013 31.1764C24.7955 31.2387 24.8106 31.2991 24.8407 31.3487C24.8509 31.3599 24.8587 31.3726 24.8665 31.3818L25.3551 31.9637C25.3731 31.9924 25.3921 32.0182 25.4149 32.0489C25.5948 32.2841 25.6741 32.494 25.6945 32.6761C25.6969 32.6834 25.6974 32.6946 25.6974 32.7019C25.7057 32.7559 25.7057 32.8071 25.6998 32.8543C25.6974 32.8801 25.6945 32.9069 25.6911 32.9327C25.6507 33.1727 25.5233 33.311 25.5233 33.3164C25.4139 33.4834 25.3148 33.6557 25.2224 33.8354C25.1319 33.9571 24.9739 34.1081 24.7148 34.1787L23.2688 33.9236C23.1988 33.9124 23.1235 33.9265 23.0588 33.9713C22.9946 34.0151 22.9538 34.0828 22.9421 34.1553L22.5959 36.1195L22.5813 36.1936C22.5721 36.25 22.5789 36.3104 22.6032 36.3625C22.6125 36.3781 22.6188 36.3922 22.6285 36.4059C22.6723 36.4696 22.7403 36.5091 22.8113 36.5227L23.5571 36.6542C23.5883 36.663 23.6218 36.6722 23.6583 36.6795C24.5893 36.8845 24.5461 37.5813 24.5461 37.5813C24.5461 37.5813 24.5495 37.5813 24.5577 37.5793C24.5791 37.7639 24.6107 37.9455 24.6501 38.1227C24.6501 38.1271 24.6511 38.1359 24.6535 38.1442C24.6535 38.1466 24.655 38.148 24.655 38.1505C24.6589 38.1885 24.6594 38.2303 24.655 38.2771V38.2917C24.6535 38.3214 24.6496 38.354 24.6419 38.3881C24.6239 38.5025 24.5791 38.6335 24.4877 38.764L23.2183 39.4992C23.1658 39.5299 23.1235 39.5752 23.1001 39.6346C23.0933 39.6458 23.0904 39.658 23.087 39.6682C23.0676 39.7437 23.0773 39.8206 23.1137 39.8834L23.1191 39.8927L24.1489 41.6777C24.1853 41.741 24.2446 41.7892 24.3205 41.8102C24.3958 41.8311 24.4717 41.8204 24.5339 41.7824L25.1908 41.4021C25.2204 41.3885 25.2511 41.3734 25.2861 41.3549C26.1306 40.9152 26.5478 41.4693 26.5546 41.4649C26.6503 41.5511 26.751 41.6397 26.8507 41.724C26.8507 41.7264 26.8648 41.7352 26.8861 41.7522C26.9075 41.7683 26.9294 41.7863 26.9508 41.8029C27.0432 41.8842 27.173 42.0346 27.2304 42.2669C27.2333 42.2766 27.2372 42.2883 27.2396 42.2971C27.2479 42.3346 27.2542 42.3769 27.2581 42.4193L27.245 42.4563L27.2192 42.524L26.7636 43.7846L26.7558 43.7997C26.7315 43.8674 26.7335 43.9448 26.7641 44.0144C26.7695 44.0247 26.7719 44.0276 26.7782 44.0354C26.8103 44.0953 26.8652 44.1381 26.9246 44.1615L28.8708 44.8709C28.9374 44.8943 29.0147 44.8943 29.0847 44.8617C29.1562 44.8286 29.2068 44.7672 29.233 44.7029L29.4912 43.9886C29.5043 43.9584 29.5174 43.9282 29.5335 43.8908C29.8981 43.0085 30.5749 43.1652 30.5749 43.1516C30.6775 43.1584 30.7806 43.1623 30.8827 43.1623C30.9119 43.1623 30.9406 43.1594 30.9683 43.1594C30.9683 43.1648 31.3762 43.0903 31.7263 43.435L32.229 44.8164C32.2533 44.8841 32.3034 44.9425 32.3748 44.9746C32.4458 45.0063 32.5241 45.0063 32.5902 44.9858L34.5345 44.2774C34.5958 44.2535 34.6493 44.2073 34.6818 44.1488C34.6872 44.1415 34.6901 44.1371 34.6945 44.1279C34.728 44.0602 34.728 43.9828 34.7042 43.9136L34.6984 43.8966L34.4451 43.1998C34.4368 43.1691 34.4256 43.1365 34.414 43.0995C34.3814 42.989 34.359 42.8916 34.3488 42.7986C34.3459 42.7704 34.342 42.7445 34.342 42.7192C34.3405 42.7119 34.3405 42.7075 34.342 42.7002C34.3396 42.6515 34.3396 42.6048 34.3449 42.56V42.5512C34.3449 42.5464 34.3449 42.5361 34.3464 42.5327C34.394 42.056 34.7382 41.872 34.7382 41.8627C34.8423 41.7834 34.9449 41.6991 35.045 41.613C35.0475 41.6178 35.3168 41.2979 35.8035 41.3398L37.0739 42.0726C37.1362 42.1077 37.2135 42.1198 37.2903 42.1004C37.3632 42.0814 37.424 42.0298 37.4605 41.9679L38.4907 40.1829L38.4941 40.1761C38.5316 40.1103 38.5427 40.0363 38.5233 39.9613C38.5184 39.9482 38.5145 39.9346 38.5097 39.9243C38.4859 39.8635 38.4445 39.8191 38.3911 39.7894L37.7357 39.4087C37.7084 39.3902 37.6807 39.3717 37.6481 39.3512C37.2558 39.1009 37.1192 38.8215 37.0808 38.598C37.0754 38.5697 37.0725 38.5444 37.071 38.5205C37.071 38.5186 37.071 38.5186 37.071 38.5186C37.0662 38.4577 37.0671 38.4061 37.0725 38.3594C37.0725 38.3501 37.0739 38.3414 37.0754 38.3336C37.0871 38.2474 37.106 38.1958 37.1021 38.1938C37.1313 38.0682 37.1566 37.9401 37.1765 37.8082C37.1829 37.8082 37.1799 37.3938 37.5801 37.109L39.0251 36.8524C39.096 36.8402 39.1641 36.8012 39.2088 36.736C39.2176 36.7238 39.2239 36.7097 39.2332 36.6966C39.2579 36.6425 39.2638 36.5841 39.2541 36.5281ZM35.6241 36.7779C35.6241 36.79 35.6241 36.7983 35.6222 36.8085C35.6241 36.8158 35.6222 36.8217 35.6222 36.8295C35.6241 36.8363 35.6241 36.8421 35.6222 36.8499V36.8709C35.6222 36.8899 35.6222 36.9054 35.6197 36.9249C35.5434 39.4768 33.4503 41.5224 30.8817 41.5224C28.3136 41.5224 26.223 39.4768 26.1447 36.9249C26.1427 36.8981 26.1427 36.8757 26.1427 36.8499C26.1418 36.8421 26.1418 36.8363 26.1427 36.8295C26.1418 36.8124 26.1418 36.7934 26.1418 36.7784C26.1418 36.7525 26.1418 36.7262 26.1452 36.7009C26.1432 36.6917 26.1432 36.6844 26.1452 36.6756C26.1977 34.1003 28.3 32.0314 30.8822 32.0314C33.4659 32.0314 35.5687 34.1003 35.6202 36.6756C35.6202 36.6844 35.6226 36.6917 35.6202 36.7009C35.6241 36.7258 35.6241 36.7521 35.6241 36.7779Z" fill="#746ACD"/>
<path d="M40.9318 13.5572L40.91 13.4321L40.3251 10.1191C40.3051 9.99496 40.237 9.88297 40.1296 9.8109C40.0212 9.73348 39.8943 9.70768 39.7747 9.73154L38.5149 9.95308C38.46 9.95844 38.4051 9.96477 38.3384 9.97158C36.7471 10.1819 36.4073 9.05667 36.3898 9.06689C36.2906 8.87115 36.1826 8.67687 36.0703 8.48649C36.0752 8.48357 36.0582 8.46019 36.0305 8.42221C36.01 8.38326 35.9877 8.35112 35.9673 8.31558C35.9021 8.20115 35.8253 8.0283 35.7917 7.80967C35.7859 7.76439 35.7806 7.71813 35.7776 7.66944C35.7694 7.58958 35.7694 7.50389 35.7776 7.41527C35.7806 7.39725 35.7806 7.37875 35.783 7.36219C35.7917 7.29208 35.8063 7.22196 35.8248 7.14892L37.4171 5.24994C37.4317 5.23339 37.4458 5.21294 37.4575 5.19444C37.5075 5.10777 37.5333 5.00746 37.5255 4.90034C37.5192 4.8497 37.5075 4.80198 37.4876 4.76108C37.4604 4.68902 37.4152 4.62572 37.3588 4.57703L34.6852 2.33185C34.5918 2.25248 34.4693 2.21158 34.338 2.22229C34.2082 2.23398 34.0954 2.3002 34.0147 2.3932L33.1925 3.37288C33.1565 3.41037 33.1152 3.45225 33.071 3.50191C31.9838 4.68658 31.0051 4.04239 31.0003 4.05213C30.7017 3.92796 30.3988 3.81451 30.0862 3.71615C29.8533 3.6066 29.5353 3.387 29.3316 2.95559V0.478154C29.3316 0.354477 29.2874 0.233231 29.1926 0.139743C29.1017 0.0467416 28.9806 0 28.8581 0H25.3676C25.2451 0 25.1236 0.0472285 25.0302 0.139743C24.9408 0.233231 24.8912 0.354477 24.8912 0.478154V1.7568C24.8878 1.80987 24.8824 1.87074 24.8805 1.93598C24.8095 3.54086 23.6485 3.67915 23.6485 3.68645C23.3227 3.78627 23.0042 3.90265 22.6955 4.02876C22.4456 4.09011 22.079 4.1125 21.6662 3.9265L20.0764 2.02753C19.9971 1.9316 19.8838 1.86587 19.7535 1.8571C19.6218 1.84542 19.5017 1.88778 19.4064 1.96715L16.7342 4.21037C16.6783 4.26004 16.6297 4.32188 16.6015 4.39297C16.5816 4.43777 16.5699 4.48451 16.5641 4.53515C16.5558 4.64032 16.5816 4.74306 16.6326 4.82925C16.6472 4.84775 16.6613 4.86869 16.6735 4.88573L17.4971 5.86541C17.5282 5.91118 17.5608 5.95646 17.5992 6.0071C17.903 6.40345 18.0358 6.75988 18.0698 7.06323C18.0737 7.07978 18.0752 7.09682 18.0752 7.109C18.0878 7.19713 18.0878 7.28331 18.0791 7.36268C18.0752 7.40991 18.0698 7.45422 18.0654 7.49755C17.9974 7.90072 17.782 8.13688 17.782 8.14321C17.5982 8.42611 17.4295 8.71777 17.2739 9.01869C17.1198 9.22368 16.8538 9.47834 16.4172 9.59909L13.9789 9.17012C13.8603 9.14869 13.7329 9.17255 13.625 9.249C13.5175 9.32106 13.4485 9.43598 13.4281 9.55478L12.8437 12.8697L12.8223 12.9963C12.8048 13.0888 12.8164 13.1921 12.8592 13.2802C12.8728 13.306 12.8831 13.3299 12.901 13.3532C12.9745 13.4599 13.0882 13.5275 13.2078 13.549L14.4676 13.7725C14.5181 13.7861 14.5755 13.8002 14.6373 13.8148C16.2062 14.1615 16.1328 15.3355 16.1328 15.3355C16.1328 15.3355 16.1406 15.3355 16.1527 15.3325C16.1902 15.6442 16.2446 15.948 16.3103 16.2475C16.3103 16.2592 16.3117 16.2733 16.3146 16.285C16.3146 16.2864 16.3166 16.2937 16.3166 16.2937C16.3234 16.3595 16.3268 16.4315 16.3166 16.5085V16.5318C16.3146 16.583 16.3103 16.639 16.2976 16.6959C16.265 16.8887 16.1902 17.1088 16.0365 17.3309L13.8939 18.5686C13.8068 18.6197 13.7358 18.6996 13.6969 18.7945C13.6838 18.816 13.6785 18.8369 13.6731 18.8554C13.6386 18.9839 13.659 19.1125 13.7183 19.2196L13.7271 19.2337L15.4628 22.2453C15.5251 22.3505 15.6252 22.4318 15.7531 22.4674C15.88 22.5009 16.0083 22.481 16.1129 22.4177L17.2224 21.7788C17.27 21.7555 17.3211 21.7297 17.3814 21.7014C18.8054 20.9584 19.508 21.8952 19.5192 21.8835C19.682 22.033 19.8498 22.1796 20.019 22.3198C20.019 22.3252 20.0433 22.3412 20.0798 22.3695C20.1153 22.3948 20.1532 22.4269 20.1896 22.4562C20.3467 22.593 20.5655 22.8452 20.6608 23.2377C20.6666 23.2537 20.6729 23.2751 20.6739 23.2907C20.688 23.3545 20.7001 23.4222 20.7055 23.4938L20.6826 23.5571L20.6408 23.6691L19.8712 25.7935L19.8605 25.8242C19.8182 25.9357 19.8216 26.0662 19.8746 26.1879C19.8809 26.1967 19.8863 26.2083 19.8984 26.2195C19.9529 26.3232 20.0433 26.3953 20.1444 26.4343L23.4243 27.6272C23.5381 27.6681 23.6684 27.6657 23.7865 27.6102C23.9066 27.5547 23.9912 27.4568 24.035 27.3419L24.4721 26.1402C24.494 26.089 24.5158 26.0384 24.5416 25.9736C25.1586 24.4881 26.2977 24.7544 26.2977 24.732C26.4713 24.7408 26.6439 24.7456 26.8175 24.7456C26.8656 24.7456 26.9147 24.7422 26.9614 24.7422C26.9614 24.7505 27.6513 24.6259 28.2401 25.2097L29.0866 27.5401C29.1294 27.6521 29.2149 27.7519 29.3331 27.8059C29.4527 27.8614 29.5835 27.8614 29.6968 27.8215L32.9742 26.6247C33.0788 26.5881 33.1697 26.5117 33.2232 26.4085C33.2319 26.3987 33.2377 26.3904 33.2426 26.3778C33.2995 26.2614 33.2995 26.1304 33.2596 26.0141L33.2499 25.9853L32.823 24.8123C32.8084 24.7588 32.7919 24.7047 32.7729 24.6414C32.7146 24.4574 32.6781 24.2894 32.6611 24.1336C32.6567 24.0888 32.6494 24.042 32.6494 24.0007C32.648 23.989 32.648 23.9797 32.6494 23.9685C32.6451 23.8843 32.6451 23.8078 32.6538 23.7324V23.7192C32.6538 23.707 32.6538 23.6988 32.6567 23.6866C32.735 22.8846 33.3165 22.5735 33.3165 22.555C33.493 22.4221 33.6656 22.2823 33.8348 22.1377C33.8392 22.1474 34.2904 21.606 35.112 21.6737L37.2542 22.9124C37.3592 22.9728 37.4905 22.9918 37.6184 22.9596C37.7433 22.9265 37.845 22.8428 37.9072 22.7381L39.6444 19.726L39.6497 19.7148C39.7129 19.6048 39.7319 19.4757 39.6979 19.3506C39.6925 19.3267 39.6842 19.3058 39.6755 19.2873C39.6361 19.187 39.5641 19.113 39.4757 19.0614L38.3705 18.422C38.3248 18.3914 38.2767 18.3597 38.2227 18.3222C37.561 17.902 37.3291 17.4258 37.2669 17.0523C37.2586 17.0056 37.2528 16.9637 37.2494 16.9199C37.2494 16.9184 37.2494 16.9184 37.2494 16.9155C37.2416 16.8157 37.2445 16.729 37.2528 16.6516C37.2528 16.636 37.2547 16.6209 37.2586 16.6049C37.279 16.4598 37.3092 16.3765 37.3033 16.3721C37.3524 16.1588 37.3947 15.9397 37.4288 15.7206C37.4395 15.7206 37.4336 15.0214 38.1094 14.5428L40.5463 14.1104C40.6654 14.0924 40.7782 14.0213 40.8535 13.9146C40.8696 13.8913 40.8813 13.8679 40.8954 13.8455C40.9377 13.7501 40.9498 13.6532 40.9318 13.5572ZM34.8135 13.9765C34.8135 13.9955 34.8135 14.014 34.8101 14.0286C34.8135 14.0388 34.8101 14.0544 34.8101 14.0656C34.8135 14.0797 34.8135 14.0914 34.8101 14.1002V14.1377C34.8101 14.1659 34.8101 14.1956 34.8072 14.2268C34.6759 18.5331 31.1471 21.9809 26.818 21.9809C22.4884 21.9809 18.9615 18.5306 18.8317 14.2268C18.8283 14.1844 18.8283 14.142 18.8283 14.1002C18.8254 14.0909 18.8254 14.0797 18.8283 14.0656C18.8254 14.0349 18.8254 14.0076 18.8254 13.976C18.8254 13.9322 18.8254 13.8898 18.8322 13.8479C18.8288 13.8338 18.8288 13.8202 18.8322 13.8065C18.9211 9.46227 22.4636 5.9735 26.8185 5.9735C31.1753 5.9735 34.7192 9.46227 34.8077 13.8065C34.8077 13.8202 34.8106 13.8338 34.8077 13.8479C34.8135 13.8903 34.8135 13.9327 34.8135 13.9765Z" fill="#C91B80"/>
</svg>
