<svg width="51" height="51" viewBox="0 0 51 51" fill="none" xmlns="http://www.w3.org/2000/svg">
<path d="M48.9585 22.8166C48.9585 22.5404 48.7342 22.3161 48.4579 22.3161C33.1559 22.3161 17.848 22.3161 2.54009 22.3161C2.26385 22.3161 2.03955 22.5404 2.03955 22.8166V50.4983C2.03955 50.7746 2.26385 50.9989 2.54009 50.9989H48.4579C48.7342 50.9989 48.9585 50.7746 48.9585 50.4983V22.8166Z" fill="#ECEDF2"/>
<path d="M33.6715 50.9988H43.8547V37.2336C43.8547 36.9573 43.6304 36.733 43.3542 36.733H34.1708C33.8946 36.733 33.6703 36.9573 33.6703 37.2336V50.9988H33.6715Z" fill="#BE6450"/>
<path fill-rule="evenodd" clip-rule="evenodd" d="M34.521 37.583H43.0043V50.9988H34.521V37.583Z" fill="#C2ECFF"/>
<path fill-rule="evenodd" clip-rule="evenodd" d="M34.521 43.8766V44.8765H37.2327C37.5089 44.8765 37.7332 44.6522 37.7332 44.376C37.7332 44.0997 37.5089 43.8754 37.2327 43.8754H34.521V43.8766Z" fill="#E8F8FF"/>
<path d="M40.9313 9.18237H38.2538H3.57228C3.3586 9.17765 3.15791 9.31105 3.08708 9.52473L3.08826 9.52709L0.0424991 18.6646C0.0153469 18.7272 0 18.7956 0 18.8677C0 19.1439 0.2243 19.3682 0.500544 19.3682H50.49C50.5455 19.3694 50.6022 19.3611 50.6576 19.3422C50.9197 19.2549 51.0614 18.9715 50.974 18.7095L50.9717 18.7106L47.9259 9.57196C47.8751 9.35001 47.6756 9.18355 47.4383 9.18355H40.9313V9.18237Z" fill="#F45379"/>
<path d="M39.603 9.18234H38.2524H11.3954V16.1972H11.3931V17.0472C11.3931 17.8901 11.726 18.6929 12.321 19.2879C12.3481 19.3151 12.3741 19.341 12.4024 19.3658H38.5936C38.6208 19.3398 38.6479 19.3139 38.6751 19.2879C39.3421 18.6209 39.603 18.0294 39.603 17.1995V9.18234Z" fill="#F5426C"/>
<path d="M3.68797 26.5093H3.56283C2.57945 26.5093 1.68816 26.1103 1.04359 25.4657C0.399018 24.8212 0 23.931 0 22.9464V18.8664C0 18.5902 0.2243 18.3659 0.500544 18.3659H6.75026C7.0265 18.3659 7.2508 18.5902 7.2508 18.8664V22.9464C7.2508 23.9298 6.85179 24.8212 6.20722 25.4657C5.56147 26.1103 4.67135 26.5093 3.68797 26.5093Z" fill="#FFE663"/>
<path d="M9.93626 26.5093H9.81113C8.82775 26.5093 7.93645 26.1103 7.29188 25.4657C6.64731 24.8212 6.24829 23.931 6.24829 22.9464V18.8664C6.24829 18.5902 6.47259 18.3659 6.74884 18.3659H12.9986C13.2748 18.3659 13.4991 18.5902 13.4991 18.8664V22.9464C13.4991 23.9298 13.1001 24.8212 12.4555 25.4657C11.8098 26.1103 10.9196 26.5093 9.93626 26.5093Z" fill="#FF6488"/>
<path d="M16.1878 26.5093H16.0627C15.0793 26.5093 14.188 26.1103 13.5435 25.4657C12.8989 24.8212 12.4999 23.931 12.4999 22.9464V18.8664C12.4999 18.5902 12.7242 18.3659 13.0004 18.3659H19.2501C19.5264 18.3659 19.7507 18.5902 19.7507 18.8664V22.9464C19.7507 23.9298 19.3517 24.8212 18.7071 25.4657C18.0613 26.1103 17.1712 26.5093 16.1878 26.5093Z" fill="#FFE663"/>
<path d="M22.4363 26.5093H22.3111C21.3277 26.5093 20.4364 26.1103 19.7919 25.4657C19.1473 24.8212 18.7483 23.931 18.7483 22.9464V18.8664C18.7483 18.5902 18.9726 18.3659 19.2488 18.3659H25.4986C25.7748 18.3659 25.9991 18.5902 25.9991 18.8664V22.9464C25.9991 23.9298 25.6001 24.8212 24.9555 25.4657C24.3109 26.1103 23.4196 26.5093 22.4363 26.5093Z" fill="#FF6488"/>
<path d="M28.6878 26.5093H28.5627C27.5793 26.5093 26.688 26.1103 26.0435 25.4657C25.3989 24.8212 24.9999 23.931 24.9999 22.9464V18.8664C24.9999 18.5902 25.2242 18.3659 25.5004 18.3659H31.7501C32.0264 18.3659 32.2507 18.5902 32.2507 18.8664V22.9464C32.2507 23.9298 31.8517 24.8212 31.2071 25.4657C30.5625 26.1103 29.6712 26.5093 28.6878 26.5093Z" fill="#FFE663"/>
<path d="M34.9361 26.5093H34.811C33.8276 26.5093 32.9363 26.1103 32.2918 25.4657C31.6472 24.8212 31.2482 23.931 31.2482 22.9464V18.8664C31.2482 18.5902 31.4725 18.3659 31.7487 18.3659H37.9984C38.2747 18.3659 38.499 18.5902 38.499 18.8664V22.9464C38.499 23.9298 38.1 24.8212 37.4554 25.4657C36.8108 26.1103 35.9195 26.5093 34.9361 26.5093Z" fill="#FF6488"/>
<path d="M41.1877 26.5093H41.0626C40.0792 26.5093 39.1879 26.1103 38.5433 25.4657C37.8988 24.8212 37.4998 23.931 37.4998 22.9464V18.8664C37.4998 18.5902 37.7241 18.3659 38.0003 18.3659H44.25C44.5263 18.3659 44.7506 18.5902 44.7506 18.8664V22.9464C44.7506 23.9298 44.3515 24.8212 43.707 25.4657C43.0624 26.1103 42.1711 26.5093 41.1877 26.5093Z" fill="#FFE663"/>
<path d="M47.436 26.5093H47.3109C46.3275 26.5093 45.4362 26.1103 44.7916 25.4657C44.1471 24.8212 43.748 23.931 43.748 22.9464V18.8664C43.748 18.5902 43.9723 18.3659 44.2486 18.3659H50.4983C50.7746 18.3659 50.9989 18.5902 50.9989 18.8664V22.9464C50.9989 23.9298 50.5998 24.8212 49.9553 25.4657C49.3107 26.1103 48.4206 26.5093 47.436 26.5093Z" fill="#FF6488"/>
<path d="M36.434 19.3658H14.5635C13.9237 19.3658 13.3428 19.1061 12.9238 18.687C12.5047 18.2679 12.245 17.6871 12.245 17.0472H12.2461V2.31861H12.2438C12.2438 1.67875 12.5035 1.09792 12.9226 0.67882C13.3417 0.258542 13.9225 0 14.5623 0H36.434C37.0738 0 37.6546 0.259722 38.0737 0.67882C38.4928 1.09792 38.7525 1.67875 38.7525 2.31861V17.0472H38.7502C38.7502 17.6883 38.4916 18.2691 38.0726 18.687C37.6546 19.1061 37.075 19.3658 36.434 19.3658Z" fill="#F45379"/>
<path fill-rule="evenodd" clip-rule="evenodd" d="M37.605 15.9706V2.40715C37.605 2.06007 37.4693 1.73188 37.2237 1.48514C36.9782 1.23959 36.65 1.10382 36.3017 1.10382H14.6957C14.3486 1.10382 14.0205 1.23959 13.7749 1.48514C13.5459 1.71417 13.4125 2.01403 13.3948 2.33396V17.0283C13.4125 17.3495 13.5459 17.6493 13.7749 17.8772C14.0205 18.1227 14.3486 18.2585 14.6969 18.2585H36.3029C36.65 18.2585 36.9782 18.1227 37.2249 17.8772C37.4705 17.6316 37.605 17.3034 37.605 16.9563V15.9682V15.9706Z" fill="#FBFBFB"/>
<path d="M30.0901 45.8964H6.62237C6.34613 45.8964 6.12183 45.6721 6.12183 45.3959V30.0912C6.12183 29.8149 6.34613 29.5906 6.62237 29.5906H30.0913C30.3675 29.5906 30.5918 29.8149 30.5918 30.0912V45.3971C30.5906 45.6733 30.3663 45.8964 30.0901 45.8964Z" fill="#BE6450"/>
<path d="M7.12109 30.5906H29.5901V44.8966H7.12109V30.5906Z" fill="#C2ECFF"/>
<path d="M0.500544 49.9989C0.2243 49.9989 0 50.2232 0 50.4995C0 50.7757 0.2243 51 0.500544 51H50.4995C50.7757 51 51 50.7757 51 50.4995C51 50.2232 50.7757 49.9989 50.4995 49.9989H0.500544Z" fill="#676577"/>
<path fill-rule="evenodd" clip-rule="evenodd" d="M29.5901 30.5906H7.12109V44.8966H8.53773V31.9364H29.5901V30.5906Z" fill="#ADE5FF"/>
<path fill-rule="evenodd" clip-rule="evenodd" d="M43.0055 37.583H34.521V38.3267H42.1909V49.9989H43.0055V37.583Z" fill="#ADE5FF"/>
<path d="M6.62237 38.7742C6.34613 38.7742 6.12183 38.9985 6.12183 39.2747C6.12183 39.551 6.34613 39.7753 6.62237 39.7753H30.0913C30.3675 39.7753 30.5918 39.551 30.5918 39.2747C30.5918 38.9985 30.3675 38.7742 30.0913 38.7742H6.62237Z" fill="#BE6450"/>
<path d="M12.2235 38.7742H24.488V35.6929H12.2235V38.7742ZM24.9886 39.7741H11.723C11.4467 39.7741 11.2224 39.5498 11.2224 39.2736V35.1924C11.2224 34.9161 11.4467 34.6918 11.723 34.6918H24.9874C25.2636 34.6918 25.4879 34.9161 25.4879 35.1924V39.2736C25.4879 39.551 25.2648 39.7741 24.9886 39.7741Z" fill="#BE6450"/>
<path d="M27.7319 5.70446C28.7814 6.02203 29.6998 6.46474 30.3113 7.02315L33.9131 5.16377C33.9887 5.11773 34.0784 5.09058 34.174 5.09058C34.4503 5.09058 34.6746 5.31488 34.6746 5.59113V13.7653C34.6757 13.8444 34.658 13.9259 34.6191 14.0014C34.4928 14.247 34.1917 14.3438 33.9462 14.2175V14.2163L30.3762 12.3781C29.7352 12.8988 28.7625 13.332 27.6717 13.6508C26.32 14.0451 24.7711 14.2729 23.4619 14.2729C21.5388 14.2729 19.7869 13.7854 18.5108 12.9991C17.1638 12.168 16.3303 10.9969 16.3303 9.68294C16.3303 8.36898 17.1638 7.19787 18.5108 6.36676C19.7869 5.57933 21.5388 5.09294 23.4619 5.09294C24.8573 5.09176 26.4097 5.30426 27.7319 5.70446Z" fill="#AAE0FF"/>
<path d="M23.7138 14.2708C23.6277 14.2732 23.5438 14.2732 23.4588 14.2732C21.5358 14.2732 19.7839 13.7856 18.5077 12.9994C17.1607 12.1682 16.3273 10.9971 16.3273 9.68317C16.3273 8.36921 17.1607 7.1981 18.5077 6.36699C19.7839 5.57956 21.5358 5.09317 23.4588 5.09317C23.6088 5.09317 23.7599 5.09553 23.9122 5.10025C24.0161 5.2006 24.0833 5.27143 24.1034 5.29859C24.506 5.84282 25.1895 6.95963 25.3984 8.48373C25.6062 10.0007 25.3453 11.9168 23.8697 14.0571C23.852 14.0819 23.7977 14.1575 23.7138 14.2708Z" fill="#97D7FC"/>
<path d="M20.0317 9.74317C20.5513 9.74317 20.9726 9.32191 20.9726 8.80226C20.9726 8.28262 20.5513 7.86136 20.0317 7.86136C19.5121 7.86136 19.0908 8.28262 19.0908 8.80226C19.0908 9.32191 19.5121 9.74317 20.0317 9.74317Z" fill="#667188"/>
</svg>
