<svg width="20" height="26" viewBox="0 0 20 26" fill="none" xmlns="http://www.w3.org/2000/svg">
<path d="M3.04796 15.671C1.69626 14.7791 1.02041 14.3331 0.78548 13.7696C0.58012 13.2771 0.58012 12.7229 0.78548 12.2304C1.02041 11.6669 1.69626 11.2209 3.04796 10.329L15.0376 2.41791C16.6509 1.35345 17.4575 0.821218 18.1258 0.863356C18.7081 0.900066 19.2454 1.18923 19.5967 1.65505C20 2.18971 20 3.1561 20 5.08887V20.9111C20 22.8439 20 23.8103 19.5967 24.3449C19.2454 24.8108 18.7081 25.0999 18.1258 25.1366C17.4575 25.1788 16.6509 24.6465 15.0376 23.5821L3.04796 15.671Z" fill="white"/>
</svg>
