<svg width="20" height="26" viewBox="0 0 20 26" fill="none" xmlns="http://www.w3.org/2000/svg">
<path d="M16.952 15.671C18.3037 14.7791 18.9796 14.3331 19.2145 13.7696C19.4199 13.2771 19.4199 12.7229 19.2145 12.2304C18.9796 11.6669 18.3037 11.2209 16.952 10.329L4.96238 2.41791C3.34914 1.35345 2.54252 0.821218 1.87416 0.863356C1.29185 0.900066 0.754608 1.18923 0.403263 1.65505C0 2.18971 0 3.1561 0 5.08887V20.9111C0 22.8439 0 23.8103 0.403263 24.3449C0.754608 24.8108 1.29185 25.0999 1.87416 25.1366C2.54252 25.1788 3.34914 24.6465 4.96238 23.5821L16.952 15.671Z" fill="white"/>
</svg>
