<svg width="24" height="24" viewBox="0 0 24 24" fill="none" xmlns="http://www.w3.org/2000/svg">
<mask id="path-1-inside-1_1_20835" fill="white">
<path d="M0 12C0 5.37258 5.37258 0 12 0C18.6274 0 24 5.37258 24 12C24 18.6274 18.6274 24 12 24C5.37258 24 0 18.6274 0 12Z"/>
</mask>
<path d="M0 12C0 5.37258 5.37258 0 12 0C18.6274 0 24 5.37258 24 12C24 18.6274 18.6274 24 12 24C5.37258 24 0 18.6274 0 12Z" fill="#28BF55"/>
<path d="M0 0H24H0ZM24 14.5C24 21.1274 18.6274 26.5 12 26.5C5.37258 26.5 0 21.1274 0 14.5V12C0 17.2467 5.37258 21.5 12 21.5C18.6274 21.5 24 17.2467 24 12V14.5ZM0 24V0V24ZM24 0V24V0Z" fill="#1F9E43" mask="url(#path-1-inside-1_1_20835)"/>
<path fill-rule="evenodd" clip-rule="evenodd" d="M12.5 19C12.8978 19 13.2794 18.842 13.5607 18.5607C13.842 18.2794 14 17.8978 14 17.5C14 17.1022 13.842 16.7206 13.5607 16.4393C13.2794 16.158 12.8978 16 12.5 16C12.1022 16 11.7206 16.158 11.4393 16.4393C11.158 16.7206 11 17.1022 11 17.5C11 17.8978 11.158 18.2794 11.4393 18.5607C11.7206 18.842 12.1022 19 12.5 19Z" fill="white" fill-opacity="0.8"/>
<path d="M12.5 5V14" stroke="white" stroke-opacity="0.8" stroke-width="2.5" stroke-linecap="round" stroke-linejoin="round"/>
</svg>
