<svg width="35" height="35" viewBox="0 0 35 35" fill="none" xmlns="http://www.w3.org/2000/svg">
<path d="M17.5 0C7.8505 0 0 7.8505 0 17.5V24.7502C0 26.5422 1.56975 28 3.5 28H5.25C5.71413 28 6.15925 27.8156 6.48744 27.4874C6.81563 27.1593 7 26.7141 7 26.25V17.2498C7 16.7856 6.81563 16.3405 6.48744 16.0123C6.15925 15.6841 5.71413 15.4998 5.25 15.4998H3.661C4.634 8.72725 10.4615 3.5 17.5 3.5C24.5385 3.5 30.366 8.72725 31.339 15.4998H29.75C29.2859 15.4998 28.8407 15.6841 28.5126 16.0123C28.1844 16.3405 28 16.7856 28 17.2498V28C28 29.9303 26.4303 31.5 24.5 31.5H21V30.25C21 29.9739 20.7761 29.75 20.5 29.75H16C14.8954 29.75 14 30.6454 14 31.75V33C14 34.1046 14.8954 35 16 35H24.5C28.3605 35 31.5 31.8605 31.5 28C33.4302 28 35 26.5422 35 24.7502V17.5C35 7.8505 27.1495 0 17.5 0Z" fill="white"/>
</svg>
