<svg width="39" height="35" viewBox="0 0 39 35" fill="none" xmlns="http://www.w3.org/2000/svg">
<path d="M19.4734 23.3698L25.1469 29.7179C27.2469 32.0687 28.2987 33.245 29.3994 32.9573C30.4984 32.6715 30.8764 31.1249 31.6307 28.0301L35.8132 10.863C36.977 6.09592 37.558 3.71409 36.2665 2.53782C34.9749 1.36155 32.7367 2.23643 28.2602 3.98448L7.49457 12.1013C3.91405 13.5015 2.1238 14.2007 2.01005 15.4028C1.99665 15.5253 1.99665 15.6488 2.01005 15.7713C2.1203 16.9752 3.90706 17.6796 7.48407 19.09C9.10283 19.729 9.91308 20.0493 10.4941 20.6607C10.5594 20.7296 10.6224 20.8008 10.6831 20.8743C11.2186 21.5287 11.4461 22.3898 11.9028 24.1051L12.7586 27.3205C13.2013 28.9911 13.4236 29.8281 14.0064 29.9417C14.5891 30.0554 15.0949 29.3631 16.1081 27.9767L19.4734 23.3698ZM19.4734 23.3698L18.9186 22.8014C18.2851 22.1504 17.9684 21.8267 17.9684 21.4237C17.9684 21.0207 18.2834 20.6952 18.9186 20.0459L25.1714 13.6323" stroke="white" stroke-width="3.5" stroke-linecap="round" stroke-linejoin="round"/>
</svg>
