<svg width="28" height="28" viewBox="0 0 28 28" fill="none" xmlns="http://www.w3.org/2000/svg">
<path d="M23.1228 18.5137V23.3491C23.1228 23.8152 22.9331 24.2396 22.6265 24.5455C22.3201 24.8512 21.8967 25.0407 21.4297 25.0407H16.5798C15.6456 25.0407 14.8867 24.2833 14.8867 23.3492V18.5139C14.8867 18.0478 15.0764 17.6234 15.383 17.3175C15.6894 17.0116 16.1129 16.8223 16.5798 16.8223H21.4297C22.3638 16.8221 23.1228 17.5795 23.1228 18.5137Z" fill="#487220"/>
<path d="M23.1227 18.5137V23.3491C23.1227 23.8152 22.933 24.2396 22.6264 24.5455L15.3828 17.3175C15.6892 17.0116 16.1126 16.8223 16.5796 16.8223H21.4295C22.3637 16.8221 23.1227 17.5795 23.1227 18.5137Z" fill="#598E2B"/>
<path d="M3.57668 26.4306C2.50782 26.1731 2.28667 25.6581 2.28667 25.6581C2.28667 25.6581 1.7706 25.4375 1.51257 24.3709C1.25454 23.3044 1.69684 21.5388 3.57668 20.2516C4.32127 19.7411 5.08504 19.2143 5.73373 18.7612C6.85571 17.9829 7.90112 17.1017 8.85948 16.1277C9.27965 15.6996 9.77653 15.195 10.3324 14.6344C11.0165 13.94 11.7892 13.1602 12.6044 12.3408C13.3387 11.6023 14.1083 10.8285 14.8838 10.0546C15.652 9.28808 16.4259 8.5186 17.1749 7.78018C20.1649 4.829 22.7554 2.36172 23.0386 2.37644L24.5499 3.44299L25.6187 4.9509C25.6335 5.2334 23.161 7.81831 20.2033 10.8019C19.4631 11.5493 18.6935 12.3201 17.9239 13.0881C17.1484 13.862 16.3744 14.6284 15.6328 15.3625C14.8116 16.1762 14.0302 16.947 13.3342 17.6296C12.7725 18.1843 12.2667 18.6801 11.8377 19.0994C10.8616 20.0557 9.97851 21.0987 9.19851 22.2184C8.74441 22.8657 8.21654 23.6278 7.7049 24.3708C6.41474 26.2467 4.64554 26.688 3.57668 26.4306Z" fill="#684026"/>
<path d="M17.923 13.0882L14.8828 10.0546C15.651 9.28808 16.425 8.5186 17.174 7.78018L20.2023 10.802C19.4623 11.5494 18.6927 12.3204 17.923 13.0882Z" fill="#C17D49"/>
<path d="M17.925 13.0882C17.1494 13.8621 16.3755 14.6285 15.6338 15.3627L12.6055 12.3408C13.3397 11.6023 14.1094 10.8285 14.8848 10.0546L17.925 13.0882Z" fill="#A36333"/>
<path d="M15.6323 15.3628C14.8111 16.1765 14.0296 16.9473 13.3337 17.6299L10.3319 14.6346C11.016 13.9401 11.7886 13.1604 12.6039 12.341L15.6323 15.3628Z" fill="#C17D49"/>
<path d="M27.1678 18.286C25.8704 17.5798 23.1648 15.7158 18.5058 10.8727L17.7907 10.1886L17.1051 9.47504C12.2515 4.82606 10.3834 2.12632 9.67573 0.831735C9.45311 0.427194 9.79081 -0.0597861 10.2493 0.00645963C10.5531 0.0506235 10.8508 0.0975845 11.1413 0.146165C11.1413 0.146165 11.1413 0.146164 11.1428 0.147637C19.6117 1.57766 22.8553 5.13506 22.8553 5.13506C22.8553 5.13506 26.4204 8.37168 27.8535 16.8223C27.855 16.8238 27.855 16.8237 27.855 16.8237C27.9037 17.1136 27.9509 17.4107 27.995 17.7138C28.0612 18.1713 27.5732 18.5082 27.1678 18.286Z" fill="#D6D6D6"/>
<path d="M27.8551 16.8221C26.4161 15.9453 23.8197 13.993 19.687 9.69572L18.9719 9.01162L18.2864 8.29808C13.9798 4.17436 12.0232 1.58356 11.1445 0.147644C19.6134 1.57767 22.857 5.13507 22.857 5.13507C22.857 5.13507 26.422 8.37168 27.8551 16.8221Z" fill="#AAAAAA"/>
<path d="M27.7323 21.473V26.3084C27.7323 26.7745 27.5426 27.1989 27.236 27.5048C26.9295 27.8107 26.5062 28 26.0391 28H21.1892C20.255 28 19.4961 27.2426 19.4961 26.3085V21.4732C19.4961 21.0071 19.6858 20.5827 19.9924 20.2768C20.299 19.9709 20.7222 19.7816 21.1892 19.7816H26.0391C26.9734 19.7814 27.7323 20.5388 27.7323 21.473Z" fill="#598E2B"/>
<path d="M27.7321 21.473V26.3084C27.7321 26.7745 27.5424 27.1989 27.2358 27.5048L19.9922 20.2768C20.2988 19.9709 20.722 19.7816 21.189 19.7816H26.0389C26.9732 19.7814 27.7321 20.5388 27.7321 21.473Z" fill="#74B244"/>
<path d="M7.60874 11.2644V13.4174C7.60874 13.625 7.5242 13.8138 7.38774 13.95C7.25127 14.0862 7.06273 14.1705 6.85486 14.1705H4.69529C4.2794 14.1705 3.94141 13.8333 3.94141 13.4174V11.2644C3.94141 11.0568 4.02594 10.868 4.16241 10.7318C4.29888 10.5956 4.48742 10.5113 4.69529 10.5113H6.85486C7.27089 10.5113 7.60874 10.8485 7.60874 11.2644Z" fill="#74B244"/>
<path d="M7.61039 11.2644V13.4174C7.61039 13.625 7.52586 13.8138 7.38939 13.95L4.16406 10.7316C4.30053 10.5955 4.48907 10.5111 4.69695 10.5111H6.85651C7.27255 10.5113 7.61039 10.8485 7.61039 11.2644Z" fill="#93C666"/>
<path d="M16.2724 24.4377V26.7097C16.2724 26.9287 16.1833 27.128 16.0391 27.2717C15.895 27.4154 15.6963 27.5045 15.4767 27.5045H13.1978C12.7589 27.5045 12.4023 27.1487 12.4023 26.7097V24.4377C12.4023 24.2187 12.4915 24.0194 12.6356 23.8757C12.7796 23.732 12.9784 23.6429 13.198 23.6429H15.4769C15.9157 23.6429 16.2724 23.9989 16.2724 24.4377Z" fill="#74B244"/>
<path d="M16.2696 24.4377V26.7097C16.2696 26.9287 16.1805 27.1281 16.0364 27.2717L12.6328 23.8755C12.7768 23.7319 12.9757 23.6428 13.1952 23.6428H15.4741C15.9129 23.6429 16.2696 23.9989 16.2696 24.4377Z" fill="#93C666"/>
<path d="M5.24046 14.2034V17.28C5.24046 17.5765 5.11978 17.8466 4.92474 18.0412C4.72971 18.2358 4.46046 18.3562 4.16318 18.3562H1.07727C0.48287 18.3562 0 17.8744 0 17.28V14.2034C0 13.9069 0.120678 13.6367 0.315715 13.4421C0.510751 13.2475 0.779998 13.1271 1.07727 13.1271H4.16318C4.75759 13.1271 5.24046 13.6089 5.24046 14.2034Z" fill="#598E2B"/>
<path d="M5.24491 14.2034V17.28C5.24491 17.5765 5.12423 17.8466 4.92919 18.0412L0.320312 13.4421C0.515349 13.2475 0.784596 13.1271 1.08187 13.1271H4.16778C4.76204 13.1271 5.24491 13.6089 5.24491 14.2034Z" fill="#74B244"/>
</svg>
