<svg width="123" height="301" viewBox="0 0 123 301" fill="none" xmlns="http://www.w3.org/2000/svg">
<g filter="url(#filter0_d_123_835)">
<path d="M104.222 14.315C103.904 8.69506 100.448 5.23857 95.6057 2.36913C90.7634 -0.500315 84.4846 -0.785242 79.4023 1.63475C76.0034 3.25307 73.0285 6.01632 69.2946 6.49792C63.1466 7.29138 57.327 1.59437 51.2934 3.01675C47.7218 3.85881 45.0004 7.43197 45.138 11.0986C45.2749 14.7652 48.2557 18.1253 51.8797 18.6981C47.8534 19.2814 45.5747 24.3742 47.0629 28.1605C48.5519 31.9468 52.7772 34.1431 56.8446 34.2314C60.9121 34.3196 64.821 32.6594 68.3396 30.6178C71.8581 28.5755 75.1427 26.1196 78.8123 24.3637C82.4819 22.6078 86.7034 21.5818 90.6348 22.628C95.9571 24.0444 99.7285 29.0698 101.116 34.3997C102.505 39.7295 101.906 45.3592 101.08 50.8049C100.253 56.2506 99.2035 61.7427 99.721 67.2259C99.7823 67.8698 99.9252 68.6064 100.491 68.919C101.309 69.3699 102.246 68.5982 102.848 67.884C109.649 59.8216 114.844 50.4108 118.042 40.3599C119.9 34.5223 120.924 28.8402 118.694 23.135C116.465 17.4298 108.952 11.996 104.222 14.315Z" fill="#263238"/>
<path d="M109.407 41.4725L100.408 96.9903C98.7278 107.358 91.9906 117.375 75.7207 113.971C61.8274 109.953 62.8594 99.9585 64.6699 87.6364C64.6699 87.6364 49.3871 83.6609 50.7557 68.1194C51.4175 60.6089 54.0394 45.2499 56.5731 31.382C59.2937 16.4889 73.012 6.19193 88.0756 7.7063L89.5735 7.85661C105.628 10.4239 112.418 25.4943 109.407 41.4725Z" fill="#FFBF9D"/>
<path d="M64.6702 87.6363C64.6702 87.6363 74.3965 89.1941 85.4824 83.693C85.4824 83.693 79.3876 95.2396 64.039 92.2841L64.6702 87.6363Z" fill="#FF9A6C"/>
<path d="M61.839 46.9299C61.6797 48.0965 62.536 49.1928 63.752 49.3813C64.9649 49.569 66.0785 48.7793 66.2378 47.6126C66.3971 46.446 65.5408 45.3482 64.3278 45.1597C63.1126 44.9705 61.9983 45.7633 61.839 46.9299Z" fill="#263238"/>
<path d="M59.1422 39.335C59.3882 39.6513 61.192 38.5774 63.5776 38.8242C65.9632 39.0359 67.5905 40.4388 67.8784 40.1733C68.019 40.0567 67.7917 39.5063 67.085 38.8751C66.3902 38.2469 65.1645 37.5806 63.6778 37.4378C62.1911 37.2964 60.8862 37.7174 60.1114 38.2058C59.3202 38.6949 59.0196 39.1922 59.1422 39.335Z" fill="#263238"/>
<path d="M84.1884 48.359C84.0291 49.5256 84.8861 50.622 86.1006 50.8104C87.3128 50.9989 88.4271 50.2084 88.5864 49.0418C88.7457 47.8752 87.8887 46.7773 86.6757 46.5896C85.4612 46.3997 84.347 47.1924 84.1884 48.359Z" fill="#263238"/>
<path d="M82.5452 42.1379C82.7912 42.4549 84.598 41.3811 86.9813 41.6271C89.3662 41.8387 90.9942 43.2417 91.2829 42.9754C91.4227 42.8588 91.1976 42.3099 90.4879 41.678C89.7932 41.049 88.5675 40.3834 87.0815 40.2399C85.5948 40.0993 84.2899 40.5203 83.5144 41.0079C82.7261 41.497 82.424 41.995 82.5452 42.1379Z" fill="#263238"/>
<path d="M72.1094 58.9583C72.134 58.8236 70.6772 58.4183 68.3051 57.8694C67.7024 57.7453 67.1377 57.5665 67.0772 57.1403C66.9777 56.6856 67.2985 56.0544 67.665 55.3754C68.3859 53.959 69.1404 52.4745 69.9331 50.9183C73.0987 44.5662 75.4552 39.3179 75.1987 39.193C74.9414 39.0673 72.1669 44.1152 69.0021 50.4673C68.2356 52.0355 67.5042 53.5297 66.8065 54.9596C66.5066 55.6289 66.031 56.3745 66.2501 57.319C66.3682 57.7901 66.7818 58.1663 67.1617 58.3099C67.5401 58.4684 67.8826 58.5095 68.1817 58.5582C70.5883 58.9313 72.0869 59.0929 72.1094 58.9583Z" fill="#263238"/>
<path d="M82.8686 32.7273C83.0391 33.3996 85.4516 33.3315 88.2164 33.9507C90.9938 34.5139 93.1685 35.5601 93.5978 35.0157C93.7915 34.7539 93.4594 34.104 92.6099 33.3839C91.7686 32.666 90.3851 31.9248 88.7234 31.5696C87.0617 31.2174 85.4965 31.3288 84.4361 31.6414C83.3667 31.9525 82.799 32.4094 82.8686 32.7273Z" fill="#263238"/>
<path d="M60.7138 32.5201C61.0788 33.1042 62.7786 32.7071 64.7574 32.8791C66.7421 32.9815 68.3702 33.6097 68.8121 33.0817C69.0088 32.8237 68.8002 32.2546 68.1204 31.6683C67.4511 31.085 66.2882 30.5466 64.9264 30.4508C63.5639 30.3574 62.3381 30.7298 61.5948 31.2159C60.8402 31.702 60.5545 32.2367 60.7138 32.5201Z" fill="#263238"/>
<path d="M106.983 52.8389C107.259 52.7507 117.967 50.7569 116.56 61.3351C115.154 71.9139 104.824 68.3198 104.846 68.014C104.869 67.7081 106.983 52.8389 106.983 52.8389Z" fill="#FFBF9D"/>
<path d="M108.61 64.4357C108.662 64.4081 108.778 64.5898 109.07 64.7737C109.355 64.9532 109.865 65.1185 110.444 64.9854C111.616 64.7236 112.793 63.0739 113.097 61.1752C113.252 60.2157 113.172 59.2719 112.932 58.468C112.712 57.6514 112.284 57.0441 111.734 56.8691C111.192 56.6657 110.749 56.9491 110.58 57.2296C110.399 57.5063 110.437 57.7261 110.379 57.7374C110.346 57.7598 110.176 57.5302 110.319 57.1039C110.391 56.8998 110.548 56.6665 110.823 56.4967C111.104 56.3239 111.492 56.2686 111.878 56.3628C112.687 56.5281 113.321 57.3754 113.586 58.2586C113.895 59.1515 114.007 60.2149 113.833 61.2926C113.482 63.4149 112.125 65.2643 110.538 65.5036C109.767 65.5986 109.177 65.292 108.889 64.9996C108.595 64.6937 108.572 64.4499 108.61 64.4357Z" fill="#FF9A6C"/>
<path d="M57.8399 16.9069C59.5285 13.9956 62.2364 11.8044 65.1118 10.0545C71.3106 6.2839 78.6581 4.28568 85.8874 4.9004C93.1168 5.51512 100.17 8.83775 104.887 14.35C108.661 18.7608 110.848 24.4099 111.546 30.1727C112.245 35.9356 111.509 41.8135 109.918 47.3969C109.22 49.8475 108.279 52.37 106.344 54.0272C105.134 55.0622 103.179 55.6276 102.02 54.5357C101.338 53.8926 101.166 52.8905 101.03 51.9632C99.8114 43.5687 98.6821 34.5603 102.474 26.9735C100.712 24.1243 98.5961 21.4253 95.8404 19.5206C93.0846 17.6158 89.6146 16.5719 86.3309 17.2322C81.4528 18.2134 78.0763 22.5224 73.9782 25.3447C68.1211 29.3785 60.2651 30.3358 53.6109 27.8283L57.8399 16.9069Z" fill="#263238"/>
<path d="M70.0096 65.4041C70.1801 66.4002 70.3566 67.4121 70.8023 68.3192C71.248 69.2263 72.0093 70.0302 72.9882 70.2837C74.0307 70.5545 75.1764 70.1432 75.9466 69.3916C76.7177 68.6393 77.1454 67.5893 77.3189 66.5266C77.4752 65.5656 77.277 64.3377 76.3542 64.0274C75.9698 63.898 75.5503 63.969 75.1517 64.0416C73.3531 64.3669 71.5538 64.6922 69.7553 65.0182" fill="#FF9A6C"/>
<path d="M71.1393 69.912C71.1976 69.7609 72.1967 70.4332 73.8607 70.1393C74.6661 69.9957 75.6046 69.5739 76.2478 68.7364C76.8879 67.9108 77.2379 66.6836 76.9941 65.496C76.9418 65.2006 76.8296 64.9172 76.7159 64.6614C76.5619 64.4131 76.5963 64.4303 76.3749 64.4169C76.161 64.4288 75.8013 64.5148 75.5126 64.5627C75.212 64.6173 74.9159 64.6719 74.6257 64.7242C73.471 64.9321 72.4278 65.1071 71.5499 65.241C69.794 65.5087 68.6954 65.6127 68.6707 65.49C68.646 65.3674 69.6997 65.0406 71.4242 64.6121C72.2865 64.3974 73.3155 64.1574 74.4612 63.9046C74.7491 63.8418 75.043 63.7775 75.3421 63.7124C75.6577 63.6541 75.906 63.5703 76.3285 63.5284C76.5342 63.5142 76.8161 63.5412 77.0622 63.7042C77.3022 63.8657 77.4294 64.0781 77.5198 64.2524C77.6799 64.5949 77.813 64.9404 77.8818 65.3128C78.1824 66.795 77.7262 68.2705 76.8976 69.2606C76.0511 70.2724 74.8807 70.6964 73.9459 70.7735C72.9939 70.8617 72.2364 70.6344 71.7735 70.4063C71.3061 70.1737 71.1101 69.9568 71.1393 69.912Z" fill="#263238"/>
<path d="M47.7487 5.17711C47.7255 5.17113 47.6545 5.40894 47.5393 5.87335C47.466 6.34149 47.3553 7.05044 47.4698 7.95981C47.6425 9.74938 48.6872 12.4221 51.3076 14.4585C53.9101 16.5233 58.0255 17.3541 62.2649 16.7065C66.5612 16.1187 70.8531 14.0547 75.3438 12.2068C79.8129 10.3574 84.4375 9.11073 88.567 9.86754C92.6936 10.5675 95.8943 12.9419 97.998 15.2639C100.135 17.6129 101.331 19.9454 102.029 21.5749C102.706 23.2246 102.941 24.1923 103.011 24.1736C103.034 24.1676 102.988 23.9238 102.879 23.4624C102.786 22.9958 102.572 22.3302 102.28 21.4754C101.65 19.7943 100.505 17.3848 98.3629 14.9364C96.2563 12.5194 92.9867 10.0089 88.677 9.2386C84.3612 8.41524 79.5893 9.70151 75.0843 11.5651C70.5569 13.4317 66.3339 15.4741 62.1722 16.0753C58.0561 16.7379 54.1098 15.9796 51.6031 14.0689C49.0642 12.1746 47.9828 9.64244 47.7367 7.92541C47.4698 6.16575 47.8399 5.18683 47.7487 5.17711Z" fill="#455A64"/>
<path d="M117.211 37.4028C117.285 37.396 117.283 36.2503 116.797 34.4795C116.332 32.7131 115.323 30.3282 113.587 28.1094C112.73 26.9951 111.77 26.0521 110.835 25.2736C109.898 24.4944 108.883 23.9238 107.933 23.751C106.985 23.5723 106.194 23.7607 105.724 24.0001C105.248 24.2453 105.073 24.4914 105.099 24.5205C105.129 24.6245 106.113 23.7914 107.826 24.2289C109.489 24.6544 111.358 26.4432 113.041 28.5349C114.714 30.6737 115.757 32.9367 116.329 34.6238C116.921 36.3109 117.095 37.4207 117.211 37.4028Z" fill="#455A64"/>
<path d="M114.406 46.5609C114.48 46.5489 114.384 45.4039 113.806 43.648C113.235 41.8966 112.09 39.5641 110.277 37.3879C108.455 35.2169 106.361 33.6779 104.739 32.8059C103.113 31.9257 102.004 31.6288 101.979 31.6991C101.935 31.8068 102.969 32.2622 104.49 33.227C106.012 34.1857 107.983 35.7315 109.747 37.8321C111.501 39.9388 112.674 42.1516 113.348 43.8193C114.027 45.487 114.293 46.5855 114.406 46.5609Z" fill="#455A64"/>
<path d="M57.415 106.467C57.415 106.467 46.0704 121.101 43.343 126.599C40.6157 132.097 21.0531 192.83 21.0531 192.83L29.5373 196.396L57.415 106.467Z" fill="#455A64"/>
<path d="M103.061 92.7688V85.4341L61.8406 98.836L50.7958 116.511L42.2855 141.196L66.1474 105.336L103.061 92.7688Z" fill="#EBEBEB"/>
<path d="M105.509 99.8187C105.509 99.8187 122.998 120.74 122.62 134.34C122.247 147.733 104.083 229.121 104.083 229.121L108.48 243.666L113.241 292.142H14.1577L21.0527 192.83C22.1535 192.765 42.7766 135.913 42.7766 135.913L65.8241 103.908L103.78 90.2322L105.509 99.8187Z" fill="#455A64"/>
<path d="M30.0029 169.176C30.0029 169.176 23.0728 168.901 19.454 170.517C15.8352 172.132 12.7728 171.324 10.213 176.332C7.65314 181.339 4.66405 183.601 4.03437 191.194C3.4047 198.786 11.6047 216.366 17.019 218.837C22.4326 221.307 30.0029 169.176 30.0029 169.176Z" fill="#455A64"/>
<g opacity="0.3">
<path d="M107.515 168.486C107.515 168.486 67.0052 206.51 61.8503 210.146C56.6963 213.783 55.9342 236.78 49.5858 237.216C43.2375 237.652 22.6698 222.44 22.6698 222.44L83.6116 165.03L107.515 168.486Z" fill="black"/>
</g>
<path d="M50.4681 202.532C50.4681 202.532 59.2775 213.807 60.2871 216.633C61.2959 219.458 62.2756 221.337 61.1995 222.279C60.1233 223.221 59.1878 223.334 58.1109 222.924C56.6743 222.378 49.5946 213.034 49.5946 213.034C49.5946 213.034 58.9866 226.431 59.4136 228.742C59.8436 231.066 58.001 232.173 55.848 231.769C53.695 231.365 49.5946 225.311 49.5946 225.311C49.5946 225.311 55.406 232.038 54.1803 233.182C52.9553 234.325 51.5419 234.46 49.9274 233.653C48.3128 232.846 44.2094 227.531 44.2094 227.531C44.2094 227.531 47.0347 230.558 45.4875 231.299C43.9402 232.039 43.8056 232.12 42.4602 231.003C41.1149 229.886 29.2378 218.259 29.2378 218.259L36.7415 213.135L50.4681 202.532Z" fill="#FFBF9D"/>
<path d="M46.8558 209.421C46.8131 209.457 47.3583 210.166 48.2378 211.31C49.189 212.549 50.3691 214.085 51.6741 215.784C53.0239 217.528 54.2877 219.078 55.2397 220.167C56.191 221.257 56.8199 221.895 56.8581 221.862C56.9007 221.824 56.3458 221.124 55.4514 219.991C54.4904 218.76 53.2991 217.234 51.9814 215.546C50.6323 213.804 49.3902 212.239 48.4516 211.137C47.5154 210.034 46.8947 209.388 46.8558 209.421Z" fill="#FF9A6C"/>
<path d="M40.6166 214.823C40.5343 214.893 42.6372 217.51 45.313 220.668C47.9895 223.828 50.2247 226.331 50.3063 226.262C50.3885 226.192 48.2856 223.576 45.6099 220.417C42.9349 217.258 40.6988 214.754 40.6166 214.823Z" fill="#FF9A6C"/>
<path d="M35.6135 218.208C35.5343 218.28 37.7381 220.816 40.5358 223.872C43.3342 226.928 45.666 229.346 45.746 229.273C45.8252 229.201 43.6221 226.665 40.8237 223.609C38.0253 220.554 35.6928 218.135 35.6135 218.208Z" fill="#FF9A6C"/>
<path d="M100.149 112.842C94.4606 111.635 87.2312 111.132 81.7324 114.251L51.6732 141.366C51.6732 141.366 9.30981 188.894 7.64663 191.543C5.9827 194.191 3.75115 209.833 10.1706 217.804C16.59 225.774 23.7946 222.709 32.0328 220.831C38.5524 219.345 84.1016 185.876 102.826 171.974C109.301 167.167 114.054 160.359 116.135 152.567C117.382 147.896 118.207 142.479 117.642 137.114" fill="#455A64"/>
<path d="M117.642 137.115C117.642 137.115 117.652 137.38 117.691 137.895C117.728 138.411 117.767 139.179 117.78 140.187C117.791 142.2 117.644 145.185 116.897 148.942C116.515 150.816 116.024 152.892 115.253 155.087C114.489 157.283 113.397 159.577 111.975 161.888C110.537 164.187 108.742 166.494 106.534 168.639C104.358 170.822 101.649 172.656 98.9057 174.708C87.8721 182.836 74.7147 192.493 59.8993 202.922C56.1923 205.524 52.3784 208.17 48.4485 210.823C44.5126 213.463 40.4848 216.159 36.2289 218.625C35.158 219.222 34.0796 219.837 32.9488 220.307C32.3924 220.553 31.8114 220.691 31.1914 220.833L29.366 221.277C26.934 221.879 24.4833 222.503 21.9676 222.74C19.4721 222.955 16.8479 222.679 14.6306 221.403C12.4125 220.178 10.5489 218.265 9.20582 216.073C7.04682 212.334 6.25114 207.991 6.1068 203.783C6.02978 201.668 6.10979 199.557 6.36629 197.484C6.49342 196.446 6.66319 195.419 6.88007 194.406C7.13956 193.417 7.35045 192.371 7.88814 191.544C9.11833 189.927 10.5018 188.369 11.8173 186.818C13.1536 185.274 14.4803 183.743 15.7958 182.223C18.4453 179.2 21.0508 176.226 23.6076 173.308C33.8941 161.686 43.3976 150.95 51.7891 141.47L51.7771 141.482C64.2009 130.24 74.4447 120.972 81.7944 114.321L81.778 114.333C84.4448 112.835 87.1647 112.31 89.4762 112.086C91.8057 111.883 93.7852 111.995 95.3662 112.139C96.9493 112.292 98.1429 112.494 98.9423 112.63C99.3357 112.701 99.6341 112.757 99.8435 112.795C100.045 112.831 100.148 112.844 100.148 112.844C100.148 112.844 99.7462 112.743 98.9505 112.581C98.1533 112.429 96.9605 112.212 95.3751 112.043C93.7912 111.883 91.8057 111.754 89.4627 111.944C87.137 112.155 84.3932 112.667 81.6853 114.172L81.677 114.176L81.6688 114.184C74.2989 120.812 64.0266 130.049 51.5684 141.253L51.5625 141.258L51.5565 141.265C43.1276 150.712 33.595 161.422 23.3287 173.064C20.7689 175.981 18.1612 178.954 15.5086 181.976C14.1916 183.495 12.8635 185.027 11.5256 186.57C10.1997 188.134 8.84313 189.652 7.56358 191.336C7.40205 191.544 7.31081 191.812 7.18294 192.049C7.07824 192.296 7.00495 192.548 6.91521 192.798C6.74471 193.299 6.63328 193.812 6.5024 194.322C6.28179 195.351 6.10979 196.39 5.98117 197.438C5.72167 199.533 5.64014 201.662 5.71716 203.798C5.86374 208.047 6.65944 212.445 8.87004 216.275C10.255 218.531 12.1418 220.471 14.4422 221.746C16.7373 223.066 19.4594 223.35 21.999 223.128C24.5596 222.886 27.0267 222.255 29.4565 221.653L31.2774 221.21C31.8727 221.075 32.5106 220.922 33.0924 220.665C34.2591 220.18 35.3367 219.562 36.4166 218.96C40.6912 216.479 44.7168 213.78 48.6549 211.135C52.5855 208.477 56.398 205.826 60.1042 203.219C74.9129 192.77 88.0538 183.091 99.0679 174.933C101.801 172.878 104.517 171.027 106.706 168.818C108.922 166.653 110.721 164.325 112.159 162.006C113.581 159.675 114.669 157.363 115.427 155.151C116.193 152.94 116.673 150.855 117.045 148.974C117.772 145.202 117.895 142.205 117.857 140.188C117.809 138.165 117.642 137.115 117.642 137.115Z" fill="#263238"/>
<path d="M41.4354 139.397C41.4391 139.402 41.4974 139.365 41.6066 139.287C41.7322 139.194 41.89 139.077 42.0845 138.933C42.4943 138.607 43.1337 138.169 43.8838 137.516C45.428 136.26 47.5482 134.308 50.0833 131.816C52.62 129.325 55.55 126.271 58.8808 122.963C60.559 121.324 62.3194 119.6 64.2406 117.922C66.1513 116.236 68.1921 114.55 70.4476 113.069C71.3555 112.412 72.3441 111.91 73.2677 111.348L73.3963 111.27L73.3657 111.133C73.2101 110.452 73.0575 109.781 72.9072 109.123L72.7764 109.349C81.9029 106.476 89.9721 103.936 95.7932 102.103C98.6634 101.182 100.978 100.439 102.606 99.9175C103.382 99.6609 103.993 99.4583 104.437 99.311C104.628 99.2437 104.783 99.1898 104.909 99.1449C105.015 99.1053 105.068 99.0829 105.066 99.0769C105.064 99.0709 105.008 99.0821 104.899 99.1098C104.77 99.1449 104.612 99.1883 104.417 99.2414C103.966 99.373 103.349 99.554 102.565 99.7836C100.928 100.279 98.6021 100.984 95.717 101.858C89.8861 103.66 81.8035 106.157 72.6619 108.98L72.4914 109.033L72.5311 109.207C72.6799 109.865 72.8324 110.537 72.9872 111.219L73.0845 111.005C72.1504 111.572 71.1476 112.081 70.2322 112.744C67.9543 114.24 65.9045 115.938 63.9886 117.635C62.0614 119.324 60.3025 121.058 58.6281 122.708C55.3062 126.035 52.3979 129.107 49.8889 131.62C47.3821 134.134 45.2957 136.11 43.7858 137.399C43.0522 138.069 42.43 138.525 42.0358 138.87C41.8504 139.027 41.7008 139.153 41.5819 139.255C41.481 139.344 41.4309 139.392 41.4354 139.397Z" fill="#263238"/>
<path d="M26.5593 170.01C26.5742 170.059 26.8868 169.482 27.4043 168.48C27.9383 167.42 28.6719 165.963 29.5693 164.183C31.3783 160.546 33.8484 155.507 36.5519 149.93C39.256 144.351 41.6812 139.29 43.4162 135.617C44.2598 133.811 44.9493 132.334 45.4518 131.258C45.6702 130.771 45.8474 130.375 45.9865 130.064C46.1047 129.789 46.1608 129.642 46.1488 129.636C46.1368 129.63 46.0568 129.766 45.9155 130.03C45.7592 130.333 45.5603 130.718 45.315 131.193C44.7855 132.254 44.0579 133.714 43.1679 135.498C41.3649 139.188 38.912 144.211 36.2011 149.761C33.5246 155.325 31.1016 160.361 29.3218 164.063C28.4715 165.865 27.7752 167.34 27.269 168.414C26.7926 169.436 26.5264 170.034 26.5593 170.01Z" fill="#263238"/>
<path d="M96.584 252.05C96.5803 252.046 96.489 252.049 96.314 252.06C96.1226 252.074 95.8676 252.092 95.5423 252.116C94.8483 252.173 93.8567 252.254 92.5838 252.358C90.0001 252.581 86.2803 252.901 81.6497 253.3C72.3721 254.129 59.451 255.282 44.7882 256.592L44.9924 256.83C45.7574 253.744 46.5576 250.516 47.3735 247.227C47.7466 245.72 48.1161 244.226 48.4773 242.767L48.3113 242.913C64.7853 241.002 79.4212 239.303 89.5865 238.124L89.4594 238.059C91.8831 242.354 93.7512 245.82 94.9702 248.23C95.5782 249.436 96.0231 250.38 96.2871 251.031C96.4202 251.356 96.5077 251.61 96.5466 251.783C96.5952 251.959 96.5728 252.041 96.584 252.05C96.6117 252.063 96.6229 251.661 96.3552 251.006C96.1114 250.342 95.6858 249.387 95.0966 248.169C93.9142 245.735 92.0813 242.249 89.6852 237.933L89.6441 237.859L89.5581 237.868C79.3883 239.016 64.7472 240.668 48.2679 242.528L48.134 242.543L48.1019 242.675C47.7407 244.132 47.3705 245.626 46.9965 247.133C46.1822 250.423 45.3842 253.651 44.6207 256.737L44.5556 257L44.8248 256.975C59.5243 255.6 72.4783 254.389 81.7791 253.519C86.391 253.073 90.0958 252.715 92.6691 252.466C93.9247 252.339 94.9029 252.24 95.5879 252.17C95.9042 252.135 96.1525 252.107 96.338 252.087C96.504 252.067 96.5877 252.055 96.584 252.05Z" fill="#263238"/>
<g opacity="0.3">
<path d="M95.2412 252.173L93.4711 256.784L44.8065 259.687V256.784L95.2412 252.173Z" fill="black"/>
</g>
</g>
<defs>
<filter id="filter0_d_123_835" x="0" y="0" width="126.626" height="300.142" filterUnits="userSpaceOnUse" color-interpolation-filters="sRGB">
<feFlood flood-opacity="0" result="BackgroundImageFix"/>
<feColorMatrix in="SourceAlpha" type="matrix" values="0 0 0 0 0 0 0 0 0 0 0 0 0 0 0 0 0 0 127 0" result="hardAlpha"/>
<feOffset dy="4"/>
<feGaussianBlur stdDeviation="2"/>
<feComposite in2="hardAlpha" operator="out"/>
<feColorMatrix type="matrix" values="0 0 0 0 0 0 0 0 0 0 0 0 0 0 0 0 0 0 0.25 0"/>
<feBlend mode="normal" in2="BackgroundImageFix" result="effect1_dropShadow_123_835"/>
<feBlend mode="normal" in="SourceGraphic" in2="effect1_dropShadow_123_835" result="shape"/>
</filter>
</defs>
</svg>
