<svg width="263" height="226" viewBox="0 0 263 226" fill="none" xmlns="http://www.w3.org/2000/svg">
<circle cx="129.329" cy="111.983" r="79.5121" fill="white"/>
<path d="M132.244 87.535L110.584 77.7459V122.002C110.584 122.002 118.967 131.059 132.244 131.059C147.929 131.059 153.897 122.719 153.897 122.719V84.2743L132.244 87.535Z" fill="#F0C090"/>
<path d="M153.897 94.9771C153.897 94.9771 143.554 103.577 110.584 119.733L110.653 90.8001L153.897 94.9771Z" fill="#D7A374"/>
<path d="M132.245 120.292V136.749L126.748 138.529L118.86 126.423C118.86 126.423 126.277 120.732 132.245 120.292Z" fill="#2648A2"/>
<path d="M110.61 109.205L106.446 111.122L116.387 141.881L132.247 120.289C132.247 120.289 123.353 119.077 110.61 109.205Z" fill="#DEDEDE"/>
<path d="M98.3022 54.3924C98.3022 54.3924 103.429 90.1825 104.497 91.9139C105.561 93.643 125.599 103.508 132.245 103.074V16.5012C132.245 16.5012 90.2637 0.769309 98.3022 54.3924Z" fill="#F0C090"/>
<path d="M166.182 54.3924C166.182 54.3924 161.055 90.1825 159.985 91.9139C158.921 93.643 138.888 103.508 132.242 103.074V16.5012C132.242 16.5012 171.727 8.97398 166.182 54.3924Z" fill="#F0C090"/>
<path d="M160.192 75.6218C160.192 75.6218 166.066 77.5943 169.685 67.1691C173.839 55.171 170.966 49.7747 167.196 50.1237C165.915 50.2431 164.871 50.4682 164.028 50.9022C161.504 52.2156 160.783 54.7278 160.783 54.7278L160.192 75.6218Z" fill="#F0C090"/>
<path d="M104.293 75.6218C104.293 75.6218 98.4198 77.5943 94.8004 67.1691C90.641 55.171 93.5167 49.7747 97.2838 50.1237C98.565 50.2431 99.6144 50.4682 100.455 50.9022C102.979 52.2156 103.702 54.7278 103.702 54.7278L104.293 75.6218Z" fill="#F0C090"/>
<path d="M94.5531 22.2191C91.6443 29.4111 97.6325 50.8218 97.6325 50.8218L101.542 56.2801L100.618 44.2705C100.618 44.2705 108.975 27.9553 106.695 21.9183L101.397 15.0317C101.397 15.0317 95.4929 19.8769 94.5531 22.2191Z" fill="#3C1F13"/>
<path d="M169.931 22.2191C172.837 29.4111 166.849 50.8218 166.849 50.8218L162.937 56.2801L163.861 44.2705C163.861 44.2705 155.505 27.9553 157.782 21.9183L163.079 15.0317C163.079 15.0317 168.991 19.8769 169.931 22.2191Z" fill="#3C1F13"/>
<path d="M132.245 6.38298e-05C122.184 -0.0183065 107.653 4.11273 101.4 15.0316L106.698 21.9182C106.698 21.9182 120.903 28.7658 132.627 29.5488C139.983 30.0402 151.761 30.3617 160.709 23.9711L163.085 15.0293C163.085 15.0293 155.831 0.0413972 132.245 6.38298e-05Z" fill="#3C1F13"/>
<path d="M132.244 120.292V136.749L137.741 138.529L145.629 126.423C145.629 126.423 138.204 120.732 132.244 120.292Z" fill="#2648A2"/>
<path d="M153.898 108.884L158.521 111.511L148.549 141.666L132.242 120.292C132.242 120.292 141.157 118.753 153.898 108.884Z" fill="#E6E6E6"/>
<path d="M92.7879 144.1L97.3523 138.18L99.6344 135.213L91.3361 122.905L88.2413 118.319L88.1878 118.237C88.1878 118.237 55.8221 131.571 55.7712 131.619C53.4635 133.883 49.2812 154.029 46.4871 171.513H115.875L92.7879 144.1Z" fill="#3B556C"/>
<path d="M171.692 144.1L148.605 171.513H218C215.198 154.029 211.021 133.883 208.714 131.619C208.663 131.571 176.299 118.237 176.299 118.237L164.853 135.213L171.692 144.1Z" fill="#60768E"/>
<path d="M132.245 191.079V136.747L126.748 138.527C126.748 138.527 123.216 152.943 122.344 160.309L125.964 171.511L132.245 191.079Z" fill="#2648A2"/>
<path d="M132.244 190.662L142.142 160.309C141.274 152.945 137.741 138.527 137.741 138.527L132.244 136.747V171.511V190.662Z" fill="#2648A2"/>
<path d="M99.6373 135.211L97.3526 138.178L92.7933 144.1L115.877 171.511L134.741 197.323L122.342 160.309L110.129 122.524L106.443 111.123L88.1907 118.234L91.3389 122.905L99.6373 135.211Z" fill="#597D90"/>
<path d="M171.691 144.1L164.85 135.211L176.299 118.234L158.52 111.511L154.881 122.508L143.258 157.643L130.162 198.572L148.605 171.511L171.691 144.1Z" fill="#3D5B73"/>
<path d="M133.909 196.074H58.1431L46.4869 171.513H116.008L133.909 196.074Z" fill="#3B556C"/>
<path d="M132.66 194.825L148.612 171.513H218V194.825H132.66Z" fill="#60768E"/>
<path d="M132.244 87.535L110.584 77.7459V122.002C110.584 122.002 118.966 131.059 132.244 131.059C147.929 131.059 153.897 122.719 153.897 122.719V84.2743L132.244 87.535Z" fill="#F0C090"/>
<path d="M153.897 94.9771C153.897 94.9771 143.553 103.577 110.584 119.733L110.653 90.8001L153.897 94.9771Z" fill="#D7A374"/>
<path d="M132.245 120.292V136.749L126.748 138.529L118.86 126.423C118.86 126.423 126.277 120.732 132.245 120.292Z" fill="#2648A2"/>
<path d="M110.61 109.205L106.445 111.122L116.387 141.881L132.247 120.289C132.247 120.289 123.353 119.077 110.61 109.205Z" fill="#DEDEDE"/>
<path d="M98.3022 54.3924C98.3022 54.3924 103.429 90.1825 104.497 91.9139C105.561 93.643 125.599 103.508 132.245 103.074V16.5012C132.245 16.5012 90.2637 0.769309 98.3022 54.3924Z" fill="#F0C090"/>
<path d="M166.182 54.3924C166.182 54.3924 161.055 90.1825 159.985 91.9139C158.921 93.643 138.888 103.508 132.242 103.074V16.5012C132.242 16.5012 171.727 8.97398 166.182 54.3924Z" fill="#F0C090"/>
<path d="M160.192 75.6218C160.192 75.6218 166.066 77.5943 169.685 67.1691C173.839 55.171 170.966 49.7747 167.196 50.1237C165.915 50.2431 164.871 50.4682 164.028 50.9022C161.504 52.2156 160.783 54.7278 160.783 54.7278L160.192 75.6218Z" fill="#F0C090"/>
<path d="M104.293 75.6218C104.293 75.6218 98.4198 77.5943 94.8004 67.1691C90.641 55.171 93.5167 49.7747 97.2838 50.1237C98.565 50.2431 99.6144 50.4682 100.455 50.9022C102.979 52.2156 103.702 54.7278 103.702 54.7278L104.293 75.6218Z" fill="#F0C090"/>
<path d="M94.5531 22.2191C91.6443 29.4111 97.6325 50.8218 97.6325 50.8218L101.542 56.2801L100.618 44.2705C100.618 44.2705 108.975 27.9553 106.695 21.9183L101.397 15.0317C101.397 15.0317 95.4929 19.8769 94.5531 22.2191Z" fill="#3C1F13"/>
<path d="M169.931 22.2191C172.837 29.4111 166.849 50.8218 166.849 50.8218L162.937 56.2801L163.861 44.2705C163.861 44.2705 155.505 27.9553 157.782 21.9183L163.079 15.0317C163.079 15.0317 168.991 19.8769 169.931 22.2191Z" fill="#3C1F13"/>
<path d="M132.245 6.38298e-05C122.184 -0.0183065 107.653 4.11273 101.4 15.0316L106.698 21.9182C106.698 21.9182 120.903 28.7658 132.627 29.5488C139.983 30.0402 151.761 30.3617 160.709 23.9711L163.085 15.0293C163.085 15.0293 155.831 0.0413972 132.245 6.38298e-05Z" fill="#3C1F13"/>
<path d="M132.244 120.292V136.749L137.741 138.529L145.629 126.423C145.629 126.423 138.204 120.732 132.244 120.292Z" fill="#2648A2"/>
<path d="M153.898 108.884L158.521 111.511L148.549 141.666L132.242 120.292C132.242 120.292 141.157 118.753 153.898 108.884Z" fill="#E6E6E6"/>
<path d="M132.245 191.079V136.747L126.748 138.527C126.748 138.527 123.216 152.943 122.345 160.309L125.964 171.511L132.245 191.079Z" fill="#2648A2"/>
<path d="M132.244 190.662L142.142 160.309C141.274 152.945 137.741 138.527 137.741 138.527L132.244 136.747V171.511V190.662Z" fill="#2648A2"/>
<g opacity="0.2">
<path d="M71 212.763L11.9107 225.107L28.2033 204.218L8 191.162L60.5718 178.107L71 212.763Z" fill="black"/>
<path d="M200 212.763L259.09 225.107L242.796 204.218L263 191.162L210.427 178.107L200 212.763Z" fill="black"/>
<path d="M223.345 204.242L199.823 212.777V202.8C199.823 202.8 214.763 202.582 223.345 204.242Z" fill="black"/>
<path d="M47.2567 204.242L70.7778 212.777V202.8C70.7778 202.8 55.8386 202.582 47.2567 204.242Z" fill="black"/>
<path d="M223.345 204.242V160.141C223.345 160.141 147.378 150.894 47.2567 160.141V204.242C47.2567 204.242 141.976 198.076 223.345 204.242Z" fill="black"/>
<path opacity="0.08" d="M47.2567 160.14V175.548C47.2567 175.548 78.6022 152.786 223.345 164.878V160.14C223.345 160.14 138.359 151.134 47.2567 160.14Z" fill="black"/>
<path opacity="0.08" d="M47.2567 193.806V204.242C47.2567 204.242 158.224 198.08 223.345 204.242V194.755C223.345 194.755 108.004 202.105 47.2567 193.806Z" fill="black"/>
<path opacity="0.08" d="M19.6069 215.519L12 225.107L71 212.99L65.4835 210.107L19.6069 215.519Z" fill="black"/>
<path opacity="0.08" d="M8 190.826L14.7519 196.107L47 184.616V179.107L8 190.826Z" fill="black"/>
<path opacity="0.08" d="M249.65 215.519L257 225.107L200 212.99L205.328 210.107L249.65 215.519Z" fill="black"/>
<path opacity="0.08" d="M246 190.826L242.018 196.107L223 184.616V179.107L246 190.826Z" fill="black"/>
</g>
<path d="M64 207.763L3.97278 220.107L20.524 199.218L0 186.162L53.4063 173.107L64 207.763Z" fill="#E16B6B"/>
<path d="M193 207.763L253.028 220.107L236.476 199.218L257 186.162L203.593 173.107L193 207.763Z" fill="#E16B6B"/>
<path d="M216.743 199.317L193.222 207.853V197.876C193.222 197.876 208.161 197.658 216.743 199.317Z" fill="#BA4545"/>
<path d="M40.6553 199.317L64.1763 207.853V197.876C64.1763 197.876 49.2372 197.658 40.6553 199.317Z" fill="#BA4545"/>
<path d="M216.743 199.317V155.217C216.743 155.217 140.777 145.97 40.6553 155.217V199.317C40.6553 199.317 135.375 193.152 216.743 199.317Z" fill="#F27272"/>
<path opacity="0.08" d="M40.6553 155.215V170.624C40.6553 170.624 72.0007 147.862 216.743 159.954V155.215C216.743 155.215 131.757 146.21 40.6553 155.215Z" fill="white"/>
<path opacity="0.08" d="M40.6553 188.881V199.317C40.6553 199.317 151.623 193.156 216.743 199.317V189.83C216.743 189.83 101.402 197.18 40.6553 188.881Z" fill="#141414"/>
<path opacity="0.08" d="M11.7358 210.519L4 220.107L64 207.99L58.39 205.107L11.7358 210.519Z" fill="#141414"/>
<path opacity="0.08" d="M0 186.137L7.09812 191.107L41 180.292V175.107L0 186.137Z" fill="white"/>
<path opacity="0.08" d="M245.263 210.519L253 220.107L193 207.99L198.609 205.107L245.263 210.519Z" fill="#141414"/>
<path opacity="0.08" d="M257 186.137L250.075 191.107L217 180.292V175.107L257 186.137Z" fill="white"/>
</svg>
