<svg width="263" height="226" viewBox="0 0 263 226" fill="none" xmlns="http://www.w3.org/2000/svg">
<circle cx="129.329" cy="112.876" r="79.5121" fill="white"/>
<path d="M132.244 88.4282L110.584 78.6391V122.896C110.584 122.896 118.967 131.952 132.244 131.952C147.929 131.952 153.897 123.612 153.897 123.612V85.1675L132.244 88.4282Z" fill="#F0C090"/>
<path d="M153.897 95.8703C153.897 95.8703 143.554 104.47 110.584 120.627L110.653 91.6933L153.897 95.8703Z" fill="#D7A374"/>
<path d="M132.245 121.185V137.642L126.748 139.422L118.86 127.316C118.86 127.316 126.277 121.626 132.245 121.185Z" fill="#2648A2"/>
<path d="M110.61 110.098L106.446 112.015L116.387 142.774L132.247 121.182C132.247 121.182 123.353 119.97 110.61 110.098Z" fill="#DEDEDE"/>
<path d="M98.3022 55.2856C98.3022 55.2856 103.429 91.0757 104.497 92.8071C105.561 94.5362 125.599 104.401 132.245 103.967V17.3944C132.245 17.3944 90.2637 1.6625 98.3022 55.2856Z" fill="#F0C090"/>
<path d="M166.182 55.2856C166.182 55.2856 161.055 91.0757 159.985 92.8071C158.921 94.5362 138.888 104.401 132.242 103.967V17.3944C132.242 17.3944 171.727 9.86717 166.182 55.2856Z" fill="#F0C090"/>
<path d="M160.192 76.515C160.192 76.515 166.066 78.4875 169.685 68.0623C173.839 56.0642 170.966 50.6679 167.196 51.0169C165.915 51.1363 164.871 51.3613 164.028 51.7953C161.504 53.1088 160.783 55.621 160.783 55.621L160.192 76.515Z" fill="#F0C090"/>
<path d="M104.293 76.515C104.293 76.515 98.4198 78.4875 94.8004 68.0623C90.641 56.0642 93.5167 50.6679 97.2838 51.0169C98.565 51.1363 99.6144 51.3613 100.455 51.7953C102.979 53.1088 103.702 55.621 103.702 55.621L104.293 76.515Z" fill="#F0C090"/>
<path d="M94.5531 23.1123C91.6443 30.3043 97.6325 51.715 97.6325 51.715L101.542 57.1733L100.618 45.1637C100.618 45.1637 108.975 28.8485 106.695 22.8115L101.397 15.9249C101.397 15.9249 95.4929 20.7701 94.5531 23.1123Z" fill="#3C1F13"/>
<path d="M169.931 23.1123C172.837 30.3043 166.849 51.715 166.849 51.715L162.937 57.1733L163.861 45.1637C163.861 45.1637 155.505 28.8485 157.782 22.8115L163.079 15.9249C163.079 15.9249 168.991 20.7701 169.931 23.1123Z" fill="#3C1F13"/>
<path d="M132.245 0.893252C122.184 0.874882 107.653 5.00592 101.4 15.9248L106.698 22.8114C106.698 22.8114 120.903 29.659 132.627 30.442C139.983 30.9334 151.761 31.2549 160.709 24.8643L163.085 15.9225C163.085 15.9225 155.831 0.934586 132.245 0.893252Z" fill="#3C1F13"/>
<path d="M132.244 121.185V137.642L137.741 139.422L145.629 127.316C145.629 127.316 138.204 121.626 132.244 121.185Z" fill="#2648A2"/>
<path d="M153.898 109.777L158.521 112.404L148.549 142.559L132.242 121.185C132.242 121.185 141.157 119.646 153.898 109.777Z" fill="#E6E6E6"/>
<path d="M92.7879 144.993L97.3523 139.073L99.6344 136.106L91.3361 123.798L88.2413 119.212L88.1878 119.13C88.1878 119.13 55.8221 132.464 55.7712 132.513C53.4635 134.777 49.2812 154.922 46.4871 172.406H115.875L92.7879 144.993Z" fill="#3B556C"/>
<path d="M171.692 144.993L148.605 172.406H218C215.198 154.922 211.021 134.777 208.714 132.513C208.663 132.464 176.299 119.13 176.299 119.13L164.853 136.106L171.692 144.993Z" fill="#60768E"/>
<path d="M132.245 191.972V137.64L126.748 139.42C126.748 139.42 123.216 153.836 122.344 161.202L125.964 172.404L132.245 191.972Z" fill="#2648A2"/>
<path d="M132.244 191.556L142.142 161.202C141.274 153.838 137.741 139.42 137.741 139.42L132.244 137.64V172.404V191.556Z" fill="#2648A2"/>
<path d="M99.6373 136.104L97.3526 139.071L92.7933 144.993L115.877 172.404L134.741 198.216L122.342 161.202L110.129 123.417L106.443 112.016L88.1907 119.127L91.3389 123.798L99.6373 136.104Z" fill="#597D90"/>
<path d="M171.691 144.993L164.85 136.104L176.299 119.127L158.52 112.404L154.881 123.401L143.258 158.536L130.162 199.465L148.605 172.404L171.691 144.993Z" fill="#3D5B73"/>
<path d="M133.909 196.967H58.1431L46.4869 172.406H116.008L133.909 196.967Z" fill="#3B556C"/>
<path d="M132.66 195.719L148.612 172.406H218V195.719H132.66Z" fill="#60768E"/>
<path d="M132.244 88.4282L110.584 78.6391V122.896C110.584 122.896 118.966 131.952 132.244 131.952C147.929 131.952 153.897 123.612 153.897 123.612V85.1675L132.244 88.4282Z" fill="#F0C090"/>
<path d="M153.897 95.8703C153.897 95.8703 143.553 104.47 110.584 120.627L110.653 91.6933L153.897 95.8703Z" fill="#D7A374"/>
<path d="M132.245 121.185V137.642L126.748 139.422L118.86 127.316C118.86 127.316 126.277 121.626 132.245 121.185Z" fill="#2648A2"/>
<path d="M110.61 110.098L106.445 112.015L116.387 142.774L132.247 121.182C132.247 121.182 123.353 119.97 110.61 110.098Z" fill="#DEDEDE"/>
<path d="M98.3022 55.2856C98.3022 55.2856 103.429 91.0757 104.497 92.8071C105.561 94.5362 125.599 104.401 132.245 103.967V17.3944C132.245 17.3944 90.2637 1.6625 98.3022 55.2856Z" fill="#F0C090"/>
<path d="M166.182 55.2856C166.182 55.2856 161.055 91.0757 159.985 92.8071C158.921 94.5362 138.888 104.401 132.242 103.967V17.3944C132.242 17.3944 171.727 9.86717 166.182 55.2856Z" fill="#F0C090"/>
<path d="M160.192 76.515C160.192 76.515 166.066 78.4875 169.685 68.0623C173.839 56.0642 170.966 50.6679 167.196 51.0169C165.915 51.1363 164.871 51.3613 164.028 51.7953C161.504 53.1088 160.783 55.621 160.783 55.621L160.192 76.515Z" fill="#F0C090"/>
<path d="M104.293 76.515C104.293 76.515 98.4198 78.4875 94.8004 68.0623C90.641 56.0642 93.5167 50.6679 97.2838 51.0169C98.565 51.1363 99.6144 51.3613 100.455 51.7953C102.979 53.1088 103.702 55.621 103.702 55.621L104.293 76.515Z" fill="#F0C090"/>
<path d="M94.5531 23.1123C91.6443 30.3043 97.6325 51.715 97.6325 51.715L101.542 57.1733L100.618 45.1637C100.618 45.1637 108.975 28.8485 106.695 22.8115L101.397 15.9249C101.397 15.9249 95.4929 20.7701 94.5531 23.1123Z" fill="#3C1F13"/>
<path d="M169.931 23.1123C172.837 30.3043 166.849 51.715 166.849 51.715L162.937 57.1733L163.861 45.1637C163.861 45.1637 155.505 28.8485 157.782 22.8115L163.079 15.9249C163.079 15.9249 168.991 20.7701 169.931 23.1123Z" fill="#3C1F13"/>
<path d="M132.245 0.893252C122.184 0.874882 107.653 5.00592 101.4 15.9248L106.698 22.8114C106.698 22.8114 120.903 29.659 132.627 30.442C139.983 30.9334 151.761 31.2549 160.709 24.8643L163.085 15.9225C163.085 15.9225 155.831 0.934586 132.245 0.893252Z" fill="#3C1F13"/>
<path d="M132.244 121.185V137.642L137.741 139.422L145.629 127.316C145.629 127.316 138.204 121.626 132.244 121.185Z" fill="#2648A2"/>
<path d="M153.898 109.777L158.521 112.404L148.549 142.559L132.242 121.185C132.242 121.185 141.157 119.646 153.898 109.777Z" fill="#E6E6E6"/>
<path d="M132.245 191.972V137.64L126.748 139.42C126.748 139.42 123.216 153.836 122.345 161.202L125.964 172.404L132.245 191.972Z" fill="#2648A2"/>
<path d="M132.244 191.556L142.142 161.202C141.274 153.838 137.741 139.42 137.741 139.42L132.244 137.64V172.404V191.556Z" fill="#2648A2"/>
<g opacity="0.2">
<path d="M71 213.656L11.9107 226L28.2033 205.111L8 192.055L60.5718 179L71 213.656Z" fill="black"/>
<path d="M200 213.656L259.09 226L242.796 205.111L263 192.055L210.427 179L200 213.656Z" fill="black"/>
<path d="M223.345 205.135L199.823 213.67V203.693C199.823 203.693 214.763 203.476 223.345 205.135Z" fill="black"/>
<path d="M47.2567 205.135L70.7778 213.67V203.693C70.7778 203.693 55.8386 203.476 47.2567 205.135Z" fill="black"/>
<path d="M223.345 205.135V161.034C223.345 161.034 147.378 151.787 47.2567 161.034V205.135C47.2567 205.135 141.976 198.97 223.345 205.135Z" fill="black"/>
<path opacity="0.08" d="M47.2567 161.033V176.442C47.2567 176.442 78.6022 153.68 223.345 165.771V161.033C223.345 161.033 138.359 152.027 47.2567 161.033Z" fill="black"/>
<path opacity="0.08" d="M47.2567 194.699V205.135C47.2567 205.135 158.224 198.973 223.345 205.135V195.648C223.345 195.648 108.004 202.998 47.2567 194.699Z" fill="black"/>
<path opacity="0.08" d="M19.6069 216.412L12 226L71 213.883L65.4835 211L19.6069 216.412Z" fill="black"/>
<path opacity="0.08" d="M8 191.719L14.7519 197L47 185.509V180L8 191.719Z" fill="black"/>
<path opacity="0.08" d="M249.65 216.412L257 226L200 213.883L205.328 211L249.65 216.412Z" fill="black"/>
<path opacity="0.08" d="M246 191.719L242.018 197L223 185.509V180L246 191.719Z" fill="black"/>
</g>
<path d="M64 208.656L3.97278 221L20.524 200.111L0 187.055L53.4063 174L64 208.656Z" fill="#E16B6B"/>
<path d="M193 208.656L253.028 221L236.476 200.111L257 187.055L203.593 174L193 208.656Z" fill="#E16B6B"/>
<path d="M216.743 200.211L193.222 208.746V198.769C193.222 198.769 208.161 198.551 216.743 200.211Z" fill="#BA4545"/>
<path d="M40.6553 200.211L64.1763 208.746V198.769C64.1763 198.769 49.2372 198.551 40.6553 200.211Z" fill="#BA4545"/>
<path d="M216.743 200.211V156.11C216.743 156.11 140.777 146.863 40.6553 156.11V200.211C40.6553 200.211 135.375 194.045 216.743 200.211Z" fill="#F27272"/>
<path d="M61.9053 179H60.0596V169.669H65.9795V171.193H61.9053V179ZM67.6611 173.066L67.7158 169.669H73.9912V179H72.1455V171.207H69.4111L69.3496 173.326C69.2402 177.482 68.7891 179.103 66.7451 179.103C66.4238 179.103 66.1777 179.041 66.1025 179V177.4C66.1436 177.414 66.2871 177.462 66.4443 177.462C67.415 177.462 67.5996 176.197 67.6611 173.066ZM77.0879 179H75.2217L78.3525 169.669H80.5195L83.6299 179H81.668L80.9365 176.601H77.8262L77.0879 179ZM79.4326 171.453H79.3506L78.209 175.227H80.5674L79.4326 171.453ZM84.874 179V169.669H88.7637C90.4316 169.669 91.5254 170.537 91.5254 171.966C91.5254 173.101 90.8486 173.784 89.9258 174.01V174.092C91.0469 174.201 92.0039 174.967 92.0039 176.368C92.0039 178.036 90.6504 179 88.7568 179H84.874ZM86.7061 171.057V173.552H87.9229C89.1602 173.552 89.707 173.094 89.707 172.28C89.707 171.521 89.2012 171.057 88.3398 171.057H86.7061ZM86.7061 174.837V177.612H88.0732C89.5293 177.612 90.124 177.147 90.124 176.259C90.124 175.377 89.5361 174.837 88.4561 174.837H86.7061ZM101.226 179H99.373V175.001H95.4561V179H93.6104V169.669H95.4561V173.463H99.373V169.669H101.226V179ZM110.215 175.869C110.215 177.64 109.066 179 107.063 179H103.345V169.669H105.19V172.786H107.043C109.053 172.786 110.215 174.105 110.215 175.869ZM112.908 179H111.056V169.669H112.908V179ZM106.708 174.235H105.17V177.53H106.708C107.72 177.53 108.335 176.929 108.335 175.883C108.335 174.83 107.72 174.235 106.708 174.235ZM116.559 166.825H117.639C117.639 167.468 118.028 167.905 118.855 167.905C119.683 167.905 120.072 167.468 120.072 166.825H121.146C121.146 167.994 120.346 168.835 118.855 168.835C117.372 168.835 116.559 167.994 116.559 166.825ZM120.858 179V172.54H120.783L116.723 179H115.034V169.669H116.825V176.122H116.9L120.954 169.669H122.649V179H120.858ZM129.178 179H127.53V169.669H129.41L132.069 175.691H132.131L134.79 169.669H136.656V179H134.995V172.834H134.92L132.691 177.831H131.488L129.253 172.834H129.178V179ZM144.791 177.489V179H138.782V169.669H144.791V171.18H140.614V173.572H144.538V174.987H140.614V177.489H144.791ZM154.245 179H152.393V175.001H148.476V179H146.63V169.669H148.476V173.463H152.393V169.669H154.245V179ZM162.373 177.489V179H156.364V169.669H162.373V171.18H158.196V173.572H162.12V174.987H158.196V177.489H162.373ZM164.984 180.955H163.337V177.462H164.103C164.875 176.929 164.978 175.855 165.06 173.066L165.169 169.669H171.615V177.462H172.784V180.955H171.137V179H164.984V180.955ZM169.797 177.462V171.207H166.83L166.748 173.312C166.673 175.377 166.591 176.662 166.051 177.387V177.462H169.797ZM178.704 173.524V169.669H180.495V173.524H180.57L183.811 169.669H185.923L182.17 174.105L185.957 179H183.763L180.57 174.939H180.495V179H178.704V174.939H178.629L175.437 179H173.283L177.029 174.167L173.235 169.669H175.389L178.629 173.524H178.704ZM193.148 177.489V179H187.14V169.669H193.148V171.18H188.972V173.572H192.896V174.987H188.972V177.489H193.148ZM198.72 169.669C200.723 169.669 201.871 171.029 201.871 172.779C201.871 174.557 200.709 175.869 198.699 175.869H196.833V179H194.987V169.669H198.72ZM199.991 172.779C199.991 171.733 199.383 171.139 198.364 171.139H196.826V174.42H197.934C199.219 174.42 199.991 174.044 199.991 172.779Z" fill="white"/>
<path opacity="0.08" d="M40.6553 156.109V171.517C40.6553 171.517 72.0007 148.755 216.743 160.847V156.109C216.743 156.109 131.757 147.103 40.6553 156.109Z" fill="white"/>
<path opacity="0.08" d="M40.6553 189.774V200.211C40.6553 200.211 151.623 194.049 216.743 200.211V190.724C216.743 190.724 101.402 198.073 40.6553 189.774Z" fill="#141414"/>
<path opacity="0.08" d="M11.7358 211.412L4 221L64 208.883L58.39 206L11.7358 211.412Z" fill="#141414"/>
<path opacity="0.08" d="M0 187.03L7.09812 192L41 181.185V176L0 187.03Z" fill="white"/>
<path opacity="0.08" d="M245.263 211.412L253 221L193 208.883L198.609 206L245.263 211.412Z" fill="#141414"/>
<path opacity="0.08" d="M257 187.03L250.075 192L217 181.185V176L257 187.03Z" fill="white"/>
</svg>
