<svg width="58" height="63" viewBox="0 0 58 63" fill="none" xmlns="http://www.w3.org/2000/svg">
<g filter="url(#filter0_b_88_4073)">
<path d="M55.5336 14.4309C54.7132 11.685 52.1161 7.0702 48.9097 5.39971C48.0655 4.93429 47.1039 4.72503 46.1426 4.79754L42.4261 1.0825C42.185 0.841347 41.8649 0.695261 41.5248 0.671056C41.1846 0.646851 40.8471 0.746151 40.5742 0.950728L36.2528 4.19537C36.1017 4.30876 35.9748 4.45123 35.8796 4.61439C35.7843 4.77755 35.7227 4.9581 35.6983 5.14543C35.6738 5.33276 35.6871 5.52309 35.7373 5.70521C35.7876 5.88733 35.8737 6.05757 35.9907 6.20591C39.4671 10.6455 41.3736 16.1124 41.4118 21.751C41.45 27.3896 39.6177 32.8818 36.2017 37.368C32.7856 41.8543 27.9787 45.0814 22.533 46.5444C17.0873 48.0074 11.3103 47.6237 6.10596 45.4533C5.53388 45.2127 4.91512 45.1034 4.29523 45.1336C3.67535 45.1637 3.07011 45.3326 2.5241 45.6276C1.96616 45.9248 1.4821 46.3436 1.10763 46.8529C0.733165 47.3623 0.477851 47.9492 0.360535 48.5704C0.325134 48.7501 0.325134 48.9349 0.360535 49.1145C2.04661 57.552 10.3792 62.9999 21.5853 62.9999C38.6912 62.9999 57.0071 47.6268 57.0071 24.7443C57.0894 21.2487 56.5915 17.7636 55.5336 14.4309Z" fill="#FCB64D"/>
<path d="M49.4864 16.2645C49.1137 16.3112 48.7748 16.504 48.5442 16.8005C48.3135 17.097 48.2101 17.473 48.2566 17.8457C48.4246 19.1975 48.5089 20.5584 48.5088 21.9206C48.5334 29.6289 45.8151 37.0946 40.8399 42.9825C35.8648 48.8703 28.9573 52.7962 21.353 54.0582C21.0029 54.1174 20.6878 54.3058 20.4701 54.5863C20.2524 54.8667 20.1478 55.2187 20.1772 55.5725C20.2066 55.9263 20.3678 56.2562 20.6288 56.4969C20.8899 56.7376 21.2317 56.8715 21.5868 56.8721C21.6661 56.8724 21.7453 56.8658 21.8234 56.8522C30.0894 55.4812 37.598 51.2142 43.0062 44.8144C48.4144 38.4146 51.3694 30.2995 51.3425 21.9206C51.3425 20.441 51.2512 18.9627 51.0691 17.4943C51.046 17.3096 50.9867 17.1313 50.8946 16.9695C50.8026 16.8078 50.6795 16.6657 50.5326 16.5515C50.3856 16.4373 50.2176 16.3532 50.0381 16.3039C49.8586 16.2547 49.6711 16.2413 49.4864 16.2645Z" fill="#F57828"/>
</g>
<defs>
<filter id="filter0_b_88_4073" x="-3.66602" y="-3.33252" width="64.6821" height="70.3325" filterUnits="userSpaceOnUse" color-interpolation-filters="sRGB">
<feFlood flood-opacity="0" result="BackgroundImageFix"/>
<feGaussianBlur in="BackgroundImageFix" stdDeviation="2"/>
<feComposite in2="SourceAlpha" operator="in" result="effect1_backgroundBlur_88_4073"/>
<feBlend mode="normal" in="SourceGraphic" in2="effect1_backgroundBlur_88_4073" result="shape"/>
</filter>
</defs>
</svg>
