<svg width="69" height="68" viewBox="0 0 69 68" fill="none" xmlns="http://www.w3.org/2000/svg">
<g filter="url(#filter0_b_13_663)">
<path d="M26.9206 53.8412C41.7884 53.8412 53.8412 41.7884 53.8412 26.9206C53.8412 12.0528 41.7884 0 26.9206 0C12.0528 0 0 12.0528 0 26.9206C0 41.7884 12.0528 53.8412 26.9206 53.8412Z" fill="#E9F4E9"/>
<path d="M66.5336 19.4311C65.7132 16.6852 63.1161 12.0704 59.9097 10.4C59.0655 9.93453 58.1039 9.72527 57.1426 9.79778L53.4261 6.08274C53.185 5.84159 52.8649 5.6955 52.5248 5.6713C52.1846 5.64709 51.8471 5.74639 51.5742 5.95097L47.2528 9.19561C47.1017 9.30901 46.9748 9.45148 46.8796 9.61463C46.7843 9.77779 46.7227 9.95835 46.6983 10.1457C46.6738 10.333 46.6871 10.5233 46.7373 10.7055C46.7876 10.8876 46.8737 11.0578 46.9907 11.2062C50.4671 15.6457 52.3736 21.1126 52.4118 26.7512C52.45 32.3899 50.6177 37.882 47.2017 42.3683C43.7856 46.8545 38.9787 50.0817 33.533 51.5447C28.0873 53.0076 22.3103 52.6239 17.106 50.4536C16.5339 50.2129 15.9151 50.1037 15.2952 50.1338C14.6753 50.164 14.0701 50.3328 13.5241 50.6278C12.9662 50.9251 12.4821 51.3438 12.1076 51.8532C11.7332 52.3625 11.4779 52.9495 11.3605 53.5707C11.3251 53.7503 11.3251 53.9351 11.3605 54.1147C13.0466 62.5522 21.3792 68.0001 32.5853 68.0001C49.6912 68.0001 68.0071 52.627 68.0071 29.7445C68.0894 26.2489 67.5915 22.7638 66.5336 19.4311Z" fill="#FCB64D"/>
<path d="M60.4864 21.2645C60.1137 21.3112 59.7748 21.504 59.5442 21.8005C59.3135 22.097 59.2101 22.473 59.2566 22.8457C59.4246 24.1975 59.5089 25.5584 59.5088 26.9206C59.5334 34.6289 56.8151 42.0946 51.8399 47.9825C46.8648 53.8703 39.9573 57.7962 32.353 59.0582C32.0029 59.1174 31.6878 59.3058 31.4701 59.5863C31.2524 59.8667 31.1478 60.2187 31.1772 60.5725C31.2066 60.9263 31.3678 61.2562 31.6288 61.4969C31.8899 61.7376 32.2317 61.8715 32.5868 61.8721C32.6661 61.8724 32.7453 61.8658 32.8234 61.8522C41.0894 60.4812 48.598 56.2142 54.0062 49.8144C59.4144 43.4146 62.3694 35.2995 62.3425 26.9206C62.3425 25.441 62.2512 23.9627 62.0691 22.4943C62.046 22.3096 61.9867 22.1313 61.8946 21.9695C61.8026 21.8078 61.6795 21.6657 61.5326 21.5515C61.3856 21.4373 61.2176 21.3532 61.0381 21.3039C60.8586 21.2547 60.6711 21.2413 60.4864 21.2645Z" fill="#F57828"/>
<path d="M28.3374 14.1686C28.3374 13.7928 28.1881 13.4324 27.9224 13.1667C27.6567 12.901 27.2963 12.7517 26.9205 12.7517C26.5447 12.7517 26.1843 12.901 25.9186 13.1667C25.6529 13.4324 25.5036 13.7928 25.5036 14.1686V26.3339L18.8344 33.0031C18.6991 33.1338 18.5911 33.2901 18.5169 33.463C18.4426 33.6359 18.4035 33.8218 18.4019 34.0099C18.4003 34.198 18.4361 34.3846 18.5074 34.5587C18.5786 34.7329 18.6838 34.8911 18.8168 35.0241C18.9499 35.1571 19.1081 35.2623 19.2822 35.3336C19.4563 35.4048 19.6429 35.4407 19.831 35.439C20.0192 35.4374 20.2051 35.3983 20.378 35.3241C20.5508 35.2498 20.7072 35.1419 20.8379 35.0065L27.9222 27.9222C28.188 27.6565 28.3373 27.2962 28.3374 26.9204V14.1686Z" fill="#1E5330"/>
<path d="M28.3372 5.66736C28.3372 5.29158 28.1879 4.9312 27.9222 4.66548C27.6565 4.39977 27.2961 4.25049 26.9203 4.25049C26.5445 4.25049 26.1841 4.39977 25.9184 4.66548C25.6527 4.9312 25.5034 5.29158 25.5034 5.66736V8.50111C25.5034 8.87689 25.6527 9.23727 25.9184 9.50299C26.1841 9.7687 26.5445 9.91798 26.9203 9.91798C27.2961 9.91798 27.6565 9.7687 27.9222 9.50299C28.1879 9.23727 28.3372 8.87689 28.3372 8.50111V5.66736Z" fill="#1E5330"/>
<path d="M14.8983 12.8935L12.8935 10.8914C12.7641 10.7509 12.6077 10.638 12.4336 10.5594C12.2595 10.4809 12.0713 10.4383 11.8803 10.4344C11.6893 10.4304 11.4995 10.4651 11.3223 10.5364C11.1451 10.6077 10.9841 10.714 10.8491 10.8491C10.714 10.9841 10.6077 11.1451 10.5364 11.3223C10.4651 11.4995 10.4304 11.6893 10.4344 11.8803C10.4383 12.0713 10.4809 12.2595 10.5594 12.4336C10.638 12.6077 10.7509 12.7641 10.8914 12.8935L12.8935 14.8983C13.1593 15.1642 13.5199 15.3136 13.8959 15.3136C14.2719 15.3136 14.6325 15.1642 14.8983 14.8983C15.1642 14.6325 15.3136 14.2719 15.3136 13.8959C15.3136 13.5199 15.1642 13.1593 14.8983 12.8935Z" fill="#1E5330"/>
<path d="M5.66736 25.5037C5.29158 25.5037 4.9312 25.6529 4.66548 25.9187C4.39977 26.1844 4.25049 26.5448 4.25049 26.9205C4.25049 27.2963 4.39977 27.6567 4.66548 27.9224C4.9312 28.1881 5.29158 28.3374 5.66736 28.3374H8.50111C8.87689 28.3374 9.23727 28.1881 9.50299 27.9224C9.7687 27.6567 9.91798 27.2963 9.91798 26.9205C9.91798 26.5448 9.7687 26.1844 9.50299 25.9187C9.23727 25.6529 8.87689 25.5037 8.50111 25.5037H5.66736Z" fill="#1E5330"/>
<path d="M12.8935 38.9426L10.8914 40.9474C10.7509 41.0768 10.638 41.2332 10.5594 41.4073C10.4809 41.5815 10.4383 41.7696 10.4344 41.9606C10.4304 42.1516 10.4651 42.3414 10.5364 42.5186C10.6077 42.6958 10.714 42.8568 10.8491 42.9918C10.9841 43.1269 11.1451 43.2333 11.3223 43.3045C11.4995 43.3758 11.6893 43.4105 11.8803 43.4065C12.0713 43.4026 12.2595 43.36 12.4336 43.2815C12.6077 43.203 12.7641 43.09 12.8935 42.9495L14.8983 40.9474C15.1642 40.6816 15.3136 40.321 15.3136 39.945C15.3136 39.569 15.1642 39.2084 14.8983 38.9426C14.6325 38.6767 14.2719 38.5273 13.8959 38.5273C13.5199 38.5273 13.1593 38.6767 12.8935 38.9426Z" fill="#1E5330"/>
<path d="M25.5034 45.3397V48.1735C25.5034 48.5493 25.6527 48.9096 25.9184 49.1754C26.1841 49.4411 26.5445 49.5903 26.9203 49.5903C27.2961 49.5903 27.6565 49.4411 27.9222 49.1754C28.1879 48.9096 28.3372 48.5493 28.3372 48.1735V45.3397C28.3372 44.9639 28.1879 44.6036 27.9222 44.3378C27.6565 44.0721 27.2961 43.9229 26.9203 43.9229C26.5445 43.9229 26.1841 44.0721 25.9184 44.3378C25.6527 44.6036 25.5034 44.9639 25.5034 45.3397Z" fill="#1E5330"/>
<path d="M40.9474 38.9426C40.6816 38.6767 40.321 38.5273 39.945 38.5273C39.569 38.5273 39.2084 38.6767 38.9426 38.9426C38.6767 39.2084 38.5273 39.569 38.5273 39.945C38.5273 40.321 38.6767 40.6816 38.9426 40.9474L40.9474 42.9495C41.2165 43.1971 41.5708 43.3311 41.9363 43.3235C42.3019 43.316 42.6503 43.1674 42.9089 42.9089C43.1674 42.6503 43.316 42.3019 43.3235 41.9363C43.3311 41.5708 43.1971 41.2165 42.9495 40.9474L40.9474 38.9426Z" fill="#1E5330"/>
<path d="M43.9229 26.9205C43.9229 27.2963 44.0721 27.6567 44.3378 27.9224C44.6036 28.1881 44.9639 28.3374 45.3397 28.3374H48.1735C48.5493 28.3374 48.9096 28.1881 49.1754 27.9224C49.4411 27.6567 49.5903 27.2963 49.5903 26.9205C49.5903 26.5448 49.4411 26.1844 49.1754 25.9187C48.9096 25.6529 48.5493 25.5037 48.1735 25.5037H45.3397C44.9639 25.5037 44.6036 25.6529 44.3378 25.9187C44.0721 26.1844 43.9229 26.5448 43.9229 26.9205Z" fill="#1E5330"/>
<path d="M42.9495 10.8914C42.6838 10.6258 42.3235 10.4766 41.9478 10.4766C41.572 10.4766 41.2117 10.6258 40.946 10.8914L38.9426 12.8934C38.8109 13.0251 38.7065 13.1814 38.6353 13.3534C38.564 13.5254 38.5273 13.7097 38.5273 13.8959C38.5273 14.0821 38.564 14.2664 38.6353 14.4384C38.7065 14.6104 38.8109 14.7667 38.9426 14.8983C39.0742 15.03 39.2305 15.1344 39.4025 15.2056C39.5745 15.2769 39.7588 15.3135 39.945 15.3135C40.1312 15.3135 40.3155 15.2769 40.4875 15.2056C40.6595 15.1344 40.8158 15.03 40.9474 14.8983L42.9495 12.8934C43.2147 12.6278 43.3636 12.2678 43.3636 11.8924C43.3636 11.5171 43.2147 11.157 42.9495 10.8914Z" fill="#1E5330"/>
</g>
<defs>
<filter id="filter0_b_13_663" x="-4" y="-4" width="76.0161" height="76" filterUnits="userSpaceOnUse" color-interpolation-filters="sRGB">
<feFlood flood-opacity="0" result="BackgroundImageFix"/>
<feGaussianBlur in="BackgroundImageFix" stdDeviation="2"/>
<feComposite in2="SourceAlpha" operator="in" result="effect1_backgroundBlur_13_663"/>
<feBlend mode="normal" in="SourceGraphic" in2="effect1_backgroundBlur_13_663" result="shape"/>
</filter>
</defs>
</svg>
