<svg width="58" height="63" viewBox="0 0 58 63" fill="none" xmlns="http://www.w3.org/2000/svg">
<g filter="url(#filter0_b_88_2191)">
<path d="M55.5336 14.4311C54.7132 11.6852 52.1161 7.07045 48.9097 5.39995C48.0655 4.93453 47.1039 4.72527 46.1426 4.79778L42.4261 1.08274C42.185 0.841591 41.8649 0.695505 41.5248 0.6713C41.1846 0.647095 40.8471 0.746395 40.5742 0.950972L36.2528 4.19561C36.1017 4.30901 35.9748 4.45148 35.8796 4.61463C35.7843 4.77779 35.7227 4.95835 35.6983 5.14568C35.6738 5.33301 35.6871 5.52333 35.7373 5.70545C35.7876 5.88757 35.8737 6.05781 35.9907 6.20616C39.4671 10.6457 41.3736 16.1126 41.4118 21.7512C41.45 27.3899 39.6177 32.882 36.2017 37.3683C32.7856 41.8545 27.9787 45.0817 22.533 46.5447C17.0873 48.0076 11.3103 47.6239 6.10596 45.4536C5.53388 45.2129 4.91512 45.1037 4.29523 45.1338C3.67535 45.164 3.07011 45.3328 2.5241 45.6278C1.96616 45.9251 1.4821 46.3438 1.10763 46.8532C0.733165 47.3625 0.477851 47.9495 0.360535 48.5707C0.325134 48.7503 0.325134 48.9351 0.360535 49.1147C2.04661 57.5522 10.3792 63.0001 21.5853 63.0001C38.6912 63.0001 57.0071 47.627 57.0071 24.7445C57.0894 21.2489 56.5915 17.7638 55.5336 14.4311Z" fill="#9F6A1B"/>
<path d="M49.4864 16.2645C49.1137 16.3112 48.7748 16.504 48.5442 16.8005C48.3135 17.097 48.2101 17.473 48.2566 17.8457C48.4246 19.1975 48.5089 20.5584 48.5088 21.9206C48.5334 29.6289 45.8151 37.0946 40.8399 42.9825C35.8648 48.8703 28.9573 52.7962 21.353 54.0582C21.0029 54.1174 20.6878 54.3058 20.4701 54.5863C20.2524 54.8667 20.1478 55.2187 20.1772 55.5725C20.2066 55.9263 20.3678 56.2562 20.6288 56.4969C20.8899 56.7376 21.2317 56.8715 21.5868 56.8721C21.6661 56.8724 21.7453 56.8658 21.8234 56.8522C30.0894 55.4812 37.598 51.2142 43.0062 44.8144C48.4144 38.4146 51.3694 30.2995 51.3425 21.9206C51.3425 20.441 51.2512 18.9627 51.0691 17.4943C51.046 17.3096 50.9867 17.1313 50.8946 16.9695C50.8026 16.8078 50.6795 16.6657 50.5326 16.5515C50.3856 16.4373 50.2176 16.3532 50.0381 16.3039C49.8586 16.2547 49.6711 16.2413 49.4864 16.2645Z" fill="#FFCBAA"/>
</g>
<defs>
<filter id="filter0_b_88_2191" x="-3.66602" y="-3.33228" width="64.6821" height="70.3323" filterUnits="userSpaceOnUse" color-interpolation-filters="sRGB">
<feFlood flood-opacity="0" result="BackgroundImageFix"/>
<feGaussianBlur in="BackgroundImageFix" stdDeviation="2"/>
<feComposite in2="SourceAlpha" operator="in" result="effect1_backgroundBlur_88_2191"/>
<feBlend mode="normal" in="SourceGraphic" in2="effect1_backgroundBlur_88_2191" result="shape"/>
</filter>
</defs>
</svg>
