<svg width="66" height="61" viewBox="0 0 66 61" fill="none" xmlns="http://www.w3.org/2000/svg">
<path d="M2.25919 7.90729C1.01302 7.90357 0.00372179 6.89427 0 5.6481C0.00922564 4.40423 1.01531 3.39814 2.25919 3.38892H63.2573C64.5034 3.39264 65.5127 4.40193 65.5164 5.6481C65.5072 6.89198 64.5011 7.89807 63.2573 7.90729H2.25919Z" fill="#A56A43"/>
<path d="M28.7436 21.9503C28.3644 21.9503 28.0104 21.7599 27.8012 21.4435C27.5921 21.1271 27.5557 20.7268 27.7044 20.3779C28.3854 18.8914 28.4217 17.1896 27.805 15.6754C27.2354 14.3161 26.1595 13.2317 24.8048 12.6515C22.7543 11.7651 21.4364 9.73422 21.4623 7.5005V1.12959C21.4623 0.505736 21.968 0 22.5919 0C23.2157 0 23.7215 0.505736 23.7215 1.12959V7.5005C23.6969 8.82585 24.4705 10.0364 25.6836 10.5707C27.5832 11.383 29.0923 12.9026 29.8913 14.8078C30.7297 16.8854 30.6889 19.2143 29.7784 21.2612C29.6022 21.6771 29.1953 21.9481 28.7436 21.9503Z" fill="#95A5A5"/>
<path d="M47.9151 22.0271C47.5342 22.0269 47.179 21.8347 46.9705 21.5159C46.7619 21.1972 46.7281 20.7948 46.8804 20.4456C47.5733 18.9709 47.6313 17.2765 47.0408 15.7578C46.4821 14.361 45.391 13.2435 44.0079 12.6515C41.9576 11.7648 40.6399 9.73414 40.6654 7.5005V1.12959C40.6654 0.505736 41.1711 0 41.795 0C42.4189 0 42.9246 0.505736 42.9246 1.12959V7.5005C42.9 8.82585 43.6736 10.0364 44.8867 10.5707C46.8223 11.3976 48.3509 12.9583 49.1374 14.9106C49.941 16.9908 49.8738 19.3068 48.951 21.3369C48.775 21.7536 48.3675 22.0252 47.9151 22.0271Z" fill="#95A5A5"/>
<path d="M32.312 22.7612C34.3647 18.5214 38.9475 16.1213 43.6016 16.8487C48.2557 17.5761 51.8876 21.2601 52.5487 25.9241L53.17 30.0697C53.861 34.2551 54.7964 38.3965 55.9714 42.4726C56.3208 43.7803 56.4918 45.1292 56.4797 46.4827C56.4335 52.1786 53.0849 57.3296 47.898 59.6836C42.7112 62.0377 36.6295 61.1665 32.312 57.451V22.7612Z" fill="#DF4D60"/>
<path d="M49.4763 49.928L42.9246 41.2946V31.6286C42.9246 31.0048 42.4189 30.499 41.795 30.499C41.1712 30.499 40.6655 31.0048 40.6655 31.6286V41.3025L36.321 47.0193C36.0676 47.3399 36.0072 47.7724 36.1629 48.1503C36.3186 48.5281 36.6663 48.7923 37.072 48.8413C37.4778 48.8902 37.8783 48.7161 38.1193 48.3861L41.795 43.5458L47.6689 51.2948C48.0464 51.7939 48.7569 51.8925 49.256 51.5151C49.7551 51.1377 49.8537 50.4271 49.4763 49.928Z" fill="#802D40"/>
<path d="M11.9986 27.9845C11.8342 22.9234 15.1593 18.4089 20.0413 17.0647C22.9948 16.3021 26.1332 16.8324 28.6722 18.5231C31.2111 20.2137 32.9105 22.905 33.3457 25.9241L33.9636 30.0641C34.6581 34.2509 35.5942 38.394 36.7672 42.4727C37.1189 43.782 37.2921 45.1328 37.2823 46.4884C37.2867 53.127 32.767 58.9145 26.3253 60.5191C21.1538 61.8751 15.6539 60.3152 11.9644 56.4461C8.27487 52.5769 6.97805 47.0091 8.57823 41.9079C9.27406 39.6916 10.5155 37.7216 11.1514 35.4692C11.8024 33.0299 12.0879 30.5076 11.9986 27.9845Z" fill="#D75E72"/>
<path d="M30.2732 49.928L23.7216 41.2946V31.6286C23.7216 31.0048 23.2158 30.499 22.592 30.499C21.9681 30.499 21.4624 31.0048 21.4624 31.6286V41.2946L14.9107 49.928C14.6666 50.2509 14.6132 50.6795 14.7707 51.0523C14.9282 51.4252 15.2727 51.6857 15.6744 51.7357C16.0761 51.7858 16.4739 51.6177 16.7181 51.2948L22.592 43.5436L28.4658 51.2948C28.8433 51.7939 29.5538 51.8925 30.0529 51.5151C30.552 51.1377 30.6506 50.4271 30.2732 49.928Z" fill="#802F34"/>
<path d="M22.5919 25.7661C18.8219 25.7571 15.5785 23.0972 14.8316 19.4019C14.4104 17.1905 14.9218 14.9033 16.2447 13.0819C16.4634 12.7309 16.8564 12.5274 17.2693 12.5515C17.6821 12.5756 18.0488 12.8234 18.2252 13.1974C18.4015 13.5715 18.3594 14.012 18.1153 14.3459C17.1299 15.6714 16.7437 17.3486 17.0501 18.9716C17.5868 21.607 19.9023 23.502 22.5919 23.5069C23.2157 23.5069 23.7215 24.0126 23.7215 24.6365C23.7215 25.2603 23.2157 25.7661 22.5919 25.7661Z" fill="#BDC3C7"/>
<path d="M22.592 28.24C21.9681 28.24 21.4624 27.7342 21.4624 27.1104V22.592C21.4624 21.9681 21.9681 21.4624 22.592 21.4624C23.2159 21.4624 23.7216 21.9681 23.7216 22.592V27.1104C23.7216 27.7342 23.2159 28.24 22.592 28.24Z" fill="#802D40"/>
<path d="M41.795 25.7661C38.025 25.7571 34.7816 23.0972 34.0347 19.4019C33.6135 17.1905 34.1249 14.9033 35.4478 13.0819C35.6665 12.7309 36.0595 12.5274 36.4724 12.5515C36.8852 12.5756 37.2519 12.8234 37.4283 13.1974C37.6047 13.5715 37.5625 14.012 37.3184 14.3459C36.3331 15.6714 35.9468 17.3486 36.2532 18.9716C36.7899 21.607 39.1055 23.502 41.795 23.5069C42.4189 23.5069 42.9246 24.0126 42.9246 24.6365C42.9246 25.2603 42.4189 25.7661 41.795 25.7661Z" fill="#BDC3C7"/>
<path d="M41.7949 28.24C41.171 28.24 40.6653 27.7342 40.6653 27.1104V22.592C40.6653 21.9681 41.171 21.4624 41.7949 21.4624C42.4187 21.4624 42.9245 21.9681 42.9245 22.592V27.1104C42.9245 27.7342 42.4187 28.24 41.7949 28.24Z" fill="#802D40"/>
</svg>
