<svg width="45" height="60" viewBox="0 0 45 60" fill="none" xmlns="http://www.w3.org/2000/svg">
<path d="M42.9545 20.4546H2.04545C0.915781 20.4546 0 21.3704 0 22.5V57.2728C0 58.4024 0.915781 59.3182 2.04545 59.3182H42.9545C44.0842 59.3182 45 58.4024 45 57.2728V22.5C45 21.3704 44.0842 20.4546 42.9545 20.4546Z" fill="#FFE177"/>
<path fill-rule="evenodd" clip-rule="evenodd" d="M14.3182 16.3638H30.6818C31.8115 16.3638 32.7272 17.2796 32.7272 18.4092V20.4547H12.2727V18.4092C12.2727 17.2796 13.1885 16.3638 14.3182 16.3638Z" fill="#F3A91F"/>
<path d="M35.7955 0H9.20461C8.63978 0 8.18188 0.457891 8.18188 1.02273V9.20455C8.18188 9.76938 8.63978 10.2273 9.20461 10.2273H35.7955C36.3604 10.2273 36.8182 9.76938 36.8182 9.20455V1.02273C36.8182 0.457891 36.3604 0 35.7955 0Z" fill="#D59527"/>
<path fill-rule="evenodd" clip-rule="evenodd" d="M30.6818 10.2275C30.6818 10.2275 26.8148 12.273 29.7153 16.3639H15.2846C18.185 12.273 14.3181 10.2275 14.3181 10.2275H30.6818Z" fill="#AA7C00"/>
<path fill-rule="evenodd" clip-rule="evenodd" d="M45 48.0986V57.2725C44.9966 58.4008 44.0828 59.3146 42.9545 59.318H2.04545C0.91718 59.3146 0.00336968 58.4008 0 57.2725V48.0986C2.28068 50.4714 8.68295 55.4111 22.5 55.4111C36.317 55.4111 42.7193 50.4714 45 48.0986Z" fill="#D59527"/>
</svg>
