<svg width="21" height="21" viewBox="0 0 21 21" fill="none" xmlns="http://www.w3.org/2000/svg">
<path d="M10.5001 10.7178L7.84805 9.51921V14.938C7.84805 14.938 8.8744 16.0469 10.5001 16.0469C12.4206 16.0469 13.1513 15.0257 13.1513 15.0257V10.3185L10.5001 10.7178Z" fill="#F0C090"/>
<path d="M13.1513 11.629C13.1513 11.629 11.8848 12.6819 7.84805 14.6601L7.85648 11.1176L13.1513 11.629Z" fill="#F0BD6D"/>
<path d="M10.5001 14.7285V16.7435L9.82714 16.9614L8.8613 15.4792C8.8613 15.4792 9.76944 14.7825 10.5001 14.7285Z" fill="#2648A2"/>
<path d="M7.85119 13.371L7.34129 13.6058L8.55849 17.3719L10.5005 14.7282C10.5005 14.7282 9.41144 14.5797 7.85119 13.371Z" fill="#DFE1DE"/>
<path d="M6.34426 6.6598C6.34426 6.6598 6.97204 11.0419 7.10271 11.2539C7.23307 11.4656 9.68651 12.6735 10.5002 12.6204V2.02041C10.5002 2.02041 5.36002 0.0941955 6.34426 6.6598Z" fill="#F0C090"/>
<path d="M14.6554 6.6598C14.6554 6.6598 14.0276 11.0419 13.8967 11.2539C13.7663 11.4656 11.3135 12.6735 10.4998 12.6204V2.02041C10.4998 2.02041 15.3344 1.09877 14.6554 6.6598Z" fill="#F0C090"/>
<path d="M13.9219 9.25911C13.9219 9.25911 14.6411 9.50063 15.0843 8.22417C15.5929 6.75512 15.2411 6.09439 14.7796 6.13713C14.6227 6.15175 14.4948 6.1793 14.3916 6.23244C14.0825 6.39326 13.9943 6.70085 13.9943 6.70085L13.9219 9.25911Z" fill="#F0C090"/>
<path d="M7.07777 9.25911C7.07777 9.25911 6.35862 9.50063 5.91546 8.22417C5.40618 6.75512 5.75828 6.09439 6.21952 6.13713C6.37639 6.15175 6.50488 6.1793 6.6078 6.23244C6.91685 6.39326 7.00542 6.70085 7.00542 6.70085L7.07777 9.25911Z" fill="#F0C090"/>
<path d="M5.88519 2.72052C5.52904 3.6011 6.26224 6.22263 6.26224 6.22263L6.74094 6.89094L6.62774 5.42048C6.62774 5.42048 7.65097 3.42285 7.37185 2.68369L6.72317 1.84049C6.72317 1.84049 6.00027 2.43374 5.88519 2.72052Z" fill="#3C1F13"/>
<path d="M15.1145 2.72052C15.4703 3.6011 14.7371 6.22263 14.7371 6.22263L14.2581 6.89094L14.3713 5.42048C14.3713 5.42048 13.3481 3.42285 13.6269 2.68369L14.2756 1.84049C14.2756 1.84049 14.9994 2.43374 15.1145 2.72052Z" fill="#3C1F13"/>
<path d="M10.5001 7.46501e-06C9.26827 -0.0022418 7.48908 0.503562 6.72346 1.84047L7.37213 2.68366C7.37213 2.68366 9.1114 3.52208 10.5469 3.61795C11.4476 3.67812 12.8896 3.71748 13.9852 2.93502L14.2762 1.84019C14.2762 1.84019 13.388 0.00506831 10.5001 7.46501e-06Z" fill="#3C1F13"/>
<path d="M10.5002 14.7285V16.7435L11.1732 16.9614L12.139 15.4792C12.139 15.4792 11.2299 14.7825 10.5002 14.7285Z" fill="#2648A2"/>
<path d="M13.1513 13.3317L13.7173 13.6533L12.4964 17.3455L10.4998 14.7285C10.4998 14.7285 11.5914 14.5401 13.1513 13.3317Z" fill="#FAF8FA"/>
<path d="M5.66906 17.6435L6.22793 16.9187L6.50736 16.5554L5.4913 15.0484L5.11239 14.487L5.10584 14.4768C5.10584 14.4768 1.14298 16.1095 1.13675 16.1154C0.854197 16.3927 0.342115 18.8593 0 21H8.4958L5.66906 17.6435Z" fill="#3B556C"/>
<path d="M15.33 17.6435L12.5033 21H21C20.657 18.8593 20.1455 16.3927 19.863 16.1154C19.8567 16.1095 15.8942 14.4768 15.8942 14.4768L14.4927 16.5554L15.33 17.6435Z" fill="#60768E"/>
<path d="M10.5002 20.9997V16.7433L9.82716 16.9612C9.82716 16.9612 9.3946 18.7263 9.28794 19.6282L9.7311 20.9997H10.5002Z" fill="#2648A2"/>
<path d="M11.2686 20.9997L11.7121 19.6282C11.6057 18.7266 11.1732 16.9612 11.1732 16.9612L10.5002 16.7433V20.9997H11.2686Z" fill="#2648A2"/>
<path d="M6.50767 16.5552L6.22793 16.9184L5.66969 17.6435L8.49612 20.9997H9.73048L9.28762 19.6282L7.79224 15.0018L7.34097 13.6058L5.10615 14.4766L5.49162 15.0485L6.50767 16.5552Z" fill="#597D90"/>
<path d="M15.33 17.6435L14.4923 16.5552L15.8942 14.4766L13.7173 13.6533L13.2717 14.9998L11.8487 19.3018L11.287 20.9997H12.5033L15.33 17.6435Z" fill="#3D5B73"/>
</svg>
