<svg width="70" height="76" viewBox="0 0 70 76" fill="none" xmlns="http://www.w3.org/2000/svg">
<circle cx="35" cy="41" r="35" fill="#DAE8FF"/>
<path d="M52.5379 49.8389C52.5379 59.3168 44.8123 67 35.2805 67C25.7496 67 18.0234 59.3168 18.0234 49.8389C18.0234 40.3613 25.7496 32.6781 35.2805 32.6781C44.812 32.6781 52.5379 40.3613 52.5379 49.8389Z" fill="#77787B"/>
<path d="M48.1824 49.8389C48.1824 56.9223 42.4077 62.6647 35.2844 62.6647C28.1615 62.6647 22.3867 56.9223 22.3867 49.8389C22.3867 42.7558 28.1615 37.0134 35.2844 37.0134C42.4079 37.0134 48.1824 42.7555 48.1824 49.8389Z" fill="#58595B"/>
<path d="M36.8067 64.6751C36.8067 65.5111 36.1253 66.189 35.2841 66.189C34.4437 66.189 33.7617 65.5111 33.7617 64.6751C33.7617 63.8386 34.4437 63.161 35.2841 63.161C36.1253 63.161 36.8067 63.8386 36.8067 64.6751Z" fill="#414042"/>
<path d="M21.7484 51.353C21.7484 52.189 21.0668 52.8668 20.2261 52.8668C19.3848 52.8668 18.7031 52.189 18.7031 51.353C18.7031 50.5164 19.3848 49.8386 20.2261 49.8386C21.0668 49.8389 21.7484 50.5167 21.7484 51.353Z" fill="#414042"/>
<path d="M51.7208 51.353C51.7208 52.189 51.0391 52.8668 50.1979 52.8668C49.3575 52.8668 48.6758 52.189 48.6758 51.353C48.6758 50.5164 49.3575 49.8386 50.1979 49.8386C51.0394 49.8389 51.7208 50.5167 51.7208 51.353Z" fill="#414042"/>
<path d="M46.9672 49.8389C46.9672 56.2574 41.7347 61.4603 35.2806 61.4603C28.8259 61.4603 23.5938 56.2571 23.5938 49.8389C23.5938 43.4206 28.8262 38.2177 35.2806 38.2177C41.735 38.2175 46.9672 43.4206 46.9672 49.8389Z" fill="#9D9FA2"/>
<path d="M35.2826 59.5688C29.6379 59.5688 25.0624 55.0188 25.0624 49.4061V37.9462H45.5028V49.4061C45.5028 55.0191 40.9269 59.5688 35.2826 59.5688Z" fill="#333132"/>
<path d="M57.6046 26.1372C57.6046 38.3962 47.6111 48.3341 35.2831 48.3341C22.9551 48.3341 12.9609 38.3962 12.9609 26.1372C12.9609 13.8782 22.9554 3.94025 35.2831 3.94025C47.6111 3.94025 57.6046 13.8782 57.6046 26.1372Z" fill="#636466"/>
<path d="M43.0108 44.4527C53.1835 40.2056 57.9677 28.5623 53.6967 18.4466C49.4258 8.33086 37.7169 3.57338 27.5442 7.82044C17.3716 12.0675 12.5873 23.7108 16.8583 33.8266C21.1293 43.9423 32.8381 48.6998 43.0108 44.4527Z" fill="#B1B3B6"/>
<path d="M53.5941 26.1372C53.5941 36.1934 45.3956 44.3454 35.2831 44.3454C25.1699 44.3454 16.9727 36.1934 16.9727 26.1372C16.9727 16.0812 25.1702 7.92865 35.2831 7.92865C45.3959 7.92865 53.5941 16.0812 53.5941 26.1372Z" fill="#2D2D2D"/>
<path d="M35.2796 35.054C40.2319 35.054 44.2466 31.0618 44.2466 26.1371C44.2466 21.2125 40.2319 17.2202 35.2796 17.2202C30.3272 17.2202 26.3125 21.2125 26.3125 26.1371C26.3125 31.0618 30.3272 35.054 35.2796 35.054Z" fill="#333132"/>
<path d="M40.8433 26.1372C40.8433 29.1907 38.354 31.6661 35.283 31.6661C32.212 31.6661 29.7227 29.1907 29.7227 26.1372C29.7227 23.0834 32.2117 20.6079 35.283 20.6079C38.354 20.6079 40.8433 23.0834 40.8433 26.1372Z" fill="#2D2D2D"/>
<path d="M43.1164 26.1372C43.1164 30.4382 39.6102 33.9248 35.2846 33.9248C30.9596 33.9248 27.4531 30.4382 27.4531 26.1372C27.4531 21.8361 30.9593 18.3492 35.2846 18.3492C39.6105 18.3492 43.1164 21.8361 43.1164 26.1372Z" fill="#007F59"/>
<path d="M37.8567 12.639C37.8567 14.0557 36.7025 15.2035 35.2778 15.2035C33.8538 15.2035 32.6992 14.0557 32.6992 12.639C32.6992 11.2226 33.8538 10.0748 35.2778 10.0748C36.7025 10.0748 37.8567 11.2226 37.8567 12.639Z" fill="#77787B"/>
<path d="M36.7459 11.8175C36.7459 12.6228 36.0893 13.276 35.2793 13.276C34.4692 13.276 33.8126 12.6231 33.8126 11.8175C33.8126 11.0117 34.4692 10.3585 35.2793 10.3585C36.0893 10.3588 36.7459 11.012 36.7459 11.8175Z" fill="#9D9FA2"/>
<path d="M37.8567 39.7406C37.8567 41.157 36.7025 42.3048 35.2778 42.3048C33.8538 42.3048 32.6992 41.157 32.6992 39.7406C32.6992 38.3245 33.8538 37.1765 35.2778 37.1765C36.7025 37.1765 37.8567 38.3242 37.8567 39.7406Z" fill="#77787B"/>
<path d="M36.7459 38.9189C36.7459 39.7244 36.0893 40.3776 35.2793 40.3776C34.4692 40.3776 33.8126 39.7244 33.8126 38.9189C33.8126 38.1131 34.4692 37.4601 35.2793 37.4601C36.0893 37.4604 36.7459 38.1134 36.7459 38.9189Z" fill="#9D9FA2"/>
<path d="M21.6564 23.6255C23.0811 23.6255 24.2356 24.7736 24.2356 26.1897C24.2356 27.6058 23.0811 28.7538 21.6564 28.7538C20.2327 28.7538 19.0781 27.6058 19.0781 26.1897C19.0781 24.7736 20.2327 23.6255 21.6564 23.6255Z" fill="#77787B"/>
<path d="M20.8299 24.7312C21.6403 24.7312 22.2966 25.3841 22.2966 26.1899C22.2966 26.9954 21.6403 27.6483 20.8299 27.6483C20.0202 27.6483 19.3633 26.9954 19.3633 26.1899C19.363 25.3841 20.0199 24.7312 20.8299 24.7312Z" fill="#9D9FA2"/>
<path d="M48.9184 23.6255C50.3428 23.6255 51.4973 24.7736 51.4973 26.1897C51.4973 27.6058 50.3428 28.7538 48.9184 28.7538C47.4941 28.7538 46.3398 27.6058 46.3398 26.1897C46.3401 24.7736 47.4944 23.6255 48.9184 23.6255Z" fill="#77787B"/>
<path d="M48.0919 24.7312C48.9017 24.7312 49.5583 25.3841 49.5583 26.1899C49.5583 26.9954 48.9017 27.6483 48.0919 27.6483C47.2813 27.6483 46.625 26.9954 46.625 26.1899C46.625 25.3841 47.2813 24.7312 48.0919 24.7312Z" fill="#9D9FA2"/>
<path d="M46.738 18.4211C45.7311 19.4224 44.0982 19.4224 43.0909 18.4211C42.0843 17.4195 42.0843 15.796 43.0909 14.7947C44.0982 13.7934 45.7311 13.7934 46.738 14.7947C47.745 15.7963 47.745 17.4198 46.738 18.4211Z" fill="#77787B"/>
<path d="M46.5349 17.0584C45.9617 17.6281 45.0341 17.6281 44.4609 17.0584C43.888 16.4887 43.888 15.5654 44.4609 14.9955C45.0341 14.4261 45.962 14.4261 46.5349 14.9955C47.1078 15.5652 47.1078 16.4887 46.5349 17.0584Z" fill="#9D9FA2"/>
<path d="M27.4723 37.5848C26.4657 38.5861 24.8327 38.5861 23.8255 37.5848C22.8186 36.5835 22.8186 34.9597 23.8255 33.9587C24.8327 32.9571 26.4657 32.9571 27.4723 33.9587C28.4801 34.9597 28.4801 36.5835 27.4723 37.5848Z" fill="#77787B"/>
<path d="M27.2699 36.2221C26.697 36.7918 25.7683 36.7918 25.1951 36.2221C24.6225 35.6527 24.6225 34.7288 25.1951 34.1592C25.7683 33.5901 26.697 33.5901 27.2699 34.1592C27.8428 34.7288 27.8428 35.6524 27.2699 36.2221Z" fill="#9D9FA2"/>
<path d="M27.4723 14.7947C28.4798 15.7963 28.4798 17.4198 27.4723 18.4211C26.4657 19.4224 24.8327 19.4224 23.8255 18.4211C22.8186 17.4195 22.8186 15.796 23.8255 14.7947C24.833 13.7934 26.4657 13.7934 27.4723 14.7947Z" fill="#77787B"/>
<path d="M26.1019 14.9955C26.6748 15.5652 26.6748 16.4887 26.1019 17.0584C25.5291 17.6281 24.6 17.6281 24.0271 17.0584C23.4545 16.4887 23.4545 15.5654 24.0271 14.9955C24.6 14.4261 25.5291 14.4261 26.1019 14.9955Z" fill="#9D9FA2"/>
<path d="M46.738 33.9585C47.745 34.9598 47.745 36.5833 46.738 37.5846C45.7311 38.5859 44.0982 38.5859 43.0909 37.5846C42.0843 36.5833 42.0843 34.9595 43.0909 33.9585C44.0982 32.9569 45.7311 32.9569 46.738 33.9585Z" fill="#77787B"/>
<path d="M45.3669 34.1592C45.9395 34.7288 45.9395 35.6524 45.3669 36.2221C44.794 36.7918 43.8656 36.7918 43.293 36.2221C42.7201 35.6527 42.7201 34.7288 43.293 34.1592C43.8656 33.5901 44.794 33.5901 45.3669 34.1592Z" fill="#9D9FA2"/>
<path d="M38.1091 26.1372C38.1091 27.6881 36.8452 28.945 35.2852 28.945C33.7257 28.945 32.4609 27.6878 32.4609 26.1372C32.4609 24.5859 33.7257 23.329 35.2852 23.329C36.8452 23.329 38.1091 24.5862 38.1091 26.1372Z" fill="#005826"/>
<path d="M40.3806 22.0855C40.3806 23.5753 38.0992 24.7831 35.284 24.7831C32.4697 24.7831 30.1875 23.5753 30.1875 22.0855C30.1875 20.5955 32.4694 19.3879 35.284 19.3879C38.0992 19.3879 40.3806 20.5958 40.3806 22.0855Z" fill="#39B54A"/>
<path d="M26.3125 49.2527C30.8612 53.2269 39.0556 53.3069 43.9806 49.2527C43.9806 49.2527 43.6396 58.3303 35.6713 58.5591C27.0671 58.8065 26.3125 49.2527 26.3125 49.2527Z" fill="#808285"/>
<path d="M11.0988 26.1371C11.0988 12.8545 21.9271 2.08701 35.284 2.08701C48.6414 2.08701 59.4695 12.8545 59.4695 26.1371C59.4695 26.1548 59.468 26.1722 59.468 26.1899H61.5665C61.5665 26.1722 61.5679 26.1548 61.5679 26.1371C61.5679 11.7018 49.8 0 35.284 0C20.7674 0 9 11.7021 9 26.1371C9 26.1548 9.00117 26.1722 9.00117 26.1899H11.1002C11.0999 26.1722 11.0988 26.1548 11.0988 26.1371Z" fill="#636466"/>
</svg>
