<svg width="70" height="76" viewBox="0 0 70 76" fill="none" xmlns="http://www.w3.org/2000/svg">
<circle cx="35" cy="41" r="35" fill="#DAE8FF"/>
<mask id="mask0_1_6576" style="mask-type:alpha" maskUnits="userSpaceOnUse" x="0" y="6" width="70" height="70">
<circle cx="35" cy="41" r="35" fill="#DAE8FF"/>
</mask>
<g mask="url(#mask0_1_6576)">
<path d="M19.6055 22.776H49.2794V14.3937C49.2794 7.57362 43.6643 2.04492 36.7377 2.04492H32.1472C25.2205 2.04492 19.6055 7.57362 19.6055 14.3937" fill="#3C1F13"/>
<path d="M67 76C66.7193 74.3077 66.2284 66.5296 65.3857 60.5869C63.7016 48.7029 41.3923 44.5908 41.3923 44.5908L34.7709 44.4786V44.4625L34.4997 44.4706L34.2284 44.4625V44.4786L27.546 44.5908C27.546 44.5908 5.29843 48.7029 3.61428 60.5869C2.77221 66.5302 2.28069 74.3077 2 76H67Z" fill="#283351"/>
<path d="M34.51 50.8489L27.9396 55.5348C27.9396 55.5348 25.5657 49.8977 25.0352 45.1615C26.5808 44.7705 27.5469 44.5908 27.5469 44.5908L30.0366 44.5487L34.51 50.8489Z" fill="#131A2C"/>
<path d="M44.0114 45.1845C43.4771 49.9169 41.1095 55.5348 41.1095 55.5348L34.5391 50.8489L39.0106 44.5505L41.3952 44.5908C41.3952 44.5908 42.4059 44.7767 44.0114 45.1845Z" fill="#131A2C"/>
<path d="M34.51 50.8489L27.9396 55.5348C27.9396 55.5348 25.5657 49.8977 25.0352 45.1615C26.5808 44.7705 27.5469 44.5908 27.5469 44.5908V44.6119L34.51 50.8489Z" fill="#455A89"/>
<path d="M44.0114 45.1845C43.4771 49.9169 41.1095 55.5348 41.1095 55.5348L34.5391 50.8489L34.5863 50.7832L41.3952 44.6119V44.5908C41.3952 44.5908 42.4059 44.7767 44.0114 45.1845Z" fill="#455A89"/>
<path d="M26.2382 23.369C26.2382 21.5465 24.4823 20.0686 22.3167 20.0686C20.1511 20.0686 19.3398 21.5465 19.3398 23.369C19.3398 25.1921 20.7672 28.8878 22.9334 28.8878C25.0997 28.8878 26.2382 25.1914 26.2382 23.369Z" fill="#D7A374"/>
<path d="M42.7891 23.369C42.7891 21.5465 44.545 20.0686 46.7106 20.0686C48.8761 20.0686 49.6874 21.5465 49.6874 23.369C49.6874 25.1921 48.26 28.8878 46.0938 28.8878C43.9282 28.8878 42.7891 25.1914 42.7891 23.369Z" fill="#D7A374"/>
<path d="M41.3965 35.1966H27.5508V44.6119L34.5139 50.8489L41.3965 44.6119V35.1966Z" fill="#D7A374"/>
<path d="M46.5617 16.6468H22.4727V28.7198C22.4727 35.1266 27.7472 40.3201 34.2541 40.3201H34.7802C41.2871 40.3201 46.5617 35.1266 46.5617 28.7198V16.6468Z" fill="#F0C090"/>
<path d="M47.2233 3.21918C47.2233 3.21918 39.5389 1.7264 35.6514 0.381715C35.2776 0.254683 34.9384 0.123934 34.6432 0L33.635 0.381715C29.7475 1.7264 22.0631 3.21918 22.0631 3.21918C21.0272 5.75735 16.3008 10.0975 16.3008 10.0975C17.6319 18.2654 25.8046 18.0491 25.8046 18.0491L34.6388 17.3954L43.4774 18.0522C43.4774 18.0522 51.6502 18.2654 52.9812 10.0975C52.9812 10.0975 48.2548 5.75735 47.2233 3.21918Z" fill="#283351"/>
<path d="M33.3713 17.4895C26.4157 13.4096 22.0631 3.21918 22.0631 3.21918C21.0272 5.75734 16.3008 10.0975 16.3008 10.0975C21.3897 14.302 27.8978 16.5514 31.7979 17.6054L33.3713 17.4895Z" fill="#19233A"/>
<path d="M35.8906 17.4895C42.8456 13.4096 47.1982 3.21979 47.1982 3.21979C48.2341 5.75795 52.9605 10.0981 52.9605 10.0981C47.8716 14.3026 41.3635 16.552 37.4634 17.606L35.8906 17.4895Z" fill="#19233A"/>
<path d="M22.4961 17.6594C22.8127 20.6747 28.0721 23.0734 34.5148 23.0734C40.9575 23.0734 46.217 20.6747 46.5335 17.6594H22.4961Z" fill="#283351"/>
<path d="M22.5013 17.6593V14.913H46.5255V17.6593C46.5255 17.6593 22.293 17.6593 22.5013 17.6593Z" fill="#455A89"/>
<path d="M54.8359 66.1417C54.4067 64.5144 55.0506 63.3073 55.0506 63.3073L53.6458 62.2204C52.1826 63.065 51.1341 62.3604 50.8949 62.2855C50.8949 62.2855 49.5305 63.14 48.1397 62.2204L46.7349 63.3073C46.7349 63.3073 47.3788 64.5144 46.9495 66.1417C46.5203 67.7689 46.0181 69.8777 48.881 70.2532C49.3052 70.3083 49.6665 70.3833 49.9786 70.4787C50.3594 70.589 50.6564 70.7241 50.8956 70.8642C51.1347 70.7192 51.4324 70.5884 51.8075 70.4787C52.1146 70.3889 52.4803 70.3083 52.9051 70.2532C55.7674 69.877 55.2652 67.7689 54.8359 66.1417Z" fill="#FFC543"/>
<path d="M26.8514 65.2549H16.9297V66.9373H26.8514V65.2549Z" fill="#455A89"/>
<path d="M34.6267 57.26C35.2986 57.26 35.8432 56.7237 35.8432 56.0621C35.8432 55.4006 35.2986 54.8643 34.6267 54.8643C33.9548 54.8643 33.4102 55.4006 33.4102 56.0621C33.4102 56.7237 33.9548 57.26 34.6267 57.26Z" fill="#455A89"/>
<path d="M34.6267 65.7575C35.2986 65.7575 35.8432 65.2212 35.8432 64.5596C35.8432 63.8981 35.2986 63.3618 34.6267 63.3618C33.9548 63.3618 33.4102 63.8981 33.4102 64.5596C33.4102 65.2212 33.9548 65.7575 34.6267 65.7575Z" fill="#455A89"/>
<path d="M34.6267 74.1645C35.2986 74.1645 35.8432 73.6282 35.8432 72.9667C35.8432 72.3052 35.2986 71.7689 34.6267 71.7689C33.9548 71.7689 33.4102 72.3052 33.4102 72.9667C33.4102 73.6282 33.9548 74.1645 34.6267 74.1645Z" fill="#455A89"/>
<path d="M20.6509 49.8053C16.572 51.1141 12.9507 52.9954 9.88266 55.2491C9.25772 55.7083 8.37663 55.6234 7.86056 55.0477C7.33127 54.4572 6.77996 53.8772 6.20662 53.3095C5.55461 52.6632 5.64524 51.6011 6.39039 51.0608C9.8556 48.5492 14.0943 46.7968 18.6734 45.2916C19.3317 45.0754 20.0574 45.3276 20.4293 45.9051C20.8271 46.5229 21.1694 47.0757 21.5055 47.6681C21.9681 48.486 21.5559 49.5147 20.6509 49.8053Z" fill="#455A89"/>
<path d="M49.2297 49.8053C53.3086 51.1141 56.9298 52.9954 59.9979 55.2491C60.6229 55.7083 61.504 55.6234 62.02 55.0477C62.5493 54.4572 63.1006 53.8772 63.674 53.3095C64.326 52.6632 64.2353 51.6011 63.4902 51.0608C60.025 48.5492 55.7863 46.7968 51.2071 45.2916C50.5488 45.0754 49.8232 45.3276 49.4513 45.9051C49.0535 46.5229 48.7111 47.0757 48.3751 47.6681C47.9119 48.486 48.3247 49.5147 49.2297 49.8053Z" fill="#455A89"/>
</g>
<path d="M19.6055 22.776H49.2794V14.3937C49.2794 7.57362 43.6643 2.04492 36.7377 2.04492H32.1472C25.2205 2.04492 19.6055 7.57362 19.6055 14.3937" fill="#3C1F13"/>
<path d="M34.51 50.8489L27.9396 55.5348C27.9396 55.5348 25.5657 49.8977 25.0352 45.1615C26.5808 44.7705 27.5469 44.5908 27.5469 44.5908L30.0366 44.5487L34.51 50.8489Z" fill="#131A2C"/>
<path d="M44.0114 45.1845C43.4771 49.9169 41.1095 55.5348 41.1095 55.5348L34.5391 50.8489L39.0106 44.5505L41.3952 44.5908C41.3952 44.5908 42.4059 44.7767 44.0114 45.1845Z" fill="#131A2C"/>
<path d="M34.51 50.8489L27.9396 55.5348C27.9396 55.5348 25.5657 49.8977 25.0352 45.1615C26.5808 44.7705 27.5469 44.5908 27.5469 44.5908V44.6119L34.51 50.8489Z" fill="#455A89"/>
<path d="M44.0114 45.1845C43.4771 49.9169 41.1095 55.5348 41.1095 55.5348L34.5391 50.8489L34.5863 50.7832L41.3952 44.6119V44.5908C41.3952 44.5908 42.4059 44.7767 44.0114 45.1845Z" fill="#455A89"/>
<path d="M26.2382 23.369C26.2382 21.5465 24.4823 20.0686 22.3167 20.0686C20.1511 20.0686 19.3398 21.5465 19.3398 23.369C19.3398 25.1921 20.7672 28.8878 22.9334 28.8878C25.0997 28.8878 26.2382 25.1914 26.2382 23.369Z" fill="#D7A374"/>
<path d="M42.7891 23.369C42.7891 21.5465 44.545 20.0686 46.7106 20.0686C48.8761 20.0686 49.6874 21.5465 49.6874 23.369C49.6874 25.1921 48.26 28.8878 46.0938 28.8878C43.9282 28.8878 42.7891 25.1914 42.7891 23.369Z" fill="#D7A374"/>
<path d="M41.3965 35.1966H27.5508V44.6119L34.5139 50.8489L41.3965 44.6119V35.1966Z" fill="#D7A374"/>
<path d="M46.5617 16.6468H22.4727V28.7198C22.4727 35.1266 27.7472 40.3201 34.2541 40.3201H34.7802C41.2871 40.3201 46.5617 35.1266 46.5617 28.7198V16.6468Z" fill="#F0C090"/>
<path d="M47.2233 3.21918C47.2233 3.21918 39.5389 1.7264 35.6514 0.381715C35.2776 0.254683 34.9384 0.123934 34.6432 0L33.635 0.381715C29.7475 1.7264 22.0631 3.21918 22.0631 3.21918C21.0272 5.75735 16.3008 10.0975 16.3008 10.0975C17.6319 18.2654 25.8046 18.0491 25.8046 18.0491L34.6388 17.3954L43.4774 18.0522C43.4774 18.0522 51.6502 18.2654 52.9812 10.0975C52.9812 10.0975 48.2548 5.75735 47.2233 3.21918Z" fill="#283351"/>
<path d="M33.3713 17.4895C26.4157 13.4096 22.0631 3.21918 22.0631 3.21918C21.0272 5.75734 16.3008 10.0975 16.3008 10.0975C21.3897 14.302 27.8978 16.5514 31.7979 17.6054L33.3713 17.4895Z" fill="#19233A"/>
<path d="M35.8906 17.4895C42.8456 13.4096 47.1982 3.21979 47.1982 3.21979C48.2341 5.75795 52.9605 10.0981 52.9605 10.0981C47.8716 14.3026 41.3635 16.552 37.4634 17.606L35.8906 17.4895Z" fill="#19233A"/>
<path d="M22.4961 17.6594C22.8127 20.6747 28.0721 23.0734 34.5148 23.0734C40.9575 23.0734 46.217 20.6747 46.5335 17.6594H22.4961Z" fill="#283351"/>
<path d="M22.5013 17.6593V14.913H46.5255V17.6593C46.5255 17.6593 22.293 17.6593 22.5013 17.6593Z" fill="#455A89"/>
<path d="M54.8359 66.1417C54.4067 64.5144 55.0506 63.3073 55.0506 63.3073L53.6458 62.2204C52.1826 63.065 51.1341 62.3604 50.8949 62.2855C50.8949 62.2855 49.5305 63.14 48.1397 62.2204L46.7349 63.3073C46.7349 63.3073 47.3788 64.5144 46.9495 66.1417C46.5203 67.7689 46.0181 69.8777 48.881 70.2532C49.3052 70.3083 49.6665 70.3833 49.9786 70.4787C50.3594 70.589 50.6564 70.7241 50.8956 70.8642C51.1347 70.7192 51.4324 70.5884 51.8075 70.4787C52.1146 70.3889 52.4803 70.3083 52.9051 70.2532C55.7674 69.877 55.2652 67.7689 54.8359 66.1417Z" fill="#FFC543"/>
<path d="M26.8514 65.2549H16.9297V66.9373H26.8514V65.2549Z" fill="#455A89"/>
<path d="M34.6267 57.26C35.2986 57.26 35.8432 56.7237 35.8432 56.0621C35.8432 55.4006 35.2986 54.8643 34.6267 54.8643C33.9548 54.8643 33.4102 55.4006 33.4102 56.0621C33.4102 56.7237 33.9548 57.26 34.6267 57.26Z" fill="#455A89"/>
<path d="M34.6267 65.7575C35.2986 65.7575 35.8432 65.2212 35.8432 64.5596C35.8432 63.8981 35.2986 63.3618 34.6267 63.3618C33.9548 63.3618 33.4102 63.8981 33.4102 64.5596C33.4102 65.2212 33.9548 65.7575 34.6267 65.7575Z" fill="#455A89"/>
<path d="M34.6267 74.1645C35.2986 74.1645 35.8432 73.6282 35.8432 72.9667C35.8432 72.3052 35.2986 71.7689 34.6267 71.7689C33.9548 71.7689 33.4102 72.3052 33.4102 72.9667C33.4102 73.6282 33.9548 74.1645 34.6267 74.1645Z" fill="#455A89"/>
<path d="M20.6509 49.8053C16.572 51.1141 12.9507 52.9954 9.88266 55.2491C9.25772 55.7083 8.37663 55.6234 7.86056 55.0477C7.33127 54.4572 6.77996 53.8772 6.20662 53.3095C5.55461 52.6632 5.64524 51.6011 6.39039 51.0608C9.8556 48.5492 14.0943 46.7968 18.6734 45.2916C19.3317 45.0754 20.0574 45.3276 20.4293 45.9051C20.8271 46.5229 21.1694 47.0757 21.5055 47.6681C21.9681 48.486 21.5559 49.5147 20.6509 49.8053Z" fill="#455A89"/>
<path d="M49.2297 49.8053C53.3086 51.1141 56.9298 52.9954 59.9979 55.2491C60.6229 55.7083 61.504 55.6234 62.02 55.0477C62.5493 54.4572 63.1006 53.8772 63.674 53.3095C64.326 52.6632 64.2353 51.6011 63.4902 51.0608C60.025 48.5492 55.7863 46.7968 51.2071 45.2916C50.5488 45.0754 49.8232 45.3276 49.4513 45.9051C49.0535 46.5229 48.7111 47.0757 48.3751 47.6681C47.9119 48.486 48.3247 49.5147 49.2297 49.8053Z" fill="#455A89"/>
</svg>
