<svg width="70" height="76" viewBox="0 0 70 76" fill="none" xmlns="http://www.w3.org/2000/svg">
<circle cx="35" cy="41" r="35" fill="#DAE8FF"/>
<mask id="mask0_1_6518" style="mask-type:alpha" maskUnits="userSpaceOnUse" x="0" y="6" width="70" height="70">
<circle cx="35" cy="41" r="35" fill="#D9D9D9"/>
</mask>
<g mask="url(#mask0_1_6518)">
<path d="M34.9977 38.7881L26.4102 34.4504V54.0611C26.4102 54.0611 29.7335 58.0743 34.9977 58.0743C41.2161 58.0743 43.5821 54.3786 43.5821 54.3786V37.3432L34.9977 38.7881Z" fill="#F0C090"/>
<path d="M43.5821 42.0859C43.5821 42.0859 39.4813 45.8965 26.4102 53.0558L26.4374 40.235L43.5821 42.0859Z" fill="#D7A374"/>
<path d="M35.0017 53.3031V60.5957L32.8225 61.3843L29.6951 56.0199C29.6951 56.0199 32.6357 53.4985 35.0017 53.3031Z" fill="#2648A2"/>
<path d="M26.4245 48.3905L24.7734 49.2401L28.7148 62.8699L35.0029 53.3021C35.0029 53.3021 31.4766 52.7648 26.4245 48.3905Z" fill="#DFE1DE"/>
<path d="M21.5423 24.1021C21.5423 24.1021 23.575 39.9613 23.9981 40.7285C24.4202 41.4947 32.3645 45.866 34.9991 45.6737V7.31197C34.9991 7.31197 18.3553 0.3409 21.5423 24.1021Z" fill="#F0C090"/>
<path d="M48.4559 24.1021C48.4559 24.1021 46.4231 39.9613 45.999 40.7285C45.5768 41.4947 37.6346 45.866 35 45.6737V7.31196C35 7.31196 50.6542 3.97652 48.4559 24.1021Z" fill="#F0C090"/>
<path d="M46.082 33.5092C46.082 33.5092 48.4107 34.3832 49.8456 29.7637C51.4927 24.4471 50.3536 22.0559 48.859 22.2106C48.3511 22.2635 47.9371 22.3632 47.6028 22.5555C46.6021 23.1375 46.3163 24.2507 46.3163 24.2507L46.082 33.5092Z" fill="#F0C090"/>
<path d="M23.9183 33.5092C23.9183 33.5092 21.5896 34.3832 20.1547 29.7637C18.5056 24.4471 19.6457 22.0559 21.1392 22.2106C21.6472 22.2635 22.0632 22.3632 22.3965 22.5555C23.3972 23.1375 23.684 24.2507 23.684 24.2507L23.9183 33.5092Z" fill="#F0C090"/>
<path d="M20.0621 9.8456C18.9089 13.0325 21.283 22.5199 21.283 22.5199L22.833 24.9386L22.4665 19.6169C22.4665 19.6169 25.7797 12.3874 24.8759 9.7123L22.7755 6.66075C22.7755 6.66075 20.4347 8.80772 20.0621 9.8456Z" fill="#3C1F13"/>
<path d="M49.9415 9.8456C51.0937 13.0325 48.7196 22.5199 48.7196 22.5199L47.1685 24.9386L47.5351 19.6169C47.5351 19.6169 44.2219 12.3874 45.1246 9.7123L47.225 6.66075C47.225 6.66075 49.5688 8.80772 49.9415 9.8456Z" fill="#3C1F13"/>
<path d="M34.9984 2.70162e-05C31.0097 -0.00811319 25.2486 1.82242 22.7695 6.66075L24.87 9.7123C24.87 9.7123 30.5017 12.7466 35.1499 13.0935C38.0663 13.3113 42.7357 13.4537 46.2832 10.622L47.2254 6.65973C47.2254 6.65973 44.3494 0.0183425 34.9984 2.70162e-05Z" fill="#3C1F13"/>
<path d="M35 53.3031V60.5957L37.1792 61.3843L40.3066 56.0199C40.3066 56.0199 37.363 53.4985 35 53.3031Z" fill="#2648A2"/>
<path d="M43.5855 48.248L45.4183 49.4121L41.4649 62.7742L35 53.3031C35 53.3031 38.5344 52.6213 43.5855 48.248Z" fill="#FAF8FA"/>
<path d="M19.3565 63.8528L21.1661 61.2296L22.0709 59.915L18.7809 54.461L17.554 52.429L17.5328 52.3924C17.5328 52.3924 4.70099 58.3012 4.6808 58.3225C3.7659 59.3258 2.10777 68.2526 1 76H28.5095L19.3565 63.8528Z" fill="#3B556C"/>
<path d="M50.6413 63.8528L41.4883 76H69.0008C67.89 68.2526 66.2339 59.3258 65.319 58.3225C65.2988 58.3012 52.4681 52.3924 52.4681 52.3924L47.9299 59.915L50.6413 63.8528Z" fill="#60768E"/>
<path d="M34.9994 75.999V60.5947L32.8202 61.3832C32.8202 61.3832 31.4196 67.7713 31.0742 71.0355L32.5092 75.999H34.9994Z" fill="#2648A2"/>
<path d="M37.4882 75.999L38.9242 71.0355C38.5798 67.7723 37.1792 61.3832 37.1792 61.3832L35 60.5947V75.999H37.4882Z" fill="#2648A2"/>
<path d="M22.0694 59.9139L21.1636 61.2286L19.356 63.8528L28.508 75.999H32.5049L31.0709 71.0355L26.2288 54.2921L24.7676 49.2401L17.5312 52.3914L18.7794 54.461L22.0694 59.9139Z" fill="#597D90"/>
<path d="M50.6382 63.8528L47.9258 59.9139L52.4649 52.3914L45.4164 49.4121L43.9734 54.285L39.3656 69.8541L37.5469 75.999H41.4852L50.6382 63.8528Z" fill="#3D5B73"/>
</g>
<path d="M34.9977 38.7881L26.4102 34.4504V54.0611C26.4102 54.0611 29.7335 58.0743 34.9977 58.0743C41.2161 58.0743 43.5821 54.3786 43.5821 54.3786V37.3432L34.9977 38.7881Z" fill="#F0C090"/>
<path d="M43.5821 42.0859C43.5821 42.0859 39.4813 45.8965 26.4102 53.0558L26.4374 40.235L43.5821 42.0859Z" fill="#D7A374"/>
<path d="M35.0017 53.3031V60.5957L32.8225 61.3843L29.6951 56.0199C29.6951 56.0199 32.6357 53.4985 35.0017 53.3031Z" fill="#2648A2"/>
<path d="M26.4245 48.3905L24.7734 49.2401L28.7148 62.8699L35.0029 53.3021C35.0029 53.3021 31.4766 52.7648 26.4245 48.3905Z" fill="#DFE1DE"/>
<path d="M21.5423 24.1021C21.5423 24.1021 23.575 39.9613 23.9981 40.7285C24.4202 41.4947 32.3645 45.866 34.9991 45.6737V7.31197C34.9991 7.31197 18.3553 0.340899 21.5423 24.1021Z" fill="#F0C090"/>
<path d="M48.4559 24.1021C48.4559 24.1021 46.4231 39.9613 45.999 40.7285C45.5768 41.4947 37.6346 45.866 35 45.6737V7.31196C35 7.31196 50.6542 3.97652 48.4559 24.1021Z" fill="#F0C090"/>
<path d="M46.082 33.5092C46.082 33.5092 48.4107 34.3832 49.8456 29.7637C51.4927 24.4471 50.3536 22.0559 48.859 22.2106C48.3511 22.2635 47.9371 22.3632 47.6028 22.5555C46.6021 23.1375 46.3163 24.2507 46.3163 24.2507L46.082 33.5092Z" fill="#F0C090"/>
<path d="M23.9183 33.5092C23.9183 33.5092 21.5896 34.3832 20.1547 29.7637C18.5056 24.4471 19.6457 22.0559 21.1392 22.2106C21.6472 22.2635 22.0632 22.3632 22.3965 22.5555C23.3972 23.1375 23.684 24.2507 23.684 24.2507L23.9183 33.5092Z" fill="#F0C090"/>
<path d="M20.0621 9.8456C18.9089 13.0325 21.283 22.5199 21.283 22.5199L22.833 24.9386L22.4665 19.6169C22.4665 19.6169 25.7797 12.3874 24.8759 9.7123L22.7755 6.66075C22.7755 6.66075 20.4347 8.80772 20.0621 9.8456Z" fill="#3C1F13"/>
<path d="M49.9415 9.8456C51.0937 13.0325 48.7196 22.5199 48.7196 22.5199L47.1685 24.9386L47.5351 19.6169C47.5351 19.6169 44.2219 12.3874 45.1246 9.7123L47.225 6.66075C47.225 6.66075 49.5688 8.80772 49.9415 9.8456Z" fill="#3C1F13"/>
<path d="M34.9984 2.70162e-05C31.0097 -0.00811319 25.2486 1.82242 22.7695 6.66075L24.87 9.7123C24.87 9.7123 30.5017 12.7466 35.1499 13.0935C38.0663 13.3113 42.7357 13.4537 46.2832 10.622L47.2254 6.65973C47.2254 6.65973 44.3494 0.0183425 34.9984 2.70162e-05Z" fill="#3C1F13"/>
<path d="M35 53.3031V60.5957L37.1792 61.3843L40.3066 56.0199C40.3066 56.0199 37.363 53.4985 35 53.3031Z" fill="#2648A2"/>
<path d="M43.5855 48.248L45.4183 49.4121L41.4649 62.7742L35 53.3031C35 53.3031 38.5344 52.6213 43.5855 48.248Z" fill="#FAF8FA"/>
</svg>
