<svg width="72" height="72" viewBox="0 0 72 72" fill="none" xmlns="http://www.w3.org/2000/svg">
<path d="M69.1729 27.1107C68.3701 24.1058 68.7042 20.6278 67.1819 17.9971C65.6381 15.3287 62.4441 13.8872 60.2782 11.7218C58.1129 9.55588 56.6714 6.36192 54.003 4.8181C51.3723 3.29581 47.8943 3.62988 44.8893 2.82709C41.9858 2.05075 39.1484 0 36 0C32.8516 0 30.0142 2.05081 27.1107 2.82709C24.1058 3.62988 20.6278 3.29581 17.9971 4.8181C15.3287 6.36192 13.8872 9.55588 11.7218 11.7218C9.55588 13.8871 6.36192 15.3286 4.8181 17.9971C3.29581 20.6278 3.62988 24.1058 2.82709 27.1107C2.05075 30.0142 0 32.8516 0 36C0 39.1484 2.05075 41.9858 2.82709 44.8893C3.62988 47.8943 3.29581 51.3723 4.8181 54.003C6.36192 56.6714 9.55588 58.1129 11.7218 60.2783C13.8871 62.4442 15.3286 65.6381 17.9971 67.182C20.6278 68.7043 24.1058 68.3702 27.1107 69.173C30.0142 69.9493 32.8516 72.0001 36 72.0001C39.1484 72.0001 41.9858 69.9493 44.8893 69.173C47.8943 68.3702 51.3723 68.7043 54.003 67.182C56.6714 65.6381 58.1129 62.4442 60.2782 60.2783C62.4441 58.1129 65.6381 56.6715 67.1819 54.003C68.7042 51.3723 68.3701 47.8943 69.1729 44.8893C69.9492 41.9858 72 39.1484 72 36C72 32.8516 69.9492 30.0142 69.1729 27.1107ZM36 64.7266C20.1345 64.7266 7.27342 51.8656 7.27342 36.0001C7.27342 20.1346 20.1345 7.27348 36 7.27348C51.8654 7.27348 64.7265 20.1345 64.7265 36C64.7265 51.8655 51.8654 64.7266 36 64.7266Z" fill="#31AF76"/>
<path d="M36.0025 62.0572C32.4857 62.0572 29.0731 61.368 25.8592 60.0086C22.756 58.6961 19.9696 56.8176 17.5773 54.4253C15.1849 52.033 13.3065 49.2465 11.9939 46.1433C10.6346 42.9295 9.94531 39.5168 9.94531 36.0001C9.94531 32.4834 10.6345 29.0707 11.9939 25.8568C13.3065 22.7537 15.185 19.9672 17.5773 17.5749C19.9696 15.1825 22.756 13.304 25.8592 11.9915C29.0731 10.6321 32.4858 9.94288 36.0025 9.94288C39.5192 9.94288 42.9319 10.6321 46.1457 11.9915C49.2489 13.304 52.0353 15.1825 54.4276 17.5749C56.82 19.9672 58.6984 22.7537 60.011 25.8568C61.3703 29.0707 62.0596 32.4833 62.0596 36.0001C62.0596 39.5168 61.3704 42.9295 60.011 46.1433C58.6984 49.2465 56.8199 52.033 54.4276 54.4253C52.0353 56.8176 49.2489 58.6961 46.1457 60.0086C42.9319 61.3679 39.5192 62.0572 36.0025 62.0572ZM36.0025 12.9025C32.8833 12.9025 29.8587 13.5129 27.0126 14.7167C24.2624 15.88 21.792 17.5456 19.6701 19.6677C17.5481 21.7897 15.8823 24.2601 14.7191 27.0102C13.5153 29.8563 12.905 32.8809 12.905 36.0001C12.905 39.1193 13.5154 42.1439 14.7191 44.99C15.8823 47.7401 17.5481 50.2105 19.6701 52.3325C21.792 54.4545 24.2624 56.1202 27.0126 57.2834C29.8587 58.4872 32.8833 59.0976 36.0025 59.0976C39.1216 59.0976 42.1463 58.4872 44.9924 57.2834C47.7425 56.1202 50.2129 54.4545 52.3348 52.3325C54.4568 50.2105 56.1226 47.7401 57.2858 44.99C58.4896 42.1439 59.0999 39.1193 59.0999 36.0001C59.0999 32.8809 58.4895 29.8563 57.2858 27.0102C56.1226 24.26 54.4568 21.7897 52.3348 19.6677C50.2129 17.5456 47.7425 15.8799 44.9924 14.7167C42.1463 13.5129 39.1216 12.9025 36.0025 12.9025Z" fill="#31AF76"/>
<path d="M33.2721 52.2828C31.9068 52.2828 30.6716 51.5264 30.0487 50.3089C28.9079 48.0791 25.6332 42.4061 19.8762 37.8957C19.3106 37.4526 19.0855 36.6977 19.316 36.0172C19.5463 35.3376 20.183 34.8756 20.9005 34.8676C20.9465 34.8671 20.9928 34.8668 21.0387 34.8668C23.4143 34.8668 25.7885 35.5542 27.9047 36.8545C29.4684 37.8161 30.9115 39.1244 32.154 40.6968C33.7314 37.7212 35.9089 34.439 38.2261 31.5749C40.5927 28.6498 44.2183 24.7674 48.0505 22.8832C48.2715 22.7745 48.5069 22.7193 48.7498 22.7193C49.3662 22.7193 49.9303 23.0858 50.1866 23.653C50.4447 24.2241 50.3467 24.8723 49.9311 25.3446C42.815 33.4286 39.3692 41.8811 36.7055 49.8108C36.2599 51.1375 35.0755 52.0984 33.6882 52.2587C33.5505 52.2747 33.4105 52.2828 33.2721 52.2828Z" fill="#31AF76"/>
</svg>
