<svg width="66" height="36" viewBox="0 0 66 36" fill="none" xmlns="http://www.w3.org/2000/svg">
<path d="M32.9095 35.7695H33.6611C42.8792 35.7695 50.8402 35.7718 56.6871 34.3438C62.9172 32.8222 65.8189 29.7819 65.8189 24.7752C65.8189 18.3604 62.5723 12.2783 56.6771 7.64937C56.3268 7.37395 55.986 7.12108 55.6451 6.87541C51.9707 11.5142 47.3899 16.8162 45.6486 16.8162C45.6409 16.8162 45.6332 16.8159 45.6255 16.8159C45.3248 16.8075 45.0682 16.6731 44.9026 16.4371C44.1316 15.3481 46.0031 11.098 50.4522 3.82047C48.1326 2.71432 45.625 1.82682 42.9833 1.18499C42.8728 1.15747 42.7629 1.13392 42.6531 1.10839C39.9343 5.20031 32.0004 16.8179 29.5855 16.8179C29.5818 16.8179 29.5786 16.8179 29.5751 16.8177C29.26 16.8132 28.9854 16.6592 28.8212 16.3955C27.7644 14.7023 32.3973 5.78116 35.5643 0.0877595C34.6854 0.0352035 33.7984 0 32.9095 0C31.4493 0 29.9876 0.0751163 28.5582 0.218654C22.9526 7.92628 15.7142 16.8159 13.524 16.8159C13.5218 16.8159 13.5198 16.8159 13.5175 16.8159C13.2077 16.8134 12.9436 16.6788 12.7741 16.4371C12.424 15.9416 12.3283 14.9053 14.2813 10.9882C15.4586 8.62662 17.1903 5.61208 19.3178 2.21181C7.55071 6.22714 0 15.0005 0 24.7749C0 35.0295 12.433 35.7695 32.9095 35.7695Z" fill="#E3835F"/>
<path d="M27.0459 0.397949C26.7318 0.440837 26.4197 0.489674 26.1081 0.539007C25.9224 0.568508 25.735 0.593547 25.5503 0.625278C25.0553 0.710558 24.5644 0.80501 24.0778 0.9069C24.0371 0.915328 23.9957 0.922022 23.9553 0.930451C23.4285 1.04226 22.9072 1.16447 22.3918 1.29562C22.2276 1.33726 22.0677 1.38511 21.9049 1.42874C21.5898 1.51303 21.2749 1.59831 20.9651 1.68978C15.5087 10.274 13.6588 14.6213 13.6784 15.6689C14.9276 15.2403 19.7469 10.3447 27.0459 0.397949Z" fill="#C49C8E"/>
<path d="M29.742 15.6592C30.8346 15.1937 34.7336 10.982 41.4823 0.855313C41.4139 0.84143 41.346 0.826059 41.2773 0.812424C41.1482 0.78689 41.0185 0.762596 40.8889 0.738302C40.6511 0.693431 40.4126 0.650791 40.1736 0.610135C40.0428 0.587824 39.9116 0.56576 39.7805 0.544688C39.5281 0.504279 39.2752 0.466846 39.0219 0.430899C38.9081 0.414786 38.7945 0.397432 38.6805 0.38231C38.3151 0.333473 37.9492 0.288601 37.583 0.249432C37.321 0.222658 37.057 0.198611 36.7935 0.174316C31.4191 9.78214 29.6672 14.5566 29.742 15.6592Z" fill="#C49C8E"/>
<path d="M54.7265 6.23836C54.6839 6.20986 54.642 6.18085 54.5993 6.15259C54.2508 5.92179 53.896 5.69421 53.5333 5.47655C53.1478 5.24352 52.7586 5.02065 52.3692 4.80473C52.246 4.73655 52.1225 4.67235 51.9993 4.60591C51.8168 4.50774 51.6346 4.41378 51.4519 4.31982C46.9547 11.6692 45.8066 14.8362 45.8081 15.6667C46.6041 15.3769 49.2421 13.1552 54.7265 6.23836Z" fill="#C49C8E"/>
</svg>
