<svg width="70" height="56" viewBox="0 0 70 56" fill="none" xmlns="http://www.w3.org/2000/svg">
<path d="M65.5731 37.8342C62.6106 42.1441 54.0942 44.1031 49.64 46.8436C46.7767 48.6052 34.3139 55.0296 30.9633 54.7546C28.245 54.5314 26.6763 51.2806 25.1408 49.0263C22.0154 44.4375 18.9262 39.7921 15.1677 35.7057C10.3001 30.4135 4.5766 25.8445 1.84717 19.1925C6.10005 12.7887 18.3425 7.0029 31.313 2.8635C38.0961 0.698627 42.7197 -0.621101 49.7149 0.294563C53.6612 0.81116 58.2825 2.59561 61.7275 4.76265C63.4385 5.83894 68.8879 10.3326 69.0889 12.3438C69.7482 18.9361 66.0544 16.8618 65.9026 19.5954C65.573 25.5284 68.2098 37.0651 64.8039 38.823" fill="#E5914A"/>
<path d="M28.4463 20.9075C21.0036 16.2315 13.6194 14.6728 5.1442 17.0693C4.26744 17.3226 1.85156 19.1929 1.85156 19.1929C6.0989 12.7829 18.354 6.99628 31.3301 2.8658C38.1103 0.703085 42.7279 -0.621777 49.7224 0.294022C53.6775 0.820077 58.2951 2.59304 61.7437 4.75576C63.4387 5.84677 68.894 10.328 69.089 12.3544C69.5565 17.0304 67.8421 17.3422 66.7509 18.1019L66.7315 18.063C65.9911 18.2578 40.8574 30.4739 35.1487 32.6755C35.7527 31.9352 36.084 30.6882 35.5774 28.1749C35.0708 25.642 30.161 21.9987 28.4463 20.9075Z" fill="#C4691C"/>
<path d="M3.49517 28.9346C3.16554 27.2865 0.416387 24.67 1.07794 20.6942C1.30328 19.3405 3.82291 17.4425 5.14331 17.0684C13.6046 14.6716 20.9923 16.2314 28.4363 20.914C30.1472 21.9903 35.0652 25.6385 35.578 28.1655C36.8954 34.6584 32.5435 32.6835 32.3917 35.4171C32.062 41.3501 34.6989 52.8868 31.293 54.6447C28.3268 56.1755 21.9372 52.791 15.4713 50.6893C12.9845 49.8809 6.83373 48.6901 4.85043 47.1485C2.66313 45.4484 4.18577 32.3875 3.49517 28.9346Z" fill="#FBFCFE"/>
<path d="M29.4476 56.0003C26.9837 56.0003 23.7795 54.7863 20.214 53.4355C18.57 52.8133 16.871 52.1684 15.1709 51.6166C14.4764 51.3902 13.4928 51.1353 12.3949 50.8499C9.31828 50.0508 5.8307 49.1451 4.25335 47.9178C2.60467 46.6372 2.55901 42.4057 2.67978 35.5885C2.72828 32.8658 2.773 30.2933 2.53996 29.1251C2.46674 28.7617 2.14711 28.1851 1.80843 27.5762C0.878986 25.9019 -0.393865 23.6092 0.116923 20.5345C0.430881 18.649 3.39429 16.5522 4.87938 16.1316C13.2417 13.7628 20.8923 15.0205 28.9549 20.0911C29.0234 20.133 35.8265 24.492 36.5333 27.972C37.4208 32.3501 35.9159 33.5868 34.2976 34.4792C33.5518 34.8902 33.3901 35.0215 33.3644 35.4705C33.2616 37.3256 33.4595 39.7611 33.6698 42.3392C34.1589 48.3479 34.6202 54.0255 31.7406 55.5115C31.0773 55.8539 30.3067 56.0003 29.4476 56.0003ZM4.45018 28.7445C4.7251 30.1183 4.68038 32.6698 4.6281 35.6227C4.56623 39.1102 4.45113 45.604 5.44906 46.3804C6.70962 47.3603 10.2781 48.2869 12.8847 48.9642C14.0274 49.261 15.051 49.5293 15.773 49.7633C17.5168 50.3303 19.2387 50.9829 20.9046 51.6146C25.0971 53.2014 29.0527 54.7008 30.8471 53.7799C32.5727 52.8895 32.0848 46.8827 31.728 42.497C31.512 39.8504 31.3084 37.3502 31.4197 35.3638C31.5063 33.7921 32.5756 33.2023 33.3567 32.7723C34.4003 32.1978 35.3012 31.7012 34.6229 28.36C34.232 26.4326 29.9937 23.044 27.9178 21.7406C20.3557 16.9839 13.2053 15.7966 5.40908 18.0075C4.21607 18.3443 2.16886 20.0738 2.03849 20.854C1.63889 23.257 2.67776 25.1274 3.51209 26.6306C3.94412 27.4088 4.31806 28.0824 4.45018 28.7445Z" fill="#F9CE93"/>
</svg>
