<svg width="66" height="36" viewBox="0 0 66 36" fill="none" xmlns="http://www.w3.org/2000/svg">
<path d="M33.0252 35.884H33.7768C42.9949 35.884 50.9559 35.8863 56.8028 34.4583C63.0329 32.9367 65.9346 29.8964 65.9346 24.8897C65.9346 18.4749 62.6881 12.3928 56.7929 7.76387C56.4426 7.48845 56.1017 7.23559 55.7608 6.98991C52.0864 11.6287 47.5056 16.9307 45.7643 16.9307C45.7566 16.9307 45.7489 16.9304 45.7412 16.9304C45.4405 16.922 45.1839 16.7876 45.0183 16.5516C44.2474 15.4626 46.1188 11.2125 50.568 3.93497C48.2483 2.82882 45.7407 1.94132 43.0991 1.29949C42.9885 1.27197 42.8787 1.24842 42.7688 1.22289C40.0501 5.31482 32.1161 16.9324 29.7013 16.9324C29.6975 16.9324 29.6943 16.9324 29.6908 16.9322C29.3758 16.9277 29.1011 16.7738 28.937 16.51C27.8801 14.8168 32.513 5.89566 35.68 0.202261C34.8012 0.149705 33.9142 0.114502 33.0252 0.114502C31.565 0.114502 30.1034 0.189618 28.6739 0.333155C23.0683 8.04078 15.83 16.9304 13.6397 16.9304C13.6375 16.9304 13.6355 16.9304 13.6333 16.9304C13.3234 16.9279 13.0594 16.7933 12.8898 16.5516C12.5398 16.0561 12.4441 15.0198 14.3971 11.1027C15.5744 8.74112 17.306 5.72659 19.4335 2.32632C7.66643 6.34164 0.115723 15.115 0.115723 24.8894C0.115723 35.144 12.5487 35.884 33.0252 35.884Z" fill="#FFAD61"/>
<path d="M27.1617 0.512451C26.8476 0.555339 26.5354 0.604176 26.2238 0.653509C26.0381 0.68301 25.8507 0.708049 25.666 0.73978C25.171 0.82506 24.6801 0.919512 24.1935 1.0214C24.1528 1.02983 24.1114 1.03652 24.071 1.04495C23.5442 1.15676 23.0229 1.27898 22.5075 1.41012C22.3434 1.45177 22.1835 1.49961 22.0206 1.54324C21.7055 1.62753 21.3907 1.71281 21.0808 1.80429C15.6244 10.3885 13.7745 14.7358 13.7941 15.7834C15.0433 15.3548 19.8626 10.4592 27.1617 0.512451Z" fill="#F4BD75"/>
<path d="M29.8578 15.7737C30.9503 15.3082 34.8493 11.0965 41.5981 0.969815C41.5296 0.955932 41.4617 0.940561 41.393 0.926926C41.2639 0.901392 41.1342 0.877098 41.0046 0.852804C40.7668 0.807933 40.5283 0.765293 40.2894 0.724637C40.1585 0.702325 40.0273 0.680262 39.8962 0.65919C39.6438 0.618781 39.391 0.581348 39.1376 0.545401C39.0238 0.529288 38.9103 0.511934 38.7962 0.496812C38.4308 0.447975 38.0649 0.403103 37.6988 0.363934C37.4367 0.33716 37.1727 0.313113 36.9092 0.288818C31.5348 9.89664 29.7829 14.6711 29.8578 15.7737Z" fill="#F4BD75"/>
<path d="M54.8422 6.35287C54.7996 6.32436 54.7577 6.29535 54.7151 6.26709C54.3665 6.03629 54.0117 5.80871 53.6491 5.59105C53.2636 5.35802 52.8744 5.13516 52.4849 4.91923C52.3617 4.85106 52.2382 4.78685 52.115 4.72041C51.9326 4.62224 51.7504 4.52828 51.5676 4.43433C47.0704 11.7837 45.9223 14.9507 45.9238 15.7812C46.7199 15.4914 49.3578 13.2697 54.8422 6.35287Z" fill="#F4BD75"/>
</svg>
