<svg width="70" height="70" viewBox="0 0 70 70" fill="none" xmlns="http://www.w3.org/2000/svg">
<path d="M70 35.4768L67.8904 36.4676L70 37.5267V46.6201L68.4031 47.6451L70 48.67V57.7976L68.1242 59.0466L70 59.8475V68.8739C70 69.4957 69.4955 70 68.8734 70H47.6916L46.8535 68.0717L45.6408 70H24.3592L23.4897 67.8858L22.3084 70H1.12656C0.504492 70 0 69.4957 0 68.8739V59.8475L1.4752 58.8225L0 57.7976V48.67L1.69258 48.1603L0 46.6201V37.5937C0 36.9719 0.504492 36.4676 1.12656 36.4676H35V26.4176C35 25.7944 35.5045 25.2902 36.1266 25.2902H57.3084L58.4897 27.3182L59.3592 25.2902H68.8734C69.4955 25.2902 70 25.7944 70 26.4176V35.4768Z" fill="#D1A08F"/>
<path d="M39.5117 25.2902C38.8883 25.2902 38.3838 25.7944 38.3838 26.4176V36.4676H35V26.4176C35 25.7944 35.5045 25.2902 36.1266 25.2902H39.5117Z" fill="#C68D7A"/>
<path d="M4.51172 70L1.12656 70C0.504492 70 0 69.4957 0 68.8739V59.8475L1.4752 58.8225L0 57.7976V48.67L1.69258 48.1603L0 46.6201V37.5937C0 36.9719 0.504492 36.4676 1.12656 36.4676L4.51172 36.4676C3.88828 36.4676 3.38379 36.9719 3.38379 37.5937V68.8739C3.38379 69.4957 3.88828 70 4.51172 70Z" fill="#C68D7A"/>
<path d="M58.7344 19.8743L53.3258 27.5314C52.9279 28.0944 52.2785 28.4238 51.5894 28.4101L43.1033 28.2557L40.9281 28.2161C39.8084 28.1956 38.9074 27.2936 38.8869 26.1757L38.6914 15.519C38.6791 14.8302 39.0086 14.181 39.5719 13.7834L47.2322 8.37708C48.058 7.79354 49.1859 7.8892 49.901 8.6053L58.506 17.2067C59.2225 17.9214 59.3182 19.0489 58.7344 19.8743Z" fill="#C5D3DD"/>
<path d="M43.1033 28.2557L40.9281 28.2161C39.8084 28.1956 38.9074 27.2936 38.8869 26.1757L38.6914 15.519C38.6791 14.8302 39.0086 14.181 39.5719 13.7834L47.2322 8.37708C48.058 7.79354 49.1859 7.8892 49.901 8.6053L49.9187 8.62307L42.8613 13.603C42.2762 14.0171 41.933 14.6935 41.9467 15.4096L42.149 26.501C42.1627 27.2321 42.5373 27.8744 43.1033 28.2557Z" fill="#B6C4CF"/>
<path d="M49.1848 17.9952L49.1118 17.9223C48.4444 17.2551 48.4444 16.1735 49.1118 15.5064L63.8534 0.771234C64.5209 0.104058 65.6028 0.104058 66.2703 0.771234L66.3433 0.844211C67.0108 1.51139 67.0108 2.59292 66.3433 3.26009L51.6017 17.9952C50.9343 18.6623 49.8523 18.6623 49.1848 17.9952Z" fill="#8D9CA8"/>
<path d="M59.7998 10.3533L56.7008 7.25564C56.594 7.14891 56.594 6.9759 56.7008 6.86917L62.8722 0.700453C63.8065 -0.233484 65.3215 -0.233484 66.2558 0.700453L66.3579 0.802538C67.2923 1.73648 67.2923 3.25081 66.3579 4.18475L60.1866 10.3533C60.0798 10.4601 59.9066 10.4601 59.7998 10.3533Z" fill="#FFF0AD"/>
<path d="M22.5791 47.6451C22.5791 48.2108 22.1197 48.67 21.5537 48.67H12.6916V57.7976H15.6707C16.2367 57.7976 16.6961 58.2568 16.6961 58.8225C16.6961 59.3897 16.2367 59.8475 15.6707 59.8475L0 59.8475L1.4752 58.8225L0 57.7976L10.6408 57.7976V48.67L0 48.67L1.69258 48.1603L0 46.6201L21.5537 46.6201C22.1197 46.6201 22.5791 47.0793 22.5791 47.6451Z" fill="#C5D3DD"/>
<path d="M69.989 37.5267H70V35.4768H69.9918L59.3591 35.4591L59.3592 25.2902H57.3084L57.3084 35.455L29.564 35.4099H28.7027C28.1367 35.4099 28.5386 35.8677 28.5373 36.4334C28.5373 36.4444 28.5373 36.4567 28.5359 36.4676C28.5195 37.0184 28.1463 37.4584 28.7027 37.4598L45.6408 37.4857V46.6201H25.6265C25.0605 46.6201 24.6011 47.0793 24.6011 47.6451C24.6011 48.2108 25.0605 48.67 25.6265 48.67H33.9746V57.7976H20.5994C20.0334 57.7976 19.574 58.2567 19.574 58.8225C19.574 59.3897 20.0334 59.8475 20.5994 59.8475H22.3084L22.3084 70H24.3592L24.3591 59.8475H45.6408L45.6408 70H47.6916L47.6916 59.8475H70V57.7976H59.3591V48.67H70V46.6201H47.6916V37.4898L69.989 37.5267ZM57.3084 48.67V57.7976H36.0254V48.67H57.3084Z" fill="#C5D3DD"/>
<path d="M27.5994 33.7085C28.6891 33.7085 29.5723 34.5913 29.5723 35.6805V37.0033C29.5723 38.0925 28.6891 38.9753 27.5994 38.9753C27.0539 38.9753 26.5617 39.1967 26.2049 39.5534C25.8481 39.9101 25.6266 40.4021 25.6266 40.9474V49.4859C25.6266 50.586 24.7816 51.5358 23.6824 51.5836C22.5162 51.6356 21.5537 50.7049 21.5537 49.5501V41.6389C21.5537 40.1684 20.3602 38.9753 18.8877 38.9753H17.9635C16.491 38.9753 15.2975 40.1684 15.2975 41.6389C15.2975 42.001 15.2059 42.3468 15.0432 42.6488C14.9598 42.8059 14.8572 42.9522 14.7383 43.082C14.3883 43.4633 13.9029 43.712 13.3533 43.7366C12.1871 43.7885 11.2246 42.8579 11.2246 41.7031V40.9474C11.2246 39.8582 10.3414 38.9753 9.25176 38.9753H8.67071C7.58106 38.9753 6.69786 38.0925 6.69786 37.0033V35.6805C6.69786 34.5913 7.58106 33.7085 8.67071 33.7085H27.5994Z" fill="#8D9CA8"/>
<path d="M15.0432 42.6488C14.9598 42.8059 14.8572 42.9522 14.7383 43.082C14.3883 43.4633 13.9029 43.712 13.3533 43.7366C12.1871 43.7885 11.2246 42.8579 11.2246 41.7031V40.9474C11.2246 39.8582 10.3414 38.9753 9.25176 38.9753H8.67071C7.58106 38.9753 6.69786 38.0925 6.69786 37.0033V35.6805C6.69786 34.5913 7.58106 33.7085 8.67071 33.7085H10.902C10.3729 34.0966 10.0297 34.7238 10.0297 35.4304V36.8612C10.0297 38.0406 10.9854 38.9958 12.1652 38.9958H12.7941C13.974 38.9958 14.9297 39.9511 14.9297 41.1291V41.9491C14.9297 42.1937 14.9693 42.4288 15.0432 42.6488Z" fill="#7A8C98"/>
<path d="M0 57.7976L3.38379 57.7976V59.8475L0 59.8475V57.7976Z" fill="#B6C4CF"/>
<path d="M0 46.6201L3.38379 46.6201V48.67L0 48.67V46.6201Z" fill="#B6C4CF"/>
</svg>
