<svg width="28" height="28" viewBox="0 0 28 28" fill="none" xmlns="http://www.w3.org/2000/svg">
<path d="M27.3154 0.0054069L23.1154 0.561043L24.1306 1.93945L20.5339 4.6693L18.642 2.97606C18.3193 2.68727 17.8414 2.66779 17.4969 2.92921L9.45275 9.03424L7.57097 7.60327C7.24827 7.35785 6.80491 7.35767 6.48204 7.60276L0 12.5224L1.0882 14L7.02563 9.49373L8.90742 10.9247C9.23006 11.1701 9.67348 11.1703 9.99635 10.9252L17.9937 4.85543L19.8857 6.54867C20.2083 6.83746 20.6863 6.857 21.0308 6.59552L25.2188 3.41692L26.235 4.79653L27.9474 0.863198C28.1382 0.424962 27.7834 -0.0565209 27.3154 0.0054069Z" fill="#74B244"/>
<rect y="16" width="7" height="12" rx="2" fill="#DD601B"/>
<path d="M10 15C10 13.8954 10.8954 13 12 13H15C16.1046 13 17 13.8954 17 15V26C17 27.1046 16.1046 28 15 28H12C10.8954 28 10 27.1046 10 26V15Z" fill="#C91B80"/>
<rect x="20" y="9" width="7" height="19" rx="2" fill="#746ACD"/>
</svg>
