<svg width="71" height="33" viewBox="0 0 71 33" fill="none" xmlns="http://www.w3.org/2000/svg">
<path d="M35.0213 16.4301C26.3686 9.09518 27.7309 3.4809 29.2914 0.804451C29.9054 -0.235091 31.1619 -0.272884 31.9545 0.724572L36.6492 6.67429C36.6491 6.67415 47.3163 26.8636 35.0213 16.4301Z" fill="#C17D61"/>
<path d="M70.1722 25.1135L70.1571 25.1739C58.6351 29.2985 42.1439 29.8263 34.9125 27.6774C23.9823 24.3735 12.7544 22.6131 1.19861 22.7383C-0.769581 17.0678 -0.181352 11.5179 1.99796 6.02837C2.57858 4.56548 4.35808 4.02266 5.68516 4.86728C15.1184 10.8922 24.0164 9.33126 32.5824 3.1102C33.4571 2.47684 34.6636 2.68035 35.2895 3.54767C38.567 8.11244 43.305 12.078 47.8219 15.3789C52.3613 18.6289 58.0243 18.7116 63.9512 18.7647C67.4199 18.7946 70.3683 21.66 70.1722 25.1135Z" fill="#C17D61"/>
<path d="M53.666 17.9403C51.2161 20.2525 48.4424 21.0945 45.2055 19.9838C36.4132 16.93 27.0327 18.9055 22.7119 24.6742C19.4257 24.0389 16.0429 23.5616 13.1353 23.279C12.3285 20.5869 10.4433 18.6642 7.76648 17.2919C4.91629 15.829 3.27232 12.7524 3.34015 9.55517L3.4534 4.62354C4.16221 4.35967 4.98412 4.41989 5.68532 4.86484C15.1184 10.8897 24.0165 9.32882 32.5826 3.10776C33.4573 2.4744 34.6638 2.67791 35.2896 3.54523C38.555 8.09297 43.275 12.0536 47.822 15.3764C49.6167 16.6658 51.5772 17.4501 53.666 17.9403Z" fill="#AD6850"/>
<g opacity="0.4">
<path d="M8.62538 15.6138C6.50504 14.5254 5.17034 12.1631 5.22475 9.59462C5.23804 8.97012 5.76452 8.51064 6.37933 8.48779C7.00383 8.50108 7.49945 9.01788 7.48616 9.64307C7.45002 11.3514 8.30281 12.9053 9.65841 13.6019C10.214 13.8868 10.4334 14.5688 10.1481 15.1239C9.86053 15.6858 9.17346 15.8971 8.62538 15.6138Z" fill="white"/>
</g>
<path d="M11.1532 23.0903L1.19775 22.7387C4.50812 22.7024 7.81849 22.8237 11.1532 23.0903Z" fill="#C17D61"/>
<path d="M70.8 26.8556C71.1331 28.1183 70.4099 29.4182 69.1613 29.8006C58.2171 33.1517 42.0273 34.0616 33.865 31.6128C29.6453 30.3395 25.4011 29.3087 21.157 28.5451V30.4609C21.157 31.8003 20.0711 32.8861 18.7318 32.8861H3.64606C2.30762 32.8861 1.22226 31.808 1.22101 30.4695C1.21907 28.5604 1.21354 26.596 1.19775 22.7389C12.4114 22.6156 23.5707 24.2454 34.9082 27.6742C42.1353 29.8326 58.6389 29.2992 70.1586 25.1762L70.8 26.8556Z" fill="#6D6D6D"/>
<path d="M35.5294 6.58726C35.5294 7.13395 35.0821 7.57295 34.5354 7.57295C33.9886 7.57295 33.5496 7.13395 33.5496 6.58726C33.5496 6.04042 33.9886 5.59326 34.5354 5.59326C35.0819 5.59326 35.5294 6.04042 35.5294 6.58726Z" fill="#E5E3E5"/>
<path d="M38.3975 9.71616C38.3975 10.2629 37.9503 10.7019 37.4036 10.7019C36.8567 10.7019 36.4177 10.2629 36.4177 9.71616C36.4177 9.16933 36.8567 8.72217 37.4036 8.72217C37.9503 8.72203 38.3975 9.16919 38.3975 9.71616Z" fill="#E5E3E5"/>
<path d="M41.1876 12.3755C41.1876 12.9222 40.7403 13.3612 40.1936 13.3612C39.6468 13.3612 39.2078 12.9222 39.2078 12.3755C39.2078 11.8286 39.6468 11.3813 40.1936 11.3813C40.7403 11.3812 41.1876 11.8285 41.1876 12.3755Z" fill="#E5E3E5"/>
<path d="M44.5772 15.1655C44.5772 15.7122 44.1299 16.1512 43.5832 16.1512C43.0364 16.1512 42.5974 15.7122 42.5974 15.1655C42.5974 14.6187 43.0364 14.1714 43.5832 14.1714C44.1299 14.1714 44.5772 14.6187 44.5772 15.1655Z" fill="#E5E3E5"/>
<g opacity="0.08">
<path d="M70.1723 25.1097L70.1572 25.1701C69.4484 25.4265 68.7247 25.6602 67.9781 25.8864C67.2842 23.0361 64.5697 20.8945 61.4706 20.8644C55.1064 20.8116 49.021 20.7211 44.1499 17.2298C42.883 16.3098 41.6615 15.3748 40.5002 14.4473C36.5037 11.2349 33.1482 7.93964 30.6898 4.52393C30.6671 4.49375 30.6445 4.4637 30.6218 4.441C31.2779 4.02624 31.934 3.58143 32.5824 3.10631C33.4571 2.47295 34.6636 2.67645 35.2895 3.54364C38.5666 8.10771 43.3044 12.0736 47.8218 15.375C52.3613 18.6248 58.0243 18.7077 63.9511 18.7608C67.42 18.7909 70.3685 21.6561 70.1723 25.1097Z" fill="black"/>
</g>
</svg>
