<svg width="72" height="30" viewBox="0 0 72 30" fill="none" xmlns="http://www.w3.org/2000/svg">
<path d="M62.8786 26.5039C60.7307 22.3892 60.1025 22.9866 62.8655 19.3127C63.0166 19.1117 61.8145 16.6347 61.9796 16.4418C52.4309 12.3332 38.5232 9.0633 30.7506 0.227556C30.4865 -0.0726468 30.0178 -0.0769796 29.7539 0.223367C28.9299 1.16067 28.197 2.16009 27.4726 3.16313C21.7744 11.0544 9.86296 10.8767 4.56607 2.71051C4.53718 2.66602 4.50872 2.62152 4.48069 2.57717C4.20317 2.13799 3.55408 2.17497 3.32264 2.64001C1.58745 6.1273 0.501055 9.58743 0.099437 13.019C-0.211745 15.677 0.221078 18.2017 1.20678 20.4256L26.6807 26.9629C33.3316 26.2829 40.0599 26.6057 46.6284 28.0162C51.2013 28.9982 55.8269 29.6042 60.5014 29.8596L62.8786 26.5039Z" fill="#B4B4B4"/>
<path d="M27.4496 3.19354C27.3668 3.30766 27.2829 3.42035 27.1975 3.53101C36.3546 13.0456 52.8023 15.8175 61.7215 20.8907C62.007 20.4621 62.3835 19.9533 62.8654 19.3126C63.0165 19.1116 61.8144 16.6346 61.9794 16.4416C51.2696 11.8741 38.8628 9.1973 30.7504 0.227338C30.5523 0.00211405 30.2393 -0.0565396 29.9837 0.0548445C29.8985 0.0919725 29.8197 0.148169 29.7537 0.223148C29.2387 0.808962 28.7592 1.41905 28.2953 2.0391C28.0169 2.41125 27.7442 2.78686 27.4726 3.16291C27.4651 3.17331 27.4571 3.18313 27.4496 3.19354Z" fill="#B4B4B4"/>
<path d="M34.42 3.68645V3.68385C33.0929 2.63184 31.8584 1.48694 30.7502 0.227331C30.4861 -0.072872 30.0176 -0.0772058 29.7537 0.222997C28.9297 1.1603 28.1966 2.15987 27.4724 3.1629C21.7742 11.0541 9.86275 10.8763 4.56586 2.71014C4.53697 2.66564 4.50851 2.62129 4.48048 2.5768C4.20296 2.13762 3.55387 2.1746 3.32244 2.63978C2.49161 4.30954 1.81131 5.97279 1.28198 7.62997C1.28213 7.62982 18.2794 25.6852 34.42 3.68645Z" fill="#E28086"/>
<path d="M21.4368 23.5256C15.81 19.8375 8.91656 18.6186 2.36614 20.1536L1.20679 20.4253C3.85256 26.3941 10.49 30.1917 17.4826 28.5505C17.5765 28.5285 17.6704 28.5061 17.7644 28.4836C20.7064 27.7781 23.6857 27.2689 26.6807 26.9626L21.4368 23.5256Z" fill="#E28086"/>
<path d="M61.9793 16.4417C58.7969 20.1615 58.1959 25.4427 60.4613 29.7825L60.5013 29.8592C62.6447 29.9762 64.7985 30.02 66.9621 29.9918C69.5808 29.9577 71.7236 27.8066 71.7236 25.1877C71.7236 24.2228 71.4377 23.277 70.8895 22.4828C69.1848 20.0137 65.9608 18.1549 61.9793 16.4417Z" fill="#E28086"/>
<path d="M61.5743 16.945C61.0759 17.592 60.6482 18.2926 60.2914 19.0266C60.1479 19.3241 60.0171 19.6261 59.8992 19.9326C62.8664 21.3849 65.2366 22.9932 66.5994 25.007C67.1253 25.784 67.3895 26.7088 67.3895 27.6472C67.3895 28.4984 67.1669 29.2982 66.778 29.9927H66.7819C66.8555 29.9918 66.9302 29.9909 67.0049 29.9902C69.604 29.9331 71.7235 27.7921 71.7235 25.1877C71.7235 24.2228 71.4376 23.277 70.8894 22.483C69.1846 20.0139 65.9607 18.1549 61.9792 16.4417C61.8391 16.6062 61.7034 16.7725 61.5743 16.945Z" fill="#E28086"/>
<path d="M6.29444 12.4388C5.69606 12.4388 5.21094 11.9538 5.21094 11.3553V4.87134C5.21094 4.27282 5.69606 3.78784 6.29444 3.78784C6.89282 3.78784 7.37794 4.27282 7.37794 4.87134V11.3553C7.37794 11.9538 6.89282 12.4388 6.29444 12.4388Z" fill="#DD636E"/>
<path d="M11.8323 14.4715C11.2339 14.4715 10.7488 13.9865 10.7488 13.388V8.55152C10.7488 7.95299 11.2339 7.46802 11.8323 7.46802C12.4307 7.46802 12.9158 7.95299 12.9158 8.55152V13.388C12.9158 13.9864 12.4307 14.4715 11.8323 14.4715Z" fill="#DD636E"/>
<path d="M17.3701 15.3252C16.7717 15.3252 16.2866 14.8403 16.2866 14.2417V9.02589C16.2866 8.42736 16.7717 7.94238 17.3701 7.94238C17.9685 7.94238 18.4536 8.42736 18.4536 9.02589V14.2417C18.4536 14.8401 17.9685 15.3252 17.3701 15.3252Z" fill="#DD636E"/>
<path d="M22.908 14.1726C22.3096 14.1726 21.8245 13.6876 21.8245 13.0891V7.21705C21.8245 6.61852 22.3096 6.13354 22.908 6.13354C23.5063 6.13354 23.9915 6.61852 23.9915 7.21705V13.0891C23.9915 13.6876 23.5063 14.1726 22.908 14.1726Z" fill="#DD636E"/>
<path d="M28.4461 11.187C27.8477 11.187 27.3625 10.702 27.3625 10.1035V1.81007C27.3625 1.21154 27.8477 0.726562 28.4461 0.726562C29.0444 0.726562 29.5296 1.21154 29.5296 1.81007V10.1035C29.5296 10.702 29.0444 11.187 28.4461 11.187Z" fill="#DD636E"/>
</svg>
