<svg width="49" height="66" viewBox="0 0 49 66" fill="none" xmlns="http://www.w3.org/2000/svg">
<path d="M44.5991 58.0689C42.9526 57.5936 41.2577 57.3054 39.5467 57.2096C31.2291 53.953 30.5073 49.6224 24.9394 45.6354C19.3713 41.6485 19.8784 37.6873 20.3682 33.8206C20.6346 31.578 22.6538 21.3872 24.2949 13.25C24.527 12.0728 24.7503 10.9473 24.9651 9.89038H3.52662V11.6089C3.67275 21.5849 3.82731 34.869 3.68132 37.945C3.60397 39.6635 2.49556 42.078 1.50745 44.6042C1.44737 44.7675 1.38714 44.9393 1.31836 45.1026C2.62386 45.6534 3.7852 46.4972 4.71238 47.5687C6.46316 49.5922 7.00052 52.3965 6.12162 54.9239C5.90544 55.4435 5.61599 55.9295 5.26238 56.3674L5.85533 56.5048C6.00272 56.5389 6.15194 56.5647 6.30215 56.5821C17.6529 58.8248 21.365 64.3584 25.6354 64.9512C29.4045 65.4758 33.1994 65.7942 37.0033 65.905H37.622C37.5858 64.3405 38.4151 62.8834 39.7787 62.1156C42.0558 61.0158 43.8602 59.3488 46.2231 58.6787C45.6971 58.4368 45.1544 58.2328 44.5991 58.0689Z" fill="#E1E6E9"/>
<path d="M25.2656 2.29463C18.486 0.751888 11.5535 -0.0177964 4.60048 0.000312211C3.9219 0.00480426 3.37542 0.55859 3.37991 1.23717C3.37991 1.24587 3.38005 1.25472 3.38033 1.26342C3.38033 3.14517 3.48351 7.0204 3.55215 11.5745C6.98913 11.7119 16.6557 12.2275 24.2946 13.2329C25.1539 9.1085 25.8413 5.49956 26.2022 3.72956C26.3253 3.07737 25.9122 2.44427 25.2656 2.29463Z" fill="#3A556A"/>
<path d="M10.2203 47.5688L6.33646 56.6253C6.18625 56.6079 6.03703 56.5821 5.88964 56.548C-1.8437 55.113 -0.400073 49.6309 1.53319 44.6301L10.2203 47.5688Z" fill="#3A556A"/>
<path d="M48.9641 62.6659C48.5603 65.4671 42.8204 66.0514 37.0376 65.9052C36.4705 64.1867 36.5822 62.2792 37.536 61.3855C38.4897 60.4919 42.6914 58.8078 44.599 58.0688C47.0136 58.7905 49.3164 60.1654 48.9641 62.6659Z" fill="#3A556A"/>
</svg>
