<svg width="56" height="61" viewBox="0 0 56 61" fill="none" xmlns="http://www.w3.org/2000/svg">
<path d="M55.2811 24.7537L46.9619 7.97045C46.8612 7.76674 46.6955 7.60475 46.4894 7.51025L41.8879 7.70513L39.9209 34.4585L45.5641 31.1523L54.9694 25.7784C55.3277 25.5735 55.4651 25.1231 55.2811 24.7537Z" fill="#D5E3F4"/>
<path d="M12.6527 8.08967L9.88325 7.68359H8.61555C8.52719 7.76459 8.45356 7.86277 8.39956 7.97199L0.0815772 24.754C-0.102503 25.1234 0.0349436 25.5738 0.393287 25.7787L9.79857 31.1526L13.5385 33.9321L12.6527 8.08967Z" fill="#D5E3F4"/>
<path d="M46.4428 7.48957L37.5431 3.9086L37.4449 3.88037L37.4116 3.99867L34.0378 6.31072L28.4704 9.71523L21.0365 6.13364L17.9263 3.9086L8.92228 7.4908C8.80815 7.53621 8.70384 7.60125 8.61548 7.68347L9.88318 12.8242V20.266V56.709C9.88318 57.1201 10.1335 57.4932 10.5164 57.6441C15.577 59.637 20.6246 60.7529 25.6556 60.994C25.7944 61.0007 25.9264 60.9325 26.002 60.816L27.2378 58.9134C27.4463 58.5925 27.9161 58.5926 28.1243 58.9137L29.3621 60.8212C29.4376 60.9376 29.5692 61.0058 29.7078 60.9996C34.7699 60.7691 39.8176 59.6542 44.851 57.6466C45.2314 57.4944 45.4793 57.1226 45.4793 56.7115V31.1525V20.266V12.8242L46.4893 7.51044C46.4747 7.50307 46.4587 7.49571 46.4428 7.48957Z" fill="#7BACDF"/>
<path d="M28.6018 9.63515L28.4705 9.71541L27.0059 9.00977C26.8544 9.17384 26.761 9.39241 26.761 9.63343V59.6477L27.238 58.9135C27.4465 58.5926 27.9163 58.5927 28.1245 58.9137L28.6018 59.6493V9.63515Z" fill="#5F99D7"/>
<path d="M37.5431 3.9086L37.4449 3.88037L37.4116 3.99867L29.883 8.8514L28.4704 9.71523L17.9263 3.90847L8.92228 7.49068C8.80815 7.53609 8.70384 7.60113 8.61548 7.68335L9.88318 12.8241V20.2659V56.709C9.88318 57.1201 10.1335 57.4932 10.5164 57.6441C12.6961 58.5024 14.8731 59.197 17.0476 59.7303V25.8835V18.4417L15.9942 14.17C15.8674 13.6559 16.1325 13.1261 16.6198 12.9188C16.6295 12.9147 16.6392 12.9106 16.6489 12.9064C17.2471 12.6523 17.9326 12.9811 18.109 13.6067L18.6974 15.6947C19.0468 16.9304 20.1882 17.7937 21.4733 17.7937H21.4734C22.099 17.7937 22.7184 17.5847 23.2187 17.2042L26.9314 14.3775C27.3518 14.0573 27.9336 14.0551 28.3565 14.372L32.158 17.2202C32.6618 17.5985 33.2602 17.7987 33.8887 17.7987H33.889C35.172 17.7987 36.313 16.9366 36.6646 15.6977L39.7382 4.79169L37.5431 3.9086Z" fill="#5F99D7"/>
<path d="M26.761 9.63355V14.5074L26.9314 14.3777C27.3519 14.0575 27.9337 14.0553 28.3566 14.3722L28.6019 14.5559V9.63515L28.4706 9.71541L27.0061 9.00977C26.8543 9.17384 26.761 9.39253 26.761 9.63355Z" fill="#528CC1"/>
<path d="M23.2975 1.48076L20.6458 0.0664062L17.7888 1.80535C17.5593 1.94525 17.4501 2.2226 17.5238 2.48154L17.9263 3.90878L21.0593 15.0272C21.1415 15.3181 21.4913 15.4347 21.7318 15.2518L26.8652 11.3432L27.6813 9.93741L23.2975 1.48076Z" fill="#D5E3F4"/>
<path d="M37.5737 1.80535L34.7167 0.0664062L32.1403 0.902377L27.3323 10.5384L28.4701 11.391L33.6318 15.258C33.8735 15.4396 34.2196 15.3218 34.3018 15.0321L37.4447 3.88055L37.8386 2.48154C37.9124 2.2226 37.8031 1.94525 37.5737 1.80535Z" fill="#D5E3F4"/>
<path d="M34.6076 0L34.7169 0.066269L34.6076 0.245441L28.4704 11.3909L28.4516 11.425C28.1173 12.0321 27.2449 12.0324 26.9105 11.4253L26.8652 11.343L20.755 0.245441L20.6458 0.066269L20.755 0L34.6076 0Z" fill="#7BACDF"/>
</svg>
