<svg width="22" height="22" viewBox="0 0 22 22" fill="none" xmlns="http://www.w3.org/2000/svg">
<path d="M10.9983 21.8373C16.9831 21.8373 21.8348 16.9857 21.8348 11.0008C21.8348 5.016 16.9831 0.164337 10.9983 0.164337C5.01343 0.164337 0.161758 5.016 0.161758 11.0008C0.161758 16.9857 5.01343 21.8373 10.9983 21.8373Z" fill="#F9A324"/>
<path d="M20.4644 12.5359C21.3127 7.30906 17.7632 2.38416 12.5364 1.53588C7.30959 0.687604 2.38474 4.23717 1.53645 9.46406C0.688164 14.6909 4.23766 19.6158 9.46447 20.4641C14.6913 21.3124 19.6161 17.7628 20.4644 12.5359Z" fill="#F4CE62"/>
<path d="M10.9982 20.0335C15.9869 20.0335 20.031 15.9894 20.031 11.0007C20.031 6.01203 15.9869 1.9679 10.9982 1.9679C6.00951 1.9679 1.96538 6.01203 1.96538 11.0007C1.96538 15.9894 6.00951 20.0335 10.9982 20.0335Z" fill="#F9A324"/>
<path d="M10.9982 19.4786C15.6804 19.4786 19.476 15.683 19.476 11.0008C19.476 6.3186 15.6804 2.52293 10.9982 2.52293C6.316 2.52293 2.52034 6.3186 2.52034 11.0008C2.52034 15.683 6.316 19.4786 10.9982 19.4786Z" fill="#F4CE62"/>
<path d="M10.9982 18.9236C15.3739 18.9236 18.9211 15.3764 18.9211 11.0007C18.9211 6.62502 15.3739 3.07784 10.9982 3.07784C6.62251 3.07784 3.07532 6.62502 3.07532 11.0007C3.07532 15.3764 6.62251 18.9236 10.9982 18.9236Z" fill="#FFDEA5"/>
<path d="M9.66014 3.74579C9.37376 3.45941 8.95152 3.33648 8.56599 3.46055C7.82465 3.69912 7.69706 4.62336 8.24774 5.17405L16.8248 13.7511C17.3755 14.3018 18.2998 14.1743 18.5383 13.4329C18.6624 13.0473 18.5394 12.625 18.253 12.3385L9.66014 3.74579Z" fill="#FFDEA5"/>
<path d="M8.67321 7.16918C7.25727 5.75324 4.89063 5.57348 3.96703 7.3502C3.9222 7.43644 3.87891 7.5236 3.8372 7.61166C3.27693 8.7944 3.75401 10.147 4.67943 11.0724L10.9264 17.3195C11.8519 18.2449 13.2047 18.722 14.3875 18.1617C14.4755 18.12 14.5626 18.0767 14.6488 18.0319C16.4255 17.1084 16.2458 14.7417 14.8298 13.3258L8.67321 7.16918Z" fill="#FFDEA5"/>
<path d="M13.7463 9.96895C13.1262 9.96895 12.6618 9.3858 12.2134 8.95755C11.9214 8.67868 11.4997 8.52976 11.0356 8.52976C10.6757 8.52976 10.1796 8.753 10.1796 9.18727C10.1796 10.4651 15.0924 10.1674 15.0924 13.0829C15.0924 15.0183 13.2809 15.7131 11.8047 15.7131C11.798 15.7131 11.7914 15.7131 11.7847 15.713C11.5618 15.7114 11.3704 15.8805 11.3704 16.1034C11.3704 16.3127 11.2008 16.4823 10.9915 16.4823H10.9733C10.754 16.4823 10.5763 16.3045 10.5763 16.0852V15.9094C10.5763 15.6656 10.4193 15.4532 10.2014 15.3439C10.0235 15.2546 9.86188 15.1524 9.71698 15.0437C9.50115 14.8818 9.15193 14.9905 9.11379 15.2576C9.09172 15.4122 8.95932 15.5271 8.80316 15.5271H8.06683C7.42468 15.5271 6.90411 15.0065 6.90411 14.3643V13.5546C6.90411 12.9173 7.42072 12.4007 8.05798 12.4007C8.69525 12.4007 9.19257 13.0347 9.73635 13.3669C10.0731 13.5727 10.4978 13.628 10.7749 13.6412C11.2095 13.6412 11.8297 13.542 11.8297 13.0209C11.8297 12.0532 7.06548 12.4626 7.06548 9.29896C7.06548 7.46281 8.80228 6.63159 10.0181 6.63159C10.0415 6.63159 10.0649 6.63179 10.0883 6.63218C10.3475 6.6365 10.5763 6.43842 10.5763 6.17921V6.14779C10.5763 5.92848 10.754 5.7507 10.9733 5.7507C11.1927 5.7507 11.3704 5.92848 11.3704 6.14779V6.56314C11.3704 6.73877 11.4804 6.89325 11.6377 6.97141C11.8013 7.05272 11.9548 7.14917 12.0944 7.26352C12.2883 7.42232 12.6788 7.32853 12.7085 7.07967C12.7238 6.95141 12.8325 6.85483 12.9617 6.85483H13.7388C14.363 6.85483 14.869 7.36085 14.869 7.98505V8.84624C14.869 9.4663 14.3664 9.96895 13.7463 9.96895Z" fill="#F9A324"/>
</svg>
