<svg width="30" height="29" viewBox="0 0 30 29" fill="none" xmlns="http://www.w3.org/2000/svg">
<path d="M0.92357 4.11228H4.95797V3.01952H0L0.00496269 4.11228C0.0585183 8.39114 1.01578 12.4042 2.71786 15.4485C4.5203 18.6714 6.94981 20.445 9.56127 20.445V19.57C4.86575 19.5703 1.03458 12.6707 0.92357 4.11228Z" fill="#FFC96A"/>
<path d="M19.3116 24.3263C19.3013 24.3233 17.2917 23.2089 15.0413 23.2089C13.1176 23.2089 10.7874 24.3233 10.7764 24.3263C6.02803 26.7009 6.39654 28.4542 6.40718 28.4971C6.46889 28.7858 6.73064 28.9999 7.04027 28.9999H15.0445H23.0481C23.357 28.9999 23.6195 28.7858 23.6819 28.4971C23.6918 28.4539 24.0603 26.7009 19.3116 24.3263Z" fill="#F9A324"/>
<path d="M25.4644 0.979523C25.4644 0.94778 25.4265 0.770492 25.4063 0.727943C25.396 0.706331 25.3839 0.685396 25.3715 0.664797C25.2502 0.475691 25.0232 0.346355 24.764 0.346355H5.32293C5.06437 0.346355 4.83703 0.476028 4.71573 0.664797C4.70438 0.685396 4.69161 0.705994 4.68097 0.727943C4.66182 0.770492 4.62351 0.94778 4.62351 0.979523C4.62351 0.979523 4.45292 5.48362 7.42366 15.2293C9.21263 21.1017 10.6618 23.0833 12.493 23.0833H17.595C19.4258 23.0833 20.875 21.1017 22.6643 15.2293C25.6347 5.48362 25.4644 0.979523 25.4644 0.979523Z" fill="#FFC96A"/>
<path d="M8.75159 19.025C9.98514 21.9893 11.1339 23.0837 12.4934 23.0837H17.5954C19.4262 23.0837 20.8754 21.1022 22.6647 15.2298C24.4338 9.42724 25.0885 5.4837 25.329 3.24145C19.8028 8.50265 14.2774 13.7638 8.75159 19.025Z" fill="#F9A324"/>
<path d="M18.2351 23.3862C18.2351 23.5932 18.0585 23.7611 17.8425 23.7611H12.2464C12.0297 23.7611 11.8538 23.5932 11.8538 23.3862C11.8538 23.2829 11.896 23.19 11.9684 23.1222C12.0404 23.0543 12.1386 23.0117 12.2461 23.0117H17.8421C18.0585 23.0114 18.2351 23.1796 18.2351 23.3862Z" fill="#FFC96A"/>
<path d="M25.043 3.01955V4.11231H29.0767C28.9653 12.6707 25.1345 19.57 20.439 19.57V20.445C23.0504 20.445 25.4806 18.6714 27.2817 15.4485C28.9837 12.4039 29.9403 8.39117 29.9949 4.11231L29.9999 3.01955H25.043Z" fill="#F9A324"/>
</svg>
