<svg width="48" height="22" viewBox="0 0 48 22" fill="none" xmlns="http://www.w3.org/2000/svg">
<path d="M44 0H4C1.79086 0 0 1.79086 0 4V18C0 20.2091 1.79086 22 4 22H44C46.2091 22 48 20.2091 48 18V4C48 1.79086 46.2091 0 44 0Z" fill="#28BF55"/>
<path d="M42.5186 1.63354H5.48138C3.27225 1.63354 1.48138 3.4244 1.48138 5.63354V16.3664C1.48138 18.5756 3.27225 20.3664 5.48139 20.3664H42.5186C44.7278 20.3664 46.5186 18.5756 46.5186 16.3664V5.63354C46.5186 3.42441 44.7278 1.63354 42.5186 1.63354Z" fill="#DCF7B4"/>
<path d="M41.037 3.2674H6.96301C4.75387 3.2674 2.96301 5.05825 2.96301 7.26739V14.7329C2.96301 16.942 4.75387 18.7329 6.96301 18.7329H41.037C43.2461 18.7329 45.037 16.942 45.037 14.7329V7.26739C45.037 5.05826 43.2461 3.2674 41.037 3.2674Z" fill="#28BF55"/>
<path d="M43.5551 8.60412C43.0219 8.60412 42.5176 8.46704 42.0698 8.22308C40.1298 7.16629 38.4061 4.901 36.197 4.901H10.577C9.04458 4.901 7.87766 6.29546 6.87578 7.45503C6.79285 7.55101 6.70529 7.6421 6.61349 7.72785C5.64646 8.63118 4.44416 9.67689 4.44416 11.0002C4.44416 12.3235 5.64645 13.3692 6.6135 14.2726C6.70529 14.3583 6.79285 14.4494 6.87579 14.5454C7.87767 15.7049 9.04458 17.0994 10.577 17.0994H37.4221C38.9545 17.0994 40.1214 15.705 41.1233 14.5454C41.2062 14.4495 41.2938 14.3584 41.3856 14.2726C42.3526 13.3693 43.5549 12.3235 43.5549 11.0002V8.60439C43.5549 8.60424 43.555 8.60412 43.5551 8.60412Z" fill="#DCF7B4"/>
<path d="M19.7036 11.2447C19.7036 8.58324 21.6602 6.42535 24.074 6.42535C26.4878 6.42535 28.4444 8.58324 28.4444 11.2447C28.4444 13.9065 26.4878 16.0641 24.074 16.0641C21.6602 16.0641 19.7036 13.9062 19.7036 11.2447Z" fill="#28BF55"/>
</svg>
