<svg width="58" height="54" viewBox="0 0 58 54" fill="none" xmlns="http://www.w3.org/2000/svg">
<path d="M39.8506 35.5359C39.4616 35.5359 39.1078 35.2693 39.0116 34.8749C38.9735 34.7185 38.1201 30.9995 41.8774 27.2422C42.214 26.9056 42.7597 26.9056 43.0963 27.2422C43.4329 27.5788 43.4329 28.1245 43.0963 28.4611C40.0565 31.5009 40.6607 34.3531 40.6879 34.473C40.8007 34.9355 40.5164 35.3985 40.054 35.5113C39.9859 35.528 39.9177 35.5359 39.8506 35.5359Z" fill="#F1562E"/>
<path d="M41.49 36.1819C41.4473 36.1819 41.4042 36.1788 41.3608 36.1722C40.8901 36.1015 40.5659 35.6625 40.6367 35.1918C40.6606 35.0326 41.2793 31.2675 46.1799 29.2132C46.6187 29.0293 47.1239 29.2359 47.308 29.6749C47.492 30.1139 47.2853 30.6189 46.8463 30.8029C42.8298 32.4865 42.3457 35.4186 42.3412 35.4479C42.277 35.8753 41.9094 36.1819 41.49 36.1819Z" fill="#F1562E"/>
<path d="M36.6608 35.6702C36.3215 35.6702 35.9989 35.468 35.861 35.1356C35.7993 34.9868 34.3861 31.4427 37.5234 27.154C37.8044 26.7695 38.3436 26.6861 38.7278 26.9672C39.112 27.2482 39.1957 27.7875 38.9146 28.1716C36.3766 31.6414 37.4106 34.3672 37.4559 34.4816C37.6382 34.9213 37.4283 35.4224 36.9887 35.6048C36.8813 35.6491 36.7702 35.6702 36.6608 35.6702Z" fill="#F1562E"/>
<path d="M33.4845 17.6045H44.1137C51.7772 17.6045 57.9897 23.817 57.9897 31.4805C57.9897 38.1649 53.224 43.8994 46.6524 45.1222L41.2462 46.1283L38.9556 40.1812L45.3766 36.2581C46.3401 35.6693 46.9278 34.6217 46.9278 33.4925C46.9278 31.7026 45.4768 30.2515 43.6868 30.2515H33.354L33.4845 17.6045Z" fill="#FD7E42"/>
<path d="M8.76656 29.9764C4.96404 29.9764 2.13126 28.7975 0.807799 26.5459C-0.740937 23.9111 -0.047891 20.2363 2.75929 16.1985C5.43294 12.3528 9.74503 8.56581 14.9011 5.53516C23.0599 0.739559 31.5956 -1.15621 36.6466 0.705353C37.0933 0.869922 37.322 1.36544 37.1573 1.81203C36.9928 2.25873 36.4972 2.48752 36.0507 2.32273C31.5352 0.658576 23.387 2.54687 15.7746 7.02126C5.9271 12.8095 -0.246325 21.3506 2.2939 25.6725C3.78997 28.2177 8.30763 28.9422 14.0843 27.5628C14.547 27.4524 15.0122 27.7379 15.1228 28.201C15.2333 28.664 14.9476 29.129 14.4846 29.2395C12.4135 29.734 10.4901 29.9764 8.76656 29.9764Z" fill="#FD7E42"/>
<path d="M13.4686 29.1993C13.4271 29.1993 13.3853 29.1963 13.3431 29.1901C6.58725 28.2048 2.21027 25.3768 1.6349 21.6251C1.17155 18.6041 3.17571 15.4468 7.27804 12.7351C11.1853 10.1523 16.5929 8.23051 22.5047 7.32385C31.8588 5.88883 40.4901 7.28749 44.4933 10.8865C44.8474 11.2047 44.8763 11.7498 44.558 12.1037C44.2396 12.4578 43.6947 12.4866 43.3409 12.1684C39.7622 8.95108 31.494 7.68889 22.7661 9.02764C17.0953 9.89749 11.9325 11.7247 8.22864 14.1732C4.77077 16.4589 2.98849 19.0799 3.33881 21.3638C3.78641 24.282 7.71522 26.6272 13.5919 27.4844C14.063 27.553 14.389 27.9905 14.3204 28.4616C14.2579 28.8904 13.8896 29.1993 13.4686 29.1993Z" fill="#FD7E42"/>
<path d="M50.6176 19.2212C53.4951 21.7637 55.3103 25.4808 55.3103 29.6226C55.3103 36.307 50.5446 42.0413 43.973 43.2643L40.3994 43.9294L41.2464 46.1286L46.6526 45.1225C53.2242 43.8995 57.9899 38.1651 57.9899 31.4807C57.9899 26.1675 55.0032 21.5526 50.6176 19.2212Z" fill="#FC5327"/>
<path d="M45.3721 23.9869C46.5954 24.4096 48.5079 22.1316 49.7841 18.8132C48.2982 18.1471 46.6737 17.7354 44.966 17.6318C44.0614 20.8442 44.2017 23.5826 45.3721 23.9869Z" fill="#FC5327"/>
<path d="M55.3043 23.2759C52.3545 25.3077 50.5711 27.724 51.2749 28.8183C51.9396 29.8521 54.5986 29.3554 57.4807 27.7455C57.026 26.1147 56.2807 24.6052 55.3043 23.2759Z" fill="#FC5327"/>
<path d="M57.4037 35.4671C54.3507 34.5785 51.7722 34.6798 51.3517 35.8013C50.9549 36.8597 52.6042 38.4969 55.2158 39.8023C56.1859 38.5084 56.931 37.0432 57.4037 35.4671Z" fill="#FC5327"/>
<path d="M55.2841 28.777C55.9795 28.5151 56.7222 28.1693 57.4809 27.7455C57.0262 26.1147 56.2809 24.6053 55.3045 23.2759C54.9051 23.5509 54.5281 23.8331 54.1748 24.118C54.7989 25.5607 55.185 27.13 55.2841 28.777Z" fill="#ED4322"/>
<path d="M54.2729 34.8877C53.8122 36.0101 53.2088 37.0624 52.4814 38.0191C53.1614 38.6268 54.1003 39.2447 55.2157 39.8022C56.1859 38.5084 56.9309 37.0432 57.4038 35.467C56.2648 35.1357 55.1922 34.9422 54.2729 34.8877Z" fill="#ED4322"/>
<path d="M37.3567 38.5191L25.4885 40.9646C24.7717 41.1123 24.3544 41.8635 24.6077 42.5502C24.7858 43.033 25.2528 43.3479 25.7672 43.3318L31.5716 43.1508C31.8308 43.1427 31.9301 43.4852 31.7069 43.617L26.3619 46.7722C25.2744 47.4141 25.8908 49.0851 27.1346 48.8672L33.2483 47.7957C33.5035 47.751 33.6505 48.076 33.4482 48.238L28.9166 51.8696C28.515 52.1915 28.3642 52.7342 28.5424 53.217C28.7956 53.9037 29.6008 54.204 30.2418 53.8507L40.8553 48.0036C42.644 47.0182 43.4438 44.8734 42.7371 42.9574L42.0645 41.1343C41.3578 39.2186 39.3568 38.1069 37.3567 38.5191Z" fill="#FD7E42"/>
<path d="M42.7366 42.9579L42.0641 41.1348C41.477 39.5432 39.9967 38.5077 38.3657 38.4385L38.4526 38.6739C39.1594 40.5899 38.3595 42.7346 36.5709 43.7201L27.271 48.8435L33.2477 47.796C33.503 47.7513 33.6499 48.0762 33.4476 48.2383L28.916 51.8699C28.5144 52.1918 28.3636 52.7344 28.5418 53.2173C28.795 53.904 29.6002 54.2042 30.2413 53.851L40.8548 48.0039C42.6435 47.0186 43.4434 44.8739 42.7366 42.9579Z" fill="#FC5327"/>
<path d="M37.2705 24.0487C37.2705 29.2252 36.7387 33.4217 31.5621 33.4217C26.3855 33.4217 7.98877 29.2252 7.98877 24.0487C7.98877 18.8722 26.3856 14.6758 31.5621 14.6758C36.7386 14.6758 37.2705 18.8722 37.2705 24.0487Z" fill="#FD7E42"/>
<path d="M31.6229 14.6777C32.0834 16.2478 32.1731 18.2021 32.1731 20.3213C32.1731 25.4978 31.6414 29.6943 26.4647 29.6943C23.1056 29.6943 14.1811 27.9268 8.32764 25.2716C10.8508 29.8705 26.8001 33.422 31.5623 33.422C36.7388 33.422 37.2707 29.2256 37.2707 24.0491C37.2706 18.8933 36.7415 14.7113 31.6229 14.6777Z" fill="#FC5327"/>
<path d="M18.0223 25.4347C19.2823 25.4347 20.3038 24.4132 20.3038 23.1531C20.3038 21.8931 19.2823 20.8716 18.0223 20.8716C16.7622 20.8716 15.7407 21.8931 15.7407 23.1531C15.7407 24.4132 16.7622 25.4347 18.0223 25.4347Z" fill="#554E57"/>
<path d="M18.6718 20.9673C18.7327 21.1731 18.7667 21.3905 18.7667 21.616C18.7667 22.8761 17.7452 23.8976 16.4852 23.8976C16.2596 23.8976 16.0422 23.8636 15.8364 23.8027C16.1161 24.7465 16.9885 25.4354 18.023 25.4354C19.2831 25.4354 20.3046 24.4139 20.3046 23.1539C20.3046 22.1194 19.6156 21.2469 18.6718 20.9673Z" fill="#453E43"/>
</svg>
