<svg width="64" height="32" viewBox="0 0 64 32" fill="none" xmlns="http://www.w3.org/2000/svg">
<path d="M39.7429 2.13936C43.4004 3.24607 46.6012 4.78888 48.7323 6.73488L61.2846 0.255076C61.548 0.0946238 61.8606 0 62.1939 0C63.1566 0 63.9383 0.78169 63.9383 1.7444V30.2309C63.9424 30.5065 63.8807 30.7904 63.7449 31.0537C63.3047 31.9095 62.2556 32.2468 61.3998 31.8066V31.8025L48.9586 25.3967C46.7246 27.2111 43.3346 28.721 39.5331 29.8318C34.8223 31.2059 29.4246 32 24.862 32C18.16 32 12.0546 30.3008 7.60716 27.5608C2.9129 24.6644 0.00830078 20.5832 0.00830078 16.0041C0.00830078 11.425 2.9129 7.34378 7.60716 4.44741C12.0546 1.70326 18.16 0.00822695 24.862 0.00822695C29.7249 0.00411278 35.135 0.744662 39.7429 2.13936Z" fill="#AAE0FF"/>
<path d="M25.7423 31.9918C25.442 32 25.1499 32 24.8537 32C18.1517 32 12.0463 30.3009 7.59886 27.5609C2.9046 24.6645 0 20.5832 0 16.0042C0 11.4251 2.9046 7.34386 7.59886 4.44748C12.0463 1.70334 18.1517 0.00830078 24.8537 0.00830078C25.3762 0.00830078 25.9028 0.0165281 26.4335 0.0329848C26.7955 0.382689 27.0301 0.629539 27.1 0.724164C28.5029 2.62079 30.885 6.51279 31.6132 11.8242C32.3373 17.1109 31.4281 23.7882 26.2854 31.2472C26.2237 31.3335 26.0344 31.5969 25.7423 31.9918Z" fill="#97D7FC"/>
<path d="M12.9064 16.2142C14.7174 16.2142 16.1854 14.7462 16.1854 12.9352C16.1854 11.1243 14.7174 9.65625 12.9064 9.65625C11.0955 9.65625 9.62744 11.1243 9.62744 12.9352C9.62744 14.7462 11.0955 16.2142 12.9064 16.2142Z" fill="#667188"/>
</svg>
