<svg width="57" height="63" viewBox="0 0 57 63" fill="none" xmlns="http://www.w3.org/2000/svg">
<g filter="url(#filter0_b_268_10689)">
<path d="M55.1996 13.7634C54.3792 11.0175 51.7821 6.40272 48.5757 4.73223C47.7315 4.26681 46.7699 4.05755 45.8086 4.13006L42.0921 0.415017C41.851 0.173867 41.5309 0.0277801 41.1908 0.00357517C40.8506 -0.0206298 40.5131 0.0786703 40.2403 0.283247L35.9188 3.52789C35.7677 3.64128 35.6408 3.78375 35.5456 3.94691C35.4503 4.11007 35.3887 4.29062 35.3643 4.47795C35.3399 4.66528 35.3531 4.85561 35.4034 5.03773C35.4536 5.21985 35.5397 5.39009 35.6567 5.53843C39.1331 9.978 41.0396 15.4449 41.0778 21.0835C41.116 26.7221 39.2837 32.2143 35.8677 36.7006C32.4517 41.1868 27.6447 44.4139 22.199 45.8769C16.7533 47.3399 10.9763 46.9562 5.77197 44.7858C5.1999 44.5452 4.58114 44.4359 3.96125 44.4661C3.34136 44.4963 2.73613 44.6651 2.19012 44.9601C1.63218 45.2574 1.14812 45.6761 0.773649 46.1855C0.399181 46.6948 0.143867 47.2817 0.0265504 47.9029C-0.00885014 48.0826 -0.00885014 48.2674 0.0265504 48.447C1.71263 56.8845 10.0453 62.3324 21.2513 62.3324C38.3572 62.3324 56.6732 46.9593 56.6732 24.0768C56.7554 20.5812 56.2575 17.0961 55.1996 13.7634Z" fill="#FCB64D"/>
<path d="M49.1524 15.597C48.7797 15.6437 48.4408 15.8365 48.2102 16.133C47.9795 16.4295 47.8761 16.8055 47.9226 17.1782C48.0907 18.53 48.1749 19.891 48.1748 21.2532C48.1994 28.9615 45.4811 36.4271 40.5059 42.315C35.5308 48.2028 28.6234 52.1288 21.019 53.3907C20.6689 53.4499 20.3538 53.6384 20.1361 53.9188C19.9184 54.1992 19.8138 54.5512 19.8432 54.905C19.8726 55.2589 20.0338 55.5888 20.2948 55.8294C20.5559 56.0701 20.8978 56.204 21.2528 56.2046C21.3321 56.2049 21.4113 56.1983 21.4894 56.1848C29.7554 54.8138 37.264 50.5467 42.6722 44.1469C48.0804 37.7471 51.0354 29.632 51.0086 21.2532C51.0086 19.7735 50.9172 18.2953 50.7351 16.8269C50.712 16.6422 50.6527 16.4638 50.5606 16.3021C50.4686 16.1403 50.3456 15.9982 50.1986 15.884C50.0516 15.7698 49.8836 15.6857 49.7041 15.6364C49.5246 15.5872 49.3371 15.5738 49.1524 15.597Z" fill="#F57828"/>
</g>
<defs>
<filter id="filter0_b_268_10689" x="-4" y="-4" width="64.6821" height="70.3325" filterUnits="userSpaceOnUse" color-interpolation-filters="sRGB">
<feFlood flood-opacity="0" result="BackgroundImageFix"/>
<feGaussianBlur in="BackgroundImageFix" stdDeviation="2"/>
<feComposite in2="SourceAlpha" operator="in" result="effect1_backgroundBlur_268_10689"/>
<feBlend mode="normal" in="SourceGraphic" in2="effect1_backgroundBlur_268_10689" result="shape"/>
</filter>
</defs>
</svg>
