<svg width="40" height="61" viewBox="0 0 40 61" fill="none" xmlns="http://www.w3.org/2000/svg">
<path d="M5.57462 15.3319C5.35073 8.44097 9.87794 2.29426 16.5251 0.464097C20.5464 -0.574266 24.8195 0.147757 28.2763 2.44968C31.7332 4.75161 34.0471 8.41589 34.6396 12.5266L35.4808 18.1633C36.4264 23.8638 37.701 29.5048 39.2981 35.0581C39.7769 36.8408 40.0128 38.6799 39.9995 40.5257C40.0053 49.5644 33.8517 57.4443 25.081 59.6291C18.0398 61.4753 10.5514 59.3515 5.52798 54.0835C0.504551 48.8154 -1.26113 41.2346 0.917583 34.2891C1.86499 31.2716 3.55524 28.5893 4.42113 25.5226C5.30741 22.2014 5.69614 18.7671 5.57462 15.3319Z" fill="#D75E72"/>
<path d="M30.4562 45.2088L21.5359 33.4539V20.2934C21.5359 19.444 20.8473 18.7554 19.9979 18.7554C19.1485 18.7554 18.4599 19.444 18.4599 20.2934V33.4539L9.53953 45.2088C9.2071 45.6484 9.13444 46.2319 9.34891 46.7396C9.56338 47.2473 10.0324 47.602 10.5793 47.6701C11.1262 47.7382 11.6679 47.5094 12.0003 47.0698L19.9979 36.5161L27.9954 47.0698C28.5093 47.7493 29.4768 47.8836 30.1563 47.3697C30.8358 46.8558 30.9701 45.8883 30.4562 45.2088Z" fill="#802F34"/>
</svg>
