<svg width="45" height="60" viewBox="0 0 45 60" fill="none" xmlns="http://www.w3.org/2000/svg">
<path d="M42.9545 20.4543H2.04545C0.915781 20.4543 0 21.3701 0 22.4998V57.2725C0 58.4022 0.915781 59.318 2.04545 59.318H42.9545C44.0842 59.318 45 58.4022 45 57.2725V22.4998C45 21.3701 44.0842 20.4543 42.9545 20.4543Z" fill="#CCCCCC"/>
<path d="M31.7045 26.5908H13.2955C12.1658 26.5908 11.25 27.5066 11.25 28.6363V44.9999C11.25 46.1296 12.1658 47.0454 13.2955 47.0454H31.7045C32.8342 47.0454 33.75 46.1296 33.75 44.9999V28.6363C33.75 27.5066 32.8342 26.5908 31.7045 26.5908Z" fill="#ECF0F1"/>
<path fill-rule="evenodd" clip-rule="evenodd" d="M14.3182 16.3638H30.6818C31.8115 16.3638 32.7272 17.2796 32.7272 18.4092V20.4547H12.2727V18.4092C12.2727 17.2796 13.1885 16.3638 14.3182 16.3638Z" fill="#E9E9E9"/>
<path d="M35.7955 0H9.20461C8.63978 0 8.18188 0.457891 8.18188 1.02273V9.20455C8.18188 9.76938 8.63978 10.2273 9.20461 10.2273H35.7955C36.3604 10.2273 36.8182 9.76938 36.8182 9.20455V1.02273C36.8182 0.457891 36.3604 0 35.7955 0Z" fill="#706F6F"/>
<path fill-rule="evenodd" clip-rule="evenodd" d="M30.6818 10.2273C30.6818 10.2273 26.8148 12.2727 29.7153 16.3637H15.2846C18.185 12.2727 14.3181 10.2273 14.3181 10.2273H30.6818Z" fill="#5E5E5E"/>
<path fill-rule="evenodd" clip-rule="evenodd" d="M45 48.0989V57.2727C44.9966 58.401 44.0828 59.3148 42.9545 59.3182H2.04545C0.91718 59.3148 0.00336968 58.401 0 57.2727V48.0989C2.28068 50.4716 8.68295 55.4114 22.5 55.4114C36.317 55.4114 42.7193 50.4716 45 48.0989Z" fill="#706F6F"/>
</svg>
