<svg width="110" height="68" viewBox="0 0 110 68" fill="none" xmlns="http://www.w3.org/2000/svg">
<path d="M0.082322 52.656C0.0172117 53.7763 0.923309 54.7002 2.04548 54.7002H24.1907C25.262 54.7002 26.1358 53.8546 26.2498 52.7894C26.7437 48.1753 28.29 43.8796 30.637 40.1527C31.2003 39.2581 31.0517 38.071 30.2339 37.401L12.9673 23.2549C12.0889 22.5352 10.7852 22.6886 10.1349 23.6195C4.33999 31.9139 0.708522 41.8817 0.082322 52.656Z" fill="#2B8349"/>
<path d="M79.2262 36.6843C78.428 37.3777 78.3139 38.5688 78.9028 39.4469C81.5077 43.331 83.2248 47.8822 83.7503 52.7895C83.8644 53.8546 84.7382 54.7002 85.8094 54.7002H107.955C109.077 54.7002 109.983 53.7762 109.918 52.6559C109.259 41.3119 105.267 30.8662 98.9286 22.32C98.2519 21.4075 96.9437 21.2915 96.0861 22.0366L79.2262 36.6843Z" fill="#DD601B"/>
<path d="M14.2857 18.3692C13.5471 19.197 13.6715 20.467 14.5296 21.1701L31.7986 35.3211C32.6368 36.008 33.8647 35.8968 34.6264 35.126C39.1447 30.5532 45.1385 27.4843 51.8067 26.7347C52.8698 26.6152 53.7134 25.7424 53.7134 24.6727V2.04757C53.7134 0.924598 52.7876 0.0180207 51.6667 0.0865763C36.8847 0.990677 23.6581 7.86407 14.2857 18.3692Z" fill="#28BF55"/>
<path d="M58.3353 0.0895813C57.2145 0.0212437 56.2891 0.927765 56.2891 2.05058V24.6753C56.2891 25.7454 57.1331 26.6183 58.1965 26.7374C64.5727 27.4518 70.3301 30.287 74.7723 34.5343C75.5558 35.2835 76.787 35.3596 77.6053 34.6486L94.4683 19.9984C95.3056 19.2711 95.3936 17.9986 94.632 17.1923C85.338 7.3521 72.5564 0.956722 58.3353 0.0895813Z" fill="#FFB605"/>
<path d="M49.5962 56.6892L54.5098 54.2059L38.7252 21.8213L49.5962 56.6892Z" fill="#C5C5C5"/>
<path d="M38.7266 21.8213L54.5112 54.206L59.4245 51.7227L38.7266 21.8213Z" fill="#EBEBEB"/>
<path d="M54.9935 68C60.8027 68 65.5122 63.2046 65.5122 57.2888H44.4749C44.4745 63.2046 49.1841 68 54.9935 68Z" fill="#6B6B6B"/>
<path d="M54.9935 46.5775C49.1841 46.5775 44.4749 51.373 44.4749 57.2888H65.5122C65.5119 51.3733 60.8027 46.5775 54.9935 46.5775Z" fill="#696E77"/>
<path d="M64.237 57.2888C64.237 62.4874 60.0985 66.7017 54.9933 66.7017C49.8882 66.7017 45.7496 62.4874 45.7496 57.2888C45.7496 52.0902 49.8882 47.8759 54.9933 47.8759C60.0985 47.8759 64.237 52.0902 64.237 57.2888Z" fill="#EBEBEB"/>
<path d="M58.0138 57.2888C58.0138 58.9853 56.6631 60.3607 54.9971 60.3607C53.331 60.3607 51.9801 58.9853 51.9801 57.2888C51.9801 55.5923 53.3307 54.2169 54.9971 54.2169C56.6631 54.2169 58.0138 55.5923 58.0138 57.2888Z" fill="#6B6B6B"/>
</svg>
