<svg width="202" height="201" viewBox="0 0 202 201" fill="none" xmlns="http://www.w3.org/2000/svg">
<path d="M101.459 96.9055L101.339 201L75.6872 197.759L101.459 96.9055Z" fill="url(#paint0_radial_98_942)"/>
<path d="M100.55 104.094L126.322 3.24101L100.671 0L100.55 104.094Z" fill="url(#paint1_radial_98_942)"/>
<path d="M104.595 100.954L0.500763 100.833L3.74176 75.1816L104.595 100.954Z" fill="url(#paint2_radial_98_942)"/>
<path d="M97.4055 100.046L198.259 125.818L201.5 100.167L97.4055 100.046Z" fill="url(#paint3_radial_98_942)"/>
<path d="M98.1157 98.3092L188.204 150.461L172.572 171.056L98.1157 98.3092Z" fill="url(#paint4_radial_98_942)"/>
<path d="M103.887 102.691L29.4311 29.9441L13.7988 50.5384L103.887 102.691Z" fill="url(#paint5_radial_98_942)"/>
<path d="M103.194 97.614L51.0416 187.702L30.4472 172.07L103.194 97.614Z" fill="url(#paint6_radial_98_942)"/>
<path d="M98.8115 103.386L171.558 28.93L150.964 13.2977L98.8115 103.386Z" fill="url(#paint7_radial_98_942)"/>
<path d="M99.5964 97.1603L151.539 187.369L127.704 197.388L99.5964 97.1603Z" fill="url(#paint8_radial_98_942)"/>
<path d="M102.405 103.84L74.297 3.61255L50.4622 13.6313L102.405 103.84Z" fill="url(#paint9_radial_98_942)"/>
<path d="M104.34 99.0962L14.1312 151.039L4.11249 127.204L104.34 99.0962Z" fill="url(#paint10_radial_98_942)"/>
<path d="M97.6613 101.904L197.889 73.7966L187.87 49.9618L97.6613 101.904Z" fill="url(#paint11_radial_98_942)"/>
<path d="M52.1909 130.761C52.1909 132.614 45.9561 134.116 38.2652 134.116C30.5743 134.116 24.3394 132.614 24.3394 130.761V125.056H52.1904V130.761H52.1909Z" fill="url(#paint12_linear_98_942)"/>
<mask id="mask0_98_942" style="mask-type:luminance" maskUnits="userSpaceOnUse" x="40" y="124" width="29" height="10">
<path d="M40.1567 128.08C40.1567 126.227 46.3916 124.725 54.0825 124.725C61.7734 124.725 68.0082 126.227 68.0082 128.08V133.785H40.1572V128.08H40.1567Z" fill="white"/>
</mask>
<g mask="url(#mask0_98_942)">
<path d="M47.6185 134.453H44.7285V124.387H47.6185V134.453Z" fill="white"/>
</g>
<path d="M38.2652 128.412C30.5742 128.412 24.3394 126.909 24.3394 125.056C24.3394 123.203 30.5742 121.701 38.2652 121.701C45.9562 121.701 52.1909 123.203 52.1909 125.056C52.1909 126.909 45.9562 128.412 38.2652 128.412Z" fill="#E48F34"/>
<path d="M28.3956 125.168C29.4131 124.272 33.4192 123.602 38.2095 123.602C42.9999 123.602 47.0059 124.271 48.0234 125.168C48.1869 125.024 48.2759 124.875 48.2759 124.721C48.2759 123.609 43.7688 122.708 38.209 122.708C32.6493 122.708 28.1422 123.609 28.1422 124.721C28.1432 124.874 28.2321 125.024 28.3956 125.168Z" fill="url(#paint13_linear_98_942)"/>
<path d="M52.1909 122.484C52.1909 124.337 45.9561 125.839 38.2652 125.839C30.5743 125.839 24.3394 124.337 24.3394 122.484V116.78H52.1904V122.484H52.1909Z" fill="url(#paint14_linear_98_942)"/>
<mask id="mask1_98_942" style="mask-type:luminance" maskUnits="userSpaceOnUse" x="40" y="116" width="29" height="10">
<path d="M40.1567 119.803C40.1567 117.95 46.3916 116.448 54.0825 116.448C61.7734 116.448 68.0082 117.95 68.0082 119.803V125.508H40.1572V119.803H40.1567Z" fill="white"/>
</mask>
<g mask="url(#mask1_98_942)">
<path d="M47.6185 126.177H44.7285V116.11H47.6185V126.177Z" fill="white"/>
</g>
<path d="M38.2652 120.135C30.5742 120.135 24.3394 118.633 24.3394 116.779C24.3394 114.926 30.5742 113.424 38.2652 113.424C45.9562 113.424 52.1909 114.926 52.1909 116.779C52.1909 118.633 45.9562 120.135 38.2652 120.135Z" fill="#E48F34"/>
<path d="M28.3956 116.891C29.4131 115.995 33.4192 115.325 38.2095 115.325C42.9999 115.325 47.0059 115.995 48.0234 116.891C48.1869 116.748 48.2759 116.598 48.2759 116.444C48.2759 115.332 43.7688 114.431 38.209 114.431C32.6493 114.431 28.1422 115.332 28.1422 116.444C28.1432 116.598 28.2321 116.747 28.3956 116.891Z" fill="url(#paint15_linear_98_942)"/>
<path d="M52.1909 114.878C52.1909 116.732 45.9561 118.234 38.2652 118.234C30.5743 118.234 24.3394 116.732 24.3394 114.878V109.174H52.1904V114.878H52.1909Z" fill="url(#paint16_linear_98_942)"/>
<mask id="mask2_98_942" style="mask-type:luminance" maskUnits="userSpaceOnUse" x="40" y="108" width="29" height="10">
<path d="M40.1567 112.198C40.1567 110.344 46.3916 108.842 54.0825 108.842C61.7734 108.842 68.0082 110.344 68.0082 112.198V117.902H40.1572V112.198H40.1567Z" fill="white"/>
</mask>
<g mask="url(#mask2_98_942)">
<path d="M47.6185 118.571H44.7285V108.504H47.6185V118.571Z" fill="white"/>
</g>
<path d="M38.2652 112.529C30.5742 112.529 24.3394 111.027 24.3394 109.174C24.3394 107.321 30.5742 105.818 38.2652 105.818C45.9562 105.818 52.1909 107.321 52.1909 109.174C52.1909 111.027 45.9562 112.529 38.2652 112.529Z" fill="#E48F34"/>
<path d="M28.3956 109.286C29.4131 108.389 33.4192 107.72 38.2095 107.72C42.9999 107.72 47.0059 108.389 48.0234 109.286C48.1869 109.142 48.2759 108.992 48.2759 108.839C48.2759 107.727 43.7688 106.825 38.209 106.825C32.6493 106.825 28.1422 107.727 28.1422 108.839C28.1432 108.992 28.2321 109.141 28.3956 109.286Z" fill="url(#paint17_linear_98_942)"/>
<path d="M52.1914 107.279C52.1914 109.133 45.9566 110.635 38.2657 110.635C30.5748 110.635 24.3399 109.133 24.3399 107.279V101.575H52.1909V107.279H52.1914Z" fill="url(#paint18_linear_98_942)"/>
<mask id="mask3_98_942" style="mask-type:luminance" maskUnits="userSpaceOnUse" x="40" y="101" width="29" height="10">
<path d="M40.1572 104.598C40.1572 102.745 46.3921 101.243 54.083 101.243C61.7739 101.243 68.0087 102.745 68.0087 104.598V110.303H40.1577V104.598H40.1572Z" fill="white"/>
</mask>
<g mask="url(#mask3_98_942)">
<path d="M47.619 110.972H44.729V100.905H47.619V110.972Z" fill="white"/>
</g>
<path d="M38.2657 104.93C30.5747 104.93 24.3399 103.428 24.3399 101.575C24.3399 99.7216 30.5747 98.2194 38.2657 98.2194C45.9566 98.2194 52.1914 99.7216 52.1914 101.575C52.1914 103.428 45.9566 104.93 38.2657 104.93Z" fill="#E48F34"/>
<path d="M28.3961 101.686C29.4136 100.79 33.4197 100.12 38.21 100.12C43.0004 100.12 47.0064 100.79 48.0239 101.686C48.1874 101.543 48.2764 101.393 48.2764 101.239C48.2764 100.127 43.7693 99.2258 38.2095 99.2258C32.6498 99.2258 28.1427 100.127 28.1427 101.239C28.1437 101.393 28.2326 101.543 28.3961 101.686Z" fill="url(#paint19_linear_98_942)"/>
<path d="M52.1914 99.0024C52.1914 100.856 45.9566 102.358 38.2657 102.358C30.5748 102.358 24.3399 100.856 24.3399 99.0024V93.298H52.1909V99.0024H52.1914Z" fill="url(#paint20_linear_98_942)"/>
<mask id="mask4_98_942" style="mask-type:luminance" maskUnits="userSpaceOnUse" x="40" y="92" width="29" height="11">
<path d="M40.1572 96.3217C40.1572 94.4684 46.3921 92.9662 54.083 92.9662C61.7739 92.9662 68.0087 94.4684 68.0087 96.3217V102.026H40.1577V96.3217H40.1572Z" fill="white"/>
</mask>
<g mask="url(#mask4_98_942)">
<path d="M47.619 102.696H44.729V92.6287H47.619V102.696Z" fill="white"/>
</g>
<path d="M38.2657 96.6533C30.5747 96.6533 24.3399 95.151 24.3399 93.2978C24.3399 91.4447 30.5747 89.9424 38.2657 89.9424C45.9566 89.9424 52.1914 91.4447 52.1914 93.2978C52.1914 95.151 45.9566 96.6533 38.2657 96.6533Z" fill="#E48F34"/>
<path d="M28.3961 93.4094C29.4136 92.5131 33.4197 91.8433 38.21 91.8433C43.0004 91.8433 47.0064 92.5126 48.0239 93.4094C48.1874 93.2656 48.2764 93.1161 48.2764 92.9622C48.2764 91.8505 43.7693 90.9489 38.2095 90.9489C32.6498 90.9489 28.1427 91.8505 28.1427 92.9622C28.1437 93.1161 28.2326 93.2656 28.3961 93.4094Z" fill="url(#paint21_linear_98_942)"/>
<path d="M34.3042 137.988C34.3042 139.841 28.0694 141.343 20.3785 141.343C12.6876 141.343 6.45272 139.841 6.45272 137.988V132.283H34.3037V137.988H34.3042Z" fill="url(#paint22_linear_98_942)"/>
<mask id="mask5_98_942" style="mask-type:luminance" maskUnits="userSpaceOnUse" x="22" y="131" width="29" height="11">
<path d="M22.2725 135.307C22.2725 133.454 28.5073 131.951 36.1982 131.951C43.8891 131.951 50.1239 133.454 50.1239 135.307V141.011H22.2729V135.307H22.2725Z" fill="white"/>
</mask>
<g mask="url(#mask5_98_942)">
<path d="M29.7308 141.681H26.8408V131.614H29.7308V141.681Z" fill="white"/>
</g>
<path d="M20.3785 135.639C12.6875 135.639 6.45271 134.136 6.45271 132.283C6.45271 130.43 12.6875 128.928 20.3785 128.928C28.0694 128.928 34.3042 130.43 34.3042 132.283C34.3042 134.136 28.0694 135.639 20.3785 135.639Z" fill="#E48F34"/>
<path d="M10.507 132.395C11.5245 131.498 15.5305 130.829 20.3209 130.829C25.1112 130.829 29.1173 131.498 30.1348 132.395C30.2983 132.251 30.3872 132.101 30.3872 131.948C30.3872 130.836 25.8801 129.934 20.3204 129.934C14.7607 129.934 10.2535 130.836 10.2535 131.948C10.2545 132.101 10.3435 132.251 10.507 132.395Z" fill="url(#paint23_linear_98_942)"/>
<path d="M34.3042 129.711C34.3042 131.564 28.0694 133.066 20.3785 133.066C12.6876 133.066 6.45272 131.564 6.45272 129.711V124.006H34.3037V129.711H34.3042Z" fill="url(#paint24_linear_98_942)"/>
<mask id="mask6_98_942" style="mask-type:luminance" maskUnits="userSpaceOnUse" x="22" y="123" width="29" height="10">
<path d="M22.2725 127.03C22.2725 125.176 28.5073 123.674 36.1982 123.674C43.8891 123.674 50.1239 125.176 50.1239 127.03V132.734H22.2729V127.03H22.2725Z" fill="white"/>
</mask>
<g mask="url(#mask6_98_942)">
<path d="M29.7308 133.403H26.8408V123.337H29.7308V133.403Z" fill="white"/>
</g>
<path d="M20.3785 127.362C12.6875 127.362 6.45271 125.859 6.45271 124.006C6.45271 122.153 12.6875 120.651 20.3785 120.651C28.0694 120.651 34.3042 122.153 34.3042 124.006C34.3042 125.859 28.0694 127.362 20.3785 127.362Z" fill="#E48F34"/>
<path d="M10.507 124.118C11.5245 123.221 15.5305 122.552 20.3209 122.552C25.1112 122.552 29.1173 123.221 30.1348 124.118C30.2983 123.974 30.3872 123.824 30.3872 123.67C30.3872 122.559 25.8801 121.657 20.3204 121.657C14.7607 121.657 10.2535 122.559 10.2535 123.67C10.2545 123.824 10.3435 123.974 10.507 124.118Z" fill="url(#paint25_linear_98_942)"/>
<path d="M34.3042 122.104C34.3042 123.958 28.0694 125.46 20.3785 125.46C12.6876 125.46 6.45272 123.958 6.45272 122.104V116.4H34.3037V122.104H34.3042Z" fill="url(#paint26_linear_98_942)"/>
<mask id="mask7_98_942" style="mask-type:luminance" maskUnits="userSpaceOnUse" x="22" y="116" width="29" height="10">
<path d="M22.272 119.424C22.272 117.571 28.5068 116.069 36.1977 116.069C43.8886 116.069 50.1235 117.571 50.1235 119.424V125.129H22.2725V119.424H22.272Z" fill="white"/>
</mask>
<g mask="url(#mask7_98_942)">
<path d="M29.7303 125.798H26.8403V115.731H29.7303V125.798Z" fill="white"/>
</g>
<path d="M20.3785 119.755C12.6875 119.755 6.45271 118.253 6.45271 116.4C6.45271 114.547 12.6875 113.044 20.3785 113.044C28.0694 113.044 34.3042 114.547 34.3042 116.4C34.3042 118.253 28.0694 119.755 20.3785 119.755Z" fill="#E48F34"/>
<path d="M10.5065 116.512C11.524 115.616 15.53 114.946 20.3204 114.946C25.1107 114.946 29.1168 115.615 30.1343 116.512C30.2978 116.368 30.3867 116.219 30.3867 116.065C30.3867 114.953 25.8796 114.051 20.3199 114.051C14.7602 114.051 10.2531 114.953 10.2531 116.065C10.254 116.219 10.343 116.368 10.5065 116.512Z" fill="url(#paint27_linear_98_942)"/>
<path d="M35.9677 158.889C36.2427 162.994 42.8623 166.102 50.7527 165.833C58.6432 165.562 64.816 162.016 64.541 157.911L64.3246 154.688L35.8768 155.661C35.8768 155.661 35.9225 158.218 35.9677 158.889Z" fill="url(#paint28_linear_98_942)"/>
<mask id="mask8_98_942" style="mask-type:luminance" maskUnits="userSpaceOnUse" x="35" y="157" width="30" height="9">
<path d="M35.9706 158.888C36.2457 162.993 42.8652 166.101 50.7557 165.832C58.6461 165.561 64.8189 162.015 64.5439 157.91" fill="white"/>
</mask>
<g mask="url(#mask8_98_942)">
<path d="M44.0925 166.834L47.2527 166.716L47.4575 160.866L44.2973 160.984L44.0925 166.834Z" fill="white"/>
</g>
<path d="M35.7959 154.472C35.7055 150.362 42.0323 146.89 49.9272 146.716C57.8222 146.542 64.2956 149.733 64.3861 153.843C64.4765 157.953 58.1497 161.426 50.2547 161.599C42.3598 161.773 35.8864 158.582 35.7959 154.472Z" fill="#E48F34"/>
<path d="M59.4326 154.56C59.2533 151.886 54.4793 149.877 48.7695 150.073C45.6266 150.18 42.8573 150.934 41.0305 152.035C42.5977 150.363 46.0594 149.128 50.152 148.987C55.8617 148.792 60.6357 150.801 60.8151 153.474C60.8959 154.676 60.0318 155.807 58.5401 156.707C59.1595 156.046 59.4836 155.317 59.4326 154.56Z" fill="#EAA700"/>
<path d="M40.0319 154.081C39.965 151.404 44.5415 149.118 50.2538 148.975C55.9662 148.832 60.6512 150.887 60.7181 153.564C60.7851 156.241 56.2086 158.526 50.4962 158.669C44.7839 158.812 40.0989 156.758 40.0319 154.081Z" stroke="#EAA700" stroke-width="1.2764" stroke-miterlimit="10"/>
<path d="M39.9428 146.152L39.1754 147.556C38.896 148.067 38.4757 148.487 37.965 148.766L36.5614 149.534L37.965 150.301C38.4757 150.581 38.896 151.001 39.1754 151.512L39.9428 152.915L40.7103 151.512C40.9896 151.001 41.4099 150.581 41.9206 150.301L43.3242 149.534L41.9206 148.766C41.4099 148.487 40.9896 148.067 40.7103 147.556L39.9428 146.152Z" fill="white"/>
<path d="M147.489 59.7296L154.227 57.4614C155.841 56.9185 157.395 58.4212 156.906 60.0518L154.965 66.5266C154.965 66.5266 147.699 68.1779 147.489 59.7296Z" fill="url(#paint29_linear_98_942)"/>
<mask id="mask9_98_942" style="mask-type:luminance" maskUnits="userSpaceOnUse" x="147" y="57" width="10" height="10">
<path d="M147.483 59.7296L154.221 57.4614C155.834 56.9185 157.388 58.4212 156.9 60.0518L154.959 66.5266C154.96 66.5266 147.693 68.1779 147.483 59.7296Z" fill="white"/>
</mask>
<g mask="url(#mask9_98_942)">
<path d="M161.938 49.0536L148.766 66.5416L150.94 67.4562L161.938 49.0536Z" fill="url(#paint30_linear_98_942)"/>
</g>
<path d="M157.927 69.233L164.957 68.166C166.64 67.9107 167.91 69.66 167.146 71.1815L164.114 77.2225C164.114 77.2225 156.67 77.5899 157.927 69.233Z" fill="url(#paint31_linear_98_942)"/>
<mask id="mask10_98_942" style="mask-type:luminance" maskUnits="userSpaceOnUse" x="157" y="68" width="11" height="10">
<path d="M157.925 69.2333L164.955 68.1662C166.638 67.9109 167.908 69.6603 167.144 71.1817L164.112 77.2228C164.112 77.2223 156.668 77.5902 157.925 69.2333Z" fill="white"/>
</mask>
<g mask="url(#mask10_98_942)">
<path d="M174.007 61.2205L158.007 76.1632L159.989 77.4404L174.007 61.2205Z" fill="url(#paint32_linear_98_942)"/>
</g>
<path d="M163.202 81.828L170.082 83.6221C171.729 84.0515 172.206 86.1606 170.904 87.2569L165.733 91.6102C165.733 91.6102 158.749 89.0101 163.202 81.828Z" fill="url(#paint33_linear_98_942)"/>
<mask id="mask11_98_942" style="mask-type:luminance" maskUnits="userSpaceOnUse" x="161" y="81" width="11" height="11">
<path d="M163.199 81.8282L170.079 83.6223C171.726 84.0518 172.203 86.1608 170.901 87.2572L165.73 91.6104C165.729 91.6104 158.746 89.0104 163.199 81.8282Z" fill="white"/>
</mask>
<g mask="url(#mask11_98_942)">
<path d="M181.14 80.8146L160.54 88.228L161.858 90.1842L181.14 80.8146Z" fill="url(#paint34_linear_98_942)"/>
</g>
<path d="M83.1648 49.7597L89.9026 47.4914C91.5159 46.9485 93.07 48.4512 92.5815 50.0818L90.6407 56.5566C90.6407 56.5566 83.374 58.2079 83.1648 49.7597Z" fill="url(#paint35_linear_98_942)"/>
<mask id="mask12_98_942" style="mask-type:luminance" maskUnits="userSpaceOnUse" x="83" y="47" width="10" height="10">
<path d="M83.1672 49.7601L89.905 47.4919C91.5183 46.949 93.0725 48.4517 92.5839 50.0823L90.6432 56.5571C90.6432 56.5571 83.3764 58.2084 83.1672 49.7601Z" fill="white"/>
</mask>
<g mask="url(#mask12_98_942)">
<path d="M97.6182 39.084L84.4464 56.5719L86.6204 57.4865L97.6182 39.084Z" fill="url(#paint36_linear_98_942)"/>
</g>
<path d="M172.498 100.802L95.5112 88.4233L44.1864 96.8769L122.532 111.369L172.498 100.802Z" fill="#845217"/>
<path d="M122.532 111.369L172.498 100.802L166.456 139.524C166.092 141.859 164.374 143.754 162.086 144.346L127.233 153.364C124.246 154.137 121.114 154.161 118.115 153.433L55.2453 138.184C53.1084 137.666 51.4749 135.942 51.0714 133.781L44.1864 96.8768L122.532 111.369Z" fill="#E38F43"/>
<mask id="mask13_98_942" style="mask-type:luminance" maskUnits="userSpaceOnUse" x="44" y="96" width="129" height="58">
<path d="M122.535 111.369L172.501 100.802L166.459 139.524C166.095 141.859 164.378 143.754 162.09 144.346L127.237 153.364C124.249 154.137 121.117 154.161 118.118 153.434L55.2487 138.185C53.1118 137.666 51.4783 135.943 51.0748 133.781L44.1899 96.8771L122.535 111.369Z" fill="white"/>
</mask>
<g mask="url(#mask13_98_942)">
<path opacity="0.42" d="M69.6661 114.908C54.2573 114.752 58.8053 127.565 94.04 140.099C103.113 143.326 110.37 138.809 103.993 132.457C97.6161 126.106 77.3089 122.066 77.3089 122.066C74.4958 124.087 82.6012 127.726 87.8628 129.044" stroke="#D66929" stroke-width="1.3377" stroke-miterlimit="10" stroke-linecap="round" stroke-linejoin="round"/>
</g>
<mask id="mask14_98_942" style="mask-type:luminance" maskUnits="userSpaceOnUse" x="44" y="96" width="129" height="58">
<path d="M122.535 111.369L172.501 100.802L166.459 139.524C166.095 141.859 164.378 143.754 162.09 144.346L127.237 153.364C124.249 154.137 121.117 154.161 118.118 153.434L55.2487 138.185C53.1118 137.666 51.4783 135.943 51.0748 133.781L44.1899 96.8771L122.535 111.369Z" fill="white"/>
</mask>
<g mask="url(#mask14_98_942)">
<path opacity="0.42" d="M128.346 141.445C128.346 141.445 121.93 132.383 109.893 125.552C97.8553 118.722 114.231 119.006 86.9541 108.126C71.142 101.818 52.674 108.198 51.2035 122.34C50.6082 128.062 70.462 134.61 70.462 134.61C70.462 134.61 86.2362 141.772 104.39 149.672C122.544 157.571 130.423 152.71 123.428 141.292" stroke="#D66929" stroke-width="1.3377" stroke-miterlimit="10" stroke-linecap="round" stroke-linejoin="round"/>
</g>
<mask id="mask15_98_942" style="mask-type:luminance" maskUnits="userSpaceOnUse" x="44" y="96" width="129" height="58">
<path d="M122.535 111.369L172.501 100.802L166.459 139.524C166.095 141.859 164.378 143.754 162.09 144.346L127.237 153.364C124.249 154.137 121.117 154.161 118.118 153.434L55.2487 138.185C53.1118 137.666 51.4783 135.943 51.0748 133.781L44.1899 96.8771L122.535 111.369Z" fill="white"/>
</mask>
<g mask="url(#mask15_98_942)">
<path d="M78.8834 123.193C82.2418 124.144 102.888 128.815 101.404 134.064C100.637 136.777 96.28 136.233 94.2042 135.927C87.7164 134.97 65.9194 126.942 64.9765 119.059C63.7988 109.214 88.3622 118.721 91.6383 120.173C99.7394 123.764 113.464 129.152 116.9 138.136C118.525 142.385 118.805 146.569 114.279 147.748C105.529 150.028 87.5639 144.703 79.8562 141.164C71.8042 137.469 59.9515 129.877 56.3748 121.031C51.5859 109.187 74.4759 108.966 80.992 109.682C92.2764 110.921 103.651 118.317 113.508 123.506C120.97 126.607 130.975 142.677 127.152 151.246C125.528 154.885 119.801 153.826 116.135 154.378C104.076 156.193 90.3775 155.802 78.4675 153.044C67.9193 150.602 60.0217 143.37 52.5404 135.84C47.1538 130.419 36.9086 120.861 40.8733 112.43C44.5846 104.537 53.7565 101.317 61.7917 100.487C72.2168 99.4094 86.4435 99.0098 96.1199 103.551C98.8772 104.845 118.86 117.009 118.515 117.529C118.119 118.126 103.361 110.226 101.027 109.072C95.1245 106.156 90.1563 104.529 83.5699 104.388C74.1657 104.186 48.2834 102.085 45.5742 115.493C44.5711 120.457 53.7204 128.368 56.8816 131.458C61.8667 136.332 67.512 142.029 73.8863 145.079C81.9682 148.947 88.9411 149.826 97.7058 150.06C103.685 150.22 117.923 151.435 120.696 150.538C123.47 149.642 124.657 135.548 110.166 126.351C97.5769 118.362 84.7908 110.159 69.3383 111.814C64.6937 112.311 55.5612 113.769 57.9631 120.262C60.0043 125.781 70.9819 132.488 75.7295 134.821C88.0179 140.859 109.109 146.929 112.378 142.575C115.647 138.221 106.858 129.948 102.44 127.523C95.5664 123.749 73.0318 117.658 72.0533 120.748C71.0747 123.838 79.7322 128.276 83.6666 130.054C84.7158 130.528 93.9286 132.711 94.8403 131.071C95.7506 129.431 78.8772 123.191 78.8834 123.193Z" fill="#FCDB75"/>
</g>
<mask id="mask16_98_942" style="mask-type:luminance" maskUnits="userSpaceOnUse" x="44" y="96" width="129" height="58">
<path d="M122.535 111.369L172.501 100.802L166.459 139.524C166.095 141.859 164.378 143.754 162.09 144.346L127.237 153.364C124.249 154.137 121.117 154.161 118.118 153.434L55.2487 138.185C53.1118 137.666 51.4783 135.943 51.0748 133.781L44.1899 96.8771L122.535 111.369Z" fill="white"/>
</mask>
<g mask="url(#mask16_98_942)">
<path opacity="0.42" d="M108.741 114.633C108.741 114.633 88.1195 106.198 82.7747 106.606" stroke="#D66929" stroke-width="1.3377" stroke-miterlimit="10" stroke-linecap="round" stroke-linejoin="round"/>
</g>
<mask id="mask17_98_942" style="mask-type:luminance" maskUnits="userSpaceOnUse" x="44" y="96" width="129" height="59">
<path d="M122.535 111.368L172.501 100.801L166.459 139.524C166.095 141.859 164.378 143.754 162.09 144.346L126.481 153.56C123.99 154.204 121.378 154.224 118.878 153.617L55.3661 138.212C53.1584 137.677 51.4701 135.896 51.0537 133.663L44.1908 96.8771L122.535 111.368Z" fill="white"/>
</mask>
<g mask="url(#mask17_98_942)">
<path d="M172.5 100.802L122.535 111.368L122.837 159.976L164.244 149.262C165.312 148.986 166.106 148.091 166.254 146.998L172.5 100.802Z" fill="#D66929"/>
</g>
<mask id="mask18_98_942" style="mask-type:luminance" maskUnits="userSpaceOnUse" x="44" y="96" width="129" height="59">
<path d="M122.535 111.368L172.501 100.801L166.459 139.524C166.095 141.859 164.378 143.754 162.09 144.346L126.481 153.56C123.99 154.204 121.378 154.224 118.878 153.617L55.3661 138.212C53.1584 137.677 51.4701 135.896 51.0537 133.663L44.1908 96.8771L122.535 111.368Z" fill="white"/>
</mask>
<g mask="url(#mask18_98_942)">
<mask id="mask19_98_942" style="mask-type:luminance" maskUnits="userSpaceOnUse" x="122" y="100" width="51" height="54">
<path d="M172.507 100.802L122.542 111.369L122.673 148.845C122.683 151.733 125.412 153.838 128.208 153.115L159.486 145.022C163.358 144.02 166.265 140.812 166.882 136.86L172.507 100.802Z" fill="white"/>
</mask>
<g mask="url(#mask19_98_942)">
<path d="M46.307 110.01L122.539 124.502L170.995 114.539C170.995 114.539 174.014 110.916 174.316 108.802C174.618 106.689 172.505 103.066 172.505 103.066L122.539 113.633L44.1937 99.1414C44.1937 99.1414 42.6842 101.255 42.6842 104.274C42.6842 107.293 46.307 110.01 46.307 110.01Z" fill="#493007"/>
</g>
<mask id="mask20_98_942" style="mask-type:luminance" maskUnits="userSpaceOnUse" x="122" y="100" width="51" height="54">
<path d="M172.507 100.802L122.542 111.369L122.673 148.845C122.683 151.733 125.412 153.838 128.208 153.115L159.486 145.022C163.358 144.02 166.265 140.812 166.882 136.86L172.507 100.802Z" fill="white"/>
</mask>
<g mask="url(#mask20_98_942)">
<path opacity="0.37" d="M121.487 123.419C113.479 136.585 126.818 139.221 155.595 115.337C163.005 109.187 162.829 100.64 154.111 102.877C145.393 105.113 131.545 120.506 131.545 120.506C131.845 123.957 139.114 118.848 142.936 114.999" stroke="#DD782F" stroke-width="1.3377" stroke-miterlimit="10"/>
</g>
<mask id="mask21_98_942" style="mask-type:luminance" maskUnits="userSpaceOnUse" x="122" y="100" width="51" height="54">
<path d="M172.507 100.802L122.542 111.369L122.673 148.845C122.683 151.733 125.412 153.838 128.208 153.115L159.486 145.022C163.358 144.02 166.265 140.812 166.882 136.86L172.507 100.802Z" fill="white"/>
</mask>
<g mask="url(#mask21_98_942)">
<path opacity="0.37" d="M181.515 66.7552C181.515 66.7552 155.169 96.2652 143.148 103.123C131.126 109.98 139.738 96.0488 116.447 113.937C102.946 124.307 98.994 143.442 110.4 151.932C115.015 155.367 120.95 141.712 120.95 141.712C120.95 141.712 134.955 141.864 151.021 130.295C167.087 118.726 176.982 99.3504 163.594 99.5288" stroke="#DD782F" stroke-width="1.3377" stroke-miterlimit="10"/>
</g>
<mask id="mask22_98_942" style="mask-type:luminance" maskUnits="userSpaceOnUse" x="122" y="100" width="51" height="54">
<path d="M172.507 100.802L122.542 111.369L122.673 148.845C122.683 151.733 125.412 153.838 128.208 153.115L159.486 145.022C163.358 144.02 166.265 140.812 166.882 136.86L172.507 100.802Z" fill="white"/>
</mask>
<g mask="url(#mask22_98_942)">
<path opacity="0.34" d="M133.315 119.732C135.848 117.331 150.412 101.97 154.166 105.927C156.106 107.973 153.412 111.44 152.088 113.068C147.951 118.156 129.913 132.792 122.655 129.575C113.59 125.557 134.312 109.299 137.235 107.225C144.461 102.096 156.104 93.0508 165.583 94.6872C170.065 95.4609 173.806 97.3584 172.507 101.851C169.995 110.537 156.239 123.259 149.259 128.078C141.968 133.111 129.386 139.421 119.954 137.976C107.326 136.041 118.832 116.252 122.776 111.016C129.607 101.949 141.776 95.9504 151.273 90.1281C157.752 85.2979 176.677 84.9089 182.09 92.5733C184.389 95.8283 180.552 100.21 179.153 103.644C174.552 114.938 167.217 126.513 158.761 135.343C151.273 143.162 141.021 146.256 130.725 148.84C123.313 150.7 109.862 154.624 104.64 146.908C99.751 139.685 101.67 130.156 105.062 122.824C109.462 113.312 116.387 100.879 125.235 94.8805C127.756 93.1715 148.422 82.2093 148.693 82.771C149.004 83.4158 134.672 92.067 132.488 93.4841C126.965 97.0674 123.029 100.508 119.542 106.097C114.563 114.078 99.5332 135.254 109.675 144.433C113.43 147.831 124.905 144.009 129.176 142.87C135.913 141.075 143.695 139.133 149.574 135.212C157.027 130.241 161.346 124.696 166.026 117.281C169.218 112.223 177.537 100.605 178.183 97.7628C178.83 94.9209 167.321 86.6986 152.011 94.4569C138.711 101.197 125.127 107.996 118.654 122.126C116.709 126.373 113.296 134.967 120.104 136.221C125.892 137.286 137.266 131.276 141.697 128.387C153.166 120.909 169.16 105.88 167.087 100.845C165.015 95.8105 153.413 99.139 149.071 101.697C142.315 105.678 125.565 121.937 127.721 124.356C129.877 126.776 138.116 121.602 141.654 119.128C142.598 118.468 149.182 111.664 148.238 110.043C147.294 108.42 133.31 119.737 133.315 119.732Z" fill="#FCDB75"/>
</g>
<mask id="mask23_98_942" style="mask-type:luminance" maskUnits="userSpaceOnUse" x="122" y="100" width="51" height="54">
<path d="M172.507 100.802L122.542 111.369L122.673 148.845C122.683 151.733 125.412 153.838 128.208 153.115L159.486 145.022C163.358 144.02 166.265 140.812 166.882 136.86L172.507 100.802Z" fill="white"/>
</mask>
<g mask="url(#mask23_98_942)">
<path opacity="0.37" d="M125.935 118.315C125.935 118.315 108.148 131.732 105.768 136.535" stroke="#DD782F" stroke-width="1.3377" stroke-miterlimit="10"/>
</g>
</g>
<mask id="mask24_98_942" style="mask-type:luminance" maskUnits="userSpaceOnUse" x="44" y="96" width="129" height="59">
<path d="M122.535 111.368L172.501 100.801L166.459 139.524C166.095 141.859 164.378 143.754 162.09 144.346L126.481 153.56C123.99 154.204 121.378 154.224 118.878 153.617L55.3661 138.212C53.1584 137.677 51.4701 135.896 51.0537 133.663L44.1908 96.8771L122.535 111.368Z" fill="white"/>
</mask>
<g mask="url(#mask24_98_942)">
<path d="M117.815 118.193L117.715 144.529C117.709 146.336 116.008 147.658 114.255 147.22L60.2448 133.718C58.0127 133.159 56.3268 131.326 55.958 129.055L52.2635 106.305L42.527 105.626L43.659 148.648L124.495 158.158L123.816 115.929L117.815 118.193Z" fill="url(#paint37_linear_98_942)"/>
</g>
<mask id="mask25_98_942" style="mask-type:luminance" maskUnits="userSpaceOnUse" x="44" y="96" width="129" height="59">
<path d="M122.535 111.368L172.501 100.801L166.459 139.524C166.095 141.859 164.378 143.754 162.09 144.346L126.481 153.56C123.99 154.204 121.378 154.224 118.878 153.617L55.3661 138.212C53.1584 137.677 51.4701 135.896 51.0537 133.663L44.1908 96.8771L122.535 111.368Z" fill="white"/>
</mask>
<g mask="url(#mask25_98_942)">
<path d="M121.136 155.063L120.934 118.267L127.023 118.042V144.35C127.023 145.998 128.57 147.21 130.171 146.815L158.867 139.738C159.875 139.489 160.63 138.652 160.774 137.624L164.385 111.815L171.064 111.589L168.159 146.003L121.136 155.063Z" fill="url(#paint38_linear_98_942)"/>
</g>
<mask id="mask26_98_942" style="mask-type:luminance" maskUnits="userSpaceOnUse" x="44" y="96" width="129" height="59">
<path d="M122.535 111.368L172.501 100.801L166.459 139.524C166.095 141.859 164.378 143.754 162.09 144.346L126.481 153.56C123.99 154.204 121.378 154.224 118.878 153.617L55.3661 138.212C53.1584 137.677 51.4701 135.896 51.0537 133.663L44.1908 96.8771L122.535 111.368Z" fill="white"/>
</mask>
<g mask="url(#mask26_98_942)">
<path d="M116.456 119.249L116.357 145.585C116.35 147.393 114.65 148.715 112.896 148.277L58.886 134.774C56.6538 134.216 54.9679 132.382 54.5991 130.111L50.9046 107.361L41.1681 106.682L42.3001 149.704L123.136 159.214L122.457 116.985L116.456 119.249Z" fill="url(#paint39_linear_98_942)"/>
</g>
<mask id="mask27_98_942" style="mask-type:luminance" maskUnits="userSpaceOnUse" x="44" y="96" width="129" height="59">
<path d="M122.535 111.368L172.501 100.801L166.459 139.524C166.095 141.859 164.378 143.754 162.09 144.346L126.481 153.56C123.99 154.204 121.378 154.224 118.878 153.617L55.3661 138.212C53.1584 137.677 51.4701 135.896 51.0537 133.663L44.1908 96.8771L122.535 111.368Z" fill="white"/>
</mask>
<g mask="url(#mask27_98_942)">
<path d="M122.796 155.818L122.594 119.022L128.683 118.797V145.104C128.683 146.753 130.23 147.965 131.831 147.57L160.527 140.493C161.535 140.244 162.29 139.407 162.434 138.379L166.045 112.57L172.725 112.343L169.819 146.758L122.796 155.818Z" fill="url(#paint40_linear_98_942)"/>
</g>
<mask id="mask28_98_942" style="mask-type:luminance" maskUnits="userSpaceOnUse" x="44" y="96" width="129" height="59">
<path d="M122.535 111.368L172.501 100.801L166.459 139.524C166.095 141.859 164.378 143.754 162.09 144.346L126.481 153.56C123.99 154.204 121.378 154.224 118.878 153.617L55.3661 138.212C53.1584 137.677 51.4701 135.896 51.0537 133.663L44.1908 96.8771L122.535 111.368Z" fill="white"/>
</mask>
<g mask="url(#mask28_98_942)">
<mask id="mask29_98_942" style="mask-type:luminance" maskUnits="userSpaceOnUse" x="41" y="106" width="83" height="54">
<path d="M116.459 119.25L116.359 145.586C116.352 147.393 114.652 148.715 112.899 148.277L58.8884 134.775C56.6562 134.216 54.9703 132.383 54.6015 130.112L50.9071 107.362L41.1706 106.683L42.3025 149.705L123.139 159.215L122.459 116.986L116.459 119.25Z" fill="white"/>
</mask>
<g mask="url(#mask29_98_942)">
<path d="M46.3041 109.784L122.536 124.275L170.992 114.312C170.992 114.312 174.011 110.689 174.313 108.576C174.615 106.463 172.502 102.84 172.502 102.84L122.536 113.407L44.1907 98.915C44.1907 98.915 42.6813 101.028 42.6813 104.047C42.6813 107.067 46.3041 109.784 46.3041 109.784Z" fill="url(#paint41_linear_98_942)"/>
</g>
</g>
<mask id="mask30_98_942" style="mask-type:luminance" maskUnits="userSpaceOnUse" x="44" y="96" width="129" height="59">
<path d="M122.535 111.368L172.501 100.801L166.459 139.524C166.095 141.859 164.378 143.754 162.09 144.346L126.481 153.56C123.99 154.204 121.378 154.224 118.878 153.617L55.3661 138.212C53.1584 137.677 51.4701 135.896 51.0537 133.663L44.1908 96.8771L122.535 111.368Z" fill="white"/>
</mask>
<g mask="url(#mask30_98_942)">
<mask id="mask31_98_942" style="mask-type:luminance" maskUnits="userSpaceOnUse" x="122" y="112" width="51" height="44">
<path d="M122.798 155.818L122.596 119.022L128.685 118.797V145.105C128.685 146.753 130.232 147.965 131.833 147.57L160.529 140.493C161.537 140.244 162.292 139.407 162.436 138.379L166.047 112.57L172.727 112.344L169.821 146.758L122.798 155.818Z" fill="white"/>
</mask>
<g mask="url(#mask31_98_942)">
<path d="M46.3007 109.784L122.533 124.275L170.989 114.312C170.989 114.312 174.008 110.689 174.31 108.576C174.612 106.462 172.498 102.839 172.498 102.839L122.533 113.406L44.1873 98.9147C44.1873 98.9147 42.6779 101.028 42.6779 104.047C42.6779 107.066 46.3007 109.784 46.3007 109.784Z" fill="#2C2B54"/>
</g>
</g>
<mask id="mask32_98_942" style="mask-type:luminance" maskUnits="userSpaceOnUse" x="44" y="96" width="79" height="59">
<path d="M122.529 111.369L44.1839 96.8771L50.7991 132.334C51.3665 135.376 53.666 137.802 56.6733 138.532L122.68 154.542L122.529 111.369Z" fill="white"/>
</mask>
<g mask="url(#mask32_98_942)">
<path d="M51.3535 108.721L51.6555 110.683L116.34 122.986L116.679 121.174L130.265 120.721L130.359 122.892L170.986 114.539C170.986 114.539 174.005 110.916 174.307 108.803C174.609 106.689 172.495 103.067 172.495 103.067L122.53 113.634L44.1844 99.1418C44.1844 99.1418 42.675 101.255 42.675 104.274C42.675 107.293 51.3535 108.721 51.3535 108.721Z" fill="#D66929"/>
</g>
<path d="M46.2982 107.746L122.53 122.237L170.987 112.274C170.987 112.274 174.005 108.651 174.307 106.538C174.609 104.424 172.496 100.802 172.496 100.802L122.53 111.369L44.1849 96.8768C44.1849 96.8768 42.6754 98.9902 42.6754 102.009C42.6754 105.028 46.2982 107.746 46.2982 107.746Z" fill="#BC833F"/>
<path d="M46.2978 107.746L122.53 122.237L170.986 112.274C170.986 112.274 174.005 108.651 174.307 106.538C174.609 104.425 172.495 100.802 172.495 100.802L122.53 111.369L44.1844 96.877C44.1844 96.877 42.675 98.9903 42.675 102.009C42.675 105.029 46.2978 107.746 46.2978 107.746Z" fill="url(#paint42_linear_98_942)"/>
<mask id="mask33_98_942" style="mask-type:luminance" maskUnits="userSpaceOnUse" x="42" y="96" width="133" height="27">
<path d="M46.2968 107.746L122.529 122.237L170.985 112.274C170.985 112.274 174.004 108.652 174.306 106.538C174.608 104.425 172.495 100.802 172.495 100.802L122.529 111.369L44.1834 96.8772C44.1834 96.8772 42.674 98.9906 42.674 102.009C42.674 105.029 46.2968 107.746 46.2968 107.746Z" fill="white"/>
</mask>
<g mask="url(#mask33_98_942)">
<path d="M122.683 122.841L122.381 110.765L178.234 95.6697L178.838 117.105L122.683 122.841Z" fill="url(#paint43_linear_98_942)"/>
</g>
<mask id="mask34_98_942" style="mask-type:luminance" maskUnits="userSpaceOnUse" x="42" y="96" width="133" height="27">
<path d="M46.2968 107.746L122.529 122.237L170.985 112.274C170.985 112.274 174.004 108.652 174.306 106.538C174.608 104.425 172.495 100.802 172.495 100.802L122.529 111.369L44.1834 96.8772C44.1834 96.8772 42.674 98.9906 42.674 102.009C42.674 105.029 46.2968 107.746 46.2968 107.746Z" fill="white"/>
</mask>
<g mask="url(#mask34_98_942)">
<path d="M174.308 106.538L122.908 117.105L40.2608 101.708L41.6197 93.1035L174.308 100.198V106.538Z" fill="url(#paint44_linear_98_942)"/>
</g>
<path d="M120.968 111.906L143.296 106.448L150.283 62.4154L137.667 60.0202L133.808 61.6282L87.816 53.266L85.1578 50.8511L76.2258 49.2653C58.4132 52.2841 45.5483 73.4425 45.5483 97.5793L120.968 111.906Z" fill="url(#paint45_linear_98_942)"/>
<path d="M121.425 110.033L143.296 106.448L150.283 62.4154L137.667 60.0202L133.808 61.6282L87.816 53.266L85.1577 50.8511L76.2258 49.2653C58.4132 52.2841 46.006 71.569 46.006 95.7059L121.425 110.033Z" fill="#F5AA4D"/>
<mask id="mask35_98_942" style="mask-type:luminance" maskUnits="userSpaceOnUse" x="46" y="49" width="105" height="62">
<path d="M121.426 110.033L143.296 106.449L150.284 62.4156L137.668 60.0204L133.808 61.6284L87.8164 53.2663L85.1582 50.8514L76.2262 49.2655C58.4137 52.2843 46.0065 71.5693 46.0065 95.7061L121.426 110.033Z" fill="white"/>
</mask>
<g mask="url(#mask35_98_942)">
<path opacity="0.42" d="M98.0858 107.557C98.0858 107.557 103.663 107.315 110.392 107.345C116.363 107.372 121.133 107.774 113.506 109.815C106.396 111.718 76.6928 108.273 102.447 105.003C111.978 103.793 139.409 106.1 122.229 110.086C105.029 114.078 69.1769 113.063 89.1471 104.648C109.117 96.232 141.85 102.532 138.243 109.207C134.635 115.881 64.7972 123.061 74.9877 107.875C85.1781 92.688 147.935 100.551 147.935 100.551C159.968 106.422 155.936 114.755 136.381 117.848C116.826 120.94 100.506 123.628 100.506 123.628C100.506 123.628 64.6717 128.45 64.5861 114.232C64.5005 100.013 77.0779 97.926 93.8028 94.749C122.654 89.2686 114.239 95.2568 128.062 94.5494C141.884 93.8421 152.164 98.0366 152.164 98.0366" stroke="#D66929" stroke-width="1.3377" stroke-miterlimit="10" stroke-linecap="round" stroke-linejoin="round"/>
</g>
<mask id="mask36_98_942" style="mask-type:luminance" maskUnits="userSpaceOnUse" x="46" y="49" width="105" height="62">
<path d="M121.426 110.033L143.296 106.449L150.284 62.4156L137.668 60.0204L133.808 61.6284L87.8164 53.2663L85.1582 50.8514L76.2262 49.2655C58.4137 52.2843 46.0065 71.5693 46.0065 95.7061L121.426 110.033Z" fill="white"/>
</mask>
<g mask="url(#mask36_98_942)">
<path opacity="0.42" d="M73.6653 75.673C60.5859 83.8207 71.3067 92.1829 107.757 83.8207C117.143 81.6674 120.837 73.9577 112.046 72.0281C103.255 70.0984 83.9572 77.6027 83.9572 77.6027C82.6709 80.8187 91.4615 79.5324 96.6077 77.8171" stroke="#D66929" stroke-width="1.3377" stroke-miterlimit="10" stroke-linecap="round" stroke-linejoin="round"/>
</g>
<mask id="mask37_98_942" style="mask-type:luminance" maskUnits="userSpaceOnUse" x="46" y="49" width="105" height="62">
<path d="M121.426 110.033L143.296 106.449L150.284 62.4156L137.668 60.0204L133.808 61.6284L87.8164 53.2663L85.1582 50.8514L76.2262 49.2655C58.4137 52.2843 46.0065 71.5693 46.0065 95.7061L121.426 110.033Z" fill="white"/>
</mask>
<g mask="url(#mask37_98_942)">
<path opacity="0.42" d="M137.412 66.5227C137.412 66.5227 127.131 62.3282 113.309 63.0355C99.4874 63.7429 113.451 55.1835 84.6 60.6639C67.8751 63.841 55.7276 79.1444 62.0865 91.8612C64.6596 97.0074 84.9217 91.8612 84.9217 91.8612C84.9217 91.8612 102.074 89.4257 121.629 86.3332C141.184 83.2408 145.216 74.9075 133.183 69.0362" stroke="#D66929" stroke-width="1.3377" stroke-miterlimit="10" stroke-linecap="round" stroke-linejoin="round"/>
</g>
<mask id="mask38_98_942" style="mask-type:luminance" maskUnits="userSpaceOnUse" x="46" y="49" width="105" height="62">
<path d="M121.426 110.033L143.296 106.449L150.284 62.4156L137.668 60.0204L133.808 61.6284L87.8164 53.2663L85.1582 50.8514L76.2262 49.2655C58.4137 52.2843 46.0065 71.5693 46.0065 95.7061L121.426 110.033Z" fill="white"/>
</mask>
<g mask="url(#mask38_98_942)">
<path d="M85.8864 77.7096C89.2299 76.7065 109.152 69.5522 110.721 74.7763C111.531 77.4768 107.565 79.3589 105.649 80.2158C99.6636 82.8942 76.9665 87.8365 71.9357 81.695C65.6523 74.0243 91.4764 68.8434 95.0199 68.3078C103.782 66.9835 118.251 64.1526 125.977 69.8831C129.63 72.5932 132.115 75.9717 128.932 79.3979C122.777 86.0222 104.764 91.1843 96.3625 92.3422C87.5858 93.552 73.5105 93.5179 65.7407 87.9793C55.3378 80.5635 74.5242 68.0784 80.4036 65.1802C90.5864 60.162 104.153 60.2875 115.255 59.3671C123.215 57.9726 140.286 66.1497 141.667 75.4308C142.253 79.3724 136.854 81.5569 134.059 83.992C124.864 92.0027 113.101 99.0329 101.575 103.107C91.3663 106.716 80.8201 104.86 70.4638 102.529C63.008 100.852 49.2318 98.2957 48.045 89.055C46.9338 80.4038 52.9397 72.761 59.2698 67.7428C67.4829 61.2324 79.2664 53.251 89.8675 51.8806C92.8882 51.4901 116.277 51.0122 116.266 51.6358C116.253 52.3518 99.5607 53.6199 96.9727 53.9012C90.4282 54.6128 85.3637 55.9107 79.7328 59.3306C71.6928 64.2137 48.7356 76.3492 53.6557 89.1122C55.4772 93.8381 67.4449 95.5938 71.7707 96.5016C78.5937 97.9332 86.4159 99.7042 93.4311 98.8516C102.325 97.7706 108.679 94.7657 116.197 90.2533C121.325 87.1753 133.985 80.5491 135.843 78.303C137.7 76.0569 131.128 63.5319 113.965 63.5622C99.0548 63.5886 83.8634 63.5405 71.7207 73.24C68.071 76.1554 61.1524 82.2917 66.6664 86.4776C71.3534 90.0355 84.2154 89.7931 89.4732 89.2094C103.082 87.6985 124.13 81.4848 124.548 76.0564C124.966 70.6279 113.108 68.3736 108.078 68.7021C100.254 69.2128 77.9753 76.1838 78.8106 79.3157C79.6458 82.4475 89.3318 81.5387 93.6052 80.9236C94.7449 80.7597 103.688 77.6509 103.575 75.7775C103.463 73.904 85.8797 77.7115 85.8864 77.7096Z" fill="#FCDB75"/>
</g>
<mask id="mask39_98_942" style="mask-type:luminance" maskUnits="userSpaceOnUse" x="46" y="49" width="105" height="62">
<path d="M121.426 110.033L143.296 106.449L150.284 62.4156L137.668 60.0204L133.808 61.6284L87.8164 53.2663L85.1582 50.8514L76.2262 49.2655C58.4137 52.2843 46.0065 71.5693 46.0065 95.7061L121.426 110.033Z" fill="white"/>
</mask>
<g mask="url(#mask39_98_942)">
<path opacity="0.42" d="M106.468 54.4456C106.468 54.4456 84.5443 58.4122 80.256 61.6287" stroke="#D66929" stroke-width="1.3377" stroke-miterlimit="10" stroke-linecap="round" stroke-linejoin="round"/>
</g>
<path d="M80.4187 46.3512L85.2431 50.05L89.1025 53.5877C89.1025 53.5877 77.8788 51.054 67.7148 67.7389C59.192 81.7296 59.996 98.6146 59.996 98.6146L58.2269 99.9009L48.364 100.115L44.558 97.1672C44.558 97.1672 43.754 80.2817 53.4024 65.1659C64.6329 47.5716 80.4187 46.3512 80.4187 46.3512Z" fill="#625AD1"/>
<path d="M89.1025 53.5878C89.1025 53.5878 77.8788 51.0541 67.7148 67.7391C59.192 81.7297 59.996 98.6147 59.996 98.6147L58.2269 99.901L48.364 100.115L44.558 97.1673C44.558 97.1673 43.754 80.2818 53.4024 65.166C64.6329 47.5713 80.4187 46.3508 80.4187 46.3508L85.2431 50.0496" fill="url(#paint46_linear_98_942)"/>
<mask id="mask40_98_942" style="mask-type:luminance" maskUnits="userSpaceOnUse" x="44" y="46" width="46" height="55">
<path d="M89.105 53.5878C89.105 53.5878 77.8812 51.0541 67.7172 67.7391C59.1945 81.7297 59.9984 98.6147 59.9984 98.6147L58.2294 99.901L48.3664 100.115L44.5604 97.1673C44.5604 97.1673 43.7564 80.2818 53.4049 65.166C64.6354 47.5713 80.4211 46.3508 80.4211 46.3508L85.2456 50.0496" fill="white"/>
</mask>
<g mask="url(#mask40_98_942)">
<path d="M85.5652 45.0647L90.7114 54.8743L94.5708 58.412C94.5708 58.412 83.347 55.8783 73.1831 72.5632C64.6603 86.5539 65.4643 103.439 65.4643 103.439L63.6952 104.725L55.4936 106.011L48.3644 100.919C48.3644 100.919 48.7298 82.5464 57.2627 66.7737C67.3209 48.1812 86.1201 44.8964 85.5652 45.0647Z" fill="url(#paint47_linear_98_942)"/>
</g>
<mask id="mask41_98_942" style="mask-type:luminance" maskUnits="userSpaceOnUse" x="44" y="46" width="46" height="55">
<path d="M89.105 53.5878C89.105 53.5878 77.8812 51.0541 67.7172 67.7391C59.1945 81.7297 59.9984 98.6147 59.9984 98.6147L58.2294 99.901L48.3664 100.115L44.5604 97.1673C44.5604 97.1673 43.7564 80.2818 53.4049 65.166C64.6354 47.5713 80.4211 46.3508 80.4211 46.3508L85.2456 50.0496" fill="white"/>
</mask>
<g mask="url(#mask41_98_942)">
<path d="M91.1946 50.8541L98.4311 52.9449L102.291 56.4826C102.291 56.4826 91.0667 53.9489 80.9028 70.6339C72.38 84.6245 73.184 101.509 73.184 101.509L71.4149 102.796L63.2133 104.082L57.7459 100.062C57.7459 100.062 55.6552 82.2116 65.3041 67.0952C76.5342 49.5014 91.1946 50.8541 91.1946 50.8541Z" fill="url(#paint48_linear_98_942)"/>
</g>
<path d="M106.897 109.336L112.257 112.552L121.398 111.582C121.398 111.582 121.763 93.5535 128.016 80.4429C137.986 59.5374 154.496 63.6646 154.496 63.6646L144.419 57.0177L136.7 58.7329C136.7 58.7329 118.368 64.2003 112.257 83.1761C106.146 102.153 106.897 109.336 106.897 109.336Z" fill="url(#paint49_linear_98_942)"/>
<mask id="mask42_98_942" style="mask-type:luminance" maskUnits="userSpaceOnUse" x="106" y="57" width="49" height="56">
<path d="M106.897 109.336L112.257 112.552L121.399 111.583C121.399 111.583 121.764 93.5539 128.017 80.4432C137.987 59.5378 154.497 63.665 154.497 63.665L144.419 57.0181L136.7 58.7333C136.7 58.7333 118.368 64.2007 112.257 83.1764C106.146 102.153 106.897 109.336 106.897 109.336Z" fill="white"/>
</mask>
<g mask="url(#mask42_98_942)">
<path d="M112.686 114.268L116.33 117.055L125.472 116.086C125.472 116.086 125.837 98.0571 132.09 84.9464C142.06 64.0409 158.57 68.1682 158.57 68.1682L147.421 55.5177C148.703 55.0825 123.91 63.8866 117.617 83.6062C111.556 102.598 112.686 114.268 112.686 114.268Z" fill="url(#paint50_linear_98_942)"/>
</g>
<path d="M169.534 101.085C169.534 76.9482 158.759 59.7319 145.466 62.6305C132.173 65.5292 121.397 87.4463 121.397 111.583L169.534 101.085Z" fill="url(#paint51_linear_98_942)"/>
<path d="M160.595 97.3888C161.728 97.1417 162.533 96.1232 162.492 94.9648C161.922 78.9185 154.518 67.7384 145.468 69.7119C136.628 71.6397 129.358 85.4346 128.495 101.262C128.408 102.853 129.863 104.091 131.419 103.751L160.595 97.3888Z" fill="#D66929"/>
<mask id="mask43_98_942" style="mask-type:luminance" maskUnits="userSpaceOnUse" x="128" y="69" width="35" height="35">
<path d="M160.597 97.3886C161.73 97.1414 162.535 96.123 162.494 94.9646C161.924 78.9182 154.52 67.7382 145.47 69.7117C136.63 71.6394 129.36 85.4344 128.497 101.261C128.41 102.853 129.865 104.09 131.421 103.751L160.597 97.3886Z" fill="white"/>
</mask>
<g mask="url(#mask43_98_942)">
<path opacity="0.37" d="M137.719 84.1804C129.711 97.3464 143.049 99.9829 171.827 76.0986C179.237 69.9483 179.061 61.4015 170.343 63.638C161.625 65.875 147.777 81.2673 147.777 81.2673C148.077 84.7185 155.346 79.6098 159.168 75.7605" stroke="#DD782F" stroke-width="1.3377" stroke-miterlimit="10"/>
</g>
<mask id="mask44_98_942" style="mask-type:luminance" maskUnits="userSpaceOnUse" x="128" y="69" width="35" height="35">
<path d="M160.597 97.3886C161.73 97.1414 162.535 96.123 162.494 94.9646C161.924 78.9182 154.52 67.7382 145.47 69.7117C136.63 71.6394 129.36 85.4344 128.497 101.261C128.41 102.853 129.865 104.09 131.421 103.751L160.597 97.3886Z" fill="white"/>
</mask>
<g mask="url(#mask44_98_942)">
<path opacity="0.37" d="M190.515 47.2968C190.515 47.2968 179.447 48.1825 167.425 55.0401C155.403 61.8976 164.015 47.9661 140.725 65.8546C127.223 76.2244 121.118 92.6982 132.523 101.188C137.138 104.623 173.369 89.7703 173.369 89.7703C173.369 89.7703 169.281 83.6628 185.347 72.0933C201.413 60.5238 201.259 51.2677 187.871 51.4461" stroke="#DD782F" stroke-width="1.3377" stroke-miterlimit="10"/>
</g>
<mask id="mask45_98_942" style="mask-type:luminance" maskUnits="userSpaceOnUse" x="128" y="69" width="35" height="35">
<path d="M160.597 97.3886C161.73 97.1414 162.535 96.123 162.494 94.9646C161.924 78.9182 154.52 67.7382 145.47 69.7117C136.63 71.6394 129.36 85.4344 128.497 101.261C128.41 102.853 129.865 104.09 131.421 103.751L160.597 97.3886Z" fill="white"/>
</mask>
<g mask="url(#mask45_98_942)">
<path opacity="0.34" d="M149.551 80.494C152.084 78.0925 166.648 62.7314 170.402 66.6889C172.342 68.735 169.649 72.202 168.325 73.8297C164.187 78.9172 146.149 93.5532 138.891 90.3362C129.826 86.3182 150.549 70.0607 153.471 67.9863C160.697 62.8574 172.34 53.8124 181.819 55.4488C186.302 56.2225 190.042 58.12 188.743 62.6127C186.232 71.2989 172.475 84.0211 165.495 88.8398C158.204 93.873 145.622 100.183 136.191 98.7378C123.562 96.8029 135.068 77.0135 139.012 71.7779C145.843 62.7108 158.013 56.712 167.51 50.8897C173.988 46.0595 192.913 45.6705 198.326 53.3349C200.625 56.5899 196.788 60.972 195.39 64.4058C190.789 75.6993 183.453 87.2746 174.998 96.1042C167.509 103.924 157.257 107.018 146.962 109.601C139.549 111.462 126.098 115.386 120.876 107.67C115.987 100.447 117.906 90.9176 121.298 83.5859C125.698 74.074 132.624 61.6404 141.471 55.6421C143.992 53.9331 164.659 42.9709 164.929 43.5326C165.241 44.1774 150.908 52.8286 148.724 54.2457C143.202 57.829 139.265 61.2691 135.778 66.8587C130.8 74.8395 115.77 96.0152 125.911 105.194C129.666 108.593 141.141 104.77 145.413 103.632C152.149 101.837 159.931 99.8948 165.81 95.9738C173.264 91.0027 177.582 85.4579 182.262 78.043C185.454 72.9848 193.773 61.3663 194.42 58.5244C195.066 55.682 183.557 47.4602 168.247 55.2184C154.947 61.9582 141.363 68.7581 134.89 82.8872C132.945 87.1342 129.532 95.7291 136.341 96.9822C142.128 98.0473 153.502 92.038 157.933 89.1485C169.402 81.6701 185.396 66.6413 183.324 61.6067C181.252 56.5721 169.65 59.9006 165.307 62.4588C158.551 66.4393 141.801 82.6982 143.958 85.1179C146.114 87.5376 154.352 82.3636 157.891 79.8895C158.834 79.2298 165.418 72.4256 164.474 70.8041C163.531 69.1817 149.546 80.4983 149.551 80.494Z" fill="#FCDB75"/>
</g>
<mask id="mask46_98_942" style="mask-type:luminance" maskUnits="userSpaceOnUse" x="128" y="69" width="35" height="35">
<path d="M160.597 97.3886C161.73 97.1414 162.535 96.123 162.494 94.9646C161.924 78.9182 154.52 67.7382 145.47 69.7117C136.63 71.6394 129.36 85.4344 128.497 101.261C128.41 102.853 129.865 104.09 131.421 103.751L160.597 97.3886Z" fill="white"/>
</mask>
<g mask="url(#mask46_98_942)">
</g>
<path d="M129.395 102.991L159.654 96.392C160.543 96.1982 161.17 95.3976 161.145 94.4883C160.838 83.4684 157.319 74.6917 152.246 70.7861C158.042 74.0868 162.17 83.415 162.503 95.3937C162.529 96.303 161.901 97.1037 161.012 97.2975L130.754 103.896C129.92 104.078 129.118 103.683 128.718 103.015C128.937 103.047 129.165 103.041 129.395 102.991Z" fill="url(#paint52_linear_98_942)"/>
<path d="M49.4378 87.8551L44.7344 82.5238C43.6083 81.2471 44.3911 79.2318 46.0837 79.05L52.8048 78.3282C52.8048 78.3282 57.144 84.3866 49.4378 87.8551Z" fill="url(#paint53_linear_98_942)"/>
<mask id="mask47_98_942" style="mask-type:luminance" maskUnits="userSpaceOnUse" x="44" y="78" width="11" height="10">
<path d="M49.4334 87.8548L44.7301 82.5235C43.6039 81.2468 44.3867 79.2315 46.0793 79.0498L52.8004 78.328C52.7999 78.3285 57.1396 84.3864 49.4334 87.8548Z" fill="white"/>
</mask>
<g mask="url(#mask47_98_942)">
<path d="M33.9901 78.674L55.2173 84.0346V81.676L33.9901 78.674Z" fill="white"/>
</g>
<mask id="mask48_98_942" style="mask-type:luminance" maskUnits="userSpaceOnUse" x="44" y="78" width="11" height="10">
<path d="M49.4334 87.8548L44.7301 82.5235C43.6039 81.2468 44.3867 79.2315 46.0793 79.0498L52.8004 78.328C52.7999 78.3285 57.1396 84.3864 49.4334 87.8548Z" fill="white"/>
</mask>
<g mask="url(#mask48_98_942)">
<path d="M45.4608 82.3457C44.7504 82.3457 44.1745 81.6617 44.1745 80.818C44.1745 79.9743 44.7504 79.2903 45.4608 79.2903C46.1712 79.2903 46.7471 79.9743 46.7471 80.818C46.7471 81.6617 46.1712 82.3457 45.4608 82.3457Z" fill="url(#paint54_linear_98_942)"/>
</g>
<path d="M55.9329 69.5965L52.7583 63.2352C51.9981 61.7123 53.2728 59.9658 54.9554 60.225L61.636 61.2555C61.636 61.2555 64.272 68.2255 55.9329 69.5965Z" fill="url(#paint55_linear_98_942)"/>
<mask id="mask49_98_942" style="mask-type:luminance" maskUnits="userSpaceOnUse" x="52" y="60" width="11" height="10">
<path d="M55.9329 69.5966L52.7583 63.2353C51.9981 61.7124 53.2728 59.9659 54.9554 60.2251L61.636 61.2556C61.6355 61.2556 64.272 68.2257 55.9329 69.5966Z" fill="white"/>
</mask>
<g mask="url(#mask49_98_942)">
<path d="M43.3676 56.7539L62.503 67.391L63.1094 65.1118L43.3676 56.7539Z" fill="white"/>
</g>
<mask id="mask50_98_942" style="mask-type:luminance" maskUnits="userSpaceOnUse" x="52" y="60" width="11" height="10">
<path d="M55.9329 69.5966L52.7583 63.2353C51.9981 61.7124 53.2728 59.9659 54.9554 60.2251L61.636 61.2556C61.6355 61.2556 64.272 68.2257 55.9329 69.5966Z" fill="white"/>
</mask>
<g mask="url(#mask50_98_942)">
<path d="M55.1457 62.1053C54.9288 62.9208 54.1964 63.4334 53.5098 63.2507C52.8231 63.0679 52.4423 62.2591 52.6591 61.4436C52.876 60.6281 53.6084 60.1155 54.295 60.2982C54.9817 60.4809 55.3625 61.2902 55.1457 62.1053Z" fill="url(#paint56_linear_98_942)"/>
</g>
<path d="M67.9739 53.5217L67.7772 46.4151C67.7301 44.7133 69.6223 43.6674 71.0384 44.6118L76.6616 48.3626C76.6616 48.3626 76.1139 55.7938 67.9739 53.5217Z" fill="url(#paint57_linear_98_942)"/>
<mask id="mask51_98_942" style="mask-type:luminance" maskUnits="userSpaceOnUse" x="67" y="44" width="10" height="10">
<path d="M67.972 53.5216L67.7753 46.4149C67.7281 44.7132 69.6203 43.6673 71.0365 44.6117L76.6597 48.3624C76.6597 48.362 76.112 55.7937 67.972 53.5216Z" fill="white"/>
</mask>
<g mask="url(#mask51_98_942)">
<path d="M61.9933 36.5785L74.8607 54.2915L76.3716 52.4801L61.9933 36.5785Z" fill="white"/>
</g>
<mask id="mask52_98_942" style="mask-type:luminance" maskUnits="userSpaceOnUse" x="67" y="44" width="10" height="10">
<path d="M67.972 53.5216L67.7753 46.4149C67.7281 44.7132 69.6203 43.6673 71.0365 44.6117L76.6597 48.3624C76.6597 48.362 76.112 55.7937 67.972 53.5216Z" fill="white"/>
</mask>
<g mask="url(#mask52_98_942)">
<path d="M70.4173 46.3968C69.8768 47.0445 68.9963 47.2008 68.4505 46.7459C67.9048 46.291 67.9009 45.3966 68.4409 44.7489C68.9814 44.1011 69.8619 43.9449 70.4077 44.3998C70.9534 44.8546 70.9578 45.749 70.4173 46.3968Z" fill="url(#paint58_linear_98_942)"/>
</g>
<path d="M113.442 101.685L108.738 96.3537C107.612 95.077 108.395 93.0617 110.088 92.88L116.809 92.1582C116.809 92.1582 121.148 98.2161 113.442 101.685Z" fill="url(#paint59_linear_98_942)"/>
<mask id="mask53_98_942" style="mask-type:luminance" maskUnits="userSpaceOnUse" x="108" y="92" width="11" height="10">
<path d="M113.443 101.685L108.74 96.3535C107.614 95.0768 108.396 93.0615 110.089 92.8797L116.81 92.158C116.81 92.158 121.149 98.2158 113.443 101.685Z" fill="white"/>
</mask>
<g mask="url(#mask53_98_942)">
<path d="M97.9965 92.5035L119.224 97.8637V95.5051L97.9965 92.5035Z" fill="white"/>
</g>
<mask id="mask54_98_942" style="mask-type:luminance" maskUnits="userSpaceOnUse" x="108" y="92" width="11" height="10">
<path d="M113.443 101.685L108.74 96.3535C107.614 95.0768 108.396 93.0615 110.089 92.8797L116.81 92.158C116.81 92.158 121.149 98.2158 113.443 101.685Z" fill="white"/>
</mask>
<g mask="url(#mask54_98_942)">
<path d="M109.467 96.1756C108.757 96.1756 108.181 95.4917 108.181 94.6479C108.181 93.8042 108.757 93.1202 109.467 93.1202C110.178 93.1202 110.753 93.8042 110.753 94.6479C110.753 95.4917 110.178 96.1756 109.467 96.1756Z" fill="url(#paint60_linear_98_942)"/>
</g>
<path d="M118.33 81.4966L115.156 75.1353C114.395 73.6124 115.67 71.8659 117.353 72.1251L124.033 73.1556C124.032 73.1556 126.669 80.1257 118.33 81.4966Z" fill="url(#paint61_linear_98_942)"/>
<mask id="mask55_98_942" style="mask-type:luminance" maskUnits="userSpaceOnUse" x="114" y="72" width="11" height="10">
<path d="M118.333 81.4967L115.158 75.1354C114.398 73.6126 115.673 71.8661 117.355 72.1252L124.036 73.1557C124.035 73.1557 126.671 80.1258 118.333 81.4967Z" fill="white"/>
</mask>
<g mask="url(#mask55_98_942)">
<path d="M105.767 68.6539L124.902 79.2911L125.509 77.0118L105.767 68.6539Z" fill="white"/>
</g>
<mask id="mask56_98_942" style="mask-type:luminance" maskUnits="userSpaceOnUse" x="114" y="72" width="11" height="10">
<path d="M118.333 81.4967L115.158 75.1354C114.398 73.6126 115.673 71.8661 117.355 72.1252L124.036 73.1557C124.035 73.1557 126.671 80.1258 118.333 81.4967Z" fill="white"/>
</mask>
<g mask="url(#mask56_98_942)">
<path d="M117.545 74.0059C117.328 74.8214 116.596 75.334 115.909 75.1513C115.223 74.9686 114.842 74.1598 115.059 73.3442C115.275 72.5287 116.008 72.0161 116.694 72.1988C117.381 72.3816 117.762 73.1904 117.545 74.0059Z" fill="url(#paint62_linear_98_942)"/>
</g>
<path d="M129.404 67.0295L129.207 59.9229C129.16 58.2211 131.052 57.1752 132.469 58.1196L138.092 61.8704C138.092 61.8704 137.544 69.3021 129.404 67.0295Z" fill="url(#paint63_linear_98_942)"/>
<mask id="mask57_98_942" style="mask-type:luminance" maskUnits="userSpaceOnUse" x="129" y="57" width="10" height="11">
<path d="M129.406 67.0294L129.209 59.9228C129.162 58.221 131.054 57.1751 132.47 58.1195L138.093 61.8702C138.093 61.8702 137.545 69.302 129.406 67.0294Z" fill="white"/>
</mask>
<g mask="url(#mask57_98_942)">
<path d="M123.424 50.0865L136.292 67.8L137.803 65.9886L123.424 50.0865Z" fill="white"/>
</g>
<mask id="mask58_98_942" style="mask-type:luminance" maskUnits="userSpaceOnUse" x="129" y="57" width="10" height="11">
<path d="M129.406 67.0294L129.209 59.9228C129.162 58.221 131.054 57.1751 132.47 58.1195L138.093 61.8702C138.093 61.8702 137.545 69.302 129.406 67.0294Z" fill="white"/>
</mask>
<g mask="url(#mask58_98_942)">
<path d="M131.851 59.9051C131.31 60.5528 130.43 60.7091 129.884 60.2542C129.338 59.7993 129.335 58.9049 129.875 58.2572C130.415 57.6094 131.295 57.4532 131.841 57.9081C132.387 58.3629 132.391 59.2569 131.851 59.9051Z" fill="url(#paint64_linear_98_942)"/>
</g>
<path d="M65.9449 97.8116L79.4532 92.8265L101.967 106.013C101.967 106.013 102.555 132.907 81.0612 128.205C60.4775 123.702 65.9449 97.8116 65.9449 97.8116Z" fill="url(#paint65_linear_98_942)"/>
<mask id="mask59_98_942" style="mask-type:luminance" maskUnits="userSpaceOnUse" x="65" y="92" width="37" height="37">
<path d="M65.942 97.8122L79.4503 92.8271L101.964 106.014C101.964 106.014 102.552 132.907 81.0583 128.206C60.4746 123.703 65.942 97.8122 65.942 97.8122Z" fill="white"/>
</mask>
<g mask="url(#mask59_98_942)">
<path d="M101.966 106.014L96.0156 108.265L67.552 92.5053L83.9547 84.4648L101.966 106.014Z" fill="url(#paint66_linear_98_942)"/>
</g>
<path d="M56.617 99.9017L75.2711 94.4343L97.7845 107.621C97.7845 107.621 98.3731 134.515 76.8791 129.813C56.2953 125.31 56.617 99.9017 56.617 99.9017Z" fill="url(#paint67_linear_98_942)"/>
<path d="M59.512 102.051L74.9587 97.5236L93.6012 108.443C93.6012 108.443 94.0888 130.713 76.2902 126.819C59.2456 123.09 59.512 102.051 59.512 102.051Z" stroke="url(#paint68_linear_98_942)" stroke-width="1.3377" stroke-miterlimit="10"/>
<path d="M71.3083 108.721C71.3083 105.979 73.2524 103.757 75.6505 103.757C78.0486 103.757 79.9927 105.979 79.9927 108.721C79.9927 110.79 78.8848 112.562 77.3109 113.308V119.833C77.3109 120.746 76.5637 121.494 75.6505 121.494C74.7373 121.494 73.9901 120.746 73.9901 119.833V113.308C72.4162 112.562 71.3083 110.79 71.3083 108.721Z" fill="url(#paint69_linear_98_942)"/>
<path d="M75.6505 103.757C78.0485 103.757 79.9927 105.979 79.9927 108.721C79.9927 110.79 78.8848 112.562 77.3109 113.308V119.833C77.3109 120.747 76.5636 121.494 75.6505 121.494C74.7373 121.494 73.9901 120.747 73.9901 119.833V113.308C72.4162 112.562 71.3083 110.79 71.3083 108.721C71.3083 105.979 73.2524 103.757 75.6505 103.757ZM75.6505 102.398C72.5071 102.398 69.9494 105.235 69.9494 108.721C69.9494 110.93 70.9784 112.946 72.6311 114.087V119.833C72.6311 121.498 73.9857 122.853 75.6505 122.853C77.3152 122.853 78.6698 121.498 78.6698 119.833V114.087C80.3225 112.945 81.3516 110.929 81.3516 108.721C81.3516 105.235 78.7939 102.398 75.6505 102.398Z" fill="url(#paint70_linear_98_942)"/>
<path d="M85.0965 118.184C84.2629 118.184 83.5871 117.508 83.5871 116.674C83.5871 115.841 84.2629 115.165 85.0965 115.165C85.9302 115.165 86.606 115.841 86.606 116.674C86.606 117.508 85.9302 118.184 85.0965 118.184Z" fill="url(#paint71_linear_98_942)"/>
<path d="M66.8309 114.259C65.9973 114.259 65.3215 113.583 65.3215 112.749C65.3215 111.916 65.9973 111.24 66.8309 111.24C67.6645 111.24 68.3403 111.916 68.3403 112.749C68.3403 113.583 67.6645 114.259 66.8309 114.259Z" fill="url(#paint72_linear_98_942)"/>
<path d="M84.4925 117.278C83.6589 117.278 82.9831 116.602 82.9831 115.768C82.9831 114.935 83.6589 114.259 84.4925 114.259C85.3262 114.259 86.002 114.935 86.002 115.768C86.002 116.602 85.3262 117.278 84.4925 117.278Z" fill="url(#paint73_linear_98_942)"/>
<path d="M66.6673 113.504C65.993 113.504 65.4464 112.88 65.4464 112.111C65.4464 111.341 65.993 110.717 66.6673 110.717C67.3416 110.717 67.8882 111.341 67.8882 112.111C67.8882 112.88 67.3416 113.504 66.6673 113.504Z" fill="url(#paint74_linear_98_942)"/>
<path d="M180.902 150.199C180.902 152.053 174.667 153.555 166.977 153.555C159.286 153.555 153.051 152.053 153.051 150.199V144.495H180.902V150.199Z" fill="url(#paint75_linear_98_942)"/>
<mask id="mask60_98_942" style="mask-type:luminance" maskUnits="userSpaceOnUse" x="168" y="144" width="29" height="10">
<path d="M168.869 147.519C168.869 145.666 175.104 144.164 182.795 144.164C190.486 144.164 196.721 145.666 196.721 147.519V153.224H168.869V147.519Z" fill="white"/>
</mask>
<g mask="url(#mask60_98_942)">
<path d="M176.329 153.892H173.439V143.826H176.329V153.892Z" fill="white"/>
</g>
<path d="M166.977 147.85C159.286 147.85 153.051 146.348 153.051 144.495C153.051 142.642 159.286 141.139 166.977 141.139C174.668 141.139 180.902 142.642 180.902 144.495C180.902 146.348 174.668 147.85 166.977 147.85Z" fill="#E48F34"/>
<path d="M157.107 144.607C158.125 143.71 162.131 143.041 166.921 143.041C171.711 143.041 175.717 143.71 176.735 144.607C176.898 144.463 176.987 144.313 176.987 144.16C176.987 143.048 172.48 142.146 166.92 142.146C161.361 142.146 156.854 143.048 156.854 144.16C156.855 144.313 156.944 144.463 157.107 144.607Z" fill="url(#paint76_linear_98_942)"/>
<path d="M180.902 141.922C180.902 143.776 174.667 145.278 166.977 145.278C159.286 145.278 153.051 143.776 153.051 141.922V136.218H180.902V141.922Z" fill="url(#paint77_linear_98_942)"/>
<mask id="mask61_98_942" style="mask-type:luminance" maskUnits="userSpaceOnUse" x="168" y="135" width="29" height="10">
<path d="M168.869 139.242C168.869 137.389 175.104 135.886 182.795 135.886C190.486 135.886 196.721 137.389 196.721 139.242V144.946H168.869V139.242Z" fill="white"/>
</mask>
<g mask="url(#mask61_98_942)">
<path d="M176.329 145.615H173.439V135.549H176.329V145.615Z" fill="white"/>
</g>
<path d="M166.977 139.573C159.286 139.573 153.051 138.071 153.051 136.218C153.051 134.365 159.286 132.863 166.977 132.863C174.668 132.863 180.902 134.365 180.902 136.218C180.902 138.071 174.668 139.573 166.977 139.573Z" fill="#E48F34"/>
<path d="M157.107 136.33C158.125 135.434 162.131 134.764 166.921 134.764C171.711 134.764 175.717 135.433 176.735 136.33C176.898 136.186 176.987 136.037 176.987 135.883C176.987 134.771 172.48 133.869 166.92 133.869C161.361 133.869 156.854 134.771 156.854 135.883C156.855 136.036 156.944 136.186 157.107 136.33Z" fill="url(#paint78_linear_98_942)"/>
<path d="M180.902 134.317C180.902 136.17 174.667 137.672 166.977 137.672C159.286 137.672 153.051 136.17 153.051 134.317V128.612H180.902V134.317Z" fill="url(#paint79_linear_98_942)"/>
<mask id="mask62_98_942" style="mask-type:luminance" maskUnits="userSpaceOnUse" x="168" y="128" width="29" height="10">
<path d="M168.869 131.636C168.869 129.783 175.104 128.28 182.795 128.28C190.486 128.28 196.721 129.783 196.721 131.636V137.34H168.869V131.636Z" fill="white"/>
</mask>
<g mask="url(#mask62_98_942)">
<path d="M176.329 138.009H173.439V127.942H176.329V138.009Z" fill="white"/>
</g>
<path d="M166.977 131.968C159.286 131.968 153.051 130.465 153.051 128.612C153.051 126.759 159.286 125.257 166.977 125.257C174.668 125.257 180.902 126.759 180.902 128.612C180.902 130.465 174.668 131.968 166.977 131.968Z" fill="#E48F34"/>
<path d="M157.107 128.724C158.125 127.828 162.131 127.158 166.921 127.158C171.711 127.158 175.717 127.827 176.735 128.724C176.898 128.58 176.987 128.431 176.987 128.277C176.987 127.165 172.48 126.264 166.92 126.264C161.361 126.264 156.854 127.165 156.854 128.277C156.855 128.43 156.944 128.58 157.107 128.724Z" fill="url(#paint80_linear_98_942)"/>
<path d="M32.0799 86.4371L32.7166 87.6013C32.9483 88.0249 33.297 88.3736 33.7206 88.6053L34.8848 89.242L33.7206 89.8787C33.297 90.1104 32.9483 90.4591 32.7166 90.8827L32.0799 92.0469L31.4432 90.8827C31.2115 90.4591 30.8628 90.1104 30.4392 89.8787L29.275 89.242L30.4392 88.6053C30.8628 88.3736 31.2115 88.0249 31.4432 87.6013L32.0799 86.4371Z" fill="white"/>
<path d="M75.6447 36.5898L76.2583 37.7117C76.4814 38.1199 76.8176 38.4556 77.2258 38.6792L78.3477 39.2928L77.2258 39.9063C76.8176 40.1295 76.4819 40.4656 76.2583 40.8738L75.6447 41.9957L75.0312 40.8734C74.808 40.4651 74.4719 40.1295 74.0637 39.9059L72.9418 39.2923L74.0637 38.6787C74.4719 38.4556 74.8076 38.1195 75.0312 37.7112L75.6447 36.5898Z" fill="white"/>
<path d="M144.143 39.9559L144.757 41.0778C144.98 41.486 145.316 41.8217 145.724 42.0453L146.846 42.6589L145.724 43.2724C145.316 43.4956 144.98 43.8317 144.757 44.2399L144.143 45.3618L143.53 44.2399C143.307 43.8317 142.97 43.496 142.562 43.2724L141.44 42.6589L142.562 42.0453C142.97 41.8222 143.306 41.486 143.53 41.0778L144.143 39.9559Z" fill="white"/>
<path d="M63.3596 31.0959L63.9732 32.2178C64.1963 32.626 64.5324 32.9617 64.9406 33.1853L66.0625 33.7989L64.9406 34.4124C64.5324 34.6356 64.1968 34.9717 63.9732 35.3799L63.3596 36.5018L62.746 35.3799C62.5229 34.9717 62.1868 34.636 61.7785 34.4124L60.6567 33.7989L61.7785 33.1853C62.1868 32.9622 62.5224 32.626 62.746 32.2178L63.3596 31.0959Z" fill="white"/>
<path d="M100.341 63.3588L100.955 64.4806C101.178 64.8889 101.514 65.2245 101.922 65.4481L103.044 66.0617L101.922 66.6753C101.514 66.8984 101.178 67.2345 100.955 67.6428L100.341 68.7646L99.7274 67.6428C99.5043 67.2345 99.1682 66.8989 98.7599 66.6753L97.6381 66.0617L98.7599 65.4481C99.1682 65.225 99.5038 64.8889 99.7274 64.4806L100.341 63.3588Z" fill="white"/>
<path d="M92.882 102.061L93.4956 103.182C93.7187 103.591 94.0549 103.926 94.4631 104.15L95.585 104.763L94.4631 105.377C94.0549 105.6 93.7192 105.936 93.4956 106.345L92.882 107.466L92.2685 106.345C92.0453 105.936 91.7092 105.601 91.301 105.377L90.1791 104.763L91.301 104.15C91.7092 103.927 92.0449 103.591 92.2685 103.182L92.882 102.061Z" fill="white"/>
<path d="M78.0675 75.0701L78.9821 76.7425C79.3149 77.3513 79.8155 77.8519 80.4242 78.1846L82.0967 79.0992L80.4242 80.0138C79.8155 80.3466 79.3149 80.8471 78.9821 81.4559L78.0675 83.1283L77.153 81.4559C76.8202 80.8471 76.3196 80.3466 75.7108 80.0138L74.0384 79.0992L75.7108 78.1846C76.3196 77.8519 76.8202 77.3513 77.153 76.7425L78.0675 75.0701Z" fill="white"/>
<path d="M100.039 127.721L100.953 129.394C101.286 130.003 101.787 130.503 102.395 130.836L104.068 131.751L102.395 132.665C101.787 132.998 101.286 133.499 100.953 134.107L100.039 135.78L99.1241 134.107C98.7914 133.499 98.2908 132.998 97.682 132.665L96.0096 131.751L97.682 130.836C98.2908 130.503 98.7914 130.003 99.1241 129.394L100.039 127.721Z" fill="white"/>
<path d="M7.86798 114.243L8.50465 115.407C8.73642 115.831 9.08504 116.179 9.50868 116.411L10.6729 117.048L9.50868 117.684C9.08504 117.916 8.73642 118.265 8.50465 118.688L7.86798 119.853L7.23132 118.688C6.99955 118.265 6.65092 117.916 6.22728 117.684L5.06312 117.048L6.22728 116.411C6.65092 116.179 6.99955 115.831 7.23132 115.407L7.86798 114.243Z" fill="white"/>
<path d="M189.93 122.707L190.572 123.88C190.806 124.307 191.157 124.658 191.584 124.892L192.757 125.533L191.584 126.175C191.157 126.409 190.806 126.76 190.572 127.187L189.93 128.36L189.289 127.187C189.055 126.76 188.704 126.409 188.277 126.175L187.104 125.533L188.277 124.892C188.704 124.658 189.055 124.307 189.289 123.88L189.93 122.707Z" fill="white"/>
<path d="M21.5865 77.9231L22.4785 79.5542C22.8031 80.1476 23.2912 80.6356 23.885 80.9607L25.5161 81.8527L23.885 82.7447C23.2916 83.0693 22.8036 83.5574 22.4785 84.1512L21.5865 85.7823L20.6945 84.1507C20.3699 83.5573 19.8819 83.0693 19.288 82.7442L17.6569 81.8522L19.288 80.9602C19.8814 80.6356 20.3695 80.1476 20.6945 79.5537L21.5865 77.9231Z" fill="white"/>
<path d="M185.262 112.679L186.161 114.322C186.487 114.921 186.979 115.413 187.578 115.74L189.221 116.638L187.578 117.537C186.979 117.864 186.487 118.356 186.161 118.954L185.262 120.598L184.363 118.954C184.036 118.356 183.544 117.864 182.946 117.537L181.302 116.639L182.946 115.74C183.544 115.413 184.036 114.921 184.363 114.323L185.262 112.679Z" fill="white"/>
<path d="M117.444 158.808C117.719 162.912 124.339 166.021 132.229 165.751C140.12 165.481 146.293 161.934 146.018 157.83L145.801 154.606L117.353 155.58C117.353 155.58 117.399 158.137 117.444 158.808Z" fill="url(#paint81_linear_98_942)"/>
<mask id="mask63_98_942" style="mask-type:luminance" maskUnits="userSpaceOnUse" x="117" y="157" width="30" height="9">
<path d="M117.447 158.807C117.722 162.912 124.341 166.02 132.232 165.751C140.122 165.48 146.295 161.934 146.02 157.829" fill="white"/>
</mask>
<g mask="url(#mask63_98_942)">
<path d="M125.567 166.753L128.727 166.635L128.932 160.786L125.772 160.903L125.567 166.753Z" fill="white"/>
</g>
<path d="M117.269 154.394C117.178 150.284 123.505 146.812 131.4 146.638C139.295 146.464 145.768 149.655 145.859 153.765C145.949 157.875 139.622 161.348 131.727 161.521C123.832 161.695 117.359 158.504 117.269 154.394Z" fill="#E48F34"/>
<path d="M140.909 154.478C140.73 151.804 135.956 149.795 130.246 149.991C127.103 150.099 124.334 150.853 122.507 151.954C124.074 150.281 127.536 149.046 131.629 148.906C137.338 148.71 142.112 150.719 142.292 153.393C142.372 154.595 141.508 155.726 140.017 156.625C140.636 155.964 140.96 155.235 140.909 154.478Z" fill="#EAA700"/>
<path d="M121.505 154C121.438 151.323 126.014 149.038 131.726 148.895C137.439 148.752 142.124 150.806 142.191 153.483C142.258 156.16 137.681 158.446 131.969 158.589C126.257 158.732 121.572 156.677 121.505 154Z" stroke="#EAA700" stroke-width="1.2764" stroke-miterlimit="10"/>
<path d="M159.453 166.387C157.827 170.166 150.551 170.894 143.2 168.012C135.85 165.13 131.21 159.731 132.836 155.952L134.114 152.984L160.614 163.374C160.614 163.374 159.719 165.769 159.453 166.387Z" fill="url(#paint82_linear_98_942)"/>
<mask id="mask64_98_942" style="mask-type:luminance" maskUnits="userSpaceOnUse" x="132" y="155" width="28" height="15">
<path d="M159.455 166.387C157.828 170.166 150.552 170.893 143.201 168.012C135.852 165.13 131.211 159.731 132.837 155.952" fill="white"/>
</mask>
<g mask="url(#mask64_98_942)">
<path d="M149.15 171.175L146.21 170.011L147.964 164.427L150.905 165.591L149.15 171.175Z" fill="white"/>
</g>
<path d="M145.08 164.205C137.694 161.412 132.884 156.032 134.338 152.186C135.791 148.341 142.958 147.488 150.344 150.28C157.73 153.072 162.54 158.453 161.086 162.298C159.633 166.143 152.467 166.997 145.08 164.205Z" fill="#E48F34"/>
<path d="M138.767 154.491C139.826 152.03 144.997 151.726 150.315 153.811C153.243 154.959 155.603 156.592 156.959 158.239C156.039 156.14 153.185 153.823 149.373 152.328C144.054 150.242 138.883 150.547 137.824 153.008C137.348 154.114 137.786 155.469 138.893 156.813C138.529 155.984 138.466 155.189 138.767 154.491Z" fill="#EAA700"/>
<path d="M145.834 161.348C140.495 159.312 136.941 155.633 137.895 153.131C138.849 150.629 143.951 150.252 149.29 152.288C154.628 154.325 158.182 158.004 157.228 160.505C156.274 163.007 151.172 163.385 145.834 161.348Z" stroke="#EAA700" stroke-width="1.2764" stroke-miterlimit="10"/>
<path d="M162.431 149.865L163.277 151.414C163.586 151.977 164.049 152.441 164.613 152.749L166.161 153.596L164.613 154.443C164.049 154.751 163.586 155.214 163.277 155.778L162.431 157.326L161.584 155.778C161.276 155.214 160.812 154.751 160.248 154.443L158.7 153.596L160.248 152.749C160.812 152.441 161.276 151.977 161.584 151.414L162.431 149.865Z" fill="white"/>
<path d="M63.9716 44.4798C57.9963 44.4798 53.1523 39.6358 53.1523 33.6604C53.1523 27.6851 57.9963 22.8411 63.9716 22.8411C69.947 22.8411 74.791 27.6851 74.791 33.6604C74.791 39.6358 69.947 44.4798 63.9716 44.4798Z" fill="url(#paint83_radial_98_942)"/>
<path d="M32.7168 100.259C26.7414 100.259 21.8974 95.4155 21.8974 89.4401C21.8974 83.4647 26.7414 78.6207 32.7168 78.6207C38.6921 78.6207 43.5361 83.4647 43.5361 89.4401C43.5361 95.4155 38.6921 100.259 32.7168 100.259Z" fill="url(#paint84_radial_98_942)"/>
<path d="M100.518 143.537C94.5426 143.537 89.6986 138.693 89.6986 132.718C89.6986 126.742 94.5426 121.898 100.518 121.898C106.493 121.898 111.337 126.742 111.337 132.718C111.337 138.693 106.493 143.537 100.518 143.537Z" fill="url(#paint85_radial_98_942)"/>
<path d="M144.277 54.5777C138.302 54.5777 133.458 49.7337 133.458 43.7583C133.458 37.783 138.302 32.939 144.277 32.939C150.253 32.939 155.097 37.783 155.097 43.7583C155.097 49.7337 150.253 54.5777 144.277 54.5777Z" fill="url(#paint86_radial_98_942)"/>
<path d="M163.032 165.176C157.056 165.176 152.212 160.332 152.212 154.356C152.212 148.381 157.056 143.537 163.032 143.537C169.007 143.537 173.851 148.381 173.851 154.356C173.851 160.332 169.007 165.176 163.032 165.176Z" fill="url(#paint87_radial_98_942)"/>
<path d="M79.3613 88.719C73.3859 88.719 68.5419 83.875 68.5419 77.8996C68.5419 71.9242 73.3859 67.0802 79.3613 67.0802C85.3367 67.0802 90.1807 71.9242 90.1807 77.8996C90.1807 83.875 85.3367 88.719 79.3613 88.719Z" fill="url(#paint88_radial_98_942)"/>
<path d="M92.8261 116.128C86.8508 116.128 82.0068 111.284 82.0068 105.309C82.0068 99.3331 86.8508 94.4891 92.8261 94.4891C98.8015 94.4891 103.646 99.3331 103.646 105.309C103.646 111.284 98.8015 116.128 92.8261 116.128Z" fill="url(#paint89_radial_98_942)"/>
<path d="M186.113 127.668C180.137 127.668 175.293 122.824 175.293 116.849C175.293 110.874 180.137 106.03 186.113 106.03C192.088 106.03 196.932 110.874 196.932 116.849C196.932 122.824 192.088 127.668 186.113 127.668Z" fill="url(#paint90_radial_98_942)"/>
<defs>
<radialGradient id="paint0_radial_98_942" cx="0" cy="0" r="1" gradientUnits="userSpaceOnUse" gradientTransform="translate(94.9953 148.146) rotate(-172.802) scale(37.6442 37.6441)">
<stop stop-color="#67FFFF" stop-opacity="0.2"/>
<stop offset="1" stop-color="#67FFFF" stop-opacity="0"/>
</radialGradient>
<radialGradient id="paint1_radial_98_942" cx="0" cy="0" r="1" gradientUnits="userSpaceOnUse" gradientTransform="translate(107.028 52.8619) rotate(-172.802) scale(37.6441 37.6441)">
<stop stop-color="#67FFFF" stop-opacity="0.2"/>
<stop offset="1" stop-color="#67FFFF" stop-opacity="0"/>
</radialGradient>
<radialGradient id="paint2_radial_98_942" cx="0" cy="0" r="1" gradientUnits="userSpaceOnUse" gradientTransform="translate(53.3658 94.4866) rotate(-172.802) scale(37.6441 37.6441)">
<stop stop-color="#67FFFF" stop-opacity="0.2"/>
<stop offset="1" stop-color="#67FFFF" stop-opacity="0"/>
</radialGradient>
<radialGradient id="paint3_radial_98_942" cx="0" cy="0" r="1" gradientUnits="userSpaceOnUse" gradientTransform="translate(148.649 106.521) rotate(-172.802) scale(37.6441 37.6442)">
<stop stop-color="#67FFFF" stop-opacity="0.2"/>
<stop offset="1" stop-color="#67FFFF" stop-opacity="0"/>
</radialGradient>
<radialGradient id="paint4_radial_98_942" cx="0" cy="0" r="1" gradientUnits="userSpaceOnUse" gradientTransform="translate(141.764 135.494) rotate(-172.802) scale(40.5401 40.5401)">
<stop stop-color="#67FFFF" stop-opacity="0.2"/>
<stop offset="1" stop-color="#67FFFF" stop-opacity="0"/>
</radialGradient>
<radialGradient id="paint5_radial_98_942" cx="0" cy="0" r="1" gradientUnits="userSpaceOnUse" gradientTransform="translate(60.2525 65.5132) rotate(-172.802) scale(40.5401 40.5401)">
<stop stop-color="#67FFFF" stop-opacity="0.2"/>
<stop offset="1" stop-color="#67FFFF" stop-opacity="0"/>
</radialGradient>
<radialGradient id="paint6_radial_98_942" cx="0" cy="0" r="1" gradientUnits="userSpaceOnUse" gradientTransform="translate(66.0195 141.259) rotate(-172.802) scale(40.5401 40.5401)">
<stop stop-color="#67FFFF" stop-opacity="0.2"/>
<stop offset="1" stop-color="#67FFFF" stop-opacity="0"/>
</radialGradient>
<radialGradient id="paint7_radial_98_942" cx="0" cy="0" r="1" gradientUnits="userSpaceOnUse" gradientTransform="translate(135.999 59.7483) rotate(-172.802) scale(40.5401 40.5401)">
<stop stop-color="#67FFFF" stop-opacity="0.2"/>
<stop offset="1" stop-color="#67FFFF" stop-opacity="0"/>
</radialGradient>
<radialGradient id="paint8_radial_98_942" cx="0" cy="0" r="1" gradientUnits="userSpaceOnUse" gradientTransform="translate(124.766 148.679) rotate(-172.802) scale(40.5401 40.5401)">
<stop stop-color="#67FFFF" stop-opacity="0.2"/>
<stop offset="1" stop-color="#67FFFF" stop-opacity="0"/>
</radialGradient>
<radialGradient id="paint9_radial_98_942" cx="0" cy="0" r="1" gradientUnits="userSpaceOnUse" gradientTransform="translate(77.2489 52.3287) rotate(-172.802) scale(40.5401 40.5401)">
<stop stop-color="#67FFFF" stop-opacity="0.2"/>
<stop offset="1" stop-color="#67FFFF" stop-opacity="0"/>
</radialGradient>
<radialGradient id="paint10_radial_98_942" cx="0" cy="0" r="1" gradientUnits="userSpaceOnUse" gradientTransform="translate(52.8318 124.263) rotate(-172.802) scale(40.5401 40.5401)">
<stop stop-color="#67FFFF" stop-opacity="0.2"/>
<stop offset="1" stop-color="#67FFFF" stop-opacity="0"/>
</radialGradient>
<radialGradient id="paint11_radial_98_942" cx="0" cy="0" r="1" gradientUnits="userSpaceOnUse" gradientTransform="translate(149.184 76.7455) rotate(-172.802) scale(40.5401 40.5401)">
<stop stop-color="#67FFFF" stop-opacity="0.2"/>
<stop offset="1" stop-color="#67FFFF" stop-opacity="0"/>
</radialGradient>
<linearGradient id="paint12_linear_98_942" x1="24.3401" y1="129.586" x2="52.1911" y2="129.586" gradientUnits="userSpaceOnUse">
<stop stop-color="#F5BE00"/>
<stop offset="1" stop-color="#EAA700"/>
</linearGradient>
<linearGradient id="paint13_linear_98_942" x1="28.1431" y1="123.938" x2="48.2764" y2="123.938" gradientUnits="userSpaceOnUse">
<stop stop-color="#F5BE00"/>
<stop offset="1" stop-color="#EAA700"/>
</linearGradient>
<linearGradient id="paint14_linear_98_942" x1="24.3401" y1="121.31" x2="52.1911" y2="121.31" gradientUnits="userSpaceOnUse">
<stop stop-color="#F5BE00"/>
<stop offset="1" stop-color="#EAA700"/>
</linearGradient>
<linearGradient id="paint15_linear_98_942" x1="28.1431" y1="115.661" x2="48.2764" y2="115.661" gradientUnits="userSpaceOnUse">
<stop stop-color="#F5BE00"/>
<stop offset="1" stop-color="#EAA700"/>
</linearGradient>
<linearGradient id="paint16_linear_98_942" x1="24.3401" y1="113.704" x2="52.1911" y2="113.704" gradientUnits="userSpaceOnUse">
<stop stop-color="#F5BE00"/>
<stop offset="1" stop-color="#EAA700"/>
</linearGradient>
<linearGradient id="paint17_linear_98_942" x1="28.1431" y1="108.055" x2="48.2764" y2="108.055" gradientUnits="userSpaceOnUse">
<stop stop-color="#F5BE00"/>
<stop offset="1" stop-color="#EAA700"/>
</linearGradient>
<linearGradient id="paint18_linear_98_942" x1="24.3406" y1="106.105" x2="52.1916" y2="106.105" gradientUnits="userSpaceOnUse">
<stop stop-color="#F5BE00"/>
<stop offset="1" stop-color="#EAA700"/>
</linearGradient>
<linearGradient id="paint19_linear_98_942" x1="28.1436" y1="100.456" x2="48.2769" y2="100.456" gradientUnits="userSpaceOnUse">
<stop stop-color="#F5BE00"/>
<stop offset="1" stop-color="#EAA700"/>
</linearGradient>
<linearGradient id="paint20_linear_98_942" x1="24.3406" y1="97.8279" x2="52.1916" y2="97.8279" gradientUnits="userSpaceOnUse">
<stop stop-color="#F5BE00"/>
<stop offset="1" stop-color="#EAA700"/>
</linearGradient>
<linearGradient id="paint21_linear_98_942" x1="28.1436" y1="92.1792" x2="48.2769" y2="92.1792" gradientUnits="userSpaceOnUse">
<stop stop-color="#F5BE00"/>
<stop offset="1" stop-color="#EAA700"/>
</linearGradient>
<linearGradient id="paint22_linear_98_942" x1="6.45344" y1="136.813" x2="34.3044" y2="136.813" gradientUnits="userSpaceOnUse">
<stop stop-color="#F5BE00"/>
<stop offset="1" stop-color="#EAA700"/>
</linearGradient>
<linearGradient id="paint23_linear_98_942" x1="10.2546" y1="131.165" x2="30.3878" y2="131.165" gradientUnits="userSpaceOnUse">
<stop stop-color="#F5BE00"/>
<stop offset="1" stop-color="#EAA700"/>
</linearGradient>
<linearGradient id="paint24_linear_98_942" x1="6.45344" y1="128.536" x2="34.3044" y2="128.536" gradientUnits="userSpaceOnUse">
<stop stop-color="#F5BE00"/>
<stop offset="1" stop-color="#EAA700"/>
</linearGradient>
<linearGradient id="paint25_linear_98_942" x1="10.2546" y1="122.887" x2="30.3878" y2="122.887" gradientUnits="userSpaceOnUse">
<stop stop-color="#F5BE00"/>
<stop offset="1" stop-color="#EAA700"/>
</linearGradient>
<linearGradient id="paint26_linear_98_942" x1="6.45344" y1="120.93" x2="34.3044" y2="120.93" gradientUnits="userSpaceOnUse">
<stop stop-color="#F5BE00"/>
<stop offset="1" stop-color="#EAA700"/>
</linearGradient>
<linearGradient id="paint27_linear_98_942" x1="10.2541" y1="115.282" x2="30.3873" y2="115.282" gradientUnits="userSpaceOnUse">
<stop stop-color="#F5BE00"/>
<stop offset="1" stop-color="#EAA700"/>
</linearGradient>
<linearGradient id="paint28_linear_98_942" x1="62.8159" y1="163.405" x2="36.7976" y2="153.301" gradientUnits="userSpaceOnUse">
<stop stop-color="#F5BE00"/>
<stop offset="1" stop-color="#EAA700"/>
</linearGradient>
<linearGradient id="paint29_linear_98_942" x1="148.181" y1="69.3694" x2="158.594" y2="47.9292" gradientUnits="userSpaceOnUse">
<stop stop-color="#76B4F0"/>
<stop offset="1" stop-color="#9CD3ED"/>
</linearGradient>
<linearGradient id="paint30_linear_98_942" x1="148.766" y1="58.2548" x2="161.938" y2="58.2548" gradientUnits="userSpaceOnUse">
<stop stop-color="#8CCDEF"/>
<stop offset="1" stop-color="#31BDDD"/>
</linearGradient>
<linearGradient id="paint31_linear_98_942" x1="156.948" y1="78.861" x2="170.918" y2="59.5489" gradientUnits="userSpaceOnUse">
<stop stop-color="#76B4F0"/>
<stop offset="1" stop-color="#9CD3ED"/>
</linearGradient>
<linearGradient id="paint32_linear_98_942" x1="159.44" y1="68.0091" x2="172.413" y2="70.2905" gradientUnits="userSpaceOnUse">
<stop stop-color="#8CCDEF"/>
<stop offset="1" stop-color="#31BDDD"/>
</linearGradient>
<linearGradient id="paint33_linear_98_942" x1="158.508" y1="90.2808" x2="178.967" y2="78.0507" gradientUnits="userSpaceOnUse">
<stop stop-color="#76B4F0"/>
<stop offset="1" stop-color="#9CD3ED"/>
</linearGradient>
<linearGradient id="paint34_linear_98_942" x1="165.084" y1="81.2984" x2="176.103" y2="88.5151" gradientUnits="userSpaceOnUse">
<stop stop-color="#8CCDEF"/>
<stop offset="1" stop-color="#31BDDD"/>
</linearGradient>
<linearGradient id="paint35_linear_98_942" x1="83.8544" y1="59.4024" x2="94.2676" y2="37.9622" gradientUnits="userSpaceOnUse">
<stop stop-color="#76B4F0"/>
<stop offset="1" stop-color="#9CD3ED"/>
</linearGradient>
<linearGradient id="paint36_linear_98_942" x1="84.4463" y1="48.2851" x2="97.618" y2="48.2851" gradientUnits="userSpaceOnUse">
<stop stop-color="#8CCDEF"/>
<stop offset="1" stop-color="#31BDDD"/>
</linearGradient>
<linearGradient id="paint37_linear_98_942" x1="42.5264" y1="131.892" x2="124.495" y2="131.892" gradientUnits="userSpaceOnUse">
<stop stop-color="#362A87"/>
<stop offset="1" stop-color="#4335A5"/>
</linearGradient>
<linearGradient id="paint38_linear_98_942" x1="120.934" y1="133.326" x2="171.064" y2="133.326" gradientUnits="userSpaceOnUse">
<stop stop-color="#362A87"/>
<stop offset="1" stop-color="#281F66"/>
</linearGradient>
<linearGradient id="paint39_linear_98_942" x1="82.1519" y1="106.682" x2="82.1519" y2="159.214" gradientUnits="userSpaceOnUse">
<stop stop-color="#4D5DB7"/>
<stop offset="1" stop-color="#6998DE"/>
</linearGradient>
<linearGradient id="paint40_linear_98_942" x1="122.594" y1="134.081" x2="172.725" y2="134.081" gradientUnits="userSpaceOnUse">
<stop stop-color="#362A87"/>
<stop offset="1" stop-color="#4335A5"/>
</linearGradient>
<linearGradient id="paint41_linear_98_942" x1="42.6814" y1="111.595" x2="174.343" y2="111.595" gradientUnits="userSpaceOnUse">
<stop offset="0.1707" stop-color="#4335A5"/>
<stop offset="1" stop-color="#566DC5"/>
</linearGradient>
<linearGradient id="paint42_linear_98_942" x1="42.6751" y1="109.557" x2="174.337" y2="109.557" gradientUnits="userSpaceOnUse">
<stop offset="0.1707" stop-color="#4335A5"/>
<stop offset="1" stop-color="#566DC5"/>
</linearGradient>
<linearGradient id="paint43_linear_98_942" x1="122.381" y1="109.255" x2="178.838" y2="109.255" gradientUnits="userSpaceOnUse">
<stop stop-color="#362A87"/>
<stop offset="1" stop-color="#4335A5"/>
</linearGradient>
<linearGradient id="paint44_linear_98_942" x1="40.261" y1="105.104" x2="174.308" y2="105.104" gradientUnits="userSpaceOnUse">
<stop stop-color="#5977C8"/>
<stop offset="0.3272" stop-color="#6998DE"/>
<stop offset="1" stop-color="#5977C8"/>
</linearGradient>
<linearGradient id="paint45_linear_98_942" x1="45.5486" y1="80.5858" x2="150.283" y2="80.5858" gradientUnits="userSpaceOnUse">
<stop offset="0.1707" stop-color="#4335A5"/>
<stop offset="1" stop-color="#566DC5"/>
</linearGradient>
<linearGradient id="paint46_linear_98_942" x1="44.5413" y1="73.2338" x2="89.1026" y2="73.2338" gradientUnits="userSpaceOnUse">
<stop stop-color="#4D5DB7"/>
<stop offset="1" stop-color="#6998DE"/>
</linearGradient>
<linearGradient id="paint47_linear_98_942" x1="48.364" y1="75.5354" x2="94.5706" y2="75.5354" gradientUnits="userSpaceOnUse">
<stop offset="0.1707" stop-color="#4335A5"/>
<stop offset="1" stop-color="#566DC5"/>
</linearGradient>
<linearGradient id="paint48_linear_98_942" x1="57.5546" y1="77.4565" x2="102.29" y2="77.4565" gradientUnits="userSpaceOnUse">
<stop stop-color="#362A87"/>
<stop offset="0.447" stop-color="#4335A5"/>
<stop offset="1" stop-color="#281F66"/>
</linearGradient>
<linearGradient id="paint49_linear_98_942" x1="130.682" y1="112.552" x2="130.682" y2="57.0185" gradientUnits="userSpaceOnUse">
<stop stop-color="#4D5DB7"/>
<stop offset="1" stop-color="#6998DE"/>
</linearGradient>
<linearGradient id="paint50_linear_98_942" x1="135.586" y1="117.055" x2="135.586" y2="55.5025" gradientUnits="userSpaceOnUse">
<stop offset="0.1707" stop-color="#4335A5"/>
<stop offset="1" stop-color="#566DC5"/>
</linearGradient>
<linearGradient id="paint51_linear_98_942" x1="145.466" y1="111.583" x2="145.466" y2="62.3122" gradientUnits="userSpaceOnUse">
<stop stop-color="#362A87"/>
<stop offset="1" stop-color="#4335A5"/>
</linearGradient>
<linearGradient id="paint52_linear_98_942" x1="128.719" y1="87.3632" x2="162.505" y2="87.3632" gradientUnits="userSpaceOnUse">
<stop stop-color="#362A87"/>
<stop offset="1" stop-color="#281F66"/>
</linearGradient>
<linearGradient id="paint53_linear_98_942" x1="58.0619" y1="83.4671" x2="34.2618" y2="82.1806" gradientUnits="userSpaceOnUse">
<stop stop-color="#76B4F0"/>
<stop offset="1" stop-color="#9CD3ED"/>
</linearGradient>
<linearGradient id="paint54_linear_98_942" x1="44.1741" y1="80.8182" x2="46.7471" y2="80.8182" gradientUnits="userSpaceOnUse">
<stop stop-color="#8CCDEF"/>
<stop offset="1" stop-color="#31BDDD"/>
</linearGradient>
<linearGradient id="paint55_linear_98_942" x1="65.3949" y1="67.5743" x2="42.7252" y2="60.212" gradientUnits="userSpaceOnUse">
<stop stop-color="#76B4F0"/>
<stop offset="1" stop-color="#9CD3ED"/>
</linearGradient>
<linearGradient id="paint56_linear_98_942" x1="52.6586" y1="61.4452" x2="55.1451" y2="62.1067" gradientUnits="userSpaceOnUse">
<stop stop-color="#8CCDEF"/>
<stop offset="1" stop-color="#31BDDD"/>
</linearGradient>
<linearGradient id="paint57_linear_98_942" x1="77.4066" y1="55.6773" x2="59.9544" y2="39.4454" gradientUnits="userSpaceOnUse">
<stop stop-color="#76B4F0"/>
<stop offset="1" stop-color="#9CD3ED"/>
</linearGradient>
<linearGradient id="paint58_linear_98_942" x1="68.4405" y1="44.7508" x2="70.4163" y2="46.3988" gradientUnits="userSpaceOnUse">
<stop stop-color="#8CCDEF"/>
<stop offset="1" stop-color="#31BDDD"/>
</linearGradient>
<linearGradient id="paint59_linear_98_942" x1="122.066" y1="97.2968" x2="98.2656" y2="96.0103" gradientUnits="userSpaceOnUse">
<stop stop-color="#76B4F0"/>
<stop offset="1" stop-color="#9CD3ED"/>
</linearGradient>
<linearGradient id="paint60_linear_98_942" x1="108.181" y1="94.6479" x2="110.754" y2="94.6479" gradientUnits="userSpaceOnUse">
<stop stop-color="#8CCDEF"/>
<stop offset="1" stop-color="#31BDDD"/>
</linearGradient>
<linearGradient id="paint61_linear_98_942" x1="127.793" y1="79.4761" x2="105.123" y2="72.1139" gradientUnits="userSpaceOnUse">
<stop stop-color="#76B4F0"/>
<stop offset="1" stop-color="#9CD3ED"/>
</linearGradient>
<linearGradient id="paint62_linear_98_942" x1="115.059" y1="73.3471" x2="117.545" y2="74.0086" gradientUnits="userSpaceOnUse">
<stop stop-color="#8CCDEF"/>
<stop offset="1" stop-color="#31BDDD"/>
</linearGradient>
<linearGradient id="paint63_linear_98_942" x1="138.834" y1="69.1841" x2="121.382" y2="52.9522" gradientUnits="userSpaceOnUse">
<stop stop-color="#76B4F0"/>
<stop offset="1" stop-color="#9CD3ED"/>
</linearGradient>
<linearGradient id="paint64_linear_98_942" x1="129.872" y1="58.2576" x2="131.847" y2="59.9056" gradientUnits="userSpaceOnUse">
<stop stop-color="#8CCDEF"/>
<stop offset="1" stop-color="#31BDDD"/>
</linearGradient>
<linearGradient id="paint65_linear_98_942" x1="65.2868" y1="110.792" x2="101.968" y2="110.792" gradientUnits="userSpaceOnUse">
<stop stop-color="#362A87"/>
<stop offset="1" stop-color="#4335A5"/>
</linearGradient>
<linearGradient id="paint66_linear_98_942" x1="67.5521" y1="96.3648" x2="101.966" y2="96.3648" gradientUnits="userSpaceOnUse">
<stop stop-color="#76B4F0"/>
<stop offset="1" stop-color="#9CD3ED"/>
</linearGradient>
<linearGradient id="paint67_linear_98_942" x1="77.2018" y1="130.365" x2="77.2018" y2="94.4343" gradientUnits="userSpaceOnUse">
<stop stop-color="#4D5DB7"/>
<stop offset="1" stop-color="#6998DE"/>
</linearGradient>
<linearGradient id="paint68_linear_98_942" x1="76.5572" y1="97.1758" x2="76.5572" y2="127.597" gradientUnits="userSpaceOnUse">
<stop stop-color="#4D5DB7"/>
<stop offset="1" stop-color="#6998DE"/>
</linearGradient>
<linearGradient id="paint69_linear_98_942" x1="71.3083" y1="112.625" x2="79.9929" y2="112.625" gradientUnits="userSpaceOnUse">
<stop stop-color="#362A87"/>
<stop offset="1" stop-color="#4335A5"/>
</linearGradient>
<linearGradient id="paint70_linear_98_942" x1="75.6505" y1="102.398" x2="75.6505" y2="122.853" gradientUnits="userSpaceOnUse">
<stop stop-color="#4335A5"/>
<stop offset="1" stop-color="#567DC5"/>
</linearGradient>
<linearGradient id="paint71_linear_98_942" x1="83.587" y1="116.675" x2="86.6061" y2="116.675" gradientUnits="userSpaceOnUse">
<stop stop-color="#362A87"/>
<stop offset="1" stop-color="#4335A5"/>
</linearGradient>
<linearGradient id="paint72_linear_98_942" x1="65.3214" y1="112.749" x2="68.3405" y2="112.749" gradientUnits="userSpaceOnUse">
<stop stop-color="#362A87"/>
<stop offset="1" stop-color="#4335A5"/>
</linearGradient>
<linearGradient id="paint73_linear_98_942" x1="82.9831" y1="115.768" x2="86.0022" y2="115.768" gradientUnits="userSpaceOnUse">
<stop stop-color="#76B4F0"/>
<stop offset="1" stop-color="#9CD3ED"/>
</linearGradient>
<linearGradient id="paint74_linear_98_942" x1="65.4467" y1="112.111" x2="67.8884" y2="112.111" gradientUnits="userSpaceOnUse">
<stop stop-color="#76B4F0"/>
<stop offset="1" stop-color="#9CD3ED"/>
</linearGradient>
<linearGradient id="paint75_linear_98_942" x1="153.051" y1="149.025" x2="180.902" y2="149.025" gradientUnits="userSpaceOnUse">
<stop stop-color="#F5BE00"/>
<stop offset="1" stop-color="#EAA700"/>
</linearGradient>
<linearGradient id="paint76_linear_98_942" x1="156.855" y1="143.376" x2="176.988" y2="143.376" gradientUnits="userSpaceOnUse">
<stop stop-color="#F5BE00"/>
<stop offset="1" stop-color="#EAA700"/>
</linearGradient>
<linearGradient id="paint77_linear_98_942" x1="153.051" y1="140.748" x2="180.902" y2="140.748" gradientUnits="userSpaceOnUse">
<stop stop-color="#F5BE00"/>
<stop offset="1" stop-color="#EAA700"/>
</linearGradient>
<linearGradient id="paint78_linear_98_942" x1="156.855" y1="135.099" x2="176.988" y2="135.099" gradientUnits="userSpaceOnUse">
<stop stop-color="#F5BE00"/>
<stop offset="1" stop-color="#EAA700"/>
</linearGradient>
<linearGradient id="paint79_linear_98_942" x1="153.051" y1="133.142" x2="180.902" y2="133.142" gradientUnits="userSpaceOnUse">
<stop stop-color="#F5BE00"/>
<stop offset="1" stop-color="#EAA700"/>
</linearGradient>
<linearGradient id="paint80_linear_98_942" x1="156.855" y1="127.494" x2="176.988" y2="127.494" gradientUnits="userSpaceOnUse">
<stop stop-color="#F5BE00"/>
<stop offset="1" stop-color="#EAA700"/>
</linearGradient>
<linearGradient id="paint81_linear_98_942" x1="144.287" y1="163.331" x2="118.269" y2="153.228" gradientUnits="userSpaceOnUse">
<stop stop-color="#F5BE00"/>
<stop offset="1" stop-color="#EAA700"/>
</linearGradient>
<linearGradient id="paint82_linear_98_942" x1="132.64" y1="161.7" x2="160.537" y2="160.835" gradientUnits="userSpaceOnUse">
<stop stop-color="#F5BE00"/>
<stop offset="1" stop-color="#EAA700"/>
</linearGradient>
<radialGradient id="paint83_radial_98_942" cx="0" cy="0" r="1" gradientUnits="userSpaceOnUse" gradientTransform="translate(63.9716 33.6604) rotate(180) scale(10.8194)">
<stop stop-color="#FFFFC6" stop-opacity="0.4"/>
<stop offset="0.7236" stop-color="#FFFFC6" stop-opacity="0"/>
</radialGradient>
<radialGradient id="paint84_radial_98_942" cx="0" cy="0" r="1" gradientUnits="userSpaceOnUse" gradientTransform="translate(32.7168 89.4401) rotate(180) scale(10.8194)">
<stop stop-color="#FFFFC6" stop-opacity="0.4"/>
<stop offset="0.7236" stop-color="#FFFFC6" stop-opacity="0"/>
</radialGradient>
<radialGradient id="paint85_radial_98_942" cx="0" cy="0" r="1" gradientUnits="userSpaceOnUse" gradientTransform="translate(100.518 132.718) rotate(180) scale(10.8194)">
<stop stop-color="#FFFFC6" stop-opacity="0.4"/>
<stop offset="0.7236" stop-color="#FFFFC6" stop-opacity="0"/>
</radialGradient>
<radialGradient id="paint86_radial_98_942" cx="0" cy="0" r="1" gradientUnits="userSpaceOnUse" gradientTransform="translate(144.277 43.7583) rotate(180) scale(10.8194)">
<stop stop-color="#FFFFC6" stop-opacity="0.4"/>
<stop offset="0.7236" stop-color="#FFFFC6" stop-opacity="0"/>
</radialGradient>
<radialGradient id="paint87_radial_98_942" cx="0" cy="0" r="1" gradientUnits="userSpaceOnUse" gradientTransform="translate(163.032 154.356) rotate(180) scale(10.8194)">
<stop stop-color="#FFFFC6" stop-opacity="0.4"/>
<stop offset="0.7236" stop-color="#FFFFC6" stop-opacity="0"/>
</radialGradient>
<radialGradient id="paint88_radial_98_942" cx="0" cy="0" r="1" gradientUnits="userSpaceOnUse" gradientTransform="translate(79.3613 77.8996) rotate(180) scale(10.8194)">
<stop stop-color="#FFFFC6" stop-opacity="0.4"/>
<stop offset="0.7236" stop-color="#FFFFC6" stop-opacity="0"/>
</radialGradient>
<radialGradient id="paint89_radial_98_942" cx="0" cy="0" r="1" gradientUnits="userSpaceOnUse" gradientTransform="translate(92.8261 105.309) rotate(180) scale(10.8194)">
<stop stop-color="#FFFFC6" stop-opacity="0.4"/>
<stop offset="0.7236" stop-color="#FFFFC6" stop-opacity="0"/>
</radialGradient>
<radialGradient id="paint90_radial_98_942" cx="0" cy="0" r="1" gradientUnits="userSpaceOnUse" gradientTransform="translate(186.113 116.849) rotate(180) scale(10.8194)">
<stop stop-color="#FFFFC6" stop-opacity="0.4"/>
<stop offset="0.7236" stop-color="#FFFFC6" stop-opacity="0"/>
</radialGradient>
</defs>
</svg>
